<svg width="40" height="40" viewBox="0 0 40 40" fill="none" xmlns="http://www.w3.org/2000/svg">
<path d="M20 3.66667C25.3333 3.66667 26 3.66667 28.1667 3.83333C33.6667 4 36.1667 6.66667 36.3333 12C36.5 14.1667 36.5 14.6667 36.5 20C36.5 25.3333 36.5 26 36.3333 28C36.1667 33.3333 33.5 36 28.1667 36.1667C26 36.3333 25.5 36.3333 20 36.3333C14.6667 36.3333 14 36.3333 12 36.1667C6.5 36 4 33.3333 3.83333 28C3.66667 25.8333 3.66667 25.3333 3.66667 20C3.66667 14.6667 3.66667 14 3.83333 12C4 6.66667 6.66667 4 12 3.83333C14 3.66667 14.6667 3.66667 20 3.66667ZM20 0C14.5 0 13.8333 0 11.8333 0.166667C4.5 0.5 0.5 4.5 0.166667 11.8333C0 13.8333 0 14.5 0 20C0 25.5 0 26.1667 0.166667 28.1667C0.5 35.5 4.5 39.5 11.8333 39.8333C13.8333 40 14.5 40 20 40C25.5 40 26.1667 40 28.1667 39.8333C35.5 39.5 39.5 35.5 39.8333 28.1667C40 26.1667 40 25.5 40 20C40 14.5 40 13.8333 39.8333 11.8333C39.5 4.5 35.5 0.5 28.1667 0.166667C26.1667 0 25.5 0 20 0ZM20 9.66667C14.3333 9.66667 9.66667 14.3333 9.66667 20C9.66667 25.6667 14.3333 30.3333 20 30.3333C25.6667 30.3333 30.3333 25.6667 30.3333 20C30.3333 14.3333 25.6667 9.66667 20 9.66667ZM20 26.6667C16.3333 26.6667 13.3333 23.6667 13.3333 20C13.3333 16.3333 16.3333 13.3333 20 13.3333C23.6667 13.3333 26.6667 16.3333 26.6667 20C26.6667 23.6667 23.6667 26.6667 20 26.6667ZM30.6667 7C29.3333 7 28.3333 8 28.3333 9.33333C28.3333 10.6667 29.3333 11.6667 30.6667 11.6667C32 11.6667 33 10.6667 33 9.33333C33 8 32 7 30.6667 7Z" fill="white" fill-opacity="0.5"/>
</svg>
