<svg width="229" height="40" viewBox="0 0 229 40" fill="none" xmlns="http://www.w3.org/2000/svg">
<g clip-path="url(#clip0)">
<path d="M34.45 20.1258L22.7564 0L11.5254 19.8742L23.0508 26.5409L34.45 20.1258Z" fill="#4349FF"/>
<path d="M11.5254 19.874L0 39.9998L23.0508 26.5407L11.5254 19.874Z" fill="#A9DF85"/>
<path d="M34.45 20.126L46.1016 40.0002L23.0508 26.5411L34.45 20.126Z" fill="#2399E2"/>
<path d="M0 40.0001L23.0508 26.541L46.1017 40.0001H0Z" fill="#FFE900"/>
</g>
<path d="M68.4462 27.068H64V12.6294H68.5103C73.6191 12.6294 76.8041 15.2947 76.8041 19.8277C76.8041 24.1089 73.6405 27.068 68.4462 27.068ZM68.5744 15.4416H67.0354V24.2349H68.5317C71.5884 24.2349 73.6832 22.6609 73.6832 19.8067C73.6832 16.9736 71.4602 15.4416 68.5744 15.4416Z" fill="black" fill-opacity="0.5"/>
<path d="M101.942 12C102.968 12 103.78 12.7975 103.78 13.7838C103.78 14.7702 102.968 15.5677 101.942 15.5677C100.959 15.5677 100.146 14.7702 100.146 13.7838C100.125 12.7975 100.959 12 101.942 12ZM100.488 27.0682H103.417V17.2256H100.488V27.0682Z" fill="black" fill-opacity="0.5"/>
<path d="M125.413 21.6119C125.413 20.5206 124.878 19.7021 123.681 19.7021C122.441 19.7021 121.864 20.6045 121.864 21.6119V27.0683H118.936V18.1701L121.843 16.5122V18.5059H121.864C122.634 17.1838 124.323 17.0369 124.707 17.0369C127.251 17.0369 128.341 18.9256 128.341 20.9613V27.0893H125.413V21.6119Z" fill="black" fill-opacity="0.5"/>
<path d="M95.2944 21.024L93.9049 20.7512C93.3919 20.6463 93.114 20.3944 93.114 20.0376C93.114 19.5969 93.5629 19.2192 94.2256 19.2192C95.0592 19.2192 95.5509 19.7019 95.6791 20.3734L97.9877 19.0723C97.5175 18.0649 96.3418 16.9946 94.2042 16.9946C92.0025 16.9946 90.3779 18.4427 90.3779 20.2265C90.3779 21.6326 91.3398 22.6609 93.285 23.1017L94.5462 23.3745C95.3157 23.5424 95.5295 23.8991 95.5295 24.2139C95.5295 24.5707 95.1875 25.0534 94.3538 25.0534C93.3919 25.0534 92.7934 24.3818 92.7293 23.7312L90.3779 25.0534C90.8482 26.0817 92.0666 27.2779 94.3966 27.2779C97.0472 27.2779 98.3725 25.641 98.3725 24.0251C98.3297 22.577 97.2823 21.4227 95.2944 21.024Z" fill="black" fill-opacity="0.5"/>
<path d="M113.293 17.2255V18.4008C112.267 17.2045 110.899 17.0786 110.279 17.0786C107.372 17.0786 105.533 19.597 105.533 22.0944C105.533 24.8646 107.478 27.0681 110.364 27.0681C111.091 27.0681 112.373 26.9002 113.25 25.746H113.293V26.8792C113.293 28.7051 112.01 29.4816 110.599 29.4816C109.253 29.4816 108.483 28.6421 108.291 27.7397L105.79 29.1458C106.431 30.6778 108.162 31.9999 110.728 31.9999C113.913 31.9999 116.221 30.1741 116.221 27.6977V19.8068V17.8971V17.2255H113.293ZM110.941 24.5707C109.595 24.5707 108.504 23.5634 108.504 22.0944C108.504 20.6463 109.595 19.618 110.941 19.618C112.309 19.618 113.378 20.6253 113.378 22.0734C113.378 23.5634 112.309 24.5707 110.941 24.5707Z" fill="black" fill-opacity="0.5"/>
<path d="M85.9531 23.6053C85.6111 24.4028 84.692 24.9065 83.8369 24.9065C82.6185 24.9065 81.5497 24.193 81.3787 22.9757H88.6679C88.7106 22.64 88.7106 22.2832 88.7106 21.9474C88.7106 19.0303 86.7013 17.0156 83.7087 17.0156C80.8229 17.0156 78.4075 19.3031 78.4075 22.1573C78.4075 25.2003 80.8657 27.2989 83.9011 27.2989C85.718 27.2989 87.4067 26.4385 88.1976 24.8435L85.9531 23.6053ZM83.6018 19.3241C85.0767 19.3241 85.6966 20.3315 85.7394 21.045H81.4428C81.5497 20.3944 82.2979 19.3241 83.6018 19.3241Z" fill="black" fill-opacity="0.5"/>
<path d="M204.204 22.703C204.204 23.7943 204.717 24.5918 205.936 24.5918C207.154 24.5918 207.731 23.7104 207.731 22.703V17.2256H210.66V27.0682H207.774V25.851H207.752C206.748 27.299 205.23 27.278 204.952 27.278C202.451 27.278 201.276 25.4312 201.276 23.4166V17.2256H204.204V22.703Z" fill="black" fill-opacity="0.5"/>
<path d="M188.771 14.1616L185.885 15.7776V17.2256H183.897V19.702H185.842V23.5845C185.842 25.2005 186.355 27.1942 189.476 27.1942C189.797 27.1942 190.545 27.1732 191.208 26.9633V24.6338C190.695 24.6968 190.609 24.6968 190.182 24.6968C189.198 24.6968 188.771 24.1931 188.771 23.4376V19.723H191.251V17.2256H188.771V14.1616Z" fill="black" fill-opacity="0.5"/>
<path d="M168.293 23.5848C167.951 24.3823 167.032 24.886 166.177 24.886C164.958 24.886 163.889 24.1725 163.718 22.9552H171.007C171.05 22.6195 171.05 22.2627 171.05 21.9269C171.05 19.0098 169.041 16.9951 166.048 16.9951C163.163 16.9951 160.747 19.2826 160.747 22.1368C160.747 25.1798 163.205 27.2784 166.241 27.2784C168.058 27.2784 169.746 26.418 170.537 24.823L168.293 23.5848ZM165.963 19.3246C167.438 19.3246 168.058 20.3319 168.1 21.0455H163.782C163.889 20.3949 164.637 19.3246 165.963 19.3246Z" fill="black" fill-opacity="0.5"/>
<path d="M177.933 24.6342C176.501 24.6342 175.518 23.5848 175.518 22.1368C175.518 20.5838 176.608 19.6604 177.912 19.6604C179.173 19.6604 179.943 20.4159 180.156 21.1714L182.636 19.7863C181.888 17.9395 179.857 17.0371 177.955 17.0371C174.877 17.0371 172.482 19.3036 172.482 22.1997C172.482 25.1378 174.727 27.3204 177.891 27.3204C179.857 27.3204 181.845 26.397 182.679 24.5292L180.22 23.1441C179.964 23.8577 179.216 24.6342 177.933 24.6342Z" fill="black" fill-opacity="0.5"/>
<path d="M154.484 17.0369C153.8 17.0369 152.389 17.1838 151.406 18.4429H151.363V17.2257V16.4912L148.456 18.1491V19.3034V27.0473V31.9372H151.385V25.977H151.427C152.368 27.1103 153.672 27.2572 154.399 27.2572C157.327 27.2572 159.251 24.6759 159.251 22.1365C159.251 19.6392 157.434 17.0369 154.484 17.0369ZM153.8 24.6549C152.432 24.6549 151.32 23.6476 151.32 22.1365C151.32 20.6465 152.411 19.6392 153.779 19.6392C155.147 19.6392 156.258 20.6465 156.258 22.1365C156.28 23.6266 155.168 24.6549 153.8 24.6549Z" fill="black" fill-opacity="0.5"/>
<path d="M225.473 16.9949C224.02 16.9949 223.079 17.5196 222.138 18.5689C221.561 17.4986 220.407 16.9949 219.21 16.9949C218.077 16.9949 216.859 17.5196 216.281 18.5059H216.26V16.5962L213.396 18.1912V27.0474H216.303V21.5909C216.303 20.4577 216.901 19.6812 218.098 19.6812C219.295 19.6812 219.723 20.5206 219.723 21.5909V27.0474H222.63V21.57C222.63 20.4577 223.25 19.7022 224.426 19.7022C225.623 19.7022 226.05 20.4997 226.05 21.57V27.0684H228.979V20.9194C229 18.6738 227.931 16.9949 225.473 16.9949Z" fill="black" fill-opacity="0.5"/>
<path d="M198.839 17.121C197.813 17.121 196.787 17.5407 196.252 18.653H196.231V16.9321L193.452 18.4641V19.4505V27.0476H196.317V22.7663C196.317 20.9405 197.3 19.9752 198.711 19.9752C198.839 19.9752 199.266 19.9751 199.651 20.0381V17.2259C199.416 17.163 199.053 17.121 198.839 17.121Z" fill="black" fill-opacity="0.5"/>
<path d="M142.107 18.5479L140.055 18.1702C138.987 17.9813 138.538 17.3727 138.538 16.6801C138.538 15.8407 139.435 15.0852 140.675 15.0852C142.172 15.0852 143.005 15.9036 143.24 17.0369L145.848 15.5679C145.314 13.9309 143.668 12.3989 140.697 12.3989C137.875 12.3989 135.502 14.3297 135.502 16.89C135.502 19.0936 137.041 20.5836 139.414 21.0453L141.488 21.444C142.514 21.6329 143.155 22.2415 143.155 22.9551C143.155 23.8365 142.343 24.592 140.953 24.592C139.35 24.592 138.067 23.7316 137.811 22.1786L135.182 23.6896C135.887 25.9141 137.725 27.2992 140.868 27.2992C144.352 27.2992 146.276 25.0327 146.276 22.8082C146.276 20.7515 144.822 19.0306 142.107 18.5479Z" fill="black" fill-opacity="0.5"/>
<defs>
<clipPath id="clip0">
<rect width="46.1017" height="40" fill="white"/>
</clipPath>
</defs>
</svg>
