<svg width="229" height="40" viewBox="0 0 229 40" fill="none" xmlns="http://www.w3.org/2000/svg">
<g clip-path="url(#clip0)">
<path d="M34.45 20.1258L22.7564 0L11.5254 19.8742L23.0508 26.5409L34.45 20.1258Z" fill="#4349FF"/>
<path d="M11.5254 19.8743L0 40.0001L23.0508 26.5409L11.5254 19.8743Z" fill="#A9DF85"/>
<path d="M34.45 20.1257L46.1016 39.9999L23.0508 26.5408L34.45 20.1257Z" fill="#2399E2"/>
<path d="M0 40L23.0508 26.5409L46.1017 40H0Z" fill="#FFE900"/>
</g>
<path d="M68.4462 27.0683H64V12.6296H68.5103C73.6191 12.6296 76.8041 15.2949 76.8041 19.828C76.8041 24.1092 73.6405 27.0683 68.4462 27.0683ZM68.5744 15.4418H67.0354V24.2351H68.5317C71.5884 24.2351 73.6832 22.6611 73.6832 19.807C73.6832 16.9738 71.4602 15.4418 68.5744 15.4418Z" fill="white" fill-opacity="0.5"/>
<path d="M101.942 12C102.968 12 103.78 12.7975 103.78 13.7838C103.78 14.7702 102.968 15.5677 101.942 15.5677C100.959 15.5677 100.146 14.7702 100.146 13.7838C100.125 12.7975 100.959 12 101.942 12ZM100.488 27.0682H103.417V17.2256H100.488V27.0682Z" fill="white" fill-opacity="0.5"/>
<path d="M125.413 21.6118C125.413 20.5205 124.878 19.702 123.681 19.702C122.441 19.702 121.864 20.6044 121.864 21.6118V27.0682H118.936V18.17L121.843 16.5121V18.5058H121.864C122.634 17.1836 124.323 17.0367 124.707 17.0367C127.251 17.0367 128.341 18.9255 128.341 20.9612V27.0892H125.413V21.6118Z" fill="white" fill-opacity="0.5"/>
<path d="M95.2944 21.0241L93.9049 20.7513C93.3919 20.6464 93.114 20.3945 93.114 20.0378C93.114 19.5971 93.5629 19.2193 94.2256 19.2193C95.0592 19.2193 95.5509 19.702 95.6791 20.3736L97.9877 19.0724C97.5175 18.0651 96.3418 16.9948 94.2042 16.9948C92.0025 16.9948 90.3779 18.4428 90.3779 20.2266C90.3779 21.6327 91.3398 22.6611 93.285 23.1018L94.5462 23.3746C95.3157 23.5425 95.5295 23.8993 95.5295 24.2141C95.5295 24.5708 95.1875 25.0535 94.3538 25.0535C93.3919 25.0535 92.7934 24.3819 92.7293 23.7314L90.3779 25.0535C90.8482 26.0818 92.0666 27.2781 94.3966 27.2781C97.0472 27.2781 98.3725 25.6411 98.3725 24.0252C98.3297 22.5771 97.2823 21.4229 95.2944 21.0241Z" fill="white" fill-opacity="0.5"/>
<path d="M113.293 17.2256V18.4009C112.267 17.2047 110.899 17.0787 110.279 17.0787C107.372 17.0787 105.533 19.5971 105.533 22.0945C105.533 24.8647 107.478 27.0682 110.364 27.0682C111.091 27.0682 112.373 26.9004 113.25 25.7461H113.293V26.8794C113.293 28.7052 112.01 29.4817 110.599 29.4817C109.253 29.4817 108.483 28.6422 108.291 27.7398L105.79 29.1459C106.431 30.6779 108.162 32 110.728 32C113.913 32 116.221 30.1742 116.221 27.6978V19.807V17.8972V17.2256H113.293ZM110.941 24.5709C109.595 24.5709 108.504 23.5635 108.504 22.0945C108.504 20.6464 109.595 19.6181 110.941 19.6181C112.309 19.6181 113.378 20.6254 113.378 22.0735C113.378 23.5635 112.309 24.5709 110.941 24.5709Z" fill="white" fill-opacity="0.5"/>
<path d="M85.9531 23.6055C85.6111 24.4029 84.692 24.9066 83.8369 24.9066C82.6185 24.9066 81.5497 24.1931 81.3787 22.9759H88.6679C88.7106 22.6401 88.7106 22.2833 88.7106 21.9475C88.7106 19.0304 86.7013 17.0157 83.7087 17.0157C80.8229 17.0157 78.4075 19.3033 78.4075 22.1574C78.4075 25.2004 80.8657 27.2991 83.9011 27.2991C85.718 27.2991 87.4067 26.4386 88.1976 24.8437L85.9531 23.6055ZM83.6018 19.3242C85.0767 19.3242 85.6966 20.3316 85.7394 21.0451H81.4428C81.5497 20.3945 82.2979 19.3242 83.6018 19.3242Z" fill="white" fill-opacity="0.5"/>
<path d="M204.204 22.703C204.204 23.7943 204.717 24.5918 205.936 24.5918C207.154 24.5918 207.731 23.7104 207.731 22.703V17.2256H210.66V27.0682H207.774V25.851H207.752C206.748 27.299 205.23 27.278 204.952 27.278C202.451 27.278 201.276 25.4312 201.276 23.4166V17.2256H204.204V22.703Z" fill="white" fill-opacity="0.5"/>
<path d="M188.771 14.1615L185.885 15.7774V17.2255H183.897V19.7019H185.842V23.5844C185.842 25.2003 186.355 27.194 189.476 27.194C189.797 27.194 190.545 27.173 191.208 26.9632V24.6337C190.695 24.6967 190.609 24.6967 190.182 24.6967C189.198 24.6967 188.771 24.193 188.771 23.4375V19.7229H191.251V17.2255H188.771V14.1615Z" fill="white" fill-opacity="0.5"/>
<path d="M168.293 23.5843C167.951 24.3818 167.032 24.8855 166.177 24.8855C164.958 24.8855 163.889 24.172 163.718 22.9548H171.007C171.05 22.619 171.05 22.2622 171.05 21.9264C171.05 19.0093 169.041 16.9946 166.048 16.9946C163.163 16.9946 160.747 19.2821 160.747 22.1363C160.747 25.1793 163.205 27.2779 166.241 27.2779C168.058 27.2779 169.746 26.4175 170.537 24.8225L168.293 23.5843ZM165.963 19.3241C167.438 19.3241 168.058 20.3315 168.1 21.045H163.782C163.889 20.3944 164.637 19.3241 165.963 19.3241Z" fill="white" fill-opacity="0.5"/>
<path d="M177.933 24.6337C176.501 24.6337 175.518 23.5844 175.518 22.1363C175.518 20.5833 176.608 19.6599 177.912 19.6599C179.173 19.6599 179.943 20.4154 180.156 21.1709L182.636 19.7858C181.888 17.939 179.857 17.0366 177.955 17.0366C174.877 17.0366 172.482 19.3031 172.482 22.1993C172.482 25.1373 174.727 27.3199 177.891 27.3199C179.857 27.3199 181.845 26.3965 182.679 24.5287L180.22 23.1436C179.964 23.8572 179.216 24.6337 177.933 24.6337Z" fill="white" fill-opacity="0.5"/>
<path d="M154.484 17.0366C153.8 17.0366 152.389 17.1835 151.406 18.4427H151.363V17.2255V16.491L148.456 18.1489V19.3031V27.0471V31.9369H151.385V25.9768H151.427C152.368 27.1101 153.672 27.257 154.399 27.257C157.327 27.257 159.251 24.6756 159.251 22.1363C159.251 19.6389 157.434 17.0366 154.484 17.0366ZM153.8 24.6547C152.432 24.6547 151.32 23.6473 151.32 22.1363C151.32 20.6463 152.411 19.6389 153.779 19.6389C155.147 19.6389 156.258 20.6463 156.258 22.1363C156.28 23.6263 155.168 24.6547 153.8 24.6547Z" fill="white" fill-opacity="0.5"/>
<path d="M225.473 16.9947C224.02 16.9947 223.079 17.5193 222.138 18.5687C221.561 17.4984 220.407 16.9947 219.21 16.9947C218.077 16.9947 216.859 17.5193 216.281 18.5057H216.26V16.5959L213.396 18.1909V27.0472H216.303V21.5907C216.303 20.4574 216.901 19.6809 218.098 19.6809C219.295 19.6809 219.723 20.5204 219.723 21.5907V27.0472H222.63V21.5697C222.63 20.4574 223.25 19.7019 224.426 19.7019C225.623 19.7019 226.05 20.4994 226.05 21.5697V27.0681H228.979V20.9191C229 18.6736 227.931 16.9947 225.473 16.9947Z" fill="white" fill-opacity="0.5"/>
<path d="M198.839 17.1206C197.813 17.1206 196.787 17.5404 196.252 18.6526H196.231V16.9318L193.452 18.4638V19.4501V27.0472H196.317V22.766C196.317 20.9402 197.3 19.9748 198.711 19.9748C198.839 19.9748 199.266 19.9748 199.651 20.0377V17.2256C199.416 17.1626 199.053 17.1206 198.839 17.1206Z" fill="white" fill-opacity="0.5"/>
<path d="M142.107 18.5477L140.055 18.1699C138.987 17.9811 138.538 17.3724 138.538 16.6799C138.538 15.8404 139.435 15.0849 140.675 15.0849C142.172 15.0849 143.005 15.9034 143.24 17.0367L145.848 15.5676C145.314 13.9307 143.668 12.3987 140.697 12.3987C137.875 12.3987 135.502 14.3294 135.502 16.8898C135.502 19.0933 137.041 20.5834 139.414 21.0451L141.488 21.4438C142.514 21.6327 143.155 22.2413 143.155 22.9548C143.155 23.8362 142.343 24.5918 140.953 24.5918C139.35 24.5918 138.067 23.7313 137.811 22.1783L135.182 23.6893C135.887 25.9139 137.725 27.299 140.868 27.299C144.352 27.299 146.276 25.0325 146.276 22.8079C146.276 20.7512 144.822 19.0304 142.107 18.5477Z" fill="white" fill-opacity="0.5"/>
<defs>
<clipPath id="clip0">
<rect width="46.1017" height="40" fill="white"/>
</clipPath>
</defs>
</svg>
