<svg xmlns="http://www.w3.org/2000/svg" xmlns:xlink="http://www.w3.org/1999/xlink" viewBox="0 0 302.58 76.72"><defs><style>.cls-1{fill:none;}.cls-2{clip-path:url(#clip-path);}.cls-3{fill:#231815;}</style><clipPath id="clip-path" transform="translate(-25.51 -25.51)"><rect class="cls-1" width="353.6" height="127.74"/></clipPath></defs><title>comp</title><g id="레이어_2" data-name="레이어 2"><g id="레이어_1-2" data-name="레이어 1"><g class="cls-2"><path class="cls-3" d="M25.51,38.69c0-7.74,5.94-13.18,14-13.18,4.93,0,8.82,1.8,11.3,5l-5.36,4.79a6.82,6.82,0,0,0-5.51-3c-3.53,0-5.9,2.44-5.9,6.3S36.45,45,40,45A6.79,6.79,0,0,0,45.49,42l5.36,4.79c-2.48,3.24-6.37,5-11.3,5-8.1,0-14-5.44-14-13.17" transform="translate(-25.51 -25.51)"/><path class="cls-3" d="M59,38.69c0-7.64,6-13.18,14.21-13.18s14.22,5.54,14.22,13.18-6,13.17-14.22,13.17S59,46.32,59,38.69m19.87,0c0-3.93-2.52-6.3-5.66-6.3s-5.65,2.37-5.65,6.3S70,45,73.17,45s5.66-2.37,5.66-6.29" transform="translate(-25.51 -25.51)"/><polygon class="cls-3" points="94.68 25.77 94.61 14.29 89.13 23.5 85.39 23.5 79.92 14.69 79.92 25.77 72.18 25.77 72.18 0.58 79.16 0.58 87.37 14 95.36 0.58 102.34 0.58 102.42 25.77 94.68 25.77"/><path class="cls-3" d="M162.85,35.59c0,5.83-4.46,9.5-11.48,9.5h-3.64v6.19h-8.49V26.09h12.13c7,0,11.48,3.67,11.48,9.5m-8.57,0c0-1.84-1.11-3-3.45-3h-3.1v5.9h3.1c2.34,0,3.45-1.11,3.45-2.95" transform="translate(-25.51 -25.51)"/><path class="cls-3" d="M188.73,46.89h-9.57l-1.69,4.39h-8.64l11-25.19h8.35l11,25.19h-8.78Zm-2.34-6.12L184,34.44l-2.45,6.33Z" transform="translate(-25.51 -25.51)"/><polygon class="cls-3" points="207.1 0.58 207.1 25.77 200.12 25.77 190.55 14.33 190.55 25.77 182.27 25.77 182.27 0.58 189.25 0.58 198.82 12.02 198.82 0.58 207.1 0.58"/><path class="cls-3" d="M242.92,38.69c0-7.64,6-13.18,14.21-13.18s14.22,5.54,14.22,13.18-6,13.17-14.22,13.17-14.21-5.54-14.21-13.17m19.86,0c0-3.93-2.52-6.3-5.65-6.3s-5.65,2.37-5.65,6.3S254,45,257.13,45s5.65-2.37,5.65-6.29" transform="translate(-25.51 -25.51)"/><rect class="cls-3" x="256.14" y="0.58" width="8.5" height="25.2"/><path class="cls-3" d="M301.45,26.09h12.42c8.42,0,14.22,4.78,14.22,12.6s-5.8,12.59-14.22,12.59H301.45Zm12.06,18.57c3.56,0,6-2.12,6-6s-2.45-6-6-6H310V44.66Z" transform="translate(-25.51 -25.51)"/><polygon class="cls-3" points="0 51.09 5.83 51.09 5.83 71.53 18.46 71.53 18.46 76.29 0 76.29 0 51.09"/><path class="cls-3" d="M132.9,96.4H121.2L119,101.8h-6l11.23-25.2H130l11.27,25.2h-6.12ZM131.06,92l-4-9.64-4,9.64Z" transform="translate(-25.51 -25.51)"/><path class="cls-3" d="M235.82,94.92c0,4.36-3.46,6.88-10.08,6.88h-13V76.6H225c6.3,0,9.54,2.63,9.54,6.55a6.07,6.07,0,0,1-3.35,5.55,6.22,6.22,0,0,1,4.61,6.22M218.5,81v5.94h5.8c2.84,0,4.39-1,4.39-3s-1.55-3-4.39-3ZM230,94.31c0-2.12-1.62-3.13-4.64-3.13H218.5v6.23h6.81c3,0,4.64-.94,4.64-3.1" transform="translate(-25.51 -25.51)"/><path class="cls-3" d="M307.1,99.32l2-4.4a14.8,14.8,0,0,0,8.32,2.63c3.45,0,4.85-1.15,4.85-2.7,0-4.71-14.65-1.47-14.65-10.83,0-4.29,3.46-7.85,10.62-7.85A17,17,0,0,1,327,78.4l-1.8,4.43a14.25,14.25,0,0,0-7-2c-3.46,0-4.79,1.3-4.79,2.88,0,4.64,14.65,1.44,14.65,10.69,0,4.21-3.49,7.81-10.69,7.81-4,0-8-1.19-10.26-2.91" transform="translate(-25.51 -25.51)"/></g></g></g></svg>