<svg xmlns="http://www.w3.org/2000/svg" viewBox="0 0 107.03 53.53"><defs><style>.cls-1{fill:#6356a3;}</style></defs><title>design-press</title><g id="레이어_2" data-name="레이어 2"><g id="Layer_1" data-name="Layer 1"><path class="cls-1" d="M0,31.22H10.45c4.86,0,7.51,3.22,7.51,7.06s-2.68,7-7.51,7H4.76v7.85H0Zm9.82,4H4.76v6H9.82a3,3,0,1,0,0-6Z"/><path class="cls-1" d="M31.16,45.28H27.68v7.85H22.92V31.22H33.38c4.65,0,7.5,3,7.5,7.06A6.32,6.32,0,0,1,36,44.79l5,8.34H35.55Zm1.51-10.05h-5v6h5a3,3,0,1,0,0-6Z"/><path class="cls-1" d="M46.48,31.22H62.29v4h-11V40H62.06v4H51.24v5.09h11v4H46.48Z"/><path class="cls-1" d="M69.1,46.5a9.87,9.87,0,0,0,7.1,3c2.62,0,3.89-1.21,3.89-2.46,0-1.64-2-2.2-4.53-2.79-3.65-.82-8.34-1.81-8.34-6.7,0-3.65,3.22-6.61,8.48-6.61A12.55,12.55,0,0,1,84.41,34l-2.65,3.41A9.65,9.65,0,0,0,75.36,35c-2.14,0-3.28.92-3.28,2.23,0,1.48,1.88,1.94,4.46,2.53,3.68.82,8.37,1.91,8.37,6.77,0,4-2.91,7-8.94,7A13,13,0,0,1,66.48,50Z"/><path class="cls-1" d="M91.22,46.5a9.87,9.87,0,0,0,7.1,3c2.61,0,3.89-1.21,3.89-2.46,0-1.64-1.95-2.2-4.53-2.79-3.65-.82-8.34-1.81-8.34-6.7,0-3.65,3.22-6.61,8.48-6.61A12.55,12.55,0,0,1,106.53,34l-2.65,3.41A9.65,9.65,0,0,0,97.48,35c-2.14,0-3.28.92-3.28,2.23,0,1.48,1.87,1.94,4.45,2.53,3.69.82,8.38,1.91,8.38,6.77,0,4-2.91,7-9,7A13,13,0,0,1,88.6,50Z"/><path class="cls-1" d="M0,.36H7.37a10.55,10.55,0,0,1,11,11c0,6.25-4.34,10.94-11,10.94H0ZM7.37,19.84c5.22,0,8.25-3.81,8.25-8.51S12.69,2.79,7.37,2.79H2.71V19.84Z"/><path class="cls-1" d="M22.25.36H36.32V2.79H24.92V9.86H36.09v2.43H24.92v7.55h11.4v2.43H22.25Z"/><path class="cls-1" d="M40.54,17.12a9,9,0,0,0,6.76,3.12c3.83,0,5.05-2.11,5.05-3.78,0-2.63-2.61-3.35-5.44-4.14-3.44-.92-7.28-1.91-7.28-6.21C39.63,2.5,42.79,0,47,0a10,10,0,0,1,7.63,3.06L53,5.09a8.18,8.18,0,0,0-6.22-2.63C44.24,2.46,42.4,3.88,42.4,6s2.48,2.85,5.22,3.61c3.51.95,7.5,2.07,7.5,6.67,0,3.19-2.12,6.44-7.92,6.44A10.56,10.56,0,0,1,39,19.19Z"/><path class="cls-1" d="M58.79.36h2.67V22.27H58.79Z"/><path class="cls-1" d="M76.34,0a10.17,10.17,0,0,1,8.34,4.11L82.55,5.45a7.87,7.87,0,0,0-6.21-3c-4.7,0-8.28,3.68-8.28,8.9s3.58,8.94,8.28,8.94A8.36,8.36,0,0,0,82.1,17.9V13.44H74.73V11h10v7.92a11.06,11.06,0,0,1-8.43,3.78c-6.12,0-11-4.57-11-11.37S70.22,0,76.34,0Z"/><path class="cls-1" d="M91.47,4.6V22.27H88.8V.36h2.74L103.9,17.67V.36h2.67V22.27H104Z"/></g></g></svg>