<svg xmlns="http://www.w3.org/2000/svg" viewBox="0 0 422.8 77.2"><defs><style>.cls-1{fill:#2ec276;}</style></defs><title>inflearn</title><g id="레이어_2" data-name="레이어 2"><g id="레이어_1-2" data-name="레이어 1"><path class="cls-1" d="M73.9,23.6a40.61,40.61,0,0,0-8.1-12.2A39,39,0,0,0,53.7,3.1,37.14,37.14,0,0,0,38.8,0,37.69,37.69,0,0,0,23.9,2.9,41.56,41.56,0,0,0,11.5,11,37.61,37.61,0,0,0,3.1,23.1,37.14,37.14,0,0,0,0,38,37.69,37.69,0,0,0,2.9,52.9a40,40,0,0,0,8.2,12.4,38,38,0,0,0,12.2,8.4,37.5,37.5,0,0,0,14.9,3.1l38.3.3.3-38.5A39.67,39.67,0,0,0,73.9,23.6Zm-47.7,43a31.63,31.63,0,0,1-9.8-6.7A33,33,0,0,1,9.8,50,30,30,0,0,1,7.5,38.1a30,30,0,0,1,2.5-12,31.19,31.19,0,0,1,6.7-9.7,32.69,32.69,0,0,1,9.9-6.5A30,30,0,0,1,38.5,7.6a30,30,0,0,1,12,2.5,29.6,29.6,0,0,1,9.7,6.7,31.06,31.06,0,0,1,6.5,9.8,29.85,29.85,0,0,1,2.3,12l-.2,25.8L41.4,36.5l6.1-16.8a3.51,3.51,0,1,0-6.6-2.4L36,30.9l-8.6-8.7a3.46,3.46,0,1,0-4.9,4.9L43.6,48.6H28.3a3.5,3.5,0,0,0,0,7h22L63.9,69.4l-25.8-.2A30.31,30.31,0,0,1,26.2,66.6Z"/><path class="cls-1" d="M94.2,23.1V77H83.6V23.1Z"/><path class="cls-1" d="M99.8,39.6a26.22,26.22,0,0,1,5.8-8.5,27.17,27.17,0,0,1,8.6-5.8,26.48,26.48,0,0,1,10.4-2.1,25.91,25.91,0,0,1,10.5,2.1,27.76,27.76,0,0,1,8.6,5.8,26.22,26.22,0,0,1,5.8,8.5,25.91,25.91,0,0,1,2.1,10.5v27H140.9v-27a15.14,15.14,0,0,0-1.3-6.3,15.39,15.39,0,0,0-3.5-5.2,16.43,16.43,0,0,0-11.6-4.8,15.14,15.14,0,0,0-6.3,1.3,15.39,15.39,0,0,0-5.2,3.5,16.43,16.43,0,0,0-4.8,11.5v27H97.5v-27A30.85,30.85,0,0,1,99.8,39.6Z"/><path class="cls-1" d="M175.9,13.5a15.39,15.39,0,0,0-5.2,3.5,16.43,16.43,0,0,0-4.8,11.5V34h21.6V44.7H165.9V77.1H155.2V28.5A25.91,25.91,0,0,1,157.3,18a26.22,26.22,0,0,1,5.8-8.5,29.62,29.62,0,0,1,8.6-5.8,26.48,26.48,0,0,1,10.4-2.1h5.3V12.3h-5.3A13.47,13.47,0,0,0,175.9,13.5Z"/><path class="cls-1" d="M219.1,1.5V77H208.4V1.5Z"/><path class="cls-1" d="M265.3,58l7.6,7.6-3.7,3.7a27.24,27.24,0,0,1-8.8,5.9,25.9,25.9,0,0,1-10.3,2,27.77,27.77,0,0,1-10.3-2,27.24,27.24,0,0,1-8.8-5.9,26.12,26.12,0,0,1-5.9-8.9,27.79,27.79,0,0,1,0-20.2,25.64,25.64,0,0,1,5.9-8.9,26.12,26.12,0,0,1,8.9-5.9,26.5,26.5,0,0,1,20.2,0,26.12,26.12,0,0,1,8.9,5.9l3.7,3.7L242.8,64.9a16.14,16.14,0,0,0,9.7,1.5,15.69,15.69,0,0,0,8.9-4.6ZM238.5,38.7a15.63,15.63,0,0,0-4.8,11.5,16.12,16.12,0,0,0,1.7,7.1l4.4-4.4,6.2-6.2c2.2-2.2,4.3-4.3,6.4-6.3l4.7-4.7a17,17,0,0,0-9.7-1.6A16.33,16.33,0,0,0,238.5,38.7Z"/><path class="cls-1" d="M303.3,23.1a25.91,25.91,0,0,1,10.5,2.1,26.22,26.22,0,0,1,8.5,5.8,27.88,27.88,0,0,1,5.8,8.5A25.91,25.91,0,0,1,330.2,50V77H303.3a26.79,26.79,0,0,1-19-7.9,27.76,27.76,0,0,1-5.8-8.6,26.48,26.48,0,0,1-2.1-10.4,25.91,25.91,0,0,1,2.1-10.5,26.22,26.22,0,0,1,5.8-8.5,29.62,29.62,0,0,1,8.6-5.8A24.91,24.91,0,0,1,303.3,23.1Zm16.2,43.2V50a15.14,15.14,0,0,0-1.3-6.3,15.39,15.39,0,0,0-3.5-5.2,16.43,16.43,0,0,0-11.5-4.8,15.6,15.6,0,0,0-6.4,1.3,15.39,15.39,0,0,0-5.2,3.5A16.43,16.43,0,0,0,286.8,50a15.6,15.6,0,0,0,1.3,6.4,15.39,15.39,0,0,0,3.5,5.2,16.43,16.43,0,0,0,11.6,4.8h16.3Z"/><path class="cls-1" d="M365.7,23.1V33.8h-5.4a15.14,15.14,0,0,0-6.3,1.3,15.39,15.39,0,0,0-5.2,3.5A16.43,16.43,0,0,0,344,50.1v27H333.2v-27a25.91,25.91,0,0,1,2.1-10.5,26.22,26.22,0,0,1,5.8-8.5,29.62,29.62,0,0,1,8.6-5.8,26.48,26.48,0,0,1,10.4-2.1h5.6Z"/><path class="cls-1" d="M371,39.6a26.22,26.22,0,0,1,5.8-8.5,27.17,27.17,0,0,1,8.6-5.8,26.48,26.48,0,0,1,10.4-2.1,25.91,25.91,0,0,1,10.5,2.1,27.76,27.76,0,0,1,8.6,5.8,26.22,26.22,0,0,1,5.8,8.5,25.91,25.91,0,0,1,2.1,10.5v27H412.1v-27a15.14,15.14,0,0,0-1.3-6.3,15.39,15.39,0,0,0-3.5-5.2,16.43,16.43,0,0,0-11.6-4.8,15.14,15.14,0,0,0-6.3,1.3,15.39,15.39,0,0,0-5.2,3.5,16.43,16.43,0,0,0-4.8,11.5v27H368.7v-27A30.85,30.85,0,0,1,371,39.6Z"/></g></g></svg>