<?xml version="1.0" encoding="UTF-8"?>
<svg width="255px" height="50px" viewBox="0 0 255 50" version="1.1" xmlns="http://www.w3.org/2000/svg" xmlns:xlink="http://www.w3.org/1999/xlink">
    <!-- Generator: Sketch 61 (89581) - https://sketch.com -->
    <title>protopie</title>
    <desc>Created with Sketch.</desc>
    <defs>
        <path d="M2.25329577,0.0842857143 C1.72411268,0.0842857143 1.24329577,0.31 0.913978873,0.675 C0.618091549,0.987857143 0.433161972,1.40785714 0.421070423,1.86642857 L0.421070423,1.99 C0.426760563,2.20642857 0.470147887,2.41071429 0.546964789,2.59928571 C0.549809859,2.615 0.556211268,2.63 0.561901408,2.64571429 C0.62093662,2.78785714 0.697753521,2.92071429 0.790929577,3.04142857 C0.824359155,3.08785714 0.86134507,3.13071429 0.901176056,3.17142857 C0.907577465,3.18071429 0.916823944,3.19 0.926070423,3.2 L6.7691338,10.1657143 L8.87875352,12.68 L15.1940986,20.2057143 L17.3008732,22.7178571 L22.9554507,29.4585714 L25.0622254,31.97 L25.0622254,49.5771429 C26.3040986,49.5771429 27.4314577,49.0821429 28.2600845,48.2814286 C28.2629296,48.2814286 28.2629296,48.2814286 28.2629296,48.2785714 L28.8852887,47.5357143 L44.0495141,29.4585714 L49.2424789,23.2692857 C49.2673732,23.2407143 49.2915563,23.2135714 49.3136056,23.1821429 C49.4238521,23.0428571 49.5134718,22.8878571 49.5781972,22.7178571 C49.6614155,22.5107143 49.7048028,22.2878571 49.7048028,22.05 L49.7048028,1.92857143 C49.7048028,1.44214286 49.5163169,0.997142857 49.208338,0.672142857 C48.8761761,0.31 48.3989155,0.0842857143 47.8683099,0.0842857143 L2.25329577,0.0842857143 Z" id="path-1"></path>
        <path d="M2.25329577,0.0842857143 C1.72411268,0.0842857143 1.24329577,0.31 0.913978873,0.675 C0.618091549,0.987857143 0.433161972,1.40785714 0.421070423,1.86642857 L0.421070423,1.99 C0.426760563,2.20642857 0.470147887,2.41071429 0.546964789,2.59928571 C0.549809859,2.615 0.556211268,2.63 0.561901408,2.64571429 C0.62093662,2.78785714 0.697753521,2.92071429 0.790929577,3.04142857 C0.824359155,3.08785714 0.86134507,3.13071429 0.901176056,3.17142857 C0.907577465,3.18071429 0.916823944,3.19 0.926070423,3.2 L6.7691338,10.1657143 L8.87875352,12.68 L15.1940986,20.2057143 L17.3008732,22.7178571 L22.9554507,29.4585714 L25.0622254,31.97 L25.0622254,49.5771429 C26.3040986,49.5771429 27.4314577,49.0821429 28.2600845,48.2814286 C28.2629296,48.2814286 28.2629296,48.2814286 28.2629296,48.2785714 L28.8852887,47.5357143 L44.0495141,29.4585714 L49.2424789,23.2692857 C49.2673732,23.2407143 49.2915563,23.2135714 49.3136056,23.1821429 C49.4238521,23.0428571 49.5134718,22.8878571 49.5781972,22.7178571 C49.6614155,22.5107143 49.7048028,22.2878571 49.7048028,22.05 L49.7048028,1.92857143 C49.7048028,1.44214286 49.5163169,0.997142857 49.208338,0.672142857 C48.8761761,0.31 48.3989155,0.0842857143 47.8683099,0.0842857143 L2.25329577,0.0842857143 Z" id="path-3"></path>
        <linearGradient x1="87.919973%" y1="-9.88950209%" x2="13.2221225%" y2="64.8083484%" id="linearGradient-5">
            <stop stop-color="#FF6660" offset="0%"></stop>
            <stop stop-color="#FB4444" offset="100%"></stop>
        </linearGradient>
    </defs>
    <g id="Page-1" stroke="none" stroke-width="1" fill="none" fill-rule="evenodd">
        <g id="protopie">
            <g id="Group-16" transform="translate(74.000000, 8.337857)" fill="#252830" fill-rule="nonzero">
                <path d="M12.966495,16.7268571 C14.368404,16.7268571 15.531326,16.239 16.455974,15.2625714 C17.379911,14.2868571 17.841523,13.0782857 17.841523,11.6382857 C17.841523,10.1668571 17.379911,8.9504286 16.455974,7.9904286 C15.531326,7.0304286 14.368404,6.5504286 12.966495,6.5504286 L7.087157,6.5504286 L7.087157,16.7268571 L12.966495,16.7268571 Z M12.966495,0.3582857 C16.184981,0.3582857 18.893488,1.4468571 21.092016,3.6225714 C23.290544,5.799 24.390164,8.4704286 24.390164,11.6382857 C24.390164,14.8068571 23.290544,17.479 21.092016,19.6547143 C18.893488,21.8311429 16.184981,22.9182857 12.966495,22.9182857 L7.087157,22.9182857 L7.087157,33.3032857 L0.4915725,33.3032857 L0.4915725,0.3582857 L12.966495,0.3582857 Z" id="Fill-1"></path>
                <path d="M34.666061,13.2029286 C35.239342,11.6672143 36.187462,10.5143571 37.51042,9.7465 C38.831244,8.9786429 40.305701,8.5950714 41.930948,8.5950714 L41.930948,15.7350714 C40.050356,15.5115 38.370342,15.8965 36.888772,16.8872143 C35.407201,17.8793571 34.666061,19.5272143 34.666061,21.8315 L34.666061,33.3036429 L28.500082,33.3036429 L28.500082,8.5950714 L34.666061,8.5950714 L34.666061,13.2029286 Z" id="Fill-3"></path>
                <path d="M51.776812,25.5822143 C52.969608,26.7986429 54.466115,27.4072143 56.264911,27.4072143 C58.062995,27.4072143 59.567326,26.7986429 60.776481,25.5822143 C61.985636,24.3650714 62.590213,22.8207857 62.590213,20.9493571 C62.590213,19.0779286 61.985636,17.5329286 60.776481,16.3157857 C59.567326,15.0993571 58.062995,14.4915 56.264911,14.4915 C54.466115,14.4915 52.969608,15.0993571 51.776812,16.3157857 C50.582594,17.5329286 49.98584,19.0779286 49.98584,20.9493571 C49.98584,22.8207857 50.582594,24.3650714 51.776812,25.5822143 M65.009235,29.7236429 C62.620798,32.1100714 59.706735,33.3036429 56.264911,33.3036429 C52.823087,33.3036429 49.916136,32.1100714 47.544058,29.7236429 C45.171981,27.3365 43.986298,24.4122143 43.986298,20.9493571 C43.986298,17.4857857 45.171981,14.5607857 47.544058,12.1743571 C49.916136,9.7886429 52.823087,8.5950714 56.264911,8.5950714 C59.706735,8.5950714 62.620798,9.7886429 65.009235,12.1743571 C67.396249,14.5607857 68.589756,17.4857857 68.589756,20.9493571 C68.589756,24.4122143 67.396249,27.3365 65.009235,29.7236429" id="Fill-5"></path>
                <path d="M86.424364,14.5470714 L81.023709,14.5470714 L81.023709,25.0427857 C81.023709,25.8749286 81.230688,26.4827857 81.644646,26.8670714 C82.058604,27.2506429 82.664604,27.4670714 83.461223,27.5149286 C84.257132,27.5635 85.245082,27.5556429 86.424364,27.4906429 L86.424364,33.1063571 C82.186632,33.5870714 79.198596,33.1863571 77.462392,31.9070714 C75.725477,30.6277857 74.85773,28.3392143 74.85773,25.0427857 L74.85773,14.5470714 L70.69966,14.5470714 L70.69966,8.5949286 L74.85773,8.5949286 L74.85773,4.4763571 L81.023709,2.5835 L81.023709,8.5949286 L86.424364,8.5949286 L86.424364,14.5470714 Z" id="Fill-7"></path>
                <path d="M96.270228,25.5822143 C97.463024,26.7986429 98.959531,27.4072143 100.758327,27.4072143 C102.556411,27.4072143 104.060742,26.7986429 105.269897,25.5822143 C106.479052,24.3650714 107.08363,22.8207857 107.08363,20.9493571 C107.08363,19.0779286 106.479052,17.5329286 105.269897,16.3157857 C104.060742,15.0993571 102.556411,14.4915 100.758327,14.4915 C98.959531,14.4915 97.463024,15.0993571 96.270228,16.3157857 C95.07601,17.5329286 94.479256,19.0779286 94.479256,20.9493571 C94.479256,22.8207857 95.07601,24.3650714 96.270228,25.5822143 M109.502651,29.7236429 C107.114214,32.1100714 104.200151,33.3036429 100.758327,33.3036429 C97.316503,33.3036429 94.409552,32.1100714 92.037475,29.7236429 C89.665397,27.3365 88.479714,24.4122143 88.479714,20.9493571 C88.479714,17.4857857 89.665397,14.5607857 92.037475,12.1743571 C94.409552,9.7886429 97.316503,8.5950714 100.758327,8.5950714 C104.200151,8.5950714 107.114214,9.7886429 109.502651,12.1743571 C111.889665,14.5607857 113.083172,17.4857857 113.083172,20.9493571 C113.083172,24.4122143 111.889665,27.3365 109.502651,29.7236429" id="Fill-9"></path>
                <path d="M145.204444,33.3035714 L151.370423,33.3035714 L151.370423,12.7135714 L145.204444,12.7135714 L145.204444,33.3035714 Z M148.230176,8.595 C147.129134,8.595 146.175324,8.1892857 145.367324,7.3771429 C144.560035,6.5664286 144.156035,5.6085714 144.156035,4.5021429 C144.156035,3.3978571 144.560035,2.4307143 145.367324,1.6014286 C146.175324,0.7728571 147.129134,0.3585714 148.230176,0.3585714 C149.364648,0.3585714 150.336951,0.7728571 151.144239,1.6014286 C151.952951,2.4307143 152.356951,3.3978571 152.356951,4.5021429 C152.356951,5.6085714 151.952951,6.5664286 151.144239,7.3771429 C150.336951,8.1892857 149.364648,8.595 148.230176,8.595 Z" id="Fill-13"></path>
                <path d="M129.668225,16.7268571 C131.070845,16.7268571 132.233056,16.239 133.157704,15.2625714 C134.082352,14.2868571 134.543965,13.0782857 134.543965,11.6382857 C134.543965,10.1668571 134.082352,8.9504286 133.157704,7.9904286 C132.233056,7.0304286 131.070845,6.5504286 129.668225,6.5504286 L123.789599,6.5504286 L123.789599,16.7268571 L129.668225,16.7268571 Z M129.668225,0.3582857 C132.886711,0.3582857 135.595218,1.4468571 137.793746,3.6225714 C139.992275,5.799 141.091894,8.4704286 141.091894,11.6382857 C141.091894,14.8068571 139.992275,17.479 137.793746,19.6547143 C135.595218,21.8311429 132.886711,22.9182857 129.668225,22.9182857 L123.789599,22.9182857 L123.789599,33.3032857 L117.193303,33.3032857 L117.193303,0.3582857 L129.668225,0.3582857 Z" id="Fill-11"></path>
                <path d="M161.814889,18.7497857 L173.950537,18.7497857 C173.600594,17.1583571 172.88008,15.9733571 171.785439,15.1933571 C170.690087,14.4140714 169.444657,14.0233571 168.04915,14.0233571 C166.399009,14.0233571 165.034798,14.4376429 163.956516,15.2633571 C162.877523,16.0897857 162.163411,17.2519286 161.814889,18.7497857 M179.264418,27.7562143 C179.059573,28.0690714 178.900249,28.2962143 178.900249,28.2962143 C176.551643,31.6347857 173.09346,33.3033571 168.524988,33.3033571 C164.590967,33.3033571 161.434361,32.1333571 159.055171,29.7933571 C156.67527,27.4540714 155.48603,24.5055 155.48603,20.9490714 C155.48603,17.4240714 156.658911,14.4833571 159.006805,12.1276429 C161.354699,9.7733571 164.36834,8.5947857 168.04915,8.5947857 C171.538629,8.5947857 174.418551,9.7805 176.686784,12.1512143 C178.955016,14.5226429 180.089488,17.4555 180.089488,20.9490714 C180.089488,21.7290714 180.009826,22.5562143 179.851925,23.4290714 L161.909488,23.4290714 C162.734558,26.3619286 164.971495,27.8283571 168.620298,27.8283571 C170.700756,27.8283571 172.333115,27.2162143 173.517375,25.9905 C175.23153,26.5147857 179.264418,27.7562143 179.264418,27.7562143" id="Fill-15"></path>
            </g>
            <g id="Group-19" transform="translate(0.183099, 0.337857)">
                <g id="Fill-17-Clipped">
                    <mask id="mask-2" fill="white">
                        <use xlink:href="#path-1"></use>
                    </mask>
                    <g id="path-3"></g>
                    <path d="M2.25329577,0.0842857143 C1.72411268,0.0842857143 1.24329577,0.31 0.913978873,0.675 C0.618091549,0.987857143 0.433161972,1.40785714 0.421070423,1.86642857 L0.421070423,1.99 C0.426760563,2.20642857 0.470147887,2.41071429 0.546964789,2.59928571 C0.549809859,2.615 0.556211268,2.63 0.561901408,2.64571429 C0.62093662,2.78785714 0.697753521,2.92071429 0.790929577,3.04142857 C0.824359155,3.08785714 0.86134507,3.13071429 0.901176056,3.17142857 C0.907577465,3.18071429 0.916823944,3.19 0.926070423,3.2 L6.7691338,10.1657143 L8.87875352,12.68 L15.1940986,20.2057143 L17.3008732,22.7178571 L22.9554507,29.4585714 L25.0622254,31.97 L25.0622254,49.5771429 C26.3040986,49.5771429 27.4314577,49.0821429 28.2600845,48.2814286 C28.2629296,48.2814286 28.2629296,48.2814286 28.2629296,48.2785714 L28.8852887,47.5357143 L44.0495141,29.4585714 L49.2424789,23.2692857 C49.2673732,23.2407143 49.2915563,23.2135714 49.3136056,23.1821429 C49.4238521,23.0428571 49.5134718,22.8878571 49.5781972,22.7178571 C49.6614155,22.5107143 49.7048028,22.2878571 49.7048028,22.05 L49.7048028,1.92857143 C49.7048028,1.44214286 49.5163169,0.997142857 49.208338,0.672142857 C48.8761761,0.31 48.3989155,0.0842857143 47.8683099,0.0842857143 L2.25329577,0.0842857143 Z" id="Fill-17" mask="url(#mask-2)"></path>
                </g>
            </g>
            <g id="Group-22" transform="translate(0.183099, 0.337857)">
                <g id="Fill-20-Clipped">
                    <mask id="mask-4" fill="white">
                        <use xlink:href="#path-3"></use>
                    </mask>
                    <g id="path-5"></g>
                    <path d="M2.25329577,0.0842857143 C1.72411268,0.0842857143 1.24329577,0.31 0.913978873,0.675 C0.618091549,0.987857143 0.433161972,1.40785714 0.421070423,1.86642857 L0.421070423,1.99 C0.426760563,2.20642857 0.470147887,2.41071429 0.546964789,2.59928571 C0.549809859,2.615 0.556211268,2.63 0.561901408,2.64571429 C0.62093662,2.78785714 0.697753521,2.92071429 0.790929577,3.04142857 C0.824359155,3.08785714 0.86134507,3.13071429 0.901176056,3.17142857 C0.907577465,3.18071429 0.916823944,3.19 0.926070423,3.2 L6.7691338,10.1657143 L8.87875352,12.68 L15.1940986,20.2057143 L17.3008732,22.7178571 L22.9554507,29.4585714 L25.0622254,31.97 L25.0622254,49.5771429 C26.3040986,49.5771429 27.4314577,49.0821429 28.2600845,48.2814286 C28.2629296,48.2814286 28.2629296,48.2814286 28.2629296,48.2785714 L28.8852887,47.5357143 L44.0495141,29.4585714 L49.2424789,23.2692857 C49.2673732,23.2407143 49.2915563,23.2135714 49.3136056,23.1821429 C49.4238521,23.0428571 49.5134718,22.8878571 49.5781972,22.7178571 C49.6614155,22.5107143 49.7048028,22.2878571 49.7048028,22.05 L49.7048028,1.92857143 C49.7048028,1.44214286 49.5163169,0.997142857 49.208338,0.672142857 C48.8761761,0.31 48.3989155,0.0842857143 47.8683099,0.0842857143 L2.25329577,0.0842857143 Z" id="Fill-20" fill="url(#linearGradient-5)" fill-rule="nonzero" mask="url(#mask-4)"></path>
                </g>
            </g>
            <g id="Group-27" transform="translate(0.183099, 10.337857)" fill-rule="nonzero">
                <path d="M25.062581,32.0482857 L25.062581,39.5775714 C23.821419,39.5775714 22.6940599,39.0825714 21.8654331,38.2818571 C21.8618768,38.2818571 21.8618768,38.2818571 21.8618768,38.2782857 L21.2402289,37.5361429 L6.07600352,19.4582857 L0.913623239,13.3061429 C0.90153169,13.2968571 0.892285211,13.284 0.883038732,13.2718571 L0.802665493,13.1761429 C0.796264085,13.1697143 0.790573944,13.164 0.784172535,13.1547143 C0.686017606,13.0211429 0.602799296,12.8761429 0.543764085,12.7182857 C0.469792254,12.5297143 0.427116197,12.3254286 0.420714789,12.1118571 L0.420714789,11.9882857 C0.433517606,11.5247143 0.617735915,11.1097143 0.913623239,10.794 C1.24649648,10.4318571 1.72375704,10.2061429 2.25365141,10.2061429 L6.73250352,10.2061429 L8.83927817,12.7182857 L14.4945669,19.4582857 L23.7659401,30.5075714 L25.0597359,32.0511429 L25.062581,32.0482857 Z" id="Fill-23" fill="#FCD1CA"></path>
                <path d="M25.062581,21.9702143 L25.062581,32.0480714 L25.0597359,32.0509286 L23.7659401,30.5073571 L14.4945669,19.4580714 L8.83927817,12.7180714 L6.73250352,10.2059286 L0.879482394,3.2345 C0.855299296,3.20592857 0.83040493,3.17521429 0.805510563,3.1445 C0.698109155,3.00521429 0.608489437,2.85021429 0.543764085,2.68021429 C0.469792254,2.49164286 0.427116197,2.28735714 0.420714789,2.07092857 L0.420714789,1.94735714 C0.433517606,1.48664286 0.617735915,1.07164286 0.913623239,0.756642857 C1.24294014,0.391642857 1.72375704,0.165928571 2.25365141,0.165928571 L6.76948944,0.165928571 L8.87910915,2.68021429 L15.193743,10.2059286 L17.3005176,12.7180714 L22.9558063,19.4580714 L25.062581,21.9702143 Z" id="Fill-25" fill="#FF9D8D"></path>
            </g>
        </g>
    </g>
</svg>