<svg width="996" height="281" viewBox="0 0 996 281" fill="none" xmlns="http://www.w3.org/2000/svg">
<g clip-path="url(#clip0)">
<path d="M140.07 280.141C217.429 280.141 280.141 217.429 280.141 140.07C280.141 62.7116 217.429 0 140.07 0C62.7116 0 0 62.7116 0 140.07C0 217.429 62.7116 280.141 140.07 280.141Z" fill="black"/>
<path d="M238.259 169.835C226.306 169.835 214.82 167.057 205.529 161.968C196.238 167.057 184.752 169.835 172.799 169.835C160.847 169.835 149.361 167.057 140.07 161.968C130.778 167.057 119.293 169.835 107.34 169.835C95.3872 169.835 83.9015 167.057 74.6101 161.968C65.3188 167.057 53.833 169.835 41.8804 169.835V158.63C53.0626 158.63 63.6146 155.828 71.5986 150.739L74.6101 148.825L77.6216 150.739C85.6056 155.828 96.1576 158.63 107.34 158.63C118.522 158.63 129.074 155.828 137.058 150.739L140.07 148.825L143.081 150.739C151.065 155.828 161.617 158.63 172.799 158.63C183.982 158.63 194.534 155.828 202.518 150.739L205.529 148.825L208.541 150.739C216.525 155.828 227.077 158.63 238.259 158.63V169.835Z" fill="white"/>
<path d="M198.386 187.695L196.122 186.691L193.857 187.695C186.947 190.73 177.796 192.41 168.084 192.41C158.373 192.41 149.198 190.73 142.311 187.695L140.07 186.714L137.806 187.718C130.896 190.753 121.744 192.434 112.033 192.434C102.321 192.434 93.1466 190.753 86.2598 187.718L83.9954 186.714L81.7309 187.718C76.9451 189.819 70.4786 190.706 64.082 191.267V202.519C70.8754 201.935 77.9023 201.071 83.972 198.877C91.9093 201.935 101.784 203.616 112.033 203.616C122.281 203.616 132.133 201.935 140.07 198.877C148.007 201.935 157.859 203.616 168.108 203.616C178.379 203.616 188.231 201.935 196.168 198.877C202.238 201.071 209.335 201.935 216.152 202.519V191.267C209.732 190.683 203.219 189.819 198.386 187.695Z" fill="white"/>
<path d="M172.239 223.786C170.138 224.089 168.13 224.393 166.216 224.393C155.828 224.393 148.334 222.945 143.315 219.957L140.467 218.276L137.619 219.957C132.599 222.945 125.082 224.393 114.717 224.393C112.383 224.393 110.025 224.019 107.527 223.622L106.756 223.506V234.851C109.184 235.225 111.892 235.598 114.717 235.598C125.666 235.598 133.977 234.174 140.49 231.116C147.003 234.174 155.291 235.598 166.263 235.598C168.784 235.598 171.189 235.272 173.336 234.968V223.646C172.94 223.669 172.589 223.716 172.239 223.786Z" fill="white"/>
<path d="M887.344 109.138H861.875V265.503H887.344V109.138Z" fill="black"/>
<path d="M967.978 109.139V51.8735H942.485V109.139H925.653V132.251H942.485V265.504H967.978V132.251H995.548V109.139H967.978Z" fill="black"/>
<path d="M670.119 123.519L665.473 128.888V109.138H640.004V265.503H665.473V187.297C665.473 160.054 669.722 152.14 674.064 146.35C678.943 140.14 686.927 133.347 697.876 132.483L714.895 131.993V109.698H702.499C685.503 109.698 674.928 117.963 670.119 123.519Z" fill="black"/>
<path d="M579.75 198.947H577.182L579.75 198.97C579.75 208.518 579.726 221.591 572.116 231.466C567.704 237.069 559.276 243.746 544.172 243.746C529.068 243.746 520.64 237.092 516.251 231.513C508.594 221.568 508.594 208.985 508.594 197.873V109.162H483.848V200.838C483.848 220.681 486.066 233.824 497.738 246.524C513.403 263.005 533.573 265.457 544.195 265.457C554.817 265.457 574.987 262.982 590.698 246.477C602.324 233.824 604.542 220.681 604.542 200.838V109.138H579.796V198.947H579.75Z" fill="black"/>
<path d="M411.012 170.862C393.923 163.602 386.126 160.287 386.126 148.615C386.126 136.195 395.721 130.639 405.222 130.639C414.35 130.639 422.498 136.288 426.723 145.44L446.333 135.168C438.186 118.359 424.365 109.488 406.32 109.488C380.687 109.488 363.458 125.947 363.458 150.412C363.458 157.229 364.275 164.536 370.135 171.866C376.601 179.663 386.967 185.103 406.343 193.6C421.751 200.301 431.206 205.133 431.206 219.443C431.206 231.396 423.175 244.283 405.573 244.283C386.009 244.283 377.232 226.844 374.57 220.027L353.887 228.665C365.793 262.515 395.791 265.363 404.779 265.433C435.594 265.433 456.021 246.08 456.021 217.272C456.021 210.292 454.621 202.005 447.804 193.694C441.617 185.943 430.949 179.15 411.012 170.862Z" fill="black"/>
<path d="M823.612 13.377C788.314 13.377 759.6 42.0914 759.6 77.3891V109.162H759.18H743.468V132.273H759.483V265.503H784.952V132.25H823.308V109.138H784.882V77.3657C784.882 56.3085 802.251 39.1966 823.612 39.1966C844.646 39.1966 861.781 56.3085 861.781 77.3657L861.804 83.4821L887.601 83.5288V77.3657C887.624 42.068 858.909 13.377 823.612 13.377Z" fill="black"/>
</g>
<defs>
<clipPath id="clip0">
<rect width="995.549" height="280.141" fill="white"/>
</clipPath>
</defs>
</svg>
