<svg xmlns="http://www.w3.org/2000/svg" viewBox="0 0 433.43 218.72"><defs><style>.cls-1{fill:#4694d1;}.cls-2{fill:#231815;}.cls-3{fill:#dcdddd;}.cls-4{fill:#b3b3b3;}.cls-5{fill:gray;}</style></defs><title>단군</title><g id="레이어_2" data-name="레이어 2"><g id="Layer_1" data-name="Layer 1"><path class="cls-1" d="M34.32,68v49.87H22.81V68H0V56.49H22.81v-23H34.32v23H57.23V68Z"/><path class="cls-2" d="M120.58,90.71H71.16V61.11h39.56V51.25h-9.86V41.39h19.72Zm-9.86-9.87V71H81v9.86Z"/><path class="cls-2" d="M145.42,51.25V90.71h-9.86V41.39H185l0,9.86,0,39.46h-9.86V51.25Z"/><path class="cls-3" d="M195,50.74h11.51V62.25H195Zm0,22.81h11.51V85.06H195Z"/><path class="cls-1" d="M215,41.39h49.32V90.71H234.68V80.84h19.73V71H215Zm9.86,9.86v9.86h29.6V51.25Z"/><path class="cls-2" d="M287.19,81.05h29.6V41.59h9.86V90.91H277.33V41.59h9.86Z"/><path class="cls-2" d="M350.12,51.25V90.71h-9.87V41.39h49.42l0,9.86,0,39.46h-9.86V51.25Z"/><path class="cls-4" d="M433.43,21.22a20.44,20.44,0,0,1-6.2,15,21.11,21.11,0,0,1-29.93,0,20.48,20.48,0,0,1-6.2-15,20.48,20.48,0,0,1,6.2-15,21.11,21.11,0,0,1,29.93,0A20.44,20.44,0,0,1,433.43,21.22Zm-9.45,4V17.26h-7.81V9.45h-7.81v7.81h-7.81v7.92h7.81V33h7.81v-7.8Z"/><path class="cls-5" d="M72.77,158.7a33.42,33.42,0,0,0,5.06,9,1.62,1.62,0,0,1,.44,1.73c-.22.57-.6.68-1.15.36q-2.48-1.54-7.09-7.93t-4.62-17q0-9.83,4.2-16.21T77,119.85c.69-.51,1.13-.45,1.31.2a1.69,1.69,0,0,1-.44,1.73,26.15,26.15,0,0,0-5.22,9.07,40.49,40.49,0,0,0-2.14,14A37.26,37.26,0,0,0,72.77,158.7Z"/><path class="cls-5" d="M98.62,148.7l.23,9.12a35.47,35.47,0,0,1-.8,9.24c-.61,2.31-1.37,3.48-2.28,3.52s-1.37-1-1.68-3a42.36,42.36,0,0,1-.47-6.67L93.4,148.8c-2.49,0-4.35.12-5.55.25s-1.86.19-1.93.19a10.83,10.83,0,0,0-4,1c-1,.55-3.62-.11-7.73-2-1.58-.73-2.13-1.35-1.65-1.87s1.45-.73,2.91-.65,2.9.16,4.07.29,3.06.19,5.67.19h17.34a22.48,22.48,0,0,0,5.81-.43,17.32,17.32,0,0,1,7.31-1q4.17.25,4.07,2.17c0,.92-.69,1.47-2,1.62a21.25,21.25,0,0,1-4,.14c-1.73-.1-3.77-.16-6.13-.16S102.25,148.66,98.62,148.7Zm-3-13.69a69.32,69.32,0,0,1-8,3.81,48.78,48.78,0,0,1-8.33,2.51c-1.76.37-2.77.2-3-.46s-.1-1.09.52-1.25A47.89,47.89,0,0,0,89.25,134a75.06,75.06,0,0,0,11.85-8.8c-1.62,0-3.56.13-5.83.27s-3.76.26-4.45.34a5.8,5.8,0,0,0-1.63.29,6.2,6.2,0,0,1-.74.25,19.88,19.88,0,0,1-2.33.61q-1.35.27-5-1.93c-1.06-.62-1.46-1.2-1.21-1.76s1.1-.73,2.53-.55l2.12.2c1,.09,2.16.14,3.33.14q2.91,0,8-.2c3.37-.12,5.41-.36,6.1-.69a6.26,6.26,0,0,1,3-.35,25.86,25.86,0,0,1,2.64.18c1.4.38,2,1,1.82,1.93s-1.09,2-2.7,3.13q-2,1.83-3.9,3.25a42.65,42.65,0,0,1-4,2.7c1.62.36,3.17.72,4.65,1.07s2.5.56,3.05.63a5,5,0,0,0,1.68,0,4.83,4.83,0,0,1,2,.11,16.16,16.16,0,0,1,3,1.21,7.31,7.31,0,0,1,2.23,1.53,1.48,1.48,0,0,1-.17,2c-.58.65-1.79.68-3.62.14l-6.55-2Q99.56,136.09,95.65,135Z"/><path class="cls-5" d="M122.52,128.6q4.2,6.38,4.21,16.21,0,10.68-4.62,17T115,169.78c-.55.32-.94.21-1.16-.36a1.64,1.64,0,0,1,.44-1.73,33.15,33.15,0,0,0,5.06-9,37.25,37.25,0,0,0,2.31-13.89,40.73,40.73,0,0,0-2.14-14,26,26,0,0,0-5.23-9.07,1.77,1.77,0,0,1-.38-1.73c.18-.65.6-.71,1.26-.2Q118.32,122.22,122.52,128.6Z"/><path d="M180,129.27a23.61,23.61,0,0,0,2.9-.52,4.78,4.78,0,0,0,2.26-1.15c.37-.43,1.3-.65,2.78-.68a26.92,26.92,0,0,1,3.9.2c2.7.53,3.89,1.6,3.57,3.18s-1.72,2.38-4.21,2.38H180l.08,11a34.12,34.12,0,0,1-1.31,10.36c-.87,2.68-1.9,4-3.06,4.09s-1.79-1-2-3.17-.39-4.69-.44-7.54l-.08-12.63a150.52,150.52,0,0,1-16.52,5.6q-11,3.23-16.92,3.21a7.55,7.55,0,0,1-4.6-1.11c-1-.74-1.43-2.33-1.43-4.77V119.81c0-1.47-.39-2.4-1.16-2.77a17.81,17.81,0,0,0-3.61-1.12,3.39,3.39,0,0,1-2.14-1.66q-.72-1.28,3.41-1.91a22.1,22.1,0,0,1,4.81,0c2.09.18,4.09.41,6,.67.68.06,2.44.12,5.28.2s4.64-.2,5.44-.83a8.45,8.45,0,0,1,4.29-1.35,24.09,24.09,0,0,1,4.84.16q3.5.48,3.3,2.74c-.14,1.51-1.5,2.42-4.1,2.74-1.53.15-4.8.25-9.8.28L141,117v18.58c0,.85.22,1.41.67,1.66a3.1,3.1,0,0,0,1.63.4q4.53,0,14.49-2.18a144.69,144.69,0,0,0,15.29-4l-.16-21.92c0-1.69-.4-2.86-1.19-3.5a18.71,18.71,0,0,0-4-2.14c-1.43-.69-2.07-1.47-1.91-2.34s1.49-1.23,4-1.07c.52,0,1.89.26,4.08.63a23.81,23.81,0,0,1,4.81,1.19c1.48.53,2,1.38,1.67,2.55a15.55,15.55,0,0,0-.56,4.68Zm2.62,35.65c2.81.64,4,1.74,3.65,3.31s-1.79,2.33-4.28,2.33l-27.32.32a13,13,0,0,1-5.4-1.07c-1.59-.72-2.39-2.34-2.39-4.89v-8.18a3.35,3.35,0,0,0-1-2.81,8.69,8.69,0,0,0-3.38-1.23,4.89,4.89,0,0,1-2.7-1.67c-.69-.85.59-1.45,3.82-1.83a35.82,35.82,0,0,1,4.36,0c1.75.08,3.15.2,4.21.36,1.91.26,2.76.88,2.54,1.83a17,17,0,0,0-.31,3.57v9.93a2,2,0,0,0,.75,1.67,2.86,2.86,0,0,0,1.71.55l12.15-.15a21.56,21.56,0,0,0,2.82-.21,5.62,5.62,0,0,0,2.58-1,7,7,0,0,1,3.73-.95A19.21,19.21,0,0,1,182.58,164.92Z"/><path d="M235.7,134.42a11.7,11.7,0,0,0,1.43-.2l.87-.2a25,25,0,0,1,10.56-1.39c4,.23,6,1.29,5.88,3.14q-.08,2-2.82,2.34a32.63,32.63,0,0,1-5.83.2c-2.34-.15-5-.24-8.11-.24s-6.91,0-11.51.08v8a32.13,32.13,0,0,1-1.4,10.37q-1.38,4-3.05,4.08c-1.11.07-1.81-1-2.11-3.17a66.48,66.48,0,0,1-.51-7.54L219,138.23c-4.45.06-7.77.18-10,.4s-3.35.31-3.45.31a16,16,0,0,0-5.76,1.48q-2.26,1.14-11.16-3c-2.28-1.06-3.07-1.94-2.38-2.62s2.09-1,4.21-.88,4.18.25,5.87.44,4.43.28,8.19.28h15.8l4.53,0c2.06,0,4.12,0,6.19,0a12.34,12.34,0,0,1,.56-3.66c.42-1.59.82-3.54,1.19-5.87.37-2,.73-4.44,1.07-7.27s.54-5.1.6-6.79l-11.6.35-9.21.28a18,18,0,0,0-5.44,1.2q-2,.87-9.41-2.79a4,4,0,0,1-1.91-2c-.42-.9,1.19-1.22,4.85-.95q3.89.55,16.79.44t14.74-.68a15.28,15.28,0,0,1,3.89-.88,12.52,12.52,0,0,1,4,.16c2.27.53,3.08,1.36,2.42,2.47a11.44,11.44,0,0,0-1.39,3.57q-.09.31-1,5.17a83.05,83.05,0,0,1-2,8.18c-.58,1.69-1.12,3.32-1.62,4.92A13.43,13.43,0,0,1,235.7,134.42ZM242.21,165c2.76.64,4,1.73,3.62,3.3s-1.79,2.34-4.33,2.34l-30.74.32a13.11,13.11,0,0,1-5.4-1.07Q203,168.8,203,165v-9.13a3.33,3.33,0,0,0-1-2.82,8.64,8.64,0,0,0-3.37-1.23,4.78,4.78,0,0,1-2.7-1.67c-.69-.85.58-1.45,3.81-1.82a31.76,31.76,0,0,1,4.33,0q2.58.12,4.17.36c2,.25,2.83.87,2.62,1.82a17,17,0,0,0-.32,3.57v10.88a1.94,1.94,0,0,0,.75,1.67,2.72,2.72,0,0,0,1.64.55l15.72-.15a19.32,19.32,0,0,0,2.74-.2,5.74,5.74,0,0,0,2.58-1,7.53,7.53,0,0,1,3.77-1A20.3,20.3,0,0,1,242.21,165Z"/><path class="cls-5" d="M274.88,157.06c1.88,0,4,0,6.27,0a17.92,17.92,0,0,0,4.42-.46,19.43,19.43,0,0,1,8.13-1.07c3.09.18,4.6,1,4.52,2.41,0,1-.76,1.62-2.17,1.8a23.46,23.46,0,0,1-4.48.15c-2-.11-4.29-.18-7-.18s-6.15,0-10.35.07c-4.56,0-7.94.15-10.11.33l-3.45.27a11.78,11.78,0,0,0-4.43,1.17q-1.74.9-8.58-2.2c-1.76-.82-2.37-1.51-1.84-2.08s1.61-.82,3.24-.73,3.22.19,4.52.34,3.4.21,6.29.21h9.29V148a2.1,2.1,0,0,0-.95-1.89,6,6,0,0,0-2.11-.85c-1.05-.33-1.49-.78-1.31-1.35s1.11-.9,2.78-1l3,.2a17.39,17.39,0,0,1,3.21.47c1.19.32,1.68.86,1.49,1.61a11.06,11.06,0,0,0-.27,2.54Zm-3.3-24.57a50.07,50.07,0,0,1-9.07,8,40.52,40.52,0,0,1-8.89,4.67q-2.69,1-3.42,0c-.49-.63-.33-1.13.49-1.49a42.74,42.74,0,0,0,10.75-7.76A35.67,35.67,0,0,0,270,124.19a1.55,1.55,0,0,0-.19-1.5,6.41,6.41,0,0,0-2.2-1.74,2,2,0,0,1-1.13-1.52c0-.58,1-.76,3.15-.55a12.61,12.61,0,0,1,3.08,1,15,15,0,0,1,3.39,1.8c1.07.78,1.47,1.48,1.23,2.12a13.85,13.85,0,0,1-1,2c-.37.62-.81,1.31-1.34,2.09s-1,1.46-1.47,2.08c1.51.88,3.42,2,5.75,3.19a50.09,50.09,0,0,0,4.58,2.3,3.88,3.88,0,0,0,2.19.4,3.13,3.13,0,0,1,2,.34,8.21,8.21,0,0,1,2.42,1.79c.91.92,1.69,1.75,2.35,2.48q1.83,2.26.36,3.48t-4.33-.61q-2.15-1.41-7.95-5T271.58,132.49Z"/><path class="cls-5" d="M332,156.49a19.09,19.09,0,0,1,8.12-1.07c3.1.18,4.6,1,4.52,2.41,0,1-.76,1.62-2.17,1.8a26.25,26.25,0,0,1-4.49.16c-2-.13-4.28-.19-7-.19s-6.17,0-10.35.06q-6.86.06-10.12.34l-3.45.27a12.12,12.12,0,0,0-4.43,1.16q-1.74.93-8.58-2.2c-1.76-.81-2.36-1.5-1.84-2.08s1.61-.81,3.24-.73,3.22.19,4.52.34,3.41.21,6.3.21h19.27Q330.72,157,332,156.49Zm-9.84-13.26,2.44-11.48a2,2,0,0,0-.39-1.87,9.6,9.6,0,0,0-1.93-1.38c-1-.48-1.34-1-1.07-1.65s1.24-.79,2.91-.55c.69.13,1.63.35,2.84.68a14.15,14.15,0,0,1,2.78,1c1.22.56,1.72,1.15,1.49,1.77s-.52,1.43-.88,2.44L326.7,143a1.75,1.75,0,0,1,.42-.07.35.35,0,0,0,.24-.06,15.68,15.68,0,0,1,6.84-.91c2.86.11,4.24,1,4.16,2.5,0,.94-.64,1.49-1.8,1.64a20.62,20.62,0,0,1-3.63.2c-1.6-.09-3.31-.13-5.14-.13h-4.88c-2.29,0-4.85.09-7.7.27s-4.38.28-4.58.28a10.57,10.57,0,0,0-3.34,1.2q-1.74.94-7.23-2.24c-1.47-.85-2-1.53-1.56-2s1.39-.7,2.9-.66a35.77,35.77,0,0,1,3.66.27,38.56,38.56,0,0,0,4.95.15l4.89,0Q318.76,143.35,322.17,143.23ZM337,123.31c0,.94-.64,1.49-1.81,1.65a21.54,21.54,0,0,1-3.63.18c-1.59-.07-3.06-.12-4.4-.15s-2.73,0-4.16,0c-2.31,0-4.72.09-7.21.27s-3.83.28-4,.28a13.56,13.56,0,0,0-3.42,1.16q-1.77.85-7.15-2.26c-1.47-.86-2-1.53-1.56-2s1.4-.72,2.91-.68c1.26,0,2.48.14,3.66.28a44.46,44.46,0,0,0,4.95.22c1.1,0,3.72,0,7.85-.1a43.62,43.62,0,0,0,7.18-.4,15.74,15.74,0,0,1,6.79-.88C335.69,121,337,121.81,337,123.31Zm-22.49,14.24a5.08,5.08,0,0,1-.15,3.29,3.39,3.39,0,0,1-1.8,1.59,2.75,2.75,0,0,1-2.38-.21,2.58,2.58,0,0,1-1.23-2.17c-.16-1.43-.4-3.06-.7-4.91a23.09,23.09,0,0,0-1.5-5.23c-.57-1.3-.51-2.14.15-2.53s1.56,0,2.66,1.18a25.07,25.07,0,0,1,2.75,4A18,18,0,0,1,314.47,137.55Z"/><path class="cls-5" d="M378.43,157a19.16,19.16,0,0,1,8.13-1.07c3.1.18,4.6,1,4.53,2.41,0,1-.78,1.62-2.18,1.81a25.3,25.3,0,0,1-4.49.15q-2.93-.19-7-.19t-10.36.06c-4.56,0-7.93.16-10.11.34l-3.45.28a11.6,11.6,0,0,0-4.43,1.16c-1.17.6-4-.13-8.58-2.2-1.76-.82-2.37-1.51-1.83-2.08s1.6-.81,3.23-.73,3.21.19,4.53.33,3.39.22,6.29.22H372C375.43,157.45,377.58,157.28,378.43,157ZM355.1,137.17l.06,5.92a1.59,1.59,0,0,0,.55,1.35,1.94,1.94,0,0,0,1.22.42l12.22-.12a12.28,12.28,0,0,0,1.8-.24,6,6,0,0,0,2.23-.86,7.36,7.36,0,0,1,3.18-.67,12.78,12.78,0,0,1,3.54.18q3.24.73,2.84,2.69c-.26,1.31-1.35,1.95-3.27,1.95L355.4,148a10.11,10.11,0,0,1-4.12-.83c-1.25-.54-1.89-1.82-1.93-3.82l-.11-15.76a2.15,2.15,0,0,0-.77-1.92,9.84,9.84,0,0,0-2.66-1.07,2.07,2.07,0,0,1-1.53-1.29c-.28-.69.69-1.15,2.94-1.39a15.72,15.72,0,0,1,3.6.18c1.47.2,2.91.44,4.34.73l13.56-.13c.45,0,1.09,0,1.93-.12a4.87,4.87,0,0,0,2.22-.73,6.47,6.47,0,0,1,3.06-.67,14.05,14.05,0,0,1,3.67.18q3.22.8,2.84,2.66t-3.39,1.86l-24,.06.06,8.13,12.46-.12a19.17,19.17,0,0,0,1.93-.13,5,5,0,0,0,2.23-.73,6.35,6.35,0,0,1,3-.67,13.94,13.94,0,0,1,3.66.18q3.24.79,2.84,2.66c-.25,1.25-1.38,1.86-3.38,1.86Z"/><path d="M42,214.31H14.48v-2H27v-6.94h2.4v6.94H42Zm-12.49-21.5a9.28,9.28,0,0,0,1,4.17,13.46,13.46,0,0,0,2.7,3.69,20.55,20.55,0,0,0,4,2.9,19.17,19.17,0,0,0,3.12,1.51l-1.57,1.64A19,19,0,0,1,36,205.44a18.17,18.17,0,0,1-3.68-2.64,16.38,16.38,0,0,1-2.66-3.07,11,11,0,0,1-1.42-2.64,9.6,9.6,0,0,1-1.38,2.64,16.38,16.38,0,0,1-2.66,3.07,18.17,18.17,0,0,1-3.68,2.64,18.57,18.57,0,0,1-2.77,1.28l-1.57-1.64a19.17,19.17,0,0,0,3.12-1.51,19.77,19.77,0,0,0,3.95-2.9A12.91,12.91,0,0,0,25.94,197a9.39,9.39,0,0,0,1-4.17v-2.37h2.51Z"/><path d="M84.76,213.9H57.27v-2H84.76Zm-2.56-7.27H59.87v-2h4.74l-.69-9.08h2.33l.69,9.08h8.19l.69-9.08h2.3l-.69,9.08H82.2Zm-.62-12.2H60.5v-2H81.58Z"/><path d="M127.56,213.89H100.07v-2h27.49Zm-3.48-6.67H104v-15h19.83v2H106.35v4.45h17.39v2H106.35v4.47h17.73Z"/><path d="M159.67,206.45a26.27,26.27,0,0,1-3.5.42c-1.63.14-3,.21-4,.21v9.36h-2.33v-9.3l-6,0v-2l7.56-.07c1.36,0,2.94-.14,4.72-.29s3-.29,3.6-.4Zm-8.54-15.91a6,6,0,0,1,4.38,1.76,5.79,5.79,0,0,1,1.76,4.29,5.66,5.66,0,0,1-1.77,4.22,6,6,0,0,1-4.37,1.72,5.92,5.92,0,0,1-4.36-1.72,5.65,5.65,0,0,1-1.76-4.22,5.85,5.85,0,0,1,1.74-4.29A5.92,5.92,0,0,1,151.13,190.54Zm0,1.94a3.51,3.51,0,0,0-2.78,1.23,4.24,4.24,0,0,0-1.07,2.88,3.91,3.91,0,0,0,1.12,2.81,3.81,3.81,0,0,0,5.49,0,4,4,0,0,0,1.08-2.81,4.24,4.24,0,0,0-1.07-2.88A3.49,3.49,0,0,0,151.13,192.48Zm11.8,24.3h-2.27v-4.9H155.2v-2h5.46V189.82h2.27Zm5.52,1.31h-2.3V189.16h2.3Z"/><path d="M210.32,218.09H208V202.83h-6.48a12.92,12.92,0,0,1-2.07,7.15,5.93,5.93,0,0,1-5.07,2.69,6,6,0,0,1-5.19-2.92,16,16,0,0,1,0-15.43,6,6,0,0,1,5.19-2.9,5.9,5.9,0,0,1,4.95,2.52,12.36,12.36,0,0,1,2.16,6.76H208V189.16h2.33ZM199.21,202a13,13,0,0,0-1.24-5.9,3.85,3.85,0,0,0-3.56-2.48,3.91,3.91,0,0,0-3.6,2.48,12.77,12.77,0,0,0-1.27,5.9,13,13,0,0,0,1.27,6,3.91,3.91,0,0,0,3.6,2.48A3.86,3.86,0,0,0,198,208,13.24,13.24,0,0,0,199.21,202Z"/><path d="M250.5,211.25c-1,.13-2.72.26-5.18.4s-4.63.22-6.49.26l-9,0v-2.07l9.1,0q3.08-.08,6.4-.25c2.22-.12,3.94-.26,5.15-.44Zm-3.69-13.12a6.8,6.8,0,0,1-2.13,5,8.21,8.21,0,0,1-11,0,6.89,6.89,0,0,1,0-10,8.3,8.3,0,0,1,11,0A6.74,6.74,0,0,1,246.81,198.13Zm-2.43,0a5,5,0,0,0-1.35-3.51,5.71,5.71,0,0,0-7.69,0,5.25,5.25,0,0,0,0,7,5.73,5.73,0,0,0,7.69,0A5.05,5.05,0,0,0,244.38,198.13Zm9.57,20h-2.37V189.16H254Z"/><path d="M298.75,205.63H271.26v-2h12.56v-4.11h2.4v4.11h12.53Zm-1.81-6.45L295.46,201a21.25,21.25,0,0,1-2.34-.61A21,21,0,0,1,289.8,199a15.74,15.74,0,0,1-3-2.07A8.31,8.31,0,0,1,285,195a7.23,7.23,0,0,1-1.74,1.87,15.09,15.09,0,0,1-3,2.07,20.57,20.57,0,0,1-3.31,1.39,22.47,22.47,0,0,1-2.34.61l-1.48-1.77a23.68,23.68,0,0,0,2.53-.65,21.72,21.72,0,0,0,3.65-1.55,13.85,13.85,0,0,0,2.83-2,4.76,4.76,0,0,0,1.61-2.42v-.17h-9v-2h20.48v2h-9l0,.17a5.09,5.09,0,0,0,1.63,2.42,13.27,13.27,0,0,0,2.82,2,21.3,21.3,0,0,0,3.64,1.55A23.71,23.71,0,0,0,296.94,199.18Zm-1.12,14.08q0,2.37-2.84,3.91a21.16,21.16,0,0,1-15.9,0c-1.92-1-2.87-2.33-2.87-3.91s1-2.92,2.87-3.93a21.42,21.42,0,0,1,15.9,0Q295.82,210.85,295.82,213.26Zm-2.64,0q0-1.65-2.31-2.58a15.69,15.69,0,0,0-5.87-.94,16.14,16.14,0,0,0-5.89.92c-1.53.61-2.3,1.47-2.3,2.56s.77,1.93,2.3,2.57a18.67,18.67,0,0,0,11.76,0C292.41,215.15,293.18,214.31,293.18,213.26Z"/><path d="M332.89,203.36l-1.22,1.94a11.85,11.85,0,0,1-1.83-.76,16.11,16.11,0,0,1-2.61-1.61,14.78,14.78,0,0,1-2-1.85,8,8,0,0,1-1.18-1.63,7.32,7.32,0,0,1-1.05,1.71,13.55,13.55,0,0,1-1.88,2,16.46,16.46,0,0,1-2.87,2,14.3,14.3,0,0,1-2,1l-1.58-1.84a17.42,17.42,0,0,0,2.4-1.12,14.78,14.78,0,0,0,3-2.1,9,9,0,0,0,2-2.5,5.56,5.56,0,0,0,.72-2.53V196h-6.38v-2h15.26v2h-6.38V196a4.64,4.64,0,0,0,.92,2.56,10,10,0,0,0,2.17,2.37A14.54,14.54,0,0,0,331,202.6,9.27,9.27,0,0,0,332.89,203.36Zm5.48,14.73h-2.32V210.5H319.14v-2h19.23Zm-9.95-26.8H319.7v-2h8.72Zm14.1,7.4h-4.15v7.86h-2.32V189.16h2.32v7.43h4.15Z"/><path d="M375.7,210.3l-1.58,1.94c-.5-.33-1.16-.82-1.94-1.46a17.13,17.13,0,0,1-4.29-5.68,20.24,20.24,0,0,1-.91-2.23,13.82,13.82,0,0,1-.8,2.16,16.88,16.88,0,0,1-1.76,3,22,22,0,0,1-2.65,3.07,23.3,23.3,0,0,1-2.45,2l-1.91-1.69a21,21,0,0,0,2.83-2.15,16.12,16.12,0,0,0,2.66-3,16.75,16.75,0,0,0,2.05-4.27,15.51,15.51,0,0,0,.78-4.74v-2.66h-6.61v-2.08H375v2.08h-6.71v2.66a16.19,16.19,0,0,0,.71,4.63,13.63,13.63,0,0,0,2,4.11,17.08,17.08,0,0,0,2.49,2.75A14.19,14.19,0,0,0,375.7,210.3Zm6.77,7.79H380.1V189.16h2.37Z"/><path class="cls-1" d="M51.66,203.39a2.58,2.58,0,1,1-2.58-2.56A2.59,2.59,0,0,1,51.66,203.39Z"/><path class="cls-1" d="M96,203.39a2.58,2.58,0,1,1-2.58-2.56A2.58,2.58,0,0,1,96,203.39Z"/><path class="cls-1" d="M137.16,203.39a2.58,2.58,0,1,1-2.58-2.56A2.59,2.59,0,0,1,137.16,203.39Z"/><path class="cls-1" d="M180.32,203.39a2.58,2.58,0,1,1-2.59-2.56A2.59,2.59,0,0,1,180.32,203.39Z"/><path class="cls-1" d="M223.48,203.39a2.59,2.59,0,1,1-2.59-2.56A2.59,2.59,0,0,1,223.48,203.39Z"/><path class="cls-1" d="M265.71,203.39a2.58,2.58,0,1,1-2.58-2.56A2.59,2.59,0,0,1,265.71,203.39Z"/><path class="cls-1" d="M309.38,203.39a2.58,2.58,0,1,1-2.58-2.56A2.58,2.58,0,0,1,309.38,203.39Z"/><path class="cls-1" d="M353.05,203.39a2.58,2.58,0,1,1-2.58-2.56A2.58,2.58,0,0,1,353.05,203.39Z"/></g></g></svg>