<?xml version="1.0" standalone="no"?>
<!DOCTYPE svg PUBLIC "-//W3C//DTD SVG 1.1//EN" "http://www.w3.org/Graphics/SVG/1.1/DTD/svg11.dtd">
<svg xmlns="http://www.w3.org/2000/svg"><metadata>This SVG WebFont was generated by YouWorkForThem.
Copyright (c) 2016 by THOMAS GILLETT. All rights reserved.</metadata><defs><font horiz-adv-x="680" id="ywftsvg"><font-face ascent="800" bbox="-251 -358 1283 1186" cap-height="783" descent="-200" font-family="" font-stretch="normal" font-weight="700" panose-1="0 0 0 0 0 0 0 0 0 0" underline-position="0" underline-thickness="0" unicode-range="U+0020-FB04" units-per-em="1000" x-height="534"/><missing-glyph d="M750 0h-660v783h660v-783zM691 725h-537l537 -662v662z" horiz-adv-x="799"/><glyph d="M755 684q-45 0 -70 -24t-25 -70v-56h140v-133h-139v-401h-156v401h-227v-401h-156v401h-96v133h96v53q0 104 56 167t169 63q39 0 73 -11v-128q-19 6 -48 6q-45 0 -70 -24t-25 -70v-56h228v53q0 104 56 167t169 63q39 0 73 -11v-128q-19 6 -48 6z" glyph-name="uniFB00" horiz-adv-x="817" unicode="ff"/><glyph d="M662 534v-534h-157v401h-227v-401h-156v401h-96v133h96v53q0 104 56 167t169 63q39 0 73 -11v-128q-19 6 -48 6q-45 0 -70 -24t-25 -70v-56h385zM582 624q-39 0 -67.5 28t-28.5 68t28.5 68.5t67.5 28.5q41 0 69.5 -28t28.5 -69q0 -40 -28.5 -68t-69.5 -28z" glyph-name="uniFB01" horiz-adv-x="734" unicode="fi"/><glyph d="M662 815v-815h-157v401h-227v-401h-156v401h-96v133h96v53q0 104 56 167t169 63q39 0 73 -11v-128q-19 6 -48 6q-45 0 -70 -24t-25 -70v-56h228v281h157z" glyph-name="uniFB02" horiz-adv-x="734" unicode="fl"/><glyph d="M1046 534v-534h-157v401h-228v-401h-156v401h-227v-401h-156v401h-96v133h96v53q0 104 56 167t169 63q39 0 73 -11v-128q-19 6 -48 6q-45 0 -70 -24t-25 -70v-56h228v53q0 104 56 167t169 63q39 0 73 -11v-128q-19 6 -48 6q-45 0 -70 -24t-25 -70v-56h386zM966 624 q-39 0 -67.5 28t-28.5 68t28.5 68.5t67.5 28.5q41 0 69.5 -28t28.5 -69q0 -40 -28.5 -68t-69.5 -28z" glyph-name="uniFB03" horiz-adv-x="1118" unicode="ffi"/><glyph d="M1045 815v-815h-157v401h-227v-401h-156v401h-227v-401h-156v401h-96v133h96v53q0 104 56 167t169 63q39 0 73 -11v-128q-19 6 -48 6q-45 0 -70 -24t-25 -70v-56h228v53q0 104 56 167t169 63q39 0 73 -11v-128q-19 6 -48 6q-45 0 -70 -24t-25 -70v-56h228v281h157z" glyph-name="uniFB04" horiz-adv-x="1117" unicode="ffl"/><glyph d="M750 0h-660v783h660v-783zM691 725h-537l537 -662v662z" glyph-name=".notdef" horiz-adv-x="799"/><glyph glyph-name="glyph1" horiz-adv-x="0"/><glyph glyph-name="glyph2" horiz-adv-x="333"/><glyph glyph-name="space" horiz-adv-x="251" unicode=" "/><glyph d="M83 625v158h172v-158l-15 -354h-142zM74 85q0 -40 28.5 -68t67.5 -28q41 0 69.5 28t28.5 68q0 41 -29 69.5t-69 28.5q-39 0 -67.5 -29t-28.5 -69z" glyph-name="exclam" horiz-adv-x="339" unicode="!"/><glyph d="M181 398h-80q-51 262 -51 290q0 40 25.5 65.5t65.5 25.5t65.5 -25.5t25.5 -65.5q0 -12 -13 -84.5t-25 -139.5zM410 398h-80q-51 262 -51 290q0 40 25.5 65.5t65.5 25.5t65.5 -25.5t25.5 -65.5q0 -12 -12.5 -84.5t-25.5 -139.5z" glyph-name="quotedbl" horiz-adv-x="511" unicode="&quot;"/><glyph d="M743 202h-156l-45 -202h-125l46 202h-171l-45 -202h-125l45 202h-129v114h155l37 166h-129v115h155l42 187h125l-42 -187h171l43 187h124l-42 -187h130v-115h-156l-38 -166h130v-114zM528 485h-174l-38 -171h174z" glyph-name="numbersign" horiz-adv-x="844" unicode="#"/><glyph d="M609 232q0 -97 -63.5 -162t-178.5 -76v-96h-83v96q-94 9 -162.5 56.5t-99.5 123.5l138 72q37 -84 126 -104v183q-124 37 -174 89q-59 57 -59 143q0 93 66 156.5t165 75.5v102h83v-102q80 -10 139 -52.5t89 -112.5l-133 -73q-27 68 -96 89v-176q124 -38 183.5 -91 t59.5 -141zM213 567q0 -50 73 -78v155q-35 -7 -54 -27.5t-19 -49.5zM366 299v-158q37 8 59.5 29t22.5 50q0 26 -18 43.5t-64 35.5z" glyph-name="dollar" horiz-adv-x="652" unicode="$"/><glyph d="M212 437q-73 0 -125 52t-52 125q0 74 52 126t125 52t125 -52t52 -126q0 -73 -52 -125t-125 -52zM631 783h135l-509 -783h-136zM212 676q-26 0 -44 -18t-18 -44q0 -25 18.5 -43t43.5 -18t43.5 18t18.5 43q0 26 -18 44t-44 18zM677 -4q-73 0 -125 51.5t-52 124.5 q0 74 52 126t125 52t125 -52t52 -126q0 -73 -52 -124.5t-125 -51.5zM677 234q-26 0 -44 -18t-18 -44q0 -25 18.5 -43t43.5 -18t43.5 18t18.5 43q0 26 -18 44t-44 18z" glyph-name="percent" horiz-adv-x="889" unicode="%"/><glyph d="M542 0l-44 50q-91 -61 -200 -61q-107 0 -180.5 55t-73.5 162q0 115 140 206l-30 33q-59 65 -59 140q0 86 65 148.5t162 62.5q91 0 159.5 -60.5t68.5 -145.5q0 -110 -109 -175l-47 -28l113 -129q40 65 63 151l132 -31q-29 -131 -100 -228l131 -150h-191zM325 655 q-34 0 -56.5 -21.5t-22.5 -48.5q0 -30 29 -62l33 -37l57 34q38 23 38 65q0 27 -22.5 48.5t-55.5 21.5zM309 129q53 0 98 27l-137 157q-69 -44 -69 -92q0 -49 33 -70.5t75 -21.5z" glyph-name="ampersand" horiz-adv-x="750" unicode="&amp;"/><glyph d="M181 398h-80q-51 262 -51 290q0 40 25.5 65.5t65.5 25.5t65.5 -25.5t25.5 -65.5q0 -12 -13 -84.5t-25 -139.5z" glyph-name="quotesingle" horiz-adv-x="282" unicode="'"/><glyph d="M392 -46l-68 -91q-133 75 -206 198t-73 289v37q0 165 73 288t206 198l68 -91q-206 -150 -206 -396v-36q0 -247 206 -396z" glyph-name="parenleft" horiz-adv-x="412" unicode="("/><glyph d="M84 -137l-65 88q204 149 204 399v36q0 250 -204 399l65 88q134 -75 207 -198t73 -288v-37q0 -166 -73 -289t-207 -198z" glyph-name="parenright" horiz-adv-x="409" unicode=")"/><glyph d="M251 488l-81 -111l-82 60l79 110l-129 43l32 96l128 -42v139h105v-139l129 42l33 -96l-129 -43l79 -110l-82 -60z" glyph-name="asterisk" horiz-adv-x="503" unicode="*"/><glyph d="M238 97v195h-195v146h195v194h149v-194h190v-146h-190v-195h-149z" glyph-name="plus" horiz-adv-x="620" unicode="+"/><glyph d="M269 72v-5q0 -67 -38 -129t-103 -106l-59 57q73 48 106 122q-19 -7 -35 -7q-38 0 -63.5 26.5t-25.5 68.5q0 43 30.5 73.5t73.5 30.5q50 0 82 -36t32 -95z" glyph-name="comma" horiz-adv-x="321" unicode=","/><glyph d="M394 248h-330v154h330v-154z" glyph-name="hyphen" horiz-adv-x="458" unicode="-"/><glyph d="M157 -12q-44 0 -76 32t-32 76q0 45 31.5 77t76.5 32t76.5 -32t31.5 -77q0 -44 -31.5 -76t-76.5 -32z" glyph-name="period" horiz-adv-x="314" unicode="."/><glyph d="M533 815l-358 -820h-144l357 820h145z" glyph-name="slash" horiz-adv-x="562" unicode="/"/><glyph d="M49 392q0 108 35.5 197t113.5 147.5t188 58.5q107 0 184.5 -57.5t113.5 -146t36 -195.5q0 -79 -21.5 -151t-62 -129.5t-106 -91.5t-147.5 -34q-83 0 -148.5 33.5t-105 90.5t-60 128t-20.5 150zM212 394q0 -57 16 -111t57 -95.5t99 -41.5t99 41.5t57 95.5t16 111t-16 110 t-57 94.5t-99 41.5t-99 -41.5t-57 -94.5t-16 -110z" glyph-name="zero" horiz-adv-x="768" unicode="0"/><glyph d="M75 496l-72 131l266 156h133v-783h-162v590z" glyph-name="one" horiz-adv-x="494" unicode="1"/><glyph d="M47 142l273 224q73 60 101 96t28 79q0 42 -32 72t-80 30q-97 0 -136 -98l-149 63q28 92 106.5 139.5t179.5 47.5q126 0 202 -72.5t76 -180.5q0 -84 -44.5 -142t-157.5 -147l-132 -105h338v-148h-573v142z" glyph-name="two" horiz-adv-x="675" unicode="2"/><glyph d="M611 225q0 -102 -81 -169.5t-202 -67.5q-103 0 -180.5 42.5t-112.5 124.5l142 73q20 -43 61 -66.5t94 -23.5q52 0 83.5 25t31.5 66q0 44 -30.5 68t-84.5 24h-83v150h74q52 0 81 24.5t29 63.5q0 37 -30 61t-83 24q-88 0 -128 -87l-145 69q33 81 107 125t172 44 q120 0 195 -62t75 -163q0 -108 -107 -165v-1q65 -27 93.5 -70.5t28.5 -108.5z" glyph-name="three" horiz-adv-x="661" unicode="3"/><glyph d="M31 155v159l351 469h193v-482h111v-145h-111v-156h-158v155h-386zM199 301h218v292z" glyph-name="four" horiz-adv-x="729" unicode="4"/><glyph d="M613 262q0 -124 -83 -197.5t-209 -73.5q-203 0 -282 153l138 82q45 -84 148 -84q55 0 90 31t35 85q0 50 -35 81t-96 31q-59 0 -107 -46l-152 62l57 397h461v-147h-332l-25 -176q64 52 141 52q108 0 179.5 -65.5t71.5 -184.5z" glyph-name="five" horiz-adv-x="659" unicode="5"/><glyph d="M221 430q67 80 173 80q112 0 183.5 -72.5t71.5 -176.5q0 -123 -88 -197t-204 -74q-155 0 -241 110q-66 85 -66 266q0 192 91.5 310t262.5 118q122 0 222 -78l-84 -124q-69 54 -141 54q-87 0 -131.5 -61.5t-48.5 -154.5zM221 256q0 -50 40 -85t94 -35q55 0 93 34.5 t38 84.5q0 53 -37 85.5t-95 32.5q-54 0 -93.5 -31.5t-39.5 -85.5z" glyph-name="six" horiz-adv-x="695" unicode="6"/><glyph d="M31 636v147h574v-139l-346 -644h-182l342 636h-388z" glyph-name="seven" horiz-adv-x="632" unicode="7"/><glyph d="M635 221q0 -105 -84 -168t-209 -63q-124 0 -208 63.5t-84 164.5q0 128 137 188v1q-55 22 -88 68.5t-33 105.5q0 92 76.5 153t200.5 61t200 -61t76 -153q0 -59 -33 -105.5t-88 -68.5v-1q137 -58 137 -185zM457 561q0 42 -31.5 70t-83.5 28q-50 0 -82 -28t-32 -69 q0 -44 34.5 -71t79.5 -27q46 0 80.5 26.5t34.5 70.5zM472 231q0 46 -39 71.5t-90 25.5q-52 0 -91 -25.5t-39 -71.5q0 -44 35.5 -74.5t92.5 -30.5q60 0 95.5 30t35.5 75z" glyph-name="eight" horiz-adv-x="686" unicode="8"/><glyph d="M478 354q-70 -83 -176 -83q-112 0 -184 73.5t-72 177.5q0 123 88 197.5t204 74.5q81 0 142 -31t98 -79q67 -87 67 -271q0 -192 -87.5 -307.5t-255.5 -115.5q-128 0 -228 78l84 125q69 -54 144 -54q86 0 129 61t47 154zM474 526q0 50 -40.5 86t-93.5 36q-54 0 -92.5 -35.5 t-38.5 -85.5q0 -54 36.5 -87t94.5 -33q54 0 94 32.5t40 86.5z" glyph-name="nine" horiz-adv-x="695" unicode="9"/><glyph d="M168 330q-44 0 -76 31.5t-32 75.5q0 46 31.5 78t76.5 32q46 0 77 -32t31 -78q0 -44 -31.5 -75.5t-76.5 -31.5zM168 -12q-44 0 -76 32t-32 76q0 45 31.5 77t76.5 32t76.5 -32t31.5 -77t-31.5 -76.5t-76.5 -31.5z" glyph-name="colon" horiz-adv-x="336" unicode=":"/><glyph d="M169 330q-44 0 -75.5 31.5t-31.5 75.5q0 46 31.5 77.5t75.5 31.5q46 0 77.5 -32t31.5 -77q0 -44 -31.5 -75.5t-77.5 -31.5zM279 72v-5q0 -67 -38 -129t-103 -106l-59 57q73 48 106 122q-19 -7 -35 -7q-38 0 -63.5 26.5t-25.5 68.5q0 43 30.5 73.5t73.5 30.5q50 0 82 -36 t32 -95z" glyph-name="semicolon" horiz-adv-x="341" unicode=";"/><glyph d="M560 517l-346 -150v-2l346 -150v-152l-523 240v123l523 239v-148z" glyph-name="less" horiz-adv-x="634" unicode="&lt;"/><glyph d="M565 430h-497v145h497v-145zM565 155h-497v146h497v-146z" glyph-name="equal" horiz-adv-x="633" unicode="="/><glyph d="M420 366l-346 150v149l523 -239v-123l-523 -240v151l346 149v3z" glyph-name="greater" horiz-adv-x="634" unicode=">"/><glyph d="M268 649q-67 0 -103 -75l-135 71q31 70 97 110t145 40q107 0 174 -59.5t67 -152.5q0 -62 -29.5 -105.5t-92.5 -94.5q-36 -29 -55 -56t-19 -63v-7h-152v33q0 43 17 75t57 67l48 42q63 55 63 100q0 33 -23 54t-59 21zM150 85q0 40 28.5 69t67.5 29q41 0 69.5 -28.5 t28.5 -69.5q0 -40 -28.5 -68t-69.5 -28q-39 0 -67.5 28t-28.5 68z" glyph-name="question" horiz-adv-x="552" unicode="?"/><glyph d="M622 118q-36 0 -68 16t-45 42q-20 -26 -54 -42.5t-64 -16.5q-68 0 -115 53t-47 117q0 93 58.5 161.5t145.5 68.5q28 0 55 -15t38 -41l9 51h116l-42 -249q-10 -55 31 -55t77.5 49.5t36.5 121.5q0 115 -82 192t-213 77q-137 0 -235.5 -98.5t-98.5 -236.5q0 -136 88.5 -229 t239.5 -93q51 0 107.5 18.5t101.5 51.5l39 -61q-41 -36 -113 -59.5t-135 -23.5q-178 0 -291 113.5t-113 281.5q0 170 120.5 289t288.5 119q159 0 265.5 -96.5t106.5 -244.5q0 -115 -61.5 -188t-146.5 -73zM443 407q-39 0 -67 -33t-27 -75q1 -28 19.5 -50t47.5 -22 q38 0 66 33.5t28 76.5q0 31 -18.5 50.5t-48.5 19.5z" glyph-name="at" horiz-adv-x="866" unicode="@"/><glyph d="M-1 0l299 783h195l300 -783h-167l-59 158h-347l-58 -158h-163zM276 308h236l-118 318z" glyph-name="A" horiz-adv-x="792" unicode="A"/><glyph d="M700 216q0 -57 -24 -100.5t-64.5 -67.5t-88.5 -36t-102 -12h-330v783h325q103 0 176.5 -54t73.5 -153q0 -110 -110 -167v-2q73 -27 108.5 -71.5t35.5 -119.5zM507 551q0 45 -32.5 64t-80.5 19h-145v-169h134q124 0 124 86zM542 237q0 88 -128 88h-165v-175h170 q123 0 123 87z" glyph-name="B" horiz-adv-x="744" unicode="B"/><glyph d="M43 391q0 169 118.5 286.5t287.5 117.5q119 0 217.5 -62t137.5 -169l-148 -68q-25 65 -80 103t-128 38q-101 0 -169 -71t-68 -173q0 -104 67 -175.5t170 -71.5q72 0 128 40t82 105l149 -69q-39 -108 -140.5 -170.5t-220.5 -62.5q-171 0 -287 115.5t-116 286.5z" glyph-name="C" horiz-adv-x="832" unicode="C"/><glyph d="M773 393q0 -177 -120 -285t-325 -108h-237v783h240q206 0 324 -103t118 -287zM607 393q0 112 -76 174.5t-196 62.5h-82v-477h80q124 0 199 63.5t75 176.5z" glyph-name="D" horiz-adv-x="818" unicode="D"/><glyph d="M604 783v-152h-353v-159h316v-152h-316v-169h355v-151h-515v783h513z" glyph-name="E" horiz-adv-x="663" unicode="E"/><glyph d="M570 463v-154h-317v-309h-162v783h516v-154h-354v-166h317z" glyph-name="F" horiz-adv-x="649" unicode="F"/><glyph d="M208 392q0 -104 68 -177t173 -73q78 0 132.5 36.5t69.5 95.5h-238v147h407v-61q0 -117 -53.5 -203.5t-136.5 -127.5t-181 -41q-179 0 -292.5 116.5t-113.5 286.5t119.5 287t288.5 117q137 0 228.5 -67.5t122.5 -153.5l-143 -70q-22 55 -73.5 96.5t-136.5 41.5 q-100 0 -170.5 -72t-70.5 -178z" glyph-name="G" horiz-adv-x="857" unicode="G"/><glyph d="M253 0h-162v783h162v-309h328v309h162v-783h-162v317h-328v-317z" glyph-name="H" horiz-adv-x="834" unicode="H"/><glyph d="M253 0h-162v783h162v-783z" glyph-name="I" horiz-adv-x="345" unicode="I"/><glyph d="M537 783v-545q0 -117 -73.5 -182.5t-183.5 -65.5q-183 0 -251 168l137 76q34 -89 111 -89q46 0 72 27.5t26 77.5v533h162z" glyph-name="J" horiz-adv-x="622" unicode="J"/><glyph d="M91 0v783h161v-341l269 341h202l-299 -374l319 -409h-209l-282 372v-372h-161z" glyph-name="K" horiz-adv-x="736" unicode="K"/><glyph d="M252 783v-629h335v-154h-496v783h161z" glyph-name="L" horiz-adv-x="604" unicode="L"/><glyph d="M576 0h-108l-217 513h-1v-513h-159v783h209l222 -525l218 525h215v-783h-160v517h-1z" glyph-name="M" horiz-adv-x="1046" unicode="M"/><glyph d="M251 0h-160v783h185l340 -511v511h160v-783h-165l-360 540v-540z" glyph-name="N" horiz-adv-x="868" unicode="N"/><glyph d="M43 391q0 168 120 286t289 118t286.5 -116t117.5 -284q0 -170 -119.5 -288.5t-288.5 -118.5t-287 117t-118 286zM209 392q0 -102 70 -174.5t171 -72.5t171 72.5t70 174.5t-70 174t-171 72t-171 -72t-70 -174z" glyph-name="O" horiz-adv-x="899" unicode="O"/><glyph d="M662 532q0 -125 -78.5 -190.5t-207.5 -65.5h-123v-276h-162v783h291q123 0 201.5 -65.5t78.5 -185.5zM499 528q0 53 -37.5 77.5t-93.5 24.5h-115v-203h116q54 0 92 25t38 76z" glyph-name="P" horiz-adv-x="692" unicode="P"/><glyph d="M759 -20l-85 77q-103 -68 -226 -68q-170 0 -287.5 116.5t-117.5 285.5q0 168 119.5 286t289.5 118q169 0 286.5 -116t117.5 -284q0 -130 -74 -234l76 -66zM208 392q0 -102 71 -175t171 -73q53 0 101 23l-124 107l99 117l134 -121q31 56 31 122q0 101 -70.5 174t-170.5 73 t-171 -72.5t-71 -174.5z" glyph-name="Q" horiz-adv-x="900" unicode="Q"/><glyph d="M513 0l-162 281h-98v-281h-162v783h309q120 0 198.5 -64.5t78.5 -183.5q0 -171 -161 -229l177 -306h-180zM253 431h135q51 0 88 25t37 76q0 52 -36.5 75t-89.5 23h-134v-199z" glyph-name="R" horiz-adv-x="731" unicode="R"/><glyph d="M212 569q0 -35 29.5 -56t96.5 -40q140 -40 207 -94.5t67 -148.5q0 -107 -76 -174.5t-211 -67.5q-110 0 -190.5 49.5t-115.5 134.5l140 72q23 -51 67.5 -80t103.5 -29q52 0 85.5 23.5t33.5 59.5q0 34 -30.5 54.5t-117.5 46.5q-137 41 -191 95q-60 58 -60 145 q0 103 80 169.5t193 66.5q98 0 169.5 -44t105.5 -125l-134 -73q-40 96 -148 96q-48 0 -76 -22.5t-28 -57.5z" glyph-name="S" horiz-adv-x="652" unicode="S"/><glyph d="M256 626h-235v157h631v-157h-235v-626h-161v626z" glyph-name="T" horiz-adv-x="673" unicode="T"/><glyph d="M712 783v-467q0 -154 -80 -240.5t-236 -86.5q-157 0 -235 86.5t-78 234.5v473h163l-1 -469q0 -83 42.5 -126t109.5 -43q74 0 114.5 44.5t40.5 120.5v473h160z" glyph-name="U" horiz-adv-x="795" unicode="U"/><glyph d="M190 783l203 -595l204 595h172l-284 -783h-187l-283 783h175z" glyph-name="V" horiz-adv-x="784" unicode="V"/><glyph d="M249 0l-230 783h173l149 -556l169 556h173l169 -560l154 560h167l-232 -783h-175l-170 568h-2l-171 -568h-174z" glyph-name="W" horiz-adv-x="1191" unicode="W"/><glyph d="M-1 0l282 403l-266 380h190l173 -254l175 254h189l-268 -379l282 -404h-189l-191 282l-194 -282h-183z" glyph-name="X" horiz-adv-x="755" unicode="X"/><glyph d="M301 310l-287 473h187l181 -313l183 313h185l-287 -466v-317h-162v310z" glyph-name="Y" horiz-adv-x="763" unicode="Y"/><glyph d="M41 143l390 490h-374v150h575v-139l-389 -494h397l1 -150h-600v143z" glyph-name="Z" horiz-adv-x="685" unicode="Z"/><glyph d="M413 745h-190v-749h190v-122h-324v993h324v-122z" glyph-name="bracketleft" horiz-adv-x="448" unicode="["/><glyph d="M387 -5l-358 820h145l357 -820h-144z" glyph-name="backslash" horiz-adv-x="562" unicode="\"/><glyph d="M226 745h-190v122h323v-993h-323v122h190v749z" glyph-name="bracketright" horiz-adv-x="448" unicode="]"/><glyph d="M40 451l227 332h119l226 -332h-158l-128 207l-127 -207h-159z" glyph-name="asciicircum" horiz-adv-x="652" unicode="^"/><glyph d="M553 -191h-553v127h553v-127z" glyph-name="underscore" horiz-adv-x="553" unicode="_"/><glyph d="M10 810h179l107 -187h-128z" glyph-name="grave" horiz-adv-x="310" unicode="`"/><glyph d="M222 -10q-75 0 -127.5 43.5t-52.5 115.5v2q0 47 21.5 81t58 51t75 24.5t83.5 7.5h53q42 0 42 39q0 28 -22 47t-64 19q-79 0 -119 -72l-119 71q69 127 245 127q106 0 169 -55t63 -160v-331h-144v66l-2 1q-54 -77 -160 -77zM267 104q50 0 78.5 29.5t28.5 73.5v12h-94 q-34 0 -57.5 -15.5t-23.5 -45.5q0 -27 19 -40.5t49 -13.5z" glyph-name="a" horiz-adv-x="595" unicode="a"/><glyph d="M228 470h2q58 74 162 74q112 0 183 -84t71 -192q0 -109 -73 -193.5t-185 -84.5q-106 0 -162 74h-2v-64h-152v814h156v-344zM224 268q0 -60 38 -98.5t94 -38.5t94 38.5t38 98.5q0 59 -38.5 97t-94.5 38q-55 0 -93 -38t-38 -97z" glyph-name="b" horiz-adv-x="686" unicode="b"/><glyph d="M327 -12q-125 0 -206 79t-81 199q0 118 84 199t204 81q89 0 157.5 -43t94.5 -122l-137 -57q-35 79 -115 79q-54 0 -91 -36.5t-37 -98.5q0 -60 35.5 -98t92.5 -38q84 0 118 79l138 -57q-31 -82 -99.5 -124t-157.5 -42z" glyph-name="c" horiz-adv-x="615" unicode="c"/><glyph d="M462 68h-2q-53 -78 -166 -78q-112 0 -183 82.5t-71 195.5q0 107 73 191.5t183 84.5q100 0 160 -71h2v341h155v-814h-151v68zM462 268q0 59 -38 97t-94 38t-94 -38t-38 -97q0 -60 38 -98.5t94 -38.5t94 38.5t38 98.5z" glyph-name="d" horiz-adv-x="686" unicode="d"/><glyph d="M586 224h-388q7 -49 44.5 -77t87.5 -28q35 0 68 17.5t51 46.5l113 -74q-67 -121 -230 -121q-124 0 -208.5 78.5t-84.5 201.5q0 115 83.5 197t199.5 82q119 0 192.5 -74t73.5 -193q0 -38 -2 -56zM202 327h230q-3 35 -32 64t-82 29q-48 0 -79.5 -30.5t-36.5 -62.5z" glyph-name="e" horiz-adv-x="627" unicode="e"/><glyph d="M420 806v-128q-19 6 -48 6q-45 0 -70 -24t-25 -70v-56h140v-133h-139v-401h-156v401h-96v133h96v53q0 104 56 167t169 63q39 0 73 -11z" glyph-name="f" horiz-adv-x="434" unicode="f"/><glyph d="M51 -114l127 73q45 -90 142 -90q61 0 97.5 31.5t36.5 93.5v81h-2q-55 -71 -154 -71q-114 0 -186 77t-72 191q0 107 70.5 188.5t181.5 81.5q101 0 162 -73h2v65h153v-536q0 -125 -80.5 -195t-207.5 -70q-198 0 -270 153zM458 272q0 58 -37 94.5t-93 36.5 q-55 0 -92.5 -36.5t-37.5 -94.5q0 -59 37 -95.5t93 -36.5q55 0 92.5 36.5t37.5 95.5z" glyph-name="g" horiz-adv-x="682" unicode="g"/><glyph d="M417 0v296q0 46 -23.5 75t-69.5 29q-47 0 -71.5 -30t-24.5 -72v-298h-156v814h156v-343h1q29 42 71.5 57.5t75.5 15.5q96 0 146 -61.5t50 -150.5v-332h-155z" glyph-name="h" horiz-adv-x="639" unicode="h"/><glyph d="M53 720q0 40 28.5 68.5t67.5 28.5q41 0 69.5 -28t28.5 -69q0 -40 -28.5 -68t-69.5 -28q-39 0 -67.5 28t-28.5 68zM229 0v534h-157v-534h157z" glyph-name="i" horiz-adv-x="301" unicode="i"/><glyph d="M61 720q0 40 28 68.5t68 28.5q41 0 69.5 -28.5t28.5 -68.5t-28.5 -68t-69.5 -28q-40 0 -68 28t-28 68zM236 534v-574q0 -115 -56.5 -169.5t-172.5 -54.5q-32 0 -55 7v131q13 -3 27 -3q51 0 76 22t25 75v566h156z" glyph-name="j" horiz-adv-x="309" unicode="j"/><glyph d="M228 0h-156v815h156v-491l185 210h199l-215 -246l221 -288h-197l-189 253h-4v-253z" glyph-name="k" horiz-adv-x="619" unicode="k"/><glyph d="M229 0h-157v815h157v-815z" glyph-name="l" horiz-adv-x="301" unicode="l"/><glyph d="M661 400q-46 0 -71 -27.5t-25 -74.5v-298h-155v296q0 104 -87 104q-47 0 -71 -28.5t-24 -75.5v-296h-156v534h153v-70h2q22 39 65 60.5t91 21.5q111 0 156 -85q39 44 80 64.5t97 20.5q94 0 141 -58t47 -155v-333h-156v298q0 102 -87 102z" glyph-name="m" horiz-adv-x="971" unicode="m"/><glyph d="M417 0v296q0 47 -23.5 75.5t-69.5 28.5q-47 0 -71.5 -30t-24.5 -74v-296h-156v534h155v-70h1q19 33 53.5 52.5t57.5 23.5t40 4q96 0 144.5 -61t48.5 -151v-332h-155z" glyph-name="n" horiz-adv-x="639" unicode="n"/><glyph d="M39 266q0 119 85.5 199.5t207.5 80.5t206 -79.5t84 -197.5q0 -120 -85 -200.5t-207 -80.5q-123 0 -207 79t-84 199zM199 268q0 -60 38 -98.5t94 -38.5t93.5 38.5t37.5 98.5q0 59 -38 97.5t-94 38.5q-55 0 -93 -38.5t-38 -97.5z" glyph-name="o" horiz-adv-x="661" unicode="o"/><glyph d="M227 468h2q56 76 163 76q112 0 183 -84t71 -192q0 -109 -73 -193.5t-185 -84.5q-101 0 -158 69h-2v-323h-156v798h155v-66zM224 268q0 -60 38 -98.5t94 -38.5t94 38.5t38 98.5q0 59 -38.5 97t-94.5 38q-55 0 -93 -38t-38 -97z" glyph-name="p" horiz-adv-x="686" unicode="p"/><glyph d="M458 61h-2q-52 -71 -162 -71q-112 0 -183 82.5t-71 195.5q0 107 73 191.5t183 84.5q102 0 162 -71h1v61h154v-798h-155v325zM462 268q0 59 -38 97t-94 38t-94 -38t-38 -97q0 -60 38 -98.5t94 -38.5t94 38.5t38 98.5z" glyph-name="q" horiz-adv-x="686" unicode="q"/><glyph d="M410 536v-154q-18 3 -37 3q-76 0 -110.5 -43.5t-34.5 -115.5v-226h-156v534h155v-82h1q17 37 57.5 62.5t93.5 25.5q19 0 31 -4z" glyph-name="r" horiz-adv-x="425" unicode="r"/><glyph d="M474 161q0 -77 -57 -125t-156 -48q-168 0 -233 123l115 68q33 -65 120 -65q29 0 47 11.5t18 27.5t-17 28.5t-68 23.5q-190 42 -190 173q0 74 60.5 121.5t144.5 47.5q74 0 127 -29.5t79 -78.5l-113 -67q-30 51 -97 51q-24 0 -40 -11.5t-16 -27.5q0 -34 70 -49 q101 -21 153.5 -62.5t52.5 -111.5z" glyph-name="s" horiz-adv-x="512" unicode="s"/><glyph d="M402 132v-129q-34 -10 -73 -10q-104 0 -158 53.5t-54 147.5v205h-96v135h98v167h154v-167h132v-135h-132v-186q0 -46 23.5 -65.5t69.5 -19.5q19 0 36 4z" glyph-name="t" horiz-adv-x="450" unicode="t"/><glyph d="M223 534v-298q0 -47 22.5 -74.5t69.5 -27.5t71.5 29t24.5 73v298h156v-534h-154v66h-1q-53 -77 -149 -77q-95 0 -145.5 60.5t-50.5 149.5v335h156z" glyph-name="u" horiz-adv-x="639" unicode="u"/><glyph d="M179 534l132 -356l132 356h165l-219 -534h-159l-216 534h165z" glyph-name="v" horiz-adv-x="621" unicode="v"/><glyph d="M720 534h156l-168 -534h-153l-109 341h-1l-110 -341h-151l-166 534h160l96 -331h1l100 331h144l100 -334z" glyph-name="w" horiz-adv-x="893" unicode="w"/><glyph d="M11 0l192 269l-186 265h175l96 -151l99 151h172l-188 -262l193 -272h-175l-102 157l-103 -157h-173z" glyph-name="x" horiz-adv-x="575" unicode="x"/><glyph d="M13 534h172l133 -305l119 305h161l-324 -797h-167l131 320z" glyph-name="y" horiz-adv-x="611" unicode="y"/><glyph d="M51 401v133h442v-119l-252 -282h254v-133h-452v121l249 280h-241z" glyph-name="z" horiz-adv-x="541" unicode="z"/><glyph d="M416 -126h-75q-124 0 -181 51t-38 181l15 107q8 55 -18.5 75.5t-82.5 20.5h-16v123h16q56 0 82.5 20.5t18.5 75.5l-15 106q-19 128 38.5 180.5t180.5 52.5h75v-122h-59q-54 0 -77 -15t-24.5 -47.5t6.5 -85.5l13 -88q7 -47 -16 -86t-93 -52v-1q48 -8 75 -33t33 -51t1 -54 l-13 -88q-8 -53 -6.5 -85.5t24.5 -47.5t77 -15h59v-122z" glyph-name="braceleft" horiz-adv-x="452" unicode="{"/><glyph d="M224 -116h-135v1007h135v-1007z" glyph-name="bar" horiz-adv-x="313" unicode="|"/><glyph d="M37 -4h59q78 0 94.5 34t-0.5 114l-13 88q-4 28 2 54t33 51t74 33v1q-69 13 -92.5 52t-16.5 86l13 88q17 79 0.5 113.5t-94.5 34.5h-59v122h74q124 0 181 -52t39 -181l-16 -106q-8 -55 19 -75.5t83 -20.5h15v-123h-15q-56 0 -83 -20.5t-19 -75.5l16 -107 q18 -130 -39.5 -181t-180.5 -51h-74v122z" glyph-name="braceright" horiz-adv-x="452" unicode="}"/><glyph d="M406 216q-43 0 -80 19t-61.5 38t-39.5 19q-38 0 -39 -72h-133q-5 100 40 156.5t132 56.5q35 0 66 -12t48.5 -26t35.5 -26t31 -12q38 0 39 72h133q5 -100 -40 -156.5t-132 -56.5z" glyph-name="asciitilde" horiz-adv-x="631" unicode="~"/><glyph d="M257 450q0 -40 -28.5 -68.5t-67.5 -28.5q-41 0 -69.5 28t-28.5 69q0 40 28.5 68t69.5 28q39 0 67.5 -28t28.5 -68zM76 -91v-157h172v158l-15 354h-142z" glyph-name="exclamdown" horiz-adv-x="323" unicode="¡"/><glyph d="M447 212l135 -56q-26 -73 -82.5 -113.5t-132.5 -49.5v-95h-82v96q-107 14 -174 89.5t-67 182.5q0 105 68.5 181.5t172.5 92.5v97h82v-96q76 -9 132.5 -50.5t79.5 -110.5l-135 -56q-26 60 -79 74v-261q55 14 82 75zM203 268q0 -47 22.5 -81t61.5 -47v255 q-37 -13 -60.5 -46t-23.5 -81z" glyph-name="cent" horiz-adv-x="619" unicode="¢"/><glyph d="M539 186l110 -76q-22 -60 -71.5 -90.5t-115.5 -30.5q-50 0 -112 25.5t-96 25.5q-52 0 -130 -46l-76 135q72 43 112 83t40 89q0 6 -2 18h-141v127h84q-34 70 -34 114q0 96 76 165.5t187 69.5q99 0 164 -46t88 -125l-146 -68q-28 87 -104 87q-43 0 -70.5 -23t-27.5 -63 q0 -35 38 -111h194v-127h-153v-10q0 -81 -75 -131q14 3 25 3q37 0 84 -19t77 -19q50 0 75 43z" glyph-name="sterling" horiz-adv-x="678" unicode="£"/><glyph d="M537 -25l-86 88q-55 -27 -113 -27q-57 0 -111 27l-87 -87l-96 96l85 84q-30 51 -30 115q0 60 29 115l-84 85l96 95l87 -88q51 27 111 27q63 0 112 -27l86 87l95 -94l-83 -85q31 -55 31 -115q0 -59 -31 -116l84 -84zM337 369q-43 0 -71.5 -27.5t-28.5 -71.5 q0 -43 28.5 -71t71.5 -28q44 0 72.5 28t28.5 71q0 44 -28.5 71.5t-72.5 27.5z" glyph-name="currency" horiz-adv-x="676" unicode="¤"/><glyph d="M470 252h229v-103h-229v-149h-162v149h-229v103h229v59h-229v103h175l-219 369h187l166 -308l169 308h185l-222 -369h179v-103h-229v-59z" glyph-name="yen" horiz-adv-x="777" unicode="¥"/><glyph d="M223 891v-390h-135v390h135zM88 -116v390h135v-390h-135z" glyph-name="brokenbar" horiz-adv-x="311" unicode="¦"/><glyph d="M570 164q0 -79 -62.5 -127.5t-170.5 -48.5q-199 0 -265 141l110 66q21 -38 61 -61.5t94 -23.5q35 0 55 13.5t20 32.5q0 18 -19.5 30.5t-75.5 26.5l-83 20q-89 21 -139 59.5t-50 91.5q0 97 101 134q-49 37 -49 103q0 79 64 126t173 47q171 0 231 -118l-109 -67 q-38 64 -125 64q-33 0 -54.5 -13.5t-21.5 -31.5q0 -17 15.5 -30t61.5 -24l101 -24q189 -44 189 -152q0 -94 -100 -132q48 -37 48 -102zM252 460q-26 0 -44 -12.5t-18 -37.5q0 -39 113 -66q80 -20 113 -20q25 0 43 13t18 38q0 38 -107 64q-4 1 -6 1q-80 20 -112 20z" glyph-name="section" horiz-adv-x="666" unicode="§"/><glyph d="M99 617q-36 0 -61 25t-25 62q0 35 24.5 61t61.5 26q36 0 61.5 -26t25.5 -61q0 -36 -25.5 -61.5t-61.5 -25.5zM337 617q-36 0 -61 25t-25 62q0 35 25 61t61 26t61.5 -25.5t25.5 -61.5q0 -37 -25.5 -62t-61.5 -25z" glyph-name="dieresis" horiz-adv-x="440" unicode="¨"/><glyph d="M444 -10q-165 0 -282 117.5t-117 284.5q0 166 119 284.5t283 118.5q166 0 284 -117t118 -283q0 -109 -55 -202.5t-148.5 -148t-201.5 -54.5zM446 729q-135 0 -232.5 -99t-97.5 -237t97.5 -237.5t232.5 -99.5t233.5 99.5t98.5 237.5t-98.5 237t-233.5 99zM452 146 q79 0 139 37t87 110l-121 50q-30 -70 -104 -70q-51 0 -82.5 34t-31.5 86q0 55 33 87.5t81 32.5q72 0 101 -70l122 50q-23 70 -83.5 108t-139.5 38q-107 0 -181 -71.5t-74 -175.5q0 -106 71.5 -176t182.5 -70z" glyph-name="copyright" horiz-adv-x="894" unicode="©"/><glyph d="M361 430h-2q-36 -50 -113 -50q-78 0 -128 58t-50 136q0 74 51 133.5t129 59.5q71 0 111 -50h2v42h108v-372h-108v43zM363 574q0 41 -26.5 67.5t-65.5 26.5t-65.5 -26.5t-26.5 -67.5t26.5 -68t65.5 -27t65.5 27t26.5 68zM469 296h-396v-97h396v97z" glyph-name="ordfeminine" horiz-adv-x="551" unicode="ª"/><glyph d="M347 154l-86 -83l-233 230l234 231l84 -83l-149 -147zM622 154l-85 -83l-233 230l234 231l84 -83l-150 -147z" glyph-name="guillemotleft" horiz-adv-x="674" unicode="«"/><glyph d="M647 235h-151v182h-447v142h598v-324z" glyph-name="logicalnot" horiz-adv-x="718" unicode="¬"/><glyph d="M326 791q114 0 194.5 -81t80.5 -194q0 -114 -80.5 -194.5t-194.5 -80.5t-194 80.5t-80 194.5t80 194.5t194 80.5zM326 291q92 0 157.5 66t65.5 159t-65.5 159t-157.5 66t-157 -65.5t-65 -159.5t65 -159.5t157 -65.5zM455 574q0 -69 -65 -92l71 -123h-72l-65 113h-39v-113 h-65v314h124q48 0 79.5 -25.5t31.5 -73.5zM285 532h54q20 0 35 10t15 30q0 40 -51 40h-53v-80z" glyph-name="registered" horiz-adv-x="652" unicode="®"/><glyph d="M20 745h364v-117h-364v117z" glyph-name="macron" horiz-adv-x="404" unicode="¯"/><glyph d="M230 412q-78 0 -133 55.5t-55 134.5q0 77 55 132.5t133 55.5t133.5 -55.5t55.5 -132.5q0 -79 -55 -134.5t-134 -55.5zM230 681q-34 0 -57 -23t-23 -56q0 -34 23 -57.5t57 -23.5t57 23.5t23 57.5q0 31 -24 55t-56 24z" glyph-name="degree" horiz-adv-x="461" unicode="°"/><glyph d="M64 376v144h198v166h141v-166h192v-144h-192v-167h-141v167h-198zM69 139h521v-139h-521v139z" glyph-name="plusminus" horiz-adv-x="659" unicode="±"/><glyph d="M408 530v-104h-351v98l176 142q30 24 41.5 39.5t11.5 32.5q0 19 -14.5 32.5t-40.5 13.5q-42 0 -62 -51l-105 44q14 52 60 83t112 31q87 0 136 -56q34 -40 34 -92q0 -46 -23 -76.5t-82 -76.5l-75 -60h182z" glyph-name="uni00B2" horiz-adv-x="469" unicode="²"/><glyph d="M331 660q33 -12 51.5 -38.5t18.5 -61.5q0 -63 -49.5 -103t-130.5 -40q-136 0 -173 105l97 47q22 -49 74 -49q28 0 45 12.5t17 32.5q0 45 -62 45h-50v91h46q59 0 59 44t-59 44q-47 0 -68 -49l-97 47q18 48 62 76t109 28q76 0 124 -37t48 -99q0 -29 -17 -55.5t-45 -39.5z " glyph-name="uni00B3" horiz-adv-x="451" unicode="³"/><glyph d="M9 623l107 187h179l-158 -187h-128z" glyph-name="acute" horiz-adv-x="305" unicode="´"/><glyph d="M239 534v-298q0 -47 23 -74.5t70 -27.5q46 0 70.5 29t24.5 73v298h156v-534h-154v66h-1q-50 -74 -135 -74q-33 0 -59 16v-172h-151v698h156z" glyph-name="uni00B5" horiz-adv-x="666" unicode="µ"/><glyph d="M310 360h-52q-93 0 -158.5 62.5t-65.5 149.5q0 88 65.5 149.5t158.5 61.5h207v-783h-155v360z" glyph-name="paragraph" horiz-adv-x="564" unicode="¶"/><glyph d="M161 207q-44 0 -76 31.5t-32 75.5q0 46 32 78t76 32q46 0 77.5 -32t31.5 -78q0 -44 -32 -75.5t-77 -31.5z" glyph-name="periodcentered" horiz-adv-x="323" unicode="·"/><glyph d="M282 -101q0 -160 -189 -160q-44 0 -73 9v105q28 -5 53 -5q43 0 64 25.5t21 69.5q0 30 -12 57h114q22 -44 22 -101z" glyph-name="cedilla" horiz-adv-x="302" unicode="¸"/><glyph d="M171 745l-104 -59l-52 94l172 99h117v-453h-133v319z" glyph-name="uni00B9" horiz-adv-x="375" unicode="¹"/><glyph d="M68 572q0 82 59.5 138.5t143.5 56.5q85 0 143.5 -55t58.5 -138q0 -82 -59.5 -138t-143.5 -56q-85 0 -143.5 55t-58.5 137zM179 574q0 -42 26.5 -68.5t65.5 -26.5q38 0 64.5 26.5t26.5 68.5q0 41 -26.5 67.5t-65.5 26.5q-38 0 -64.5 -26.5t-26.5 -67.5zM73 296h395v-97 h-395v97z" glyph-name="ordmasculine" horiz-adv-x="541" unicode="º"/><glyph d="M137 71l-85 83l150 147l-150 148l85 83l233 -231zM413 71l-85 83l149 147l-149 148l84 83l234 -231z" glyph-name="guillemotright" horiz-adv-x="674" unicode="»"/><glyph d="M82 589l-52 95l172 99h116v-454h-132v319zM663 783h135l-509 -783h-136zM752 82h-229v125l201 247h145v-268h75v-104h-75v-82h-117v82zM752 333l-118 -147h118v147z" glyph-name="onequarter" horiz-adv-x="987" unicode="¼"/><glyph d="M30 684l173 99h116v-454l-132 1v318l-104 -59zM799 783l-509 -783h-137l511 783h135zM759 104l76 60q59 47 82 77.5t23 75.5q0 52 -35 92q-48 56 -136 56q-66 0 -112 -30.5t-60 -82.5l105 -45q20 51 63 51q26 0 40 -13t14 -32q0 -18 -11 -33t-42 -40l-175 -142v-98h351 v104h-183z" glyph-name="onehalf" horiz-adv-x="993" unicode="½"/><glyph d="M325 563q33 -12 51.5 -38.5t18.5 -61.5q0 -63 -49.5 -103t-130.5 -40q-136 0 -173 105l97 47q22 -49 74 -49q28 0 45 12.5t17 32.5q0 45 -62 45h-50v91h46q59 0 59 44t-59 44q-47 0 -68 -49l-97 47q18 48 62 76t109 28q76 0 124 -37t48 -99q0 -29 -17 -55.5t-45 -39.5z M704 783h136l-509 -783h-136zM794 82h-229v125l201 247h145v-268h75v-104h-75v-82h-117v82zM794 333l-118 -147h118v147z" glyph-name="threequarters" horiz-adv-x="1021" unicode="¾"/><glyph d="M395 450q0 -40 -28.5 -69t-67.5 -29q-41 0 -69.5 28.5t-28.5 69.5q0 40 28.5 68t69.5 28q39 0 67.5 -28t28.5 -68zM277 -114q67 0 103 75l135 -71q-31 -70 -97 -110t-145 -40q-107 0 -174 59.5t-67 152.5q0 62 29.5 105.5t92.5 94.5q36 29 55 56t19 63v7h152v-33 q0 -43 -17 -75t-57 -67l-48 -42q-63 -55 -63 -100q0 -33 23 -54t59 -21z" glyph-name="questiondown" horiz-adv-x="536" unicode="¿"/><glyph d="M354 1042l107 -187h-128l-158 187h179zM-1 0l299 783h195l300 -783h-167l-59 158h-347l-58 -158h-163zM276 308h236l-118 318z" glyph-name="Agrave" horiz-adv-x="792" unicode="À"/><glyph d="M333 855l107 187h179l-158 -187h-128zM-1 0l299 783h195l300 -783h-167l-59 158h-347l-58 -158h-163zM276 308h236l-118 318z" glyph-name="Aacute" horiz-adv-x="792" unicode="Á"/><glyph d="M320 1028h147l120 -174h-132l-61 91l-61 -91h-133zM-1 0l299 783h195l300 -783h-167l-59 158h-347l-58 -158h-163zM276 308h236l-118 318z" glyph-name="Acircumflex" horiz-adv-x="792" unicode="Â"/><glyph d="M331 1019q35 0 63 -15.5t46.5 -30.5t31.5 -15q34 0 34 58h97q4 -76 -30.5 -119.5t-100.5 -43.5q-34 0 -62 15.5t-47 30.5t-32 15q-33 0 -34 -58h-96q-5 76 29.5 119.5t100.5 43.5zM-1 0l299 783h195l300 -783h-167l-59 158h-347l-58 -158h-163zM276 308h236l-118 318z " glyph-name="Atilde" horiz-adv-x="792" unicode="Ã"/><glyph d="M272 846q-36 0 -61 25.5t-25 61.5t25 61.5t61 25.5t61.5 -26t25.5 -61q0 -36 -25.5 -61.5t-61.5 -25.5zM520 846q-36 0 -61 25.5t-25 61.5t25 61.5t61 25.5t61.5 -25.5t25.5 -61.5t-25.5 -61.5t-61.5 -25.5zM-1 0l299 783h195l300 -783h-167l-59 158h-347l-58 -158h-163z M276 308h236l-118 318z" glyph-name="Adieresis" horiz-adv-x="792" unicode="Ä"/><glyph d="M626 0l-59 158h-347l-58 -158h-163l280 735q-39 42 -39 99q0 61 46 104t109 43t109 -43t46 -104q0 -56 -39 -98l282 -736h-167zM395 894q-29 0 -47 -17.5t-18 -42.5t18.5 -43.5t46.5 -18.5q27 0 45.5 18.5t18.5 43.5q0 23 -19.5 41.5t-44.5 18.5zM394 626l-118 -318h236z " glyph-name="Aring" horiz-adv-x="792" unicode="Å"/><glyph d="M994 631h-347v-159h311v-152h-311v-169h350v-151h-510v157h-248l-77 -157h-175l397 783h610v-152zM478 632l-164 -325h173v325h-9z" glyph-name="AE" horiz-adv-x="1054" unicode="Æ"/><glyph d="M658 291l149 -69q-35 -95 -118.5 -155.5t-188.5 -74.5q18 -42 18 -93q0 -160 -189 -160q-44 0 -73 9v105q28 -5 53 -5q43 0 64.5 25.5t21.5 69.5q0 25 -10 50q-149 21 -245.5 132.5t-96.5 265.5q0 169 118.5 286.5t287.5 117.5q119 0 217.5 -62t137.5 -169l-148 -68 q-25 65 -80 103t-128 38q-101 0 -169 -71t-68 -173q0 -104 67 -175.5t170 -71.5q72 0 128 40t82 105z" glyph-name="Ccedilla" horiz-adv-x="832" unicode="Ç"/><glyph d="M343 1042l107 -187h-128l-158 187h179zM255 472v159h352v152h-516v-783h519v151h-355v169h316v152h-316z" glyph-name="Egrave" horiz-adv-x="667" unicode="È"/><glyph d="M249 855l106 187h180l-159 -187h-127zM255 151v169h316v152h-316v159h352v152h-516v-783h519v151h-355z" glyph-name="Eacute" horiz-adv-x="667" unicode="É"/><glyph d="M279 1028h146l121 -174h-132l-62 91l-60 -91h-136zM255 472v159h352v152h-516v-783h519v151h-355v169h316v152h-316z" glyph-name="Ecircumflex" horiz-adv-x="667" unicode="Ê"/><glyph d="M222 846q-36 0 -61 25.5t-25 61.5t24.5 61.5t61.5 25.5q36 0 61.5 -25.5t25.5 -61.5t-25.5 -61.5t-61.5 -25.5zM470 846q-36 0 -61 25.5t-25 61.5t24.5 61.5t61.5 25.5q36 0 61.5 -25.5t25.5 -61.5t-25.5 -61.5t-61.5 -25.5zM251 631v-159h316v-152h-316v-169h355v-151 h-515v783h513v-152h-353z" glyph-name="Edieresis" horiz-adv-x="663" unicode="Ë"/><glyph d="M129 1042l107 -187h-128l-158 187h179zM253 783h-162v-783h162v783z" glyph-name="Igrave" horiz-adv-x="345" unicode="Ì"/><glyph d="M108 855l107 187h180l-159 -187h-128zM91 783h162v-783h-162v783z" glyph-name="Iacute" horiz-adv-x="345" unicode="Í"/><glyph d="M100 1028h147l120 -174h-132l-62 91l-60 -91h-136zM253 783h-162v-783h162v783z" glyph-name="Icircumflex" horiz-adv-x="345" unicode="Î"/><glyph d="M56 846q-36 0 -61.5 25.5t-25.5 61.5t25 61.5t62 25.5q36 0 61.5 -26t25.5 -61q0 -36 -26 -61.5t-61 -25.5zM290 846q-36 0 -61.5 25.5t-25.5 61.5t25 61.5t62 25.5q36 0 61 -25.5t25 -61.5t-25.5 -61.5t-60.5 -25.5zM91 783h162v-783h-162v783z" glyph-name="Idieresis" horiz-adv-x="345" unicode="Ï"/><glyph d="M112 783h240q206 0 324 -103t118 -287q0 -177 -120 -285t-325 -108h-237v320h-95v150h95v313zM274 153h80q124 0 199 63.5t75 176.5q0 112 -76 174.5t-196 62.5h-82v-160h167v-150h-167v-167z" glyph-name="Eth" horiz-adv-x="839" unicode="Ð"/><glyph d="M365 1019q36 0 63.5 -15.5t46 -30.5t31.5 -15q34 0 34 58h97q4 -76 -30.5 -119.5t-100.5 -43.5q-34 0 -62 15.5t-47 30.5t-32 15q-33 0 -34 -58h-96q-5 76 29.5 119.5t100.5 43.5zM251 0h-160v783h185l340 -511v511h160v-783h-165l-360 540v-540z" glyph-name="Ntilde" horiz-adv-x="868" unicode="Ñ"/><glyph d="M413 1042l107 -187h-128l-158 187h179zM43 391q0 -169 118 -286t287 -117t288.5 118.5t119.5 288.5q0 168 -117.5 284t-286.5 116t-289 -118t-120 -286zM209 392q0 102 70 174t171 72t171 -72t70 -174t-70 -174.5t-171 -72.5t-171 72.5t-70 174.5z" glyph-name="Ograve" horiz-adv-x="899" unicode="Ò"/><glyph d="M381 855l107 187h179l-158 -187h-128zM43 391q0 168 120 286t289 118t286.5 -116t117.5 -284q0 -170 -119.5 -288.5t-288.5 -118.5t-287 117t-118 286zM209 392q0 -102 70 -174.5t171 -72.5t171 72.5t70 174.5t-70 174t-171 72t-171 -72t-70 -174z" glyph-name="Oacute" horiz-adv-x="899" unicode="Ó"/><glyph d="M380 1028h146l121 -174h-132l-62 91l-60 -91h-134zM43 391q0 -169 118 -286t287 -117t288.5 118.5t119.5 288.5q0 168 -117.5 284t-286.5 116t-289 -118t-120 -286zM209 392q0 102 70 174t171 72t171 -72t70 -174t-70 -174.5t-171 -72.5t-171 72.5t-70 174.5z" glyph-name="Ocircumflex" horiz-adv-x="899" unicode="Ô"/><glyph d="M379 1019q35 0 63 -15.5t46.5 -30.5t31.5 -15q34 0 34 58h97q4 -76 -30.5 -119.5t-100.5 -43.5q-34 0 -62 15.5t-47 30.5t-32 15q-33 0 -34 -58h-96q-5 76 29.5 119.5t100.5 43.5zM43 391q0 168 120 286t289 118t286.5 -116t117.5 -284q0 -170 -119.5 -288.5 t-288.5 -118.5t-287 117t-118 286zM209 392q0 -102 70 -174.5t171 -72.5t171 72.5t70 174.5t-70 174t-171 72t-171 -72t-70 -174z" glyph-name="Otilde" horiz-adv-x="899" unicode="Õ"/><glyph d="M327 846q-36 0 -61 25.5t-25 61.5t24.5 61.5t61.5 25.5q36 0 61.5 -26t25.5 -61q0 -36 -25.5 -61.5t-61.5 -25.5zM575 846q-36 0 -61 25.5t-25 61.5t24.5 61.5t61.5 25.5q36 0 61.5 -25.5t25.5 -61.5t-25.5 -61.5t-61.5 -25.5zM43 391q0 168 120 286t289 118t286.5 -116 t117.5 -284q0 -170 -119.5 -288.5t-288.5 -118.5t-287 117t-118 286zM209 392q0 -102 70 -174.5t171 -72.5t171 72.5t70 174.5t-70 174t-171 72t-171 -72t-70 -174z" glyph-name="Odieresis" horiz-adv-x="899" unicode="Ö"/><glyph d="M52 550l96 95l185 -186l186 186l95 -95l-186 -186l186 -186l-95 -95l-186 186l-185 -186l-96 95l186 186z" glyph-name="multiply" horiz-adv-x="666" unicode="×"/><glyph d="M857 740l-88 -93q88 -109 88 -252q0 -171 -119 -289t-289 -118q-131 0 -235 74l-88 -91l-81 75l88 92q-89 110 -89 253q0 168 120 286t289 118q132 0 235 -72l88 92zM208 392q0 -72 39 -135l331 347q-57 35 -126 35q-101 0 -172.5 -72.5t-71.5 -174.5zM452 145 q100 0 171 72.5t71 174.5q0 75 -39 136l-331 -347q56 -36 128 -36z" glyph-name="Oslash" horiz-adv-x="902" unicode="Ø"/><glyph d="M361 1042l107 -187h-128l-158 187h179zM552 783v-473q0 -76 -40.5 -120.5t-114.5 -44.5q-67 0 -109.5 43t-42.5 126l1 469h-163v-473q0 -148 78 -234.5t235 -86.5q156 0 236 86.5t80 240.5v467h-160z" glyph-name="Ugrave" horiz-adv-x="795" unicode="Ù"/><glyph d="M332 855l107 187h179l-158 -187h-128zM712 783v-467q0 -154 -80 -240.5t-236 -86.5q-157 0 -235 86.5t-78 234.5v473h163l-1 -469q0 -83 42.5 -126t109.5 -43q74 0 114.5 44.5t40.5 120.5v473h160z" glyph-name="Uacute" horiz-adv-x="795" unicode="Ú"/><glyph d="M325 1028h147l120 -174h-132l-62 91l-60 -91h-135zM552 783v-473q0 -76 -40.5 -120.5t-114.5 -44.5q-67 0 -109.5 43t-42.5 126l1 469h-163v-473q0 -148 78 -234.5t235 -86.5q156 0 236 86.5t80 240.5v467h-160z" glyph-name="Ucircumflex" horiz-adv-x="795" unicode="Û"/><glyph d="M274 846q-36 0 -61 25.5t-25 61.5t25 61.5t61 25.5t61.5 -25.5t25.5 -61.5t-25.5 -61.5t-61.5 -25.5zM522 846q-35 0 -60.5 25.5t-25.5 61.5t25 61.5t61 25.5t61.5 -25.5t25.5 -61.5t-25.5 -61.5t-61.5 -25.5zM712 783v-467q0 -154 -80 -240.5t-236 -86.5 q-157 0 -235 86.5t-78 234.5v473h163l-1 -469q0 -83 42.5 -126t109.5 -43q74 0 114.5 44.5t40.5 120.5v473h160z" glyph-name="Udieresis" horiz-adv-x="795" unicode="Ü"/><glyph d="M322 855l107 187h179l-158 -187h-128zM204 783l180 -313l183 313h185l-286 -466v-317h-162v310l-290 473h190z" glyph-name="Yacute" horiz-adv-x="766" unicode="Ý"/><glyph d="M253 650h129q124 0 202.5 -65.5t78.5 -185.5q0 -124 -79 -189t-208 -65h-123v-145h-162v783h162v-133zM499 396q0 53 -37.5 77.5t-93.5 24.5h-115v-204h116q54 0 92 25.5t38 76.5z" glyph-name="Thorn" horiz-adv-x="691" unicode="Þ"/><glyph d="M689 165q0 -83 -59 -130t-148 -47q-144 0 -194 104l106 70q30 -52 78 -52q30 0 49 12.5t19 37.5q0 19 -21.5 33.5t-85.5 43.5q-123 56 -123 161q0 38 20 73t43.5 56.5t43.5 45t20 39.5q0 29 -24.5 46t-66.5 17q-55 0 -86.5 -36t-31.5 -94v-545h-156v548q0 125 75.5 197 t201.5 72q61 0 116 -19t93.5 -61.5t38.5 -101.5q0 -30 -11 -57.5t-24 -44t-34 -37.5q-43 -41 -55 -57t-12 -36q0 -18 18 -31.5t71 -40.5l18 -9q56 -29 88.5 -64.5t32.5 -92.5z" glyph-name="germandbls" horiz-adv-x="723" unicode="ß"/><glyph d="M261 810l107 -187h-128l-158 187h179zM222 -10q-75 0 -127.5 43.5t-52.5 115.5v2q0 47 21.5 81t58 51t75 24.5t83.5 7.5h53q42 0 42 39q0 28 -22 47t-64 19q-79 0 -119 -72l-119 71q69 127 245 127q106 0 169 -55t63 -160v-331h-144v66l-2 1q-54 -77 -160 -77zM267 104 q50 0 78.5 29.5t28.5 73.5v12h-94q-34 0 -57.5 -15.5t-23.5 -45.5q0 -27 19 -40.5t49 -13.5z" glyph-name="agrave" horiz-adv-x="595" unicode="à"/><glyph d="M230 623l107 187h179l-158 -187h-128zM222 -10q-75 0 -127.5 43.5t-52.5 115.5v2q0 47 21.5 81t58 51t75 24.5t83.5 7.5h53q42 0 42 39q0 28 -22 47t-64 19q-79 0 -119 -72l-119 71q69 127 245 127q106 0 169 -55t63 -160v-331h-144v66l-2 1q-54 -77 -160 -77zM267 104 q50 0 78.5 29.5t28.5 73.5v12h-94q-34 0 -57.5 -15.5t-23.5 -45.5q0 -27 19 -40.5t49 -13.5z" glyph-name="aacute" horiz-adv-x="595" unicode="á"/><glyph d="M225 798h147l120 -174h-132l-62 91l-60 -91h-133zM222 -10q-75 0 -127.5 43.5t-52.5 115.5v2q0 47 21.5 81t58 51t75 24.5t83.5 7.5h53q42 0 42 39q0 28 -22 47t-64 19q-79 0 -119 -72l-119 71q69 127 245 127q106 0 169 -55t63 -160v-331h-144v66l-2 1q-54 -77 -160 -77 zM267 104q50 0 78.5 29.5t28.5 73.5v12h-94q-34 0 -57.5 -15.5t-23.5 -45.5q0 -27 19 -40.5t49 -13.5z" glyph-name="acircumflex" horiz-adv-x="595" unicode="â"/><glyph d="M218 789q36 0 63.5 -15.5t46 -30.5t31.5 -15q34 0 34 58h97q4 -76 -30.5 -119.5t-100.5 -43.5q-34 0 -62 15.5t-47 30.5t-32 15q-33 0 -34 -58h-96q-5 76 29.5 119.5t100.5 43.5zM222 -10q-75 0 -127.5 43.5t-52.5 115.5v2q0 47 21.5 81t58 51t75 24.5t83.5 7.5h53 q42 0 42 39q0 28 -22 47t-64 19q-79 0 -119 -72l-119 71q69 127 245 127q106 0 169 -55t63 -160v-331h-144v66l-2 1q-54 -77 -160 -77zM267 104q50 0 78.5 29.5t28.5 73.5v12h-94q-34 0 -57.5 -15.5t-23.5 -45.5q0 -27 19 -40.5t49 -13.5z" glyph-name="atilde" horiz-adv-x="595" unicode="ã"/><glyph d="M177 617q-36 0 -61 25t-25 62q0 35 25 61t61 26t61.5 -25.5t25.5 -61.5q0 -37 -25.5 -62t-61.5 -25zM416 617q-36 0 -61 25t-25 62q0 35 24.5 61t61.5 26q36 0 61.5 -26t25.5 -61q0 -36 -25.5 -61.5t-61.5 -25.5zM222 -10q-75 0 -127.5 43.5t-52.5 115.5v2q0 47 21.5 81 t58 51t75 24.5t83.5 7.5h53q42 0 42 39q0 28 -22 47t-64 19q-79 0 -119 -72l-119 71q69 127 245 127q106 0 169 -55t63 -160v-331h-144v66l-2 1q-54 -77 -160 -77zM267 104q50 0 78.5 29.5t28.5 73.5v12h-94q-34 0 -57.5 -15.5t-23.5 -45.5q0 -27 19 -40.5t49 -13.5z" glyph-name="adieresis" horiz-adv-x="595" unicode="ä"/><glyph d="M427 517q101 -53 101 -186v-331h-144v66l-2 1q-54 -77 -160 -77q-75 0 -127.5 43.5t-52.5 115.5v2q0 47 21.5 81t58 51t75 24.5t83.5 7.5h53q42 0 42 39q0 28 -22 47t-64 19q-79 0 -119 -72l-119 71q38 70 113 103q-22 35 -22 76q0 61 46 104t109 43q64 0 109.5 -43 t45.5 -104q0 -45 -25 -81zM297 659q-28 0 -46.5 -17.5t-18.5 -43.5q0 -25 18.5 -43t46.5 -18q27 0 45.5 18t18.5 43q0 24 -19 42.5t-45 18.5zM374 219h-94q-34 0 -57.5 -15.5t-23.5 -45.5q0 -27 19 -40.5t49 -13.5q50 0 78.5 29.5t28.5 73.5v12z" glyph-name="aring" horiz-adv-x="595" unicode="å"/><glyph d="M230 -10h-9q-75 0 -127 43.5t-52 115.5v6q0 37 14.5 65.5t37.5 46t55 29t63.5 15.5t66.5 4h54q42 0 42 39q0 28 -22 47t-64 19q-80 0 -118 -72l-119 71q68 127 244 127q115 0 175 -64q78 65 178 65q117 0 191.5 -74t74.5 -191q0 -39 -3 -58h-387q7 -49 44 -77t88 -28 q35 0 68 17.5t51 46.5l113 -74q-69 -121 -231 -121q-137 0 -219 93q-84 -91 -209 -91zM528 327h230q-2 35 -31 64t-82 29q-48 0 -80 -30.5t-37 -62.5zM374 219h-95q-34 0 -57 -15.5t-23 -45.5q0 -27 18.5 -40.5t48.5 -13.5q52 0 80 30t28 73v12z" glyph-name="ae" horiz-adv-x="954" unicode="æ"/><glyph d="M446 211l138 -57q-52 -137 -203 -162q19 -44 19 -93q0 -160 -189 -160q-44 0 -73 9v105q28 -5 52 -5q43 0 64.5 25.5t21.5 69.5q0 26 -9 50q-102 19 -164.5 94t-62.5 179q0 118 84 199t204 81q89 0 157.5 -43t94.5 -122l-137 -57q-35 79 -115 79q-54 0 -91 -36.5 t-37 -98.5q0 -60 35.5 -98t92.5 -38q84 0 118 79z" glyph-name="ccedilla" horiz-adv-x="605" unicode="ç"/><glyph d="M105 810h180l107 -187h-128zM586 224h-388q7 -49 44.5 -77t87.5 -28q35 0 68 17.5t51 46.5l113 -74q-67 -121 -230 -121q-124 0 -208.5 78.5t-84.5 201.5q0 115 83.5 197t199.5 82q119 0 192.5 -74t73.5 -193q0 -38 -2 -56zM202 327h230q-3 35 -32 64t-82 29 q-48 0 -79.5 -30.5t-36.5 -62.5z" glyph-name="egrave" horiz-adv-x="627" unicode="è"/><glyph d="M382 623h-128l107 187h179zM586 224h-388q7 -49 44.5 -77t87.5 -28q35 0 68 17.5t51 46.5l113 -74q-67 -121 -230 -121q-124 0 -208.5 78.5t-84.5 201.5q0 115 83.5 197t199.5 82q119 0 192.5 -74t73.5 -193q0 -38 -2 -56zM202 327h230q-3 35 -32 64t-82 29 q-48 0 -79.5 -30.5t-36.5 -62.5z" glyph-name="eacute" horiz-adv-x="627" unicode="é"/><glyph d="M128 624l121 174h146l121 -174h-133l-61 91l-61 -91h-133zM586 224h-388q7 -49 44.5 -77t87.5 -28q35 0 68 17.5t51 46.5l113 -74q-67 -121 -230 -121q-124 0 -208.5 78.5t-84.5 201.5q0 115 83.5 197t199.5 82q119 0 192.5 -74t73.5 -193q0 -38 -2 -56zM202 327h230 q-3 35 -32 64t-82 29q-48 0 -79.5 -30.5t-36.5 -62.5z" glyph-name="ecircumflex" horiz-adv-x="627" unicode="ê"/><glyph d="M201 617q-36 0 -61 25t-25 62q0 35 24.5 61t61.5 26q36 0 61.5 -25.5t25.5 -61.5q0 -37 -25.5 -62t-61.5 -25zM439 617q-36 0 -61 25t-25 62q0 35 25 61t61 26t61.5 -25.5t25.5 -61.5q0 -37 -25.5 -62t-61.5 -25zM586 224h-388q7 -49 44.5 -77t87.5 -28q35 0 68 17.5 t51 46.5l113 -74q-67 -121 -230 -121q-124 0 -208.5 78.5t-84.5 201.5q0 115 83.5 197t199.5 82q119 0 192.5 -74t73.5 -193q0 -38 -2 -56zM202 327h230q-3 35 -32 64t-82 29q-48 0 -79.5 -30.5t-36.5 -62.5z" glyph-name="edieresis" horiz-adv-x="627" unicode="ë"/><glyph d="M108 810l107 -187h-128l-158 187h179zM72 534v-534h157v534h-157z" glyph-name="igrave" horiz-adv-x="301" unicode="ì"/><glyph d="M85 623l107 187h180l-159 -187h-128zM72 0v534h157v-534h-157z" glyph-name="iacute" horiz-adv-x="301" unicode="í"/><glyph d="M78 798h146l121 -174h-133l-61 91l-61 -91h-134zM72 534v-534h157v534h-157z" glyph-name="icircumflex" horiz-adv-x="301" unicode="î"/><glyph d="M33 617q-36 0 -61 25t-25 62q0 35 24.5 61t61.5 26q36 0 61.5 -25.5t25.5 -61.5q0 -37 -25.5 -62t-61.5 -25zM267 617q-36 0 -61.5 25t-25.5 62q0 35 25 61t62 26q36 0 61.5 -26t25.5 -61q0 -36 -25.5 -61.5t-61.5 -25.5zM72 0v534h157v-534h-157z" glyph-name="idieresis" horiz-adv-x="301" unicode="ï"/><glyph d="M558 718l-121 -49q185 -173 185 -376q0 -131 -77.5 -218t-214.5 -87q-127 0 -208.5 74.5t-81.5 200.5q0 112 73.5 187t184.5 75q87 0 141 -54q-42 65 -143 140l-187 -78l-36 86l131 54q-15 9 -37 21.5t-27 15.5l79 118q65 -39 137 -93l167 69zM330 129q61 0 98 38t37 96 q0 55 -36 94.5t-99 39.5q-61 0 -97 -38t-36 -96q0 -57 36.5 -95.5t96.5 -38.5z" glyph-name="eth" horiz-adv-x="670" unicode="ð"/><glyph d="M253 789q35 0 63 -15.5t46.5 -30.5t31.5 -15q34 0 34 58h97q4 -76 -30.5 -119.5t-100.5 -43.5q-34 0 -62 15.5t-47 30.5t-32 15q-33 0 -34 -58h-96q-5 76 29.5 119.5t100.5 43.5zM418 0v296q0 47 -23 75.5t-70 28.5t-71.5 -30t-24.5 -74v-296h-157v534h156v-70h1 q19 32 54 52t57.5 24t39.5 4q96 0 145 -61t49 -151v-332h-156z" glyph-name="ntilde" horiz-adv-x="641" unicode="ñ"/><glyph d="M294 810l107 -187h-128l-158 187h179zM39 266q0 -120 84 -199t207 -79q122 0 207 80.5t85 200.5q0 118 -84 197.5t-206 79.5t-207.5 -80.5t-85.5 -199.5zM199 268q0 59 38 97.5t93 38.5q56 0 94 -38.5t38 -97.5q0 -60 -37.5 -98.5t-93.5 -38.5t-94 38.5t-38 98.5z" glyph-name="ograve" horiz-adv-x="661" unicode="ò"/><glyph d="M262 623l107 187h179l-158 -187h-128zM39 266q0 119 85.5 199.5t207.5 80.5t206 -79.5t84 -197.5q0 -120 -85 -200.5t-207 -80.5q-123 0 -207 79t-84 199zM199 268q0 -60 38 -98.5t94 -38.5t93.5 38.5t37.5 98.5q0 59 -38 97.5t-94 38.5q-55 0 -93 -38.5t-38 -97.5z" glyph-name="oacute" horiz-adv-x="661" unicode="ó"/><glyph d="M259 798h147l120 -174h-132l-61 91l-61 -91h-133zM39 266q0 -120 84 -199t207 -79q122 0 207 80.5t85 200.5q0 118 -84 197.5t-206 79.5t-207.5 -80.5t-85.5 -199.5zM199 268q0 59 38 97.5t93 38.5q56 0 94 -38.5t38 -97.5q0 -60 -37.5 -98.5t-93.5 -38.5t-94 38.5 t-38 98.5z" glyph-name="ocircumflex" horiz-adv-x="661" unicode="ô"/><glyph d="M259 789q35 0 63 -15.5t46.5 -30.5t31.5 -15q34 0 34 58h97q4 -76 -30.5 -119.5t-100.5 -43.5q-34 0 -62 15.5t-47 30.5t-32 15q-33 0 -34 -58h-96q-5 76 29.5 119.5t100.5 43.5zM39 266q0 119 85.5 199.5t207.5 80.5t206 -79.5t84 -197.5q0 -120 -85 -200.5t-207 -80.5 q-123 0 -207 79t-84 199zM199 268q0 -60 38 -98.5t94 -38.5t93.5 38.5t37.5 98.5q0 59 -38 97.5t-94 38.5q-55 0 -93 -38.5t-38 -97.5z" glyph-name="otilde" horiz-adv-x="661" unicode="õ"/><glyph d="M212 617q-36 0 -61 25t-25 62q0 35 25 61t61 26t61.5 -25.5t25.5 -61.5q0 -37 -25.5 -62t-61.5 -25zM450 617q-36 0 -61 25t-25 62q0 35 25 61t61 26t61.5 -25.5t25.5 -61.5q0 -37 -25.5 -62t-61.5 -25zM39 266q0 119 85.5 199.5t207.5 80.5t206 -79.5t84 -197.5 q0 -120 -85 -200.5t-207 -80.5q-123 0 -207 79t-84 199zM199 268q0 -60 38 -98.5t94 -38.5t93.5 38.5t37.5 98.5q0 59 -38 97.5t-94 38.5q-55 0 -93 -38.5t-38 -97.5z" glyph-name="odieresis" horiz-adv-x="661" unicode="ö"/><glyph d="M381 600q0 -35 -25 -60t-60 -25t-60 25t-25 60t25 60.5t60 25.5q36 0 60.5 -25.5t24.5 -60.5zM47 439h498v-144h-498v144zM381 133q0 -35 -24.5 -60.5t-60.5 -25.5q-35 0 -60 25.5t-25 60.5t24.5 60.5t60.5 25.5t60.5 -25.5t24.5 -60.5z" glyph-name="divide" horiz-adv-x="592" unicode="÷"/><glyph d="M622 502l-60 -60q61 -74 61 -173q0 -120 -85 -200.5t-207 -80.5q-95 0 -172 52l-63 -63l-57 56l61 61q-60 73 -60 172q0 118 85.5 199t207.5 81q96 0 169 -50l63 62zM199 268q0 -37 13 -63l185 184q-30 16 -65 16q-56 0 -94.5 -38.5t-38.5 -98.5zM332 130q56 0 94 38.5 t38 99.5q0 33 -13 64l-187 -185q31 -17 68 -17z" glyph-name="oslash" horiz-adv-x="663" unicode="ø"/><glyph d="M280 810l107 -187h-128l-158 187h179zM223 534v-298q0 -47 22.5 -74.5t69.5 -27.5t71.5 29t24.5 73v298h156v-534h-154v66h-1q-53 -77 -149 -77q-95 0 -145.5 60.5t-50.5 149.5v335h156z" glyph-name="ugrave" horiz-adv-x="640" unicode="ù"/><glyph d="M255 623l107 187h180l-159 -187h-128zM223 534v-298q0 -47 22.5 -74.5t69.5 -27.5t71.5 29t24.5 73v298h156v-534h-154v66h-1q-53 -77 -149 -77q-95 0 -145.5 60.5t-50.5 149.5v335h156z" glyph-name="uacute" horiz-adv-x="641" unicode="ú"/><glyph d="M244 798h147l120 -174h-132l-62 91l-60 -91h-134zM223 534v-298q0 -47 22.5 -74.5t69.5 -27.5t71.5 29t24.5 73v298h156v-534h-154v66h-1q-53 -77 -149 -77q-95 0 -145.5 60.5t-50.5 149.5v335h156z" glyph-name="ucircumflex" horiz-adv-x="640" unicode="û"/><glyph d="M198 617q-36 0 -61 25t-25 62q0 35 24.5 61t61.5 26q36 0 61.5 -25.5t25.5 -61.5q0 -37 -25.5 -62t-61.5 -25zM436 617q-36 0 -61 25t-25 62q0 35 25 61t61 26t61.5 -25.5t25.5 -61.5q0 -37 -25.5 -62t-61.5 -25zM223 534v-298q0 -47 22.5 -74.5t69.5 -27.5t71.5 29 t24.5 73v298h156v-534h-154v66h-1q-53 -77 -149 -77q-95 0 -145.5 60.5t-50.5 149.5v335h156z" glyph-name="udieresis" horiz-adv-x="639" unicode="ü"/><glyph d="M257 623l107 187h179l-158 -187h-128zM13 534h172l133 -305l119 305h161l-324 -797h-167l131 320z" glyph-name="yacute" horiz-adv-x="621" unicode="ý"/><glyph d="M228 469h2q58 75 162 75q112 0 183 -84t71 -192q0 -109 -73 -193.5t-185 -84.5q-101 0 -158 69h-2v-323h-156v1078h156v-345zM224 268q0 -60 38 -98.5t94 -38.5t94 38.5t38 98.5q0 59 -38.5 97t-94.5 38q-55 0 -93 -38t-38 -97z" glyph-name="thorn" horiz-adv-x="686" unicode="þ"/><glyph d="M194 617q-36 0 -61 25t-25 62q0 35 25 61t61 26t61.5 -25.5t25.5 -61.5q0 -37 -25.5 -62t-61.5 -25zM432 617q-36 0 -61 25t-25 62q0 35 25 61t61 26t61.5 -25.5t25.5 -61.5q0 -37 -25.5 -62t-61.5 -25zM13 534h172l133 -305l119 305h161l-324 -797h-167l131 320z" glyph-name="ydieresis" horiz-adv-x="621" unicode="ÿ"/><glyph d="M213 984h365v-116h-365v116zM-1 0l299 783h195l300 -783h-167l-59 158h-347l-58 -158h-163zM276 308h236l-118 318z" glyph-name="Amacron" horiz-adv-x="792" unicode="Ā"/><glyph d="M104 745h364v-117h-364v117zM222 -10q-75 0 -127.5 43.5t-52.5 115.5v2q0 47 21.5 81t58 51t75 24.5t83.5 7.5h53q42 0 42 39q0 28 -22 47t-64 19q-79 0 -119 -72l-119 71q69 127 245 127q106 0 169 -55t63 -160v-331h-144v66l-2 1q-54 -77 -160 -77zM267 104 q50 0 78.5 29.5t28.5 73.5v12h-94q-34 0 -57.5 -15.5t-23.5 -45.5q0 -27 19 -40.5t49 -13.5z" glyph-name="amacron" horiz-adv-x="595" unicode="ā"/><glyph d="M394 859q-76 0 -129 50t-61 129h116q6 -33 24.5 -53t49.5 -20q30 0 49.5 20t24.5 53h116q-8 -81 -60.5 -130t-129.5 -49zM-1 0l299 783h195l300 -783h-167l-59 158h-347l-58 -158h-163zM276 308h236l-118 318z" glyph-name="Abreve" horiz-adv-x="792" unicode="Ă"/><glyph d="M301 620q-77 0 -130 49.5t-60 128.5h117q5 -33 23.5 -52.5t49.5 -19.5q30 0 49.5 20t24.5 52h117q-8 -80 -61 -129t-130 -49zM222 -10q-75 0 -127.5 43.5t-52.5 115.5v2q0 47 21.5 81t58 51t75 24.5t83.5 7.5h53q42 0 42 39q0 28 -22 47t-64 19q-79 0 -119 -72l-119 71 q69 127 245 127q106 0 169 -55t63 -160v-331h-144v66l-2 1q-54 -77 -160 -77zM267 104q50 0 78.5 29.5t28.5 73.5v12h-94q-34 0 -57.5 -15.5t-23.5 -45.5q0 -27 19 -40.5t49 -13.5z" glyph-name="abreve" horiz-adv-x="595" unicode="ă"/><glyph d="M696 -112q0 -28 23.5 -41.5t49.5 -13.5q8 0 21 1v-90q-30 -10 -77 -10q-63 0 -109 29.5t-46 84.5q0 77 111 152h-43l-59 158h-347l-58 -158h-163l299 783h195l300 -783q-97 -61 -97 -112zM512 308l-118 318l-118 -318h236z" glyph-name="Aogonek" horiz-adv-x="792" unicode="Ą"/><glyph d="M528 331v-331q-11 -8 -27 -21t-42.5 -43t-26.5 -48q0 -28 23.5 -41.5t48.5 -13.5q9 0 22 1v-90q-30 -10 -77 -10q-62 0 -108.5 29.5t-46.5 84.5q0 75 111 152h-21v66l-2 1q-54 -77 -160 -77q-75 0 -127.5 43.5t-52.5 115.5v2q0 47 21.5 81t58 51t75 24.5t83.5 7.5h53 q42 0 42 39q0 28 -22 47t-64 19q-79 0 -119 -72l-119 71q69 127 245 127q106 0 169 -55t63 -160zM374 219h-94q-34 0 -57.5 -15.5t-23.5 -45.5q0 -27 19 -40.5t49 -13.5q50 0 78.5 29.5t28.5 73.5v12z" glyph-name="aogonek" horiz-adv-x="597" unicode="ą"/><glyph d="M372 855l107 187h179l-158 -187h-128zM43 391q0 169 118.5 286.5t287.5 117.5q119 0 217.5 -62t137.5 -169l-148 -68q-25 65 -80 103t-128 38q-101 0 -169 -71t-68 -173q0 -104 67 -175.5t170 -71.5q72 0 128 40t82 105l149 -69q-39 -108 -140.5 -170.5t-220.5 -62.5 q-171 0 -287 115.5t-116 286.5z" glyph-name="Cacute" horiz-adv-x="832" unicode="Ć"/><glyph d="M264 623l108 187h179l-158 -187h-129zM327 -12q-125 0 -206 79t-81 199q0 118 84 199t204 81q89 0 157.5 -43t94.5 -122l-137 -57q-35 79 -115 79q-54 0 -91 -36.5t-37 -98.5q0 -60 35.5 -98t92.5 -38q84 0 118 79l138 -57q-31 -82 -99.5 -124t-157.5 -42z" glyph-name="cacute" horiz-adv-x="605" unicode="ć"/><glyph d="M378 1028h146l121 -174h-132l-62 91l-60 -91h-134zM43 391q0 169 118.5 286.5t287.5 117.5q119 0 217.5 -62t137.5 -169l-148 -68q-25 65 -80 103t-128 38q-101 0 -169 -71t-68 -173q0 -104 67 -175.5t170 -71.5q72 0 128 40t82 105l149 -69q-39 -108 -140.5 -170.5 t-220.5 -62.5q-171 0 -287 115.5t-116 286.5z" glyph-name="Ccircumflex" horiz-adv-x="832" unicode="Ĉ"/><glyph d="M259 798h147l120 -174h-132l-61 91l-62 -91h-133zM327 -12q-125 0 -206 79t-81 199q0 118 84 199t204 81q89 0 157.5 -43t94.5 -122l-137 -57q-35 79 -115 79q-54 0 -91 -36.5t-37 -98.5q0 -60 35.5 -98t92.5 -38q84 0 118 79l138 -57q-31 -82 -99.5 -124t-157.5 -42z " glyph-name="ccircumflex" horiz-adv-x="605" unicode="ĉ"/><glyph d="M360 942q0 40 28 68t67 28q40 0 68.5 -28t28.5 -68q0 -39 -28.5 -67t-68.5 -28q-39 0 -67 28t-28 67zM43 391q0 169 118.5 286.5t287.5 117.5q119 0 217.5 -62t137.5 -169l-148 -68q-25 65 -80 103t-128 38q-101 0 -169 -71t-68 -173q0 -104 67 -175.5t170 -71.5 q72 0 128 40t82 105l149 -69q-39 -108 -140.5 -170.5t-220.5 -62.5q-171 0 -287 115.5t-116 286.5z" glyph-name="Cdotaccent" horiz-adv-x="832" unicode="Ċ"/><glyph d="M237 713q0 39 28 67t67 28q40 0 68.5 -28t28.5 -67q0 -40 -28.5 -68t-68.5 -28q-39 0 -67 28t-28 68zM327 -12q-125 0 -206 79t-81 199q0 118 84 199t204 81q89 0 157.5 -43t94.5 -122l-137 -57q-35 79 -115 79q-54 0 -91 -36.5t-37 -98.5q0 -60 35.5 -98t92.5 -38 q84 0 118 79l138 -57q-31 -82 -99.5 -124t-157.5 -42z" glyph-name="cdotaccent" horiz-adv-x="605" unicode="ċ"/><glyph d="M513 1028h132l-121 -174h-146l-121 174h134l60 -91zM43 391q0 169 118.5 286.5t287.5 117.5q119 0 217.5 -62t137.5 -169l-148 -68q-25 65 -80 103t-128 38q-101 0 -169 -71t-68 -173q0 -104 67 -175.5t170 -71.5q72 0 128 40t82 105l149 -69q-39 -108 -140.5 -170.5 t-220.5 -62.5q-171 0 -287 115.5t-116 286.5z" glyph-name="Ccaron" horiz-adv-x="832" unicode="Č"/><glyph d="M394 798h132l-120 -174h-147l-121 174h133l62 -91zM327 -12q-125 0 -206 79t-81 199q0 118 84 199t204 81q89 0 157.5 -43t94.5 -122l-137 -57q-35 79 -115 79q-54 0 -91 -36.5t-37 -98.5q0 -60 35.5 -98t92.5 -38q84 0 118 79l138 -57q-31 -82 -99.5 -124t-157.5 -42z " glyph-name="ccaron" horiz-adv-x="605" unicode="č"/><glyph d="M400 1028h132l-120 -174h-147l-120 174h133l60 -91zM774 393q0 183 -118.5 286.5t-323.5 103.5h-241v-783h238q205 0 325 108t120 285zM610 393q0 -113 -75 -176.5t-200 -63.5h-79v477h82q120 0 196 -62.5t76 -174.5z" glyph-name="Dcaron" horiz-adv-x="819" unicode="Ď"/><glyph d="M675 581l14 234h164l-69 -234h-109zM458 473h-2q-60 71 -160 71q-110 0 -183 -84.5t-73 -191.5q0 -113 71 -195.5t183 -82.5q113 0 166 78h2v-68h151v814h-155v-341zM462 268q0 -60 -38 -98.5t-94 -38.5t-94 38.5t-38 98.5q0 59 38 97t94 38t94 -38t38 -97z" glyph-name="dcaron" horiz-adv-x="705" unicode="ď"/><glyph d="M112 783h240q206 0 324 -103t118 -287q0 -177 -120 -285t-325 -108h-237v320h-95v150h95v313zM274 153h80q124 0 199 63.5t75 176.5q0 112 -76 174.5t-196 62.5h-82v-160h167v-150h-167v-167z" glyph-name="Dcroat" horiz-adv-x="839" unicode="Đ"/><glyph d="M680 725v-106h-66v-619h-152v68h-2q-53 -78 -166 -78q-112 0 -183 82.5t-71 195.5q0 107 73 191.5t183 84.5q100 0 160 -71h2v146h-159v106h159v90h156v-90h66zM462 268q0 59 -38 97t-94 38t-94 -38t-38 -97q0 -60 38 -98.5t94 -38.5t94 38.5t38 98.5z" glyph-name="dcroat" horiz-adv-x="686" unicode="đ"/><glyph d="M167 984h364v-116h-364v116zM251 631v-159h316v-152h-316v-169h355v-151h-515v783h513v-152h-353z" glyph-name="Emacron" horiz-adv-x="663" unicode="Ē"/><glyph d="M140 628v117h364v-117h-364zM586 224h-388q7 -49 44.5 -77t87.5 -28q35 0 68 17.5t51 46.5l113 -74q-67 -121 -230 -121q-124 0 -208.5 78.5t-84.5 201.5q0 115 83.5 197t199.5 82q119 0 192.5 -74t73.5 -193q0 -38 -2 -56zM202 327h230q-3 35 -32 64t-82 29 q-48 0 -79.5 -30.5t-36.5 -62.5z" glyph-name="emacron" horiz-adv-x="627" unicode="ē"/><glyph d="M253 942q0 40 28 68t67 28q40 0 68.5 -28t28.5 -68q0 -39 -28.5 -67t-68.5 -28q-39 0 -67 28t-28 67zM251 472v159h353v152h-513v-783h515v151h-355v169h316v152h-316z" glyph-name="Edotaccent" horiz-adv-x="663" unicode="Ė"/><glyph d="M228 713q0 39 28 67t67 28q40 0 68 -28t28 -67q0 -40 -28 -68t-68 -28q-39 0 -67 28t-28 68zM586 224h-388q7 -49 44.5 -77t87.5 -28q35 0 68 17.5t51 46.5l113 -74q-67 -121 -230 -121q-124 0 -208.5 78.5t-84.5 201.5q0 115 83.5 197t199.5 82q119 0 192.5 -74 t73.5 -193q0 -38 -2 -56zM202 327h230q-3 35 -32 64t-82 29q-48 0 -79.5 -30.5t-36.5 -62.5z" glyph-name="edotaccent" horiz-adv-x="627" unicode="ė"/><glyph d="M606 151v-151q-97 -61 -97 -112q0 -28 23.5 -41.5t48.5 -13.5q9 0 22 1v-90q-32 -10 -77 -10q-63 0 -109 29.5t-46 84.5q0 76 111 152h-391v783h513v-152h-353v-159h316v-152h-316v-169h355z" glyph-name="Eogonek" horiz-adv-x="663" unicode="Ę"/><glyph d="M588 280q0 -38 -2 -56h-388q7 -49 44.5 -77t87.5 -28q35 0 68 17.5t51 46.5l113 -74q-22 -39 -67 -76q-50 -41 -71 -59t-39.5 -42.5t-18.5 -43.5q0 -28 23.5 -41.5t48.5 -13.5q9 0 22 1v-90q-30 -10 -77 -10q-63 0 -109 29.5t-46 84.5q0 68 89 140q-121 5 -199.5 82.5 t-78.5 197.5q0 115 83.5 197t199.5 82q119 0 192.5 -74t73.5 -193zM202 327h230q-3 35 -32 64t-82 29q-48 0 -79.5 -30.5t-36.5 -62.5z" glyph-name="eogonek" horiz-adv-x="627" unicode="ę"/><glyph d="M410 1028h132l-120 -174h-147l-120 174h133l61 -91zM251 472v159h353v152h-513v-783h515v151h-355v169h316v152h-316z" glyph-name="Ecaron" horiz-adv-x="663" unicode="Ě"/><glyph d="M321 707l62 91h132l-120 -174h-147l-121 174h134zM586 224h-388q7 -49 44.5 -77t87.5 -28q35 0 68 17.5t51 46.5l113 -74q-67 -121 -230 -121q-124 0 -208.5 78.5t-84.5 201.5q0 115 83.5 197t199.5 82q119 0 192.5 -74t73.5 -193q0 -38 -2 -56zM202 327h230 q-3 35 -32 64t-82 29q-48 0 -79.5 -30.5t-36.5 -62.5z" glyph-name="ecaron" horiz-adv-x="627" unicode="ě"/><glyph d="M379 1028h146l121 -174h-132l-62 91l-60 -91h-134zM208 392q0 -104 68 -177t173 -73q78 0 132.5 36.5t69.5 95.5h-238v147h407v-61q0 -117 -53.5 -203.5t-136.5 -127.5t-181 -41q-179 0 -292.5 116.5t-113.5 286.5t119.5 287t288.5 117q137 0 228.5 -67.5t122.5 -153.5 l-143 -70q-22 55 -73.5 96.5t-136.5 41.5q-100 0 -170.5 -72t-70.5 -178z" glyph-name="Gcircumflex" horiz-adv-x="858" unicode="Ĝ"/><glyph d="M264 798h147l120 -174h-132l-62 91l-60 -91h-133zM51 -114l127 73q45 -90 142 -90q61 0 97.5 31.5t36.5 93.5v81h-2q-55 -71 -154 -71q-114 0 -186 77t-72 191q0 107 70.5 188.5t181.5 81.5q101 0 162 -73h2v65h153v-536q0 -125 -80.5 -195t-207.5 -70q-198 0 -270 153z M458 272q0 58 -37 94.5t-93 36.5q-55 0 -92.5 -36.5t-37.5 -94.5q0 -59 37 -95.5t93 -36.5q55 0 92.5 36.5t37.5 95.5z" glyph-name="gcircumflex" horiz-adv-x="682" unicode="ĝ"/><glyph d="M451 859q-76 0 -129 50t-61 129h117q6 -33 24.5 -53t48.5 -20q31 0 50 20t24 53h117q-8 -81 -61 -130t-130 -49zM208 392q0 -104 68 -177t173 -73q78 0 132.5 36.5t69.5 95.5h-238v147h407v-61q0 -117 -53.5 -203.5t-136.5 -127.5t-181 -41q-179 0 -292.5 116.5 t-113.5 286.5t119.5 287t288.5 117q137 0 228.5 -67.5t122.5 -153.5l-143 -70q-22 55 -73.5 96.5t-136.5 41.5q-100 0 -170.5 -72t-70.5 -178z" glyph-name="Gbreve" horiz-adv-x="857" unicode="Ğ"/><glyph d="M338 620q-76 0 -129 49.5t-61 128.5h117q12 -72 73 -72q31 0 50.5 19.5t24.5 52.5h116q-8 -80 -61 -129t-130 -49zM51 -114l127 73q45 -90 142 -90q61 0 97.5 31.5t36.5 93.5v81h-2q-55 -71 -154 -71q-114 0 -186 77t-72 191q0 107 70.5 188.5t181.5 81.5q101 0 162 -73 h2v65h153v-536q0 -125 -80.5 -195t-207.5 -70q-198 0 -270 153zM458 272q0 58 -37 94.5t-93 36.5q-55 0 -92.5 -36.5t-37.5 -94.5q0 -59 37 -95.5t93 -36.5q55 0 92.5 36.5t37.5 95.5z" glyph-name="gbreve" horiz-adv-x="682" unicode="ğ"/><glyph d="M356 942q0 40 28 68t67 28q40 0 68 -28t28 -68q0 -39 -28 -67t-68 -28q-39 0 -67 28t-28 67zM208 392q0 -104 68 -177t173 -73q78 0 132.5 36.5t69.5 95.5h-238v147h407v-61q0 -117 -53.5 -203.5t-136.5 -127.5t-181 -41q-179 0 -292.5 116.5t-113.5 286.5t119.5 287 t288.5 117q137 0 228.5 -67.5t122.5 -153.5l-143 -70q-22 55 -73.5 96.5t-136.5 41.5q-100 0 -170.5 -72t-70.5 -178z" glyph-name="Gdotaccent" horiz-adv-x="857" unicode="Ġ"/><glyph d="M229 713q0 39 28 67t67 28q40 0 68 -28t28 -67q0 -40 -28 -68t-68 -28q-39 0 -67 28t-28 68zM51 -114l127 73q45 -90 142 -90q61 0 97.5 31.5t36.5 93.5v81h-2q-55 -71 -154 -71q-114 0 -186 77t-72 191q0 107 70.5 188.5t181.5 81.5q101 0 162 -73h2v65h153v-536 q0 -125 -80.5 -195t-207.5 -70q-198 0 -270 153zM458 272q0 58 -37 94.5t-93 36.5q-55 0 -92.5 -36.5t-37.5 -94.5q0 -59 37 -95.5t93 -36.5q55 0 92.5 36.5t37.5 95.5z" glyph-name="gdotaccent" horiz-adv-x="682" unicode="ġ"/><glyph d="M208 392q0 -104 68 -177t173 -73q78 0 132.5 36.5t69.5 95.5h-238v147h407v-61q0 -117 -53.5 -203.5t-136.5 -127.5t-181 -41q-179 0 -292.5 116.5t-113.5 286.5t119.5 287t288.5 117q137 0 228.5 -67.5t122.5 -153.5l-143 -70q-22 55 -73.5 96.5t-136.5 41.5 q-100 0 -170.5 -72t-70.5 -178zM527 -164v-5q0 -53 -31.5 -103.5t-83.5 -85.5l-48 46q59 39 87 99q-13 -6 -29 -6q-31 0 -51.5 21.5t-20.5 54.5q0 36 24.5 60.5t59.5 24.5q40 0 66.5 -29t26.5 -77z" glyph-name="Gcommaaccent" horiz-adv-x="857" unicode="Ģ"/><glyph d="M235 722v4q0 54 31 104t83 85l49 -46q-60 -38 -87 -98q15 5 29 5q30 0 51 -21.5t21 -54.5q0 -35 -25 -59.5t-60 -24.5q-40 0 -66 29t-26 77zM51 -114l127 73q45 -90 142 -90q61 0 97.5 31.5t36.5 93.5v81h-2q-55 -71 -154 -71q-114 0 -186 77t-72 191q0 107 70.5 188.5 t181.5 81.5q101 0 162 -73h2v65h153v-536q0 -125 -80.5 -195t-207.5 -70q-198 0 -270 153zM458 272q0 58 -37 94.5t-93 36.5q-55 0 -92.5 -36.5t-37.5 -94.5q0 -59 37 -95.5t93 -36.5q55 0 92.5 36.5t37.5 95.5z" glyph-name="gcommaaccent" horiz-adv-x="682" unicode="ģ"/><glyph d="M263 693h328v91h161v-91h82v-110h-82v-583h-161v317h-328v-317h-162v583h-82v110h82v91h162v-91zM263 583v-109h328v109h-328z" glyph-name="Hbar" horiz-adv-x="854" unicode="Ħ"/><glyph d="M416 0v296q0 46 -23 75t-69 29q-48 0 -72 -30t-24 -72v-298h-156v619h-67v106h67v90h156v-90h159v-106h-159v-148h1q29 42 71 57.5t76 15.5q96 0 146 -61.5t50 -150.5v-332h-156z" glyph-name="hbar" horiz-adv-x="639" unicode="ħ"/><glyph d="M102 1019q35 0 63 -15.5t46.5 -30.5t31.5 -15q34 0 34 58h97q4 -76 -30.5 -119.5t-100.5 -43.5q-34 0 -62 15.5t-47 30.5t-32 15q-33 0 -34 -58h-96q-5 76 29.5 119.5t100.5 43.5zM88 783h162v-783h-162v783z" glyph-name="Itilde" horiz-adv-x="345" unicode="Ĩ"/><glyph d="M79 789q35 0 63 -15.5t46.5 -30.5t31.5 -15q34 0 34 58h97q4 -76 -30.5 -119.5t-100.5 -43.5q-34 0 -62 15.5t-47 30.5t-32 15q-33 0 -34 -58h-96q-5 76 29.5 119.5t100.5 43.5zM69 0v534h157v-534h-157z" glyph-name="itilde" horiz-adv-x="301" unicode="ĩ"/><glyph d="M-6 984h357v-116h-357v116zM91 783h162v-783h-162v783z" glyph-name="Imacron" horiz-adv-x="345" unicode="Ī"/><glyph d="M-20 745h342v-117h-342v117zM72 0v534h157v-534h-157z" glyph-name="imacron" horiz-adv-x="301" unicode="ī"/><glyph d="M172 859q-76 0 -129.5 50t-61.5 129h118q5 -33 23.5 -53t49.5 -20q30 0 49.5 20t24.5 53h117q-8 -81 -61 -130t-130 -49zM91 783h162v-783h-162v783z" glyph-name="Ibreve" horiz-adv-x="345" unicode="Ĭ"/><glyph d="M150 620q-76 0 -129.5 49.5t-61.5 128.5h118q5 -33 23.5 -52.5t49.5 -19.5t50.5 19.5t24.5 52.5h116q-8 -80 -61 -129t-130 -49zM72 0v534h157v-534h-157z" glyph-name="ibreve" horiz-adv-x="301" unicode="ĭ"/><glyph d="M253 783v-783q-97 -62 -97 -112q0 -28 23.5 -41.5t48.5 -13.5q9 0 22 1v-90q-32 -10 -76 -10q-64 0 -110 29.5t-46 84.5q0 76 111 152h-38v783h162z" glyph-name="Iogonek" horiz-adv-x="345" unicode="Į"/><glyph d="M149 624q-39 0 -67.5 28t-28.5 68t28.5 68.5t67.5 28.5q41 0 69.5 -28t28.5 -69q0 -40 -28.5 -68t-69.5 -28zM229 534v-534q-38 -23 -67.5 -53.5t-29.5 -58.5t23.5 -41.5t48.5 -13.5q9 0 22 1v-90q-30 -10 -77 -10q-64 0 -109.5 29t-45.5 85q0 75 110 152h-32v534h157z " glyph-name="iogonek" horiz-adv-x="301" unicode="į"/><glyph d="M77 942q0 40 28 68t67 28q40 0 68.5 -28t28.5 -68q0 -39 -28.5 -67t-68.5 -28q-39 0 -67 28t-28 67zM254 783h-163v-783h163v783z" glyph-name="Idotaccent" horiz-adv-x="345" unicode="İ"/><glyph d="M72 0v534h157v-534h-157z" glyph-name="dotlessi" horiz-adv-x="301" unicode="ı"/><glyph d="M253 0h-162v783h162v-783zM882 783v-545q0 -117 -73.5 -182.5t-183.5 -65.5q-183 0 -251 168l137 76q34 -89 111 -89q46 0 72 27.5t26 77.5v533h162z" glyph-name="IJ" horiz-adv-x="967" unicode="Ĳ"/><glyph d="M53 720q0 40 28.5 68.5t67.5 28.5q41 0 69.5 -28t28.5 -69q0 -40 -28.5 -68t-69.5 -28q-39 0 -67.5 28t-28.5 68zM362 720q0 40 28 68.5t68 28.5q41 0 69.5 -28.5t28.5 -68.5t-28.5 -68t-69.5 -28q-40 0 -68 28t-28 68zM229 0v534h-157v-534h157zM537 534v-574 q0 -115 -56.5 -169.5t-172.5 -54.5q-32 0 -55 7v131q13 -3 27 -3q51 0 76 22t25 75v566h156z" glyph-name="ij" horiz-adv-x="610" unicode="ĳ"/><glyph d="M252 783v-341l269 341h202l-299 -374l319 -409h-209l-282 372v-372h-161v783h161zM470 -164v-5q0 -53 -31.5 -103.5t-83.5 -85.5l-48 46q59 39 87 99q-14 -6 -29 -6q-31 0 -51.5 21.5t-20.5 54.5q0 36 24.5 60.5t59.5 24.5q40 0 66.5 -29t26.5 -77z" glyph-name="Kcommaaccent" horiz-adv-x="736" unicode="Ķ"/><glyph d="M72 815h156v-491l185 210h199l-215 -246l221 -288h-197l-189 253h-4v-253h-156v815zM400 -164v-5q0 -53 -31.5 -103.5t-83.5 -85.5l-48 46q59 39 87 99q-14 -6 -29 -6q-31 0 -51.5 21.5t-20.5 54.5q0 36 24.5 60.5t59.5 24.5q40 0 66.5 -29t26.5 -77z" glyph-name="kcommaaccent" horiz-adv-x="619" unicode="ķ"/><glyph d="M119 855l107 187h179l-158 -187h-128zM588 154v-154h-497v783h162v-629h335z" glyph-name="Lacute" horiz-adv-x="604" unicode="Ĺ"/><glyph d="M85 887l107 188h180l-159 -188h-128zM72 815h157v-815h-157v815z" glyph-name="lacute" horiz-adv-x="301" unicode="ĺ"/><glyph d="M587 154v-154h-496v783h161v-629h335zM426 -164v-5q0 -53 -31.5 -103.5t-83.5 -85.5l-48 46q59 39 87 99q-14 -6 -29 -6q-31 0 -51.5 21.5t-20.5 54.5q0 36 24.5 60.5t59.5 24.5q40 0 66.5 -29t26.5 -77z" glyph-name="Lcommaaccent" horiz-adv-x="604" unicode="Ļ"/><glyph d="M72 815h157v-815h-157v815zM236 -164v-5q0 -53 -31.5 -103.5t-83.5 -85.5l-48 46q59 39 87 99q-14 -6 -29 -6q-31 0 -51.5 21.5t-20.5 54.5q0 36 24.5 60.5t59.5 24.5q40 0 66.5 -29t26.5 -77z" glyph-name="lcommaaccent" horiz-adv-x="301" unicode="ļ"/><glyph d="M410 571l14 234h163l-68 -234h-109zM587 154v-154h-496v783h161v-629h335z" glyph-name="Lcaron" horiz-adv-x="614" unicode="Ľ"/><glyph d="M72 815h157v-815h-157v815zM290 581l14 234h163l-68 -234h-109z" glyph-name="lcaron" horiz-adv-x="320" unicode="ľ"/><glyph d="M587 154v-154h-496v783h161v-629h335zM393 390q0 40 28.5 68.5t67.5 28.5q40 0 69 -28.5t29 -68.5t-28.5 -68.5t-69.5 -28.5q-39 0 -67.5 28.5t-28.5 68.5z" glyph-name="Ldot" horiz-adv-x="614" unicode="Ŀ"/><glyph d="M72 815h157v-815h-157v815zM288 370q0 40 28 68.5t67 28.5q41 0 69.5 -28t28.5 -69q0 -40 -28.5 -68.5t-69.5 -28.5q-39 0 -67 28.5t-28 68.5z" glyph-name="ldot" horiz-adv-x="474" unicode="ŀ"/><glyph d="M133 433v350h161v-277l205 93v-149l-205 -94v-200h335v-156h-496v284l-103 -47v149z" glyph-name="Lslash" horiz-adv-x="646" unicode="Ł"/><glyph d="M142 815h155v-339l103 57v-150l-103 -55v-328h-155v241l-102 -55v150l102 55v424z" glyph-name="lslash" horiz-adv-x="434" unicode="ł"/><glyph d="M389 855l107 187h179l-158 -187h-128zM251 0h-160v783h185l340 -511v511h160v-783h-165l-360 540v-540z" glyph-name="Nacute" horiz-adv-x="868" unicode="Ń"/><glyph d="M243 623l107 187h179l-158 -187h-128zM417 0v296q0 47 -23 75.5t-70 28.5t-71.5 -30t-24.5 -74v-296h-156v534h155v-70h2q14 25 37 42.5t46.5 25t39.5 10t27 2.5q96 0 145 -61t49 -151v-332h-156z" glyph-name="nacute" horiz-adv-x="640" unicode="ń"/><glyph d="M251 0h-160v783h185l340 -511v511h160v-783h-165l-360 540v-540zM520 -164v-5q0 -53 -31.5 -103.5t-83.5 -85.5l-48 46q59 39 87 99q-14 -6 -29 -6q-31 0 -51.5 21.5t-20.5 54.5q0 36 24.5 60.5t59.5 24.5q40 0 66.5 -29t26.5 -77z" glyph-name="Ncommaaccent" horiz-adv-x="868" unicode="Ņ"/><glyph d="M417 0v296q0 47 -23.5 75.5t-69.5 28.5q-47 0 -71.5 -30t-24.5 -74v-296h-156v534h155v-70h1q19 33 53.5 52.5t57.5 23.5t40 4q96 0 144.5 -61t48.5 -151v-332h-155zM409 -164v-5q0 -53 -31.5 -103.5t-83.5 -85.5l-48 46q59 39 87 99q-13 -6 -29 -6q-31 0 -51.5 21.5 t-20.5 54.5q0 36 24.5 60.5t59.5 24.5q40 0 66.5 -29t26.5 -77z" glyph-name="ncommaaccent" horiz-adv-x="639" unicode="ņ"/><glyph d="M520 1028h132l-120 -174h-147l-120 174h132l61 -91zM251 0h-160v783h185l340 -511v511h160v-783h-165l-360 540v-540z" glyph-name="Ncaron" horiz-adv-x="868" unicode="Ň"/><glyph d="M384 798h133l-121 -174h-146l-121 174h133l61 -91zM573 0v332q0 90 -49 151t-145 61q-11 0 -27 -2.5t-39.5 -10t-46.5 -25t-37 -42.5h-2v70h-155v-534h156v296q0 44 24.5 74t71.5 30t70 -28.5t23 -75.5v-296h156z" glyph-name="ncaron" horiz-adv-x="640" unicode="ň"/><glyph d="M91 783h185l340 -510v510h160v-823q0 -115 -56.5 -169.5t-171.5 -54.5q-33 0 -56 7v131q14 -3 27 -3q97 0 97 97v24l-365 548v-540h-160v783z" glyph-name="Eng" horiz-adv-x="868" unicode="Ŋ"/><glyph d="M379 544q96 0 144.5 -61t48.5 -151v-372q0 -115 -56.5 -169.5t-171.5 -54.5q-32 0 -55 7v131q13 -3 27 -3q51 0 76 22t25 75v328q0 47 -23.5 75.5t-69.5 28.5q-47 0 -71.5 -30t-24.5 -74v-296h-156v534h155v-70h1q19 33 53.5 52.5t57.5 23.5t40 4z" glyph-name="eng" horiz-adv-x="639" unicode="ŋ"/><glyph d="M269 984h364v-116h-364v116zM43 391q0 168 120 286t289 118t286.5 -116t117.5 -284q0 -170 -119.5 -288.5t-288.5 -118.5t-287 117t-118 286zM209 392q0 -102 70 -174.5t171 -72.5t171 72.5t70 174.5t-70 174t-171 72t-171 -72t-70 -174z" glyph-name="Omacron" horiz-adv-x="899" unicode="Ō"/><glyph d="M149 745h364v-117h-364v117zM39 266q0 119 85.5 199.5t207.5 80.5t206 -79.5t84 -197.5q0 -120 -85 -200.5t-207 -80.5q-123 0 -207 79t-84 199zM199 268q0 -60 38 -98.5t94 -38.5t93.5 38.5t37.5 98.5q0 59 -38 97.5t-94 38.5q-55 0 -93 -38.5t-38 -97.5z" glyph-name="omacron" horiz-adv-x="661" unicode="ō"/><glyph d="M278 852l107 188h175l-159 -188h-123zM499 852l107 188h175l-159 -188h-123zM43 391q0 168 120 286t289 118t286.5 -116t117.5 -284q0 -170 -119.5 -288.5t-288.5 -118.5t-287 117t-118 286zM209 392q0 -102 70 -174.5t171 -72.5t171 72.5t70 174.5t-70 174t-171 72 t-171 -72t-70 -174z" glyph-name="Ohungarumlaut" horiz-adv-x="899" unicode="Ő"/><glyph d="M154 623l108 187h174l-158 -187h-124zM375 623l107 187h175l-158 -187h-124zM39 266q0 119 85.5 199.5t207.5 80.5t206 -79.5t84 -197.5q0 -120 -85 -200.5t-207 -80.5q-123 0 -207 79t-84 199zM199 268q0 -60 38 -98.5t94 -38.5t93.5 38.5t37.5 98.5q0 59 -38 97.5 t-94 38.5q-55 0 -93 -38.5t-38 -97.5z" glyph-name="ohungarumlaut" horiz-adv-x="661" unicode="ő"/><glyph d="M691 0v83q-105 -93 -244 -93q-170 0 -287 115t-117 284t120 287.5t289 118.5q135 0 239 -94v82h512v-152h-354v-159h318v-152h-318v-169h357v-151h-515zM209 392q0 -101 71 -173.5t171 -72.5t170.5 72.5t70.5 173.5q0 102 -70.5 174.5t-170.5 72.5t-171 -72.5t-71 -174.5 z" glyph-name="OE" horiz-adv-x="1263" unicode="Œ"/><glyph d="M1010 224h-388q6 -44 41.5 -74.5t90.5 -30.5q35 0 68 17.5t51 46.5l113 -74q-67 -121 -230 -121q-132 0 -214 85q-87 -85 -212 -85q-123 0 -207 79t-84 199q0 119 85.5 199.5t207.5 80.5q128 0 211 -85q83 86 203 86q119 0 193 -74t74 -193q0 -29 -3 -56zM626 327h229 q-2 35 -30.5 64t-82.5 29q-48 0 -79.5 -30.5t-36.5 -62.5zM331 131q56 0 93.5 38.5t37.5 98.5q0 59 -38 97.5t-94 38.5q-55 0 -93 -38.5t-38 -97.5q0 -60 38 -98.5t94 -38.5z" glyph-name="oe" horiz-adv-x="1051" unicode="œ"/><glyph d="M401 855h-128l107 187h180zM513 0l-162 281h-98v-281h-162v783h309q120 0 198.5 -64.5t78.5 -183.5q0 -171 -161 -229l177 -306h-180zM253 431h135q51 0 88 25t37 76q0 52 -36.5 75t-89.5 23h-134v-199z" glyph-name="Racute" horiz-adv-x="731" unicode="Ŕ"/><glyph d="M148 623l107 187h179l-158 -187h-128zM410 536v-154q-18 3 -37 3q-76 0 -110.5 -43.5t-34.5 -115.5v-226h-156v534h155v-82h1q17 37 57.5 62.5t93.5 25.5q19 0 31 -4z" glyph-name="racute" horiz-adv-x="425" unicode="ŕ"/><glyph d="M693 0h-180l-162 281h-98v-281h-162v783h309q120 0 198.5 -64.5t78.5 -183.5q0 -171 -161 -229zM253 431h135q51 0 88 25t37 76q0 52 -36.5 75t-89.5 23h-134v-199zM367 -58q40 0 66.5 -29t26.5 -77v-5q0 -53 -31.5 -103.5t-83.5 -85.5l-48 46q59 39 87 99q-13 -6 -29 -6 q-31 0 -51.5 21.5t-20.5 54.5q0 36 24.5 60.5t59.5 24.5z" glyph-name="Rcommaaccent" horiz-adv-x="731" unicode="Ŗ"/><glyph d="M410 536v-154q-18 3 -37 3q-76 0 -110.5 -43.5t-34.5 -115.5v-226h-156v534h155v-82h1q17 37 57.5 62.5t93.5 25.5q19 0 31 -4zM239 -164v-5q0 -53 -31.5 -103.5t-83.5 -85.5l-48 46q59 39 87 99q-13 -6 -29 -6q-31 0 -51.5 21.5t-20.5 54.5q0 36 24.5 60.5t59.5 24.5 q40 0 66.5 -29t26.5 -77z" glyph-name="rcommaaccent" horiz-adv-x="425" unicode="ŗ"/><glyph d="M262 854l-120 174h133l60 -91l62 91h132l-120 -174h-147zM513 0l-162 281h-98v-281h-162v783h309q120 0 198.5 -64.5t78.5 -183.5q0 -171 -161 -229l177 -306h-180zM253 431h135q51 0 88 25t37 76q0 52 -36.5 75t-89.5 23h-134v-199z" glyph-name="Rcaron" horiz-adv-x="731" unicode="Ř"/><glyph d="M299 798h132l-120 -174h-147l-121 174h134l60 -91zM410 536v-154q-18 3 -37 3q-76 0 -110.5 -43.5t-34.5 -115.5v-226h-156v534h155v-82h1q17 37 57.5 62.5t93.5 25.5q19 0 31 -4z" glyph-name="rcaron" horiz-adv-x="425" unicode="ř"/><glyph d="M260 855l107 187h179l-158 -187h-128zM212 569q0 -35 29.5 -56t96.5 -40q140 -40 207 -94.5t67 -148.5q0 -107 -76 -174.5t-211 -67.5q-110 0 -190.5 49.5t-115.5 134.5l140 72q23 -51 67.5 -80t103.5 -29q52 0 85.5 23.5t33.5 59.5q0 34 -30.5 54.5t-117.5 46.5 q-137 41 -191 95q-60 58 -60 145q0 103 80 169.5t193 66.5q98 0 169.5 -44t105.5 -125l-134 -73q-40 96 -148 96q-48 0 -76 -22.5t-28 -57.5z" glyph-name="Sacute" horiz-adv-x="652" unicode="Ś"/><glyph d="M198 623l107 187h179l-158 -187h-128zM474 161q0 -77 -57 -125t-156 -48q-168 0 -233 123l115 68q33 -65 120 -65q29 0 47 11.5t18 27.5t-17 28.5t-68 23.5q-190 42 -190 173q0 74 60.5 121.5t144.5 47.5q74 0 127 -29.5t79 -78.5l-113 -67q-30 51 -97 51 q-24 0 -40 -11.5t-16 -27.5q0 -34 70 -49q101 -21 153.5 -62.5t52.5 -111.5z" glyph-name="sacute" horiz-adv-x="522" unicode="ś"/><glyph d="M250 1028h147l121 -174h-133l-61 91l-61 -91h-133zM212 569q0 -35 29.5 -56t96.5 -40q140 -40 207 -94.5t67 -148.5q0 -107 -76 -174.5t-211 -67.5q-110 0 -190.5 49.5t-115.5 134.5l140 72q23 -51 67.5 -80t103.5 -29q52 0 85.5 23.5t33.5 59.5q0 34 -30.5 54.5 t-117.5 46.5q-137 41 -191 95q-60 58 -60 145q0 103 80 169.5t193 66.5q98 0 169.5 -44t105.5 -125l-134 -73q-40 96 -148 96q-48 0 -76 -22.5t-28 -57.5z" glyph-name="Scircumflex" horiz-adv-x="652" unicode="Ŝ"/><glyph d="M199 798h146l121 -174h-133l-61 91l-61 -91h-133zM474 161q0 -77 -57 -125t-156 -48q-168 0 -233 123l115 68q33 -65 120 -65q29 0 47 11.5t18 27.5t-17 28.5t-68 23.5q-190 42 -190 173q0 74 60.5 121.5t144.5 47.5q74 0 127 -29.5t79 -78.5l-113 -67q-30 51 -97 51 q-24 0 -40 -11.5t-16 -27.5q0 -34 70 -49q101 -21 153.5 -62.5t52.5 -111.5z" glyph-name="scircumflex" horiz-adv-x="512" unicode="ŝ"/><glyph d="M612 230q0 -90 -55 -153.5t-154 -81.5q19 -44 19 -96q0 -160 -189 -160q-43 0 -72 9v105q27 -5 52 -5q43 0 64 25.5t21 69.5q0 27 -8 46q-97 8 -168 56.5t-103 126.5l140 72q23 -51 67.5 -80t103.5 -29q52 0 85.5 23.5t33.5 59.5q0 34 -30.5 54.5t-117.5 46.5 q-137 41 -191 95q-60 58 -60 145q0 103 80 169.5t193 66.5q98 0 169.5 -44t105.5 -125l-134 -73q-40 96 -148 96q-48 0 -76 -22.5t-28 -57.5t29.5 -56t96.5 -40q140 -40 207 -94.5t67 -148.5z" glyph-name="Scedilla" horiz-adv-x="652" unicode="Ş"/><glyph d="M474 161q0 -63 -39.5 -108t-110.5 -59q19 -39 19 -95q0 -160 -188 -160q-44 0 -73 9v105q27 -5 52 -5q43 0 64.5 25.5t21.5 69.5q0 25 -9 48q-128 15 -183 120l115 68q33 -65 120 -65q29 0 47 11.5t18 27.5t-17 28.5t-68 23.5q-190 42 -190 173q0 74 60.5 121.5 t144.5 47.5q74 0 127 -29.5t79 -78.5l-113 -67q-30 51 -97 51q-24 0 -40 -11.5t-16 -27.5q0 -34 70 -49q101 -21 153.5 -62.5t52.5 -111.5z" glyph-name="scedilla" horiz-adv-x="502" unicode="ş"/><glyph d="M386 1032h132l-120 -175h-147l-122 175h135l60 -92zM212 569q0 -35 29.5 -56t96.5 -40q140 -40 207 -94.5t67 -148.5q0 -107 -76 -174.5t-211 -67.5q-110 0 -190.5 49.5t-115.5 134.5l140 72q23 -51 67.5 -80t103.5 -29q52 0 85.5 23.5t33.5 59.5q0 34 -30.5 54.5 t-117.5 46.5q-137 41 -191 95q-60 58 -60 145q0 103 80 169.5t193 66.5q98 0 169.5 -44t105.5 -125l-134 -73q-40 96 -148 96q-48 0 -76 -22.5t-28 -57.5z" glyph-name="Scaron" horiz-adv-x="652" unicode="Š"/><glyph d="M335 800h133l-121 -174h-146l-123 174h135l61 -91zM474 161q0 -77 -57 -125t-156 -48q-168 0 -233 123l115 68q33 -65 120 -65q29 0 47 11.5t18 27.5t-17 28.5t-68 23.5q-190 42 -190 173q0 74 60.5 121.5t144.5 47.5q74 0 127 -29.5t79 -78.5l-113 -67q-30 51 -97 51 q-24 0 -40 -11.5t-16 -27.5q0 -34 70 -49q101 -21 153.5 -62.5t52.5 -111.5z" glyph-name="scaron" horiz-adv-x="512" unicode="š"/><glyph d="M439 -101q0 -160 -188 -160q-44 0 -73 9v105q27 -5 52 -5q43 0 64.5 25.5t21.5 69.5q0 30 -12 57h-48v626h-235v157h631v-157h-235v-626q22 -41 22 -101z" glyph-name="Tcommaaccent" horiz-adv-x="673" unicode="Ţ"/><glyph d="M273 399v-186q0 -46 23.5 -65.5t69.5 -19.5q19 0 36 4v-129q-34 -10 -73 -10h-9q19 -41 19 -94q0 -160 -189 -160q-35 0 -57 5v107q36 -3 37 -3q43 0 64.5 25.5t21.5 69.5q0 42 -25 87q-74 51 -74 164v205h-96v135h98v167h154v-167h132v-135h-132z" glyph-name="tcommaaccent" horiz-adv-x="450" unicode="ţ"/><glyph d="M399 1028h132l-120 -174h-147l-120 174h133l60 -91zM257 0h161v626h235v157h-632v-157h236v-626z" glyph-name="Tcaron" horiz-adv-x="674" unicode="Ť"/><glyph d="M341 586l14 229h163l-68 -229h-109zM402 132v-129q-34 -10 -73 -10q-104 0 -158 53.5t-54 147.5v205h-96v135h98v167h154v-167h132v-135h-132v-186q0 -46 23.5 -65.5t69.5 -19.5q19 0 36 4z" glyph-name="tcaron" horiz-adv-x="450" unicode="ť"/><glyph d="M264 395v231h-235v157h632v-157h-235v-231h130v-132h-130v-263h-162v263h-130v132h130z" glyph-name="Tbar" horiz-adv-x="690" unicode="Ŧ"/><glyph d="M273 399v-83h103v-103h-103q0 -46 23.5 -65.5t69.5 -19.5q19 0 36 4v-129q-34 -10 -73 -10q-104 0 -158 53.5t-54 147.5v19h-91v103h91v83h-96v135h98v167h154v-167h132v-135h-132z" glyph-name="tbar" horiz-adv-x="450" unicode="ŧ"/><glyph d="M327 1019q35 0 63 -15.5t46.5 -30.5t31.5 -15q34 0 34 58h97q4 -76 -30.5 -119.5t-100.5 -43.5q-34 0 -62 15.5t-47 30.5t-32 15q-33 0 -34 -58h-96q-5 76 29.5 119.5t100.5 43.5zM712 783v-467q0 -154 -80 -240.5t-236 -86.5q-157 0 -235 86.5t-78 234.5v473h163 l-1 -469q0 -83 42.5 -126t109.5 -43q74 0 114.5 44.5t40.5 120.5v473h160z" glyph-name="Utilde" horiz-adv-x="795" unicode="Ũ"/><glyph d="M246 789q36 0 63.5 -15.5t46 -30.5t31.5 -15q34 0 34 58h97q4 -76 -30.5 -119.5t-100.5 -43.5q-34 0 -62 15.5t-47 30.5t-32 15q-33 0 -34 -58h-96q-5 76 29.5 119.5t100.5 43.5zM223 534v-298q0 -47 22.5 -74.5t69.5 -27.5t71.5 29t24.5 73v298h156v-534h-154v66h-1 q-53 -77 -149 -77q-95 0 -145.5 60.5t-50.5 149.5v335h156z" glyph-name="utilde" horiz-adv-x="640" unicode="ũ"/><glyph d="M216 984h364v-116h-364v116zM712 783v-467q0 -154 -80 -240.5t-236 -86.5q-157 0 -235 86.5t-78 234.5v473h163l-1 -469q0 -83 42.5 -126t109.5 -43q74 0 114.5 44.5t40.5 120.5v473h160z" glyph-name="Umacron" horiz-adv-x="795" unicode="Ū"/><glyph d="M135 745h364v-117h-364v117zM223 534v-298q0 -47 22.5 -74.5t69.5 -27.5t71.5 29t24.5 73v298h156v-534h-154v66h-1q-53 -77 -149 -77q-95 0 -145.5 60.5t-50.5 149.5v335h156z" glyph-name="umacron" horiz-adv-x="640" unicode="ū"/><glyph d="M554 979q0 -62 -45.5 -105t-110.5 -43q-63 0 -108.5 43t-45.5 105q0 61 45.5 104t108.5 43q65 0 110.5 -43t45.5 -104zM463 979q0 24 -19 42.5t-46 18.5q-28 0 -46 -17.5t-18 -43.5q0 -25 18.5 -43t45.5 -18q28 0 46.5 18t18.5 43zM712 783v-467q0 -154 -80 -240.5 t-236 -86.5q-157 0 -235 86.5t-78 234.5v473h163l-1 -469q0 -83 42.5 -126t109.5 -43q74 0 114.5 44.5t40.5 120.5v473h160z" glyph-name="Uring" horiz-adv-x="795" unicode="Ů"/><glyph d="M471 750q0 -62 -45.5 -105t-109.5 -43q-63 0 -108.5 43t-45.5 105q0 61 45.5 104t108.5 43q64 0 109.5 -43t45.5 -104zM381 750q0 24 -19.5 42.5t-45.5 18.5q-28 0 -46.5 -17.5t-18.5 -43.5q0 -25 19 -43t46 -18t46 18t19 43zM223 534v-298q0 -47 22.5 -74.5t69.5 -27.5 t71.5 29t24.5 73v298h156v-534h-154v66h-1q-53 -77 -149 -77q-95 0 -145.5 60.5t-50.5 149.5v335h156z" glyph-name="uring" horiz-adv-x="639" unicode="ů"/><glyph d="M226 852l107 188h175l-158 -188h-124zM447 852l107 188h175l-159 -188h-123zM712 783v-467q0 -154 -80 -240.5t-236 -86.5q-157 0 -235 86.5t-78 234.5v473h163l-1 -469q0 -83 42.5 -126t109.5 -43q74 0 114.5 44.5t40.5 120.5v473h160z" glyph-name="Uhungarumlaut" horiz-adv-x="795" unicode="Ű"/><glyph d="M140 623l108 187h174l-158 -187h-124zM361 623l107 187h175l-159 -187h-123zM223 534v-298q0 -47 22.5 -74.5t69.5 -27.5t71.5 29t24.5 73v298h156v-534h-154v66h-1q-53 -77 -149 -77q-95 0 -145.5 60.5t-50.5 149.5v335h156z" glyph-name="uhungarumlaut" horiz-adv-x="639" unicode="ű"/><glyph d="M712 783v-470q0 -198 -137 -281q-59 -37 -97 -76.5t-38 -67.5t23.5 -41.5t48.5 -13.5q9 0 22 1v-90q-30 -10 -77 -10q-63 0 -109 29.5t-46 84.5q0 72 94 142q-156 0 -234.5 86.5t-78.5 234.5v472h163l-1 -469q0 -83 42.5 -126t109.5 -43q74 0 114.5 44.5t40.5 120.5v473 h160z" glyph-name="Uogonek" horiz-adv-x="795" unicode="Ų"/><glyph d="M567 534v-534q-97 -61 -97 -112q0 -28 23.5 -41.5t48.5 -13.5q2 0 9.5 0.5t11.5 0.5v-90q-30 -10 -76 -10q-63 0 -109 29.5t-46 84.5q0 75 111 152h-30v66h-1q-53 -77 -149 -77q-95 0 -145.5 60.5t-50.5 149.5v335h156v-298q0 -47 22.5 -74.5t69.5 -27.5t71.5 29t24.5 73 v298h156z" glyph-name="uogonek" horiz-adv-x="639" unicode="ų"/><glyph d="M523 1028h147l121 -174h-133l-61 91l-61 -91h-135zM192 783l149 -556l169 556h173l169 -560l154 560h167l-232 -783h-175l-170 568h-2l-171 -568h-174l-230 783h173z" glyph-name="Wcircumflex" horiz-adv-x="1191" unicode="Ŵ"/><glyph d="M374 798h147l120 -174h-132l-62 91l-60 -91h-134zM708 0h-153l-109 341h-1l-110 -341h-151l-166 534h160l96 -331h1l100 331h144l100 -334l101 334h156z" glyph-name="wcircumflex" horiz-adv-x="893" unicode="ŵ"/><glyph d="M443 1028h133l-121 -174h-146l-121 174h133l61 -91zM201 783l181 -313l183 313h185l-287 -466v-317h-162v310l-287 473h187z" glyph-name="Ycircumflex" horiz-adv-x="763" unicode="Ŷ"/><glyph d="M239 798h147l120 -174h-132l-62 91l-60 -91h-133zM13 534h172l133 -305l119 305h161l-324 -797h-167l131 320z" glyph-name="ycircumflex" horiz-adv-x="621" unicode="ŷ"/><glyph d="M249 846q-36 0 -61 25.5t-25 61.5t25 61.5t61 25.5t61.5 -26t25.5 -61q0 -36 -25.5 -61.5t-61.5 -25.5zM497 846q-36 0 -61 25.5t-25 61.5t25 61.5t61 25.5t61.5 -25.5t25.5 -61.5t-25.5 -61.5t-61.5 -25.5zM201 783l181 -313l183 313h185l-287 -466v-317h-162v310 l-287 473h187z" glyph-name="Ydieresis" horiz-adv-x="763" unicode="Ÿ"/><glyph d="M261 855l107 187h179l-158 -187h-128zM58 633v150h574v-139l-388 -494h397v-150h-601v143l391 490h-373z" glyph-name="Zacute" horiz-adv-x="685" unicode="Ź"/><glyph d="M184 623l107 187h179l-158 -187h-128zM493 534v-119l-252 -282h253v-133h-451v121l249 280h-241v133h442z" glyph-name="zacute" horiz-adv-x="540" unicode="ź"/><glyph d="M246 942q0 40 28 68t66 28q40 0 68.5 -28t28.5 -68q0 -39 -28.5 -67t-68.5 -28q-38 0 -66 28t-28 67zM431 633l-390 -490v-143h600v150h-397l388 494v139h-574v-150h373z" glyph-name="Zdotaccent" horiz-adv-x="685" unicode="Ż"/><glyph d="M173 713q0 39 28 67t67 28q40 0 68 -28t28 -67q0 -40 -28 -68t-68 -28q-39 0 -67 28t-28 68zM51 534v-133h242l-250 -280v-121h452v133h-254l252 282v119h-442z" glyph-name="zdotaccent" horiz-adv-x="541" unicode="ż"/><glyph d="M404 1028h133l-121 -174h-146l-123 174h135l61 -91zM433 633l-392 -490v-143h602v150h-397l388 494v139h-577v-150h376z" glyph-name="Zcaron" horiz-adv-x="687" unicode="Ž"/><glyph d="M331 798h132l-121 -174h-146l-121 174h133l61 -91zM51 534v-133h241l-249 -280v-121h452v133h-254l252 282v119h-442z" glyph-name="zcaron" horiz-adv-x="541" unicode="ž"/><glyph d="M278 534l13 62q40 190 232 190q52 0 82 -10v-131q-38 8 -66 8q-81 0 -96 -79l-8 -40h123v-133h-149l-44 -220q-7 -38 -22.5 -69t-42 -60t-70 -45t-100.5 -16q-49 0 -83 11v131q35 -8 68 -8q81 0 97 78l39 198h-99v133h126z" glyph-name="florin" horiz-adv-x="619" unicode="ƒ"/><glyph d="M58 326v139h240l134 170h-374v148h575v-137l-142 -181h142v-139h-250l-139 -177h397l1 -149h-600v140l147 186h-131z" glyph-name="uni01B5" horiz-adv-x="687" unicode="Ƶ"/><glyph d="M140 226h-89v82h159l82 95h-241v131h442v-112l-99 -114h99v-82h-170l-82 -95h254v-131h-452v114z" glyph-name="uni01B6" horiz-adv-x="541" unicode="ƶ"/><glyph d="M454 1032h132l-120 -175h-147l-120 175h133l61 -92zM-1 0l299 783h195l300 -783h-167l-59 158h-347l-58 -158h-163zM276 308h236l-118 318z" glyph-name="uni01CD" horiz-adv-x="792" unicode="Ǎ"/><glyph d="M359 798h132l-120 -174h-147l-120 174h133l60 -91zM222 -10q-75 0 -127.5 43.5t-52.5 115.5v2q0 47 21.5 81t58 51t75 24.5t83.5 7.5h53q42 0 42 39q0 28 -22 47t-64 19q-79 0 -119 -72l-119 71q69 127 245 127q106 0 169 -55t63 -160v-331h-144v66l-2 1 q-54 -77 -160 -77zM267 104q50 0 78.5 29.5t28.5 73.5v12h-94q-34 0 -57.5 -15.5t-23.5 -45.5q0 -27 19 -40.5t49 -13.5z" glyph-name="uni01CE" horiz-adv-x="595" unicode="ǎ"/><glyph d="M234 1028h132l-120 -174h-147l-121 174h134l60 -91zM253 783h-162v-783h162v783z" glyph-name="uni01CF" horiz-adv-x="345" unicode="Ǐ"/><glyph d="M212 798h132l-120 -174h-147l-120 174h133l60 -91zM72 534v-534h157v534h-157z" glyph-name="uni01D0" horiz-adv-x="301" unicode="ǐ"/><glyph d="M511 1028h133l-121 -174h-147l-120 174h133l61 -91zM43 391q0 168 120 286t289 118t286.5 -116t117.5 -284q0 -170 -119.5 -288.5t-288.5 -118.5t-287 117t-118 286zM209 392q0 -102 70 -174.5t171 -72.5t171 72.5t70 174.5t-70 174t-171 72t-171 -72t-70 -174z" glyph-name="uni01D1" horiz-adv-x="899" unicode="Ǒ"/><glyph d="M392 798h132l-120 -174h-147l-120 174h133l61 -91zM39 266q0 119 85.5 199.5t207.5 80.5t206 -79.5t84 -197.5q0 -120 -85 -200.5t-207 -80.5q-123 0 -207 79t-84 199zM199 268q0 -60 38 -98.5t94 -38.5t93.5 38.5t37.5 98.5q0 59 -38 97.5t-94 38.5q-55 0 -93 -38.5 t-38 -97.5z" glyph-name="uni01D2" horiz-adv-x="661" unicode="ǒ"/><glyph d="M459 1028h133l-121 -174h-146l-121 174h133l61 -91zM712 783v-467q0 -154 -80 -240.5t-236 -86.5q-157 0 -235 86.5t-78 234.5v473h163l-1 -469q0 -83 42.5 -126t109.5 -43q74 0 114.5 44.5t40.5 120.5v473h160z" glyph-name="uni01D3" horiz-adv-x="795" unicode="Ǔ"/><glyph d="M378 798h133l-121 -174h-146l-121 174h133l61 -91zM223 534v-298q0 -47 22.5 -74.5t69.5 -27.5t71.5 29t24.5 73v298h156v-534h-154v66h-1q-53 -77 -149 -77q-95 0 -145.5 60.5t-50.5 149.5v335h156z" glyph-name="uni01D4" horiz-adv-x="639" unicode="ǔ"/><glyph d="M216 1160h364v-117h-364v117zM274 822q-36 0 -61 25t-25 61t25 61.5t61 25.5t61.5 -25.5t25.5 -61.5t-25.5 -61t-61.5 -25zM522 822q-35 0 -60.5 25t-25.5 61t25 61.5t61 25.5t61.5 -25.5t25.5 -61.5t-25.5 -61t-61.5 -25zM712 783v-467q0 -154 -80 -240.5t-236 -86.5 q-157 0 -235 86.5t-78 234.5v473h163l-1 -469q0 -83 42.5 -126t109.5 -43q74 0 114.5 44.5t40.5 120.5v473h160z" glyph-name="uni01D5" horiz-adv-x="795" unicode="Ǖ"/><glyph d="M135 911h364v-117h-364v117zM198 583q-36 0 -61 25t-25 61t24.5 61.5t61.5 25.5q36 0 61.5 -25.5t25.5 -61.5t-25.5 -61t-61.5 -25zM436 583q-36 0 -61 25t-25 61t25 61.5t61 25.5t61.5 -25.5t25.5 -61.5t-25.5 -61t-61.5 -25zM223 534v-298q0 -47 22.5 -74.5t69.5 -27.5 t71.5 29t24.5 73v298h156v-534h-154v66h-1q-53 -77 -149 -77q-95 0 -145.5 60.5t-50.5 149.5v335h156z" glyph-name="uni01D6" horiz-adv-x="639" unicode="ǖ"/><glyph d="M330 1009l101 177h177l-150 -177h-128zM274 812q-36 0 -61 25t-25 61t25 61.5t61 25.5t61.5 -25.5t25.5 -61.5t-25.5 -61t-61.5 -25zM522 812q-35 0 -60.5 25t-25.5 61t25 61.5t61 25.5t61.5 -25.5t25.5 -61.5t-25.5 -61t-61.5 -25zM712 783v-467q0 -154 -80 -240.5 t-236 -86.5q-157 0 -235 86.5t-78 234.5v473h162v-469q0 -83 42.5 -126t109.5 -43q74 0 114.5 44.5t40.5 120.5v473h160z" glyph-name="uni01D7" horiz-adv-x="795" unicode="Ǘ"/><glyph d="M249 779l107 188h179l-158 -188h-128zM198 583q-36 0 -61 25t-25 61t24.5 61.5t61.5 25.5q36 0 61.5 -25.5t25.5 -61.5t-25.5 -61t-61.5 -25zM436 583q-36 0 -61 25t-25 61t25 61.5t61 25.5t61.5 -25.5t25.5 -61.5t-25.5 -61t-61.5 -25zM223 534v-298q0 -47 22.5 -74.5 t69.5 -27.5t71.5 29t24.5 73v298h156v-534h-154v66h-1q-53 -77 -149 -77q-95 0 -145.5 60.5t-50.5 149.5v335h156z" glyph-name="uni01D8" horiz-adv-x="639" unicode="ǘ"/><glyph d="M459 1173h133l-121 -164h-146l-121 164h133l61 -85zM274 812q-36 0 -61 25t-25 61t25 61.5t61 25.5t61.5 -25.5t25.5 -61.5t-25.5 -61t-61.5 -25zM522 812q-35 0 -60.5 25t-25.5 61t25 61.5t61 25.5t61.5 -25.5t25.5 -61.5t-25.5 -61t-61.5 -25zM712 783v-467 q0 -154 -80 -240.5t-236 -86.5q-157 0 -235 86.5t-78 234.5v473h162v-469q0 -83 42.5 -126t109.5 -43q74 0 114.5 44.5t40.5 120.5v473h160z" glyph-name="uni01D9" horiz-adv-x="795" unicode="Ǚ"/><glyph d="M378 954h133l-121 -175h-146l-121 175h133l61 -92zM198 583q-36 0 -61 25t-25 61t24.5 61.5t61.5 25.5q36 0 61.5 -25.5t25.5 -61.5t-25.5 -61t-61.5 -25zM436 583q-36 0 -61 25t-25 61t25 61.5t61 25.5t61.5 -25.5t25.5 -61.5t-25.5 -61t-61.5 -25zM223 534v-298 q0 -47 22.5 -74.5t69.5 -27.5t71.5 29t24.5 73v298h156v-534h-154v66h-1q-53 -77 -149 -77q-95 0 -145.5 60.5t-50.5 149.5v335h156z" glyph-name="uni01DA" horiz-adv-x="639" unicode="ǚ"/><glyph d="M366 1186l102 -177h-128l-150 177h176zM274 812q36 0 61.5 25t25.5 61t-25.5 61.5t-61.5 25.5t-61 -25.5t-25 -61.5t25 -61t61 -25zM522 812q36 0 61.5 25t25.5 61t-25.5 61.5t-61.5 25.5t-61 -25.5t-25 -61.5t25.5 -61t60.5 -25zM712 783v-467q0 -154 -80 -240.5 t-236 -86.5q-157 0 -235 86.5t-78 234.5v473h163l-1 -469q0 -83 42.5 -126t109.5 -43q74 0 114.5 44.5t40.5 120.5v473h160z" glyph-name="uni01DB" horiz-adv-x="795" unicode="Ǜ"/><glyph d="M103 967h179l107 -188h-128zM198 583q-36 0 -61 25t-25 61t24.5 61.5t61.5 25.5q36 0 61.5 -25.5t25.5 -61.5t-25.5 -61t-61.5 -25zM436 583q-36 0 -61 25t-25 61t25 61.5t61 25.5t61.5 -25.5t25.5 -61.5t-25.5 -61t-61.5 -25zM223 534v-298q0 -47 22.5 -74.5t69.5 -27.5 t71.5 29t24.5 73v298h156v-534h-154v66h-1q-53 -77 -149 -77q-95 0 -145.5 60.5t-50.5 149.5v335h156z" glyph-name="uni01DC" horiz-adv-x="639" unicode="ǜ"/><glyph d="M514 1028h132l-121 -174h-146l-121 174h134l60 -91zM208 392q0 -104 68 -177t173 -73q78 0 132.5 36.5t69.5 95.5h-238v147h407v-61q0 -117 -53.5 -203.5t-136.5 -127.5t-181 -41q-179 0 -292.5 116.5t-113.5 286.5t119.5 287t288.5 117q137 0 228.5 -67.5t122.5 -153.5 l-143 -70q-22 55 -73.5 96.5t-136.5 41.5q-100 0 -170.5 -72t-70.5 -178z" glyph-name="Gcaron" horiz-adv-x="858" unicode="Ǧ"/><glyph d="M398 798h132l-120 -174h-147l-120 174h133l60 -91zM51 -114l127 73q45 -90 142 -90q61 0 97.5 31.5t36.5 93.5v81h-2q-55 -71 -154 -71q-114 0 -186 77t-72 191q0 107 70.5 188.5t181.5 81.5q101 0 162 -73h2v65h153v-536q0 -125 -80.5 -195t-207.5 -70q-198 0 -270 153z M458 272q0 58 -37 94.5t-93 36.5q-55 0 -92.5 -36.5t-37.5 -94.5q0 -59 37 -95.5t93 -36.5q55 0 92.5 36.5t37.5 95.5z" glyph-name="gcaron" horiz-adv-x="682" unicode="ǧ"/><glyph d="M459 1028h133l-121 -174h-146l-121 174h133l61 -91zM253 783h-162v-783h162v372l282 -372h208l-318 409l299 374h-203l-268 -341v341z" glyph-name="uni01E8" horiz-adv-x="737" unicode="Ǩ"/><glyph d="M72 815h156v-491l185 210h199l-215 -246l221 -288h-197l-189 253h-4v-253h-156v815zM395 624h146l121 174h-133l-61 -91l-61 91h-133z" glyph-name="uni01E9" horiz-adv-x="619" unicode="ǩ"/><glyph d="M385 855l107 187h179l-158 -187h-128zM208 392q0 -104 68 -177t173 -73q78 0 132.5 36.5t69.5 95.5h-238v147h407v-61q0 -117 -53.5 -203.5t-136.5 -127.5t-181 -41q-179 0 -292.5 116.5t-113.5 286.5t119.5 287t288.5 117q137 0 228.5 -67.5t122.5 -153.5l-143 -70 q-22 55 -73.5 96.5t-136.5 41.5q-100 0 -170.5 -72t-70.5 -178z" glyph-name="uni01F4" horiz-adv-x="858" unicode="Ǵ"/><glyph d="M244 623l107 187h179l-158 -187h-128zM51 -114l127 73q45 -90 142 -90q61 0 97.5 31.5t36.5 93.5v81h-2q-55 -71 -154 -71q-114 0 -186 77t-72 191q0 107 70.5 188.5t181.5 81.5q101 0 162 -73h2v65h153v-536q0 -125 -80.5 -195t-207.5 -70q-198 0 -270 153zM458 272 q0 58 -37 94.5t-93 36.5q-55 0 -92.5 -36.5t-37.5 -94.5q0 -59 37 -95.5t93 -36.5q55 0 92.5 36.5t37.5 95.5z" glyph-name="uni01F5" horiz-adv-x="682" unicode="ǵ"/><glyph d="M793 0h-167l-59 158h-347l-58 -158h-163l280 735q-39 42 -39 99q0 61 46 104t109 43q24 0 45 -6l61 107h180l-150 -178q19 -33 19 -70q0 -56 -39 -98zM395 894q-29 0 -47 -17.5t-18 -42.5t18.5 -43.5t46.5 -18.5q27 0 45.5 18.5t18.5 43.5q0 23 -19.5 41.5t-44.5 18.5z M512 308l-118 318l-118 -318h236z" glyph-name="Aringacute" horiz-adv-x="792" unicode="Ǻ"/><glyph d="M427 517q101 -53 101 -186v-331h-144v66l-2 1q-54 -77 -160 -77q-75 0 -127.5 43.5t-52.5 115.5v2q0 47 21.5 81t58 51t75 24.5t83.5 7.5h53q42 0 42 39q0 28 -22 47t-64 19q-79 0 -119 -72l-119 71q38 70 113 103q-22 35 -22 76q0 61 46 104t109 43q25 0 51 -8l56 99 h180l-147 -174q15 -29 15 -64q0 -45 -25 -81zM297 659q-28 0 -46.5 -17.5t-18.5 -43.5q0 -25 18.5 -43t46.5 -18q27 0 45.5 18t18.5 43q0 24 -19 42.5t-45 18.5zM374 219h-94q-34 0 -57.5 -15.5t-23.5 -45.5q0 -27 19 -40.5t49 -13.5q50 0 78.5 29.5t28.5 73.5v12z" glyph-name="aringacute" horiz-adv-x="597" unicode="ǻ"/><glyph d="M504 852l107 188h180l-159 -188h-128zM994 631h-347v-159h311v-152h-311v-169h350v-151h-510v157h-248l-77 -157h-175l397 783h610v-152zM478 632l-164 -325h173v325h-9z" glyph-name="AEacute" horiz-adv-x="1054" unicode="Ǽ"/><glyph d="M404 623l107 187h179l-158 -187h-128zM230 -10h-9q-75 0 -127 43.5t-52 115.5v6q0 37 14.5 65.5t37.5 46t55 29t63.5 15.5t66.5 4h54q42 0 42 39q0 28 -22 47t-64 19q-80 0 -118 -72l-119 71q68 127 244 127q115 0 175 -64q78 65 178 65q117 0 191.5 -74t74.5 -191 q0 -39 -3 -58h-387q7 -49 44 -77t88 -28q35 0 68 17.5t51 46.5l113 -74q-69 -121 -231 -121q-137 0 -219 93q-84 -91 -209 -91zM528 327h230q-2 35 -31 64t-82 29q-48 0 -80 -30.5t-37 -62.5zM374 219h-95q-34 0 -57 -15.5t-23 -45.5q0 -27 18.5 -40.5t48.5 -13.5 q52 0 80 30t28 73v12z" glyph-name="aeacute" horiz-adv-x="956" unicode="ǽ"/><glyph d="M382 855l107 187h179l-158 -187h-128zM857 740l-88 -93q88 -109 88 -252q0 -171 -119 -289t-289 -118q-131 0 -235 74l-88 -91l-81 75l88 92q-89 110 -89 253q0 168 120 286t289 118q132 0 235 -72l88 92zM208 392q0 -72 39 -135l331 347q-57 35 -126 35 q-101 0 -172.5 -72.5t-71.5 -174.5zM452 145q100 0 171 72.5t71 174.5q0 75 -39 136l-331 -347q56 -36 128 -36z" glyph-name="Oslashacute" horiz-adv-x="902" unicode="Ǿ"/><glyph d="M263 623l107 187h179l-158 -187h-128zM622 502l-60 -60q61 -74 61 -173q0 -120 -85 -200.5t-207 -80.5q-95 0 -172 52l-63 -63l-57 56l61 61q-60 73 -60 172q0 118 85.5 199t207.5 81q96 0 169 -50l63 62zM199 268q0 -37 13 -63l185 184q-30 16 -65 16q-56 0 -94.5 -38.5 t-38.5 -98.5zM332 130q56 0 94 38.5t38 99.5q0 33 -13 64l-187 -185q31 -17 68 -17z" glyph-name="oslashacute" horiz-adv-x="663" unicode="ǿ"/><glyph d="M212 569q0 -35 29.5 -56t96.5 -40q140 -40 207 -94.5t67 -148.5q0 -107 -76 -174.5t-211 -67.5q-110 0 -190.5 49.5t-115.5 134.5l140 72q23 -51 67.5 -80t103.5 -29q52 0 85.5 23.5t33.5 59.5q0 34 -30.5 54.5t-117.5 46.5q-137 41 -191 95q-60 58 -60 145 q0 103 80 169.5t193 66.5q98 0 169.5 -44t105.5 -125l-134 -73q-40 96 -148 96q-48 0 -76 -22.5t-28 -57.5zM419 -164v-5q0 -53 -31.5 -103.5t-83.5 -85.5l-48 46q59 39 87 99q-13 -6 -29 -6q-31 0 -51.5 21.5t-20.5 54.5q0 36 24.5 60.5t59.5 24.5q40 0 66.5 -29t26.5 -77z " glyph-name="Scommaaccent" horiz-adv-x="652" unicode="Ș"/><glyph d="M474 161q0 -77 -57 -125t-156 -48q-168 0 -233 123l115 68q33 -65 120 -65q29 0 47 11.5t18 27.5t-17 28.5t-68 23.5q-190 42 -190 173q0 74 60.5 121.5t144.5 47.5q74 0 127 -29.5t79 -78.5l-113 -67q-30 51 -97 51q-24 0 -40 -11.5t-16 -27.5q0 -34 70 -49 q101 -21 153.5 -62.5t52.5 -111.5zM341 -164v-5q0 -53 -31.5 -103.5t-83.5 -85.5l-48 46q59 39 87 99q-14 -6 -29 -6q-31 0 -51.5 21.5t-20.5 54.5q0 36 24.5 60.5t59.5 24.5q40 0 66.5 -29t26.5 -77z" glyph-name="scommaaccent" horiz-adv-x="512" unicode="ș"/><glyph d="M21 783h631v-157h-235v-626h-161v626h-235v157zM422 -164v-5q0 -53 -31.5 -103.5t-83.5 -85.5l-48 46q59 39 87 99q-14 -6 -29 -6q-31 0 -51.5 21.5t-20.5 54.5q0 36 24.5 60.5t59.5 24.5q40 0 66.5 -29t26.5 -77z" glyph-name="uni021A" horiz-adv-x="673" unicode="Ț"/><glyph d="M402 132v-129q-34 -10 -73 -10q-104 0 -158 53.5t-54 147.5v205h-96v135h98v167h154v-167h132v-135h-132v-186q0 -46 23.5 -65.5t69.5 -19.5q19 0 36 4zM325 -164v-5q0 -53 -31.5 -103.5t-83.5 -85.5l-48 46q59 39 87 99q-14 -6 -29 -6q-31 0 -51.5 21.5t-20.5 54.5 q0 36 24.5 60.5t59.5 24.5q40 0 66.5 -29t26.5 -77z" glyph-name="uni021B" horiz-adv-x="450" unicode="ț"/><glyph d="M236 534v-574q0 -115 -56.5 -169.5t-172.5 -54.5q-32 0 -55 7v131q13 -3 27 -3q51 0 76 22t25 75v566h156z" glyph-name="uni0237" horiz-adv-x="309" unicode="ȷ"/><glyph d="M141 798h146l121 -174h-132l-62 91l-61 -91h-133z" glyph-name="circumflex" horiz-adv-x="428" unicode="ˆ"/><glyph d="M210 620q-77 0 -129.5 49.5t-60.5 128.5h116q12 -72 74 -72q30 0 49.5 19.5t24.5 52.5h116q-8 -80 -60.5 -129t-129.5 -49z" glyph-name="breve" horiz-adv-x="420" unicode="˘"/><glyph d="M20 713q0 39 28 67t67 28q40 0 68.5 -28t28.5 -67q0 -40 -28.5 -68t-68.5 -28q-39 0 -67 28t-28 68z" glyph-name="dotaccent" horiz-adv-x="232" unicode="˙"/><glyph d="M146 789q35 0 63 -15.5t46.5 -30.5t31.5 -15q34 0 34 58h97q4 -76 -30.5 -119.5t-100.5 -43.5q-34 0 -62 15.5t-47 30.5t-32 15q-33 0 -34 -58h-96q-5 76 29.5 119.5t100.5 43.5z" glyph-name="tilde" horiz-adv-x="433" unicode="˜"/><glyph d="M20 623l107 187h174l-158 -187h-123zM241 623l107 187h174l-158 -187h-123z" glyph-name="hungarumlaut" horiz-adv-x="542" unicode="˝"/><glyph d="M-6 810l107 -187h-128l-158 187h179z" glyph-name="gravecomb" horiz-adv-x="0" unicode="̀"/><glyph d="M-143 623l107 187h179l-158 -187h-128z" glyph-name="acutecomb" horiz-adv-x="0" unicode="́"/><glyph d="M-73 798h146l121 -174h-132l-62 91l-61 -91h-133z" glyph-name="uni0302" horiz-adv-x="0" unicode="̂"/><glyph d="M-71 789q35 0 63 -15.5t46.5 -30.5t31.5 -15q34 0 34 58h97q4 -76 -30.5 -119.5t-100.5 -43.5q-34 0 -62 15.5t-47 30.5t-32 15q-33 0 -34 -58h-96q-5 76 29.5 119.5t100.5 43.5z" glyph-name="tildecomb" horiz-adv-x="0" unicode="̃"/><glyph d="M-182 745h364v-117h-364v117z" glyph-name="uni0304" horiz-adv-x="0" unicode="̄"/><glyph d="M0 620q-77 0 -129.5 49.5t-60.5 128.5h116q12 -72 74 -72q30 0 49.5 19.5t24.5 52.5h116q-8 -80 -60.5 -129t-129.5 -49z" glyph-name="uni0306" horiz-adv-x="0" unicode="̆"/><glyph d="M-96 713q0 39 28 67t67 28q40 0 68.5 -28t28.5 -67q0 -40 -28.5 -68t-68.5 -28q-39 0 -67 28t-28 68z" glyph-name="uni0307" horiz-adv-x="0" unicode="̇"/><glyph d="M-120 617q-36 0 -61 25.5t-25 61.5q0 35 25 61t61 26t61.5 -25.5t25.5 -61.5q0 -37 -25.5 -62t-61.5 -25zM119 617q-36 0 -61 25t-25 62q0 35 24.5 61t61.5 26q36 0 61.5 -26t25.5 -61q0 -37 -25.5 -62t-61.5 -25z" glyph-name="uni0308" horiz-adv-x="0" unicode="̈"/><glyph d="M155 750q0 -62 -45.5 -105t-109.5 -43q-63 0 -109 43t-46 105q0 61 46 104t109 43q64 0 109.5 -43t45.5 -104zM64 750q0 24 -19 42.5t-45 18.5q-28 0 -46.5 -17.5t-18.5 -43.5q0 -25 18.5 -43t46.5 -18q27 0 45.5 18t18.5 43z" glyph-name="uni030A" horiz-adv-x="0" unicode="̊"/><glyph d="M-251 623l107 187h174l-158 -187h-123zM-30 623l107 187h174l-158 -187h-123z" glyph-name="uni030B" horiz-adv-x="0" unicode="̋"/><glyph d="M62 798h132l-121 -174h-146l-121 174h133l61 -91z" glyph-name="uni030C" horiz-adv-x="0" unicode="̌"/><glyph d="M-88 722v4q0 54 31 104t83 85l49 -46q-60 -38 -87 -98q15 5 29 5q30 0 51 -21.5t21 -54.5q0 -35 -25 -59.5t-60 -24.5q-40 0 -66 29t-26 77z" glyph-name="uni0312" horiz-adv-x="0" unicode="̒"/><glyph d="M89 -164v-5q0 -53 -31.5 -103.5t-83.5 -85.5l-48 46q59 39 87 99q-14 -6 -29 -6q-31 0 -51.5 21.5t-20.5 54.5q0 36 24.5 60.5t59.5 24.5q40 0 66.5 -29t26.5 -77z" glyph-name="uni0326" horiz-adv-x="0" unicode="̦"/><glyph d="M83 -101q0 -160 -189 -160q-44 0 -73 9v105q28 -5 53 -5q43 0 64 25.5t21 69.5q0 30 -12 57h114q22 -44 22 -101z" glyph-name="uni0327" horiz-adv-x="0" unicode="̧"/><glyph d="M-6 0h124q-38 -24 -68 -54t-30 -58t23.5 -41.5t48.5 -13.5q9 0 22 1v-90q-30 -10 -76 -10q-64 0 -110 29.5t-46 84.5q0 75 112 152z" glyph-name="uni0328" horiz-adv-x="0" unicode="̨"/><glyph d="M448 -12q-169 0 -287 117t-118 286q0 168 120 286t289 118t286.5 -116t117.5 -284q0 -170 -119.5 -288.5t-288.5 -118.5zM450 638q-102 0 -172 -72t-70 -174t70 -174.5t172 -72.5q101 0 171.5 72.5t70.5 174.5t-70.5 174t-171.5 72zM270 472h361v-152h-361v152z" glyph-name="Theta" horiz-adv-x="899" unicode="Θ"/><glyph d="M226 432q0 -68 41 -126.5t133 -79.5v-226h-340v141h191v14q-59 26 -100.5 64t-60.5 79t-27 74.5t-8 64.5q0 157 112 257.5t275 100.5q164 0 275 -100t111 -258q0 -31 -8 -64t-27 -74t-60.5 -79.5t-100.5 -64.5v-14h192v-141h-341v226q92 21 133.5 80t41.5 126 q0 86 -61.5 147t-155.5 61q-93 0 -154 -61t-61 -147z" glyph-name="Omega" horiz-adv-x="883" unicode="Ω"/><glyph d="M43 403q0 76 20.5 148t59 132.5t102.5 97t144 36.5q78 0 140.5 -36t101.5 -95t59.5 -131t20.5 -148t-20.5 -149t-59.5 -134t-103 -98.5t-142 -37.5q-79 0 -143 37.5t-102 98.5t-58 133t-20 146zM206 473h322q-9 82 -51 142t-110 60t-109.5 -59.5t-51.5 -142.5zM529 341 h-324q8 -84 50.5 -147t111.5 -63t111.5 63t50.5 147z" glyph-name="theta" horiz-adv-x="734" unicode="θ"/><glyph d="M584 399v-184q0 -87 88 -87q15 0 23 1v-130q-24 -6 -48 -6q-217 0 -217 219v187h-143v-399h-155v399h-108v135h671v-135h-111z" glyph-name="pi" horiz-adv-x="746" unicode="π"/><glyph d="M222 846q-36 0 -61 25.5t-25 61.5t24.5 61.5t61.5 25.5q36 0 61.5 -25.5t25.5 -61.5t-25.5 -61.5t-61.5 -25.5zM470 846q-36 0 -61 25.5t-25 61.5t24.5 61.5t61.5 25.5q36 0 61.5 -25.5t25.5 -61.5t-25.5 -61.5t-61.5 -25.5zM251 631v-159h316v-152h-316v-169h355v-151 h-515v783h513v-152h-353z" glyph-name="afii10023" horiz-adv-x="663" unicode="Ё"/><glyph d="M558 -12q-40 0 -87 10v151q23 -3 46 -3q138 0 138 102q0 98 -144 98q-39 0 -81.5 -13t-67.5 -37v-296h-160v633h-181v150h632v-150h-291v-186q88 56 199 56q116 0 187 -68.5t71 -184.5q0 -124 -69 -193t-192 -69z" glyph-name="afii10051" horiz-adv-x="844" unicode="Ђ"/><glyph d="M238 852l107 188h179l-158 -188h-128zM583 630h-329v-630h-163v783h492v-153z" glyph-name="afii10052" horiz-adv-x="603" unicode="Ѓ"/><glyph d="M660 288l146 -67q-39 -107 -140 -169.5t-219 -62.5q-171 0 -287.5 115.5t-116.5 286.5q0 169 118.5 286.5t287.5 117.5q119 0 217 -61.5t137 -167.5l-145 -67q-25 65 -81 102.5t-129 37.5q-81 0 -145 -48.5t-85 -122.5h310v-145h-312q20 -78 83.5 -128.5t148.5 -50.5 q73 0 129 39.5t83 104.5z" glyph-name="afii10053" horiz-adv-x="831" unicode="Є"/><glyph d="M212 569q0 -35 29.5 -56t96.5 -40q140 -40 207 -94.5t67 -148.5q0 -107 -76 -174.5t-211 -67.5q-110 0 -190.5 49.5t-115.5 134.5l140 72q23 -51 67.5 -80t103.5 -29q52 0 85.5 23.5t33.5 59.5q0 34 -30.5 54.5t-117.5 46.5q-137 41 -191 95q-60 58 -60 145 q0 103 80 169.5t193 66.5q98 0 169.5 -44t105.5 -125l-134 -73q-40 96 -148 96q-48 0 -76 -22.5t-28 -57.5z" glyph-name="afii10054" horiz-adv-x="652" unicode="Ѕ"/><glyph d="M91 783h162v-783h-162v783z" glyph-name="afii10055" horiz-adv-x="345" unicode="І"/><glyph d="M56 846q-36 0 -61.5 25.5t-25.5 61.5t25 61.5t62 25.5q36 0 61.5 -26t25.5 -61q0 -36 -26 -61.5t-61 -25.5zM290 846q-36 0 -61.5 25.5t-25.5 61.5t25 61.5t62 25.5q36 0 61 -25.5t25 -61.5t-25.5 -61.5t-60.5 -25.5zM91 783h162v-783h-162v783z" glyph-name="afii10056" horiz-adv-x="345" unicode="Ї"/><glyph d="M537 783v-545q0 -117 -73.5 -182.5t-183.5 -65.5q-183 0 -251 168l137 76q34 -89 111 -89q46 0 72 27.5t26 77.5v533h162z" glyph-name="afii10057" horiz-adv-x="622" unicode="Ј"/><glyph d="M761 487h177q74 0 128.5 -21t84.5 -56.5t44 -76t14 -85.5q0 -47 -15 -89t-46 -78.5t-87.5 -58.5t-131.5 -22h-329v628h-235l-24 -268q-14 -162 -92 -262.5t-223 -100.5h-3v148q39 0 69.5 21t48 55.5t27.5 70.5t13 74l37 417h543v-296zM761 153h168q68 0 94 28.5t26 67.5 q0 36 -26.5 63.5t-95.5 27.5h-166v-187z" glyph-name="afii10058" horiz-adv-x="1237" unicode="Љ"/><glyph d="M253 783v-303h328v303h162v-303h183q70 0 123.5 -21t83 -56t44 -75.5t14.5 -84.5q0 -47 -14 -88t-45 -77t-87 -57t-132 -21h-332v332h-328v-332h-162v783h162zM743 153h170q69 0 93 26t24 67q0 88 -118 88h-169v-181z" glyph-name="afii10059" horiz-adv-x="1219" unicode="Њ"/><glyph d="M659 0v200q0 146 -137 146q-93 0 -160 -53v-293h-160v633h-181v150h632v-150h-291v-186q88 56 199 56q116 0 187 -65t71 -176v-262h-160z" glyph-name="afii10060" horiz-adv-x="865" unicode="Ћ"/><glyph d="M329 855l107 187h179l-158 -187h-128zM254 783v-341l268 341h203l-299 -374l318 -409h-209l-281 372v-372h-163v783h163z" glyph-name="afii10061" horiz-adv-x="738" unicode="Ќ"/><glyph d="M378 856q-80 0 -130.5 49.5t-63.5 134.5l91 16q29 -92 103 -92q75 0 102 92l90 -16q-13 -85 -62.5 -134.5t-129.5 -49.5zM181 783l198 -401l187 401h175l-306 -614q-47 -95 -104.5 -137t-135.5 -42q-102 0 -177 55l89 132q41 -32 83 -32q62 0 99 73l-286 565h178z" glyph-name="afii10062" horiz-adv-x="729" unicode="Ў"/><glyph d="M335 0h-244v783h161v-628h323v628h161v-783h-244v-164h-157v164z" glyph-name="afii10145" horiz-adv-x="828" unicode="Џ"/><glyph d="M-1 0l299 783h195l300 -783h-167l-59 158h-347l-58 -158h-163zM276 308h236l-118 318z" glyph-name="afii10017" horiz-adv-x="792" unicode="А"/><glyph d="M252 472h195q136 0 200 -68t64 -165q0 -47 -14 -87.5t-45 -75.5t-87.5 -55.5t-133.5 -20.5h-340v783h571v-153h-410v-158zM252 153h181q117 0 117 91q0 84 -119 84h-179v-175z" glyph-name="afii10018" horiz-adv-x="749" unicode="Б"/><glyph d="M700 216q0 -57 -24 -100.5t-64.5 -67.5t-88.5 -36t-102 -12h-330v783h325q103 0 176.5 -54t73.5 -153q0 -110 -110 -167v-2q73 -27 108.5 -71.5t35.5 -119.5zM507 551q0 45 -32.5 64t-80.5 19h-145v-169h134q124 0 124 86zM542 237q0 88 -128 88h-165v-175h170 q123 0 123 87z" glyph-name="afii10019" horiz-adv-x="744" unicode="В"/><glyph d="M582 630h-329v-630h-162v783h491v-153z" glyph-name="afii10020" horiz-adv-x="601" unicode="Г"/><glyph d="M54 150h4q54 0 98.5 48.5t69 116t31.5 140.5l33 328h489v-633h82v-314h-157v164h-493v-164h-157v314zM436 635l-21 -197q-22 -205 -127 -287h330v484h-182z" glyph-name="afii10021" horiz-adv-x="906" unicode="Д"/><glyph d="M251 631v-159h316v-152h-316v-169h355v-151h-515v783h513v-152h-353z" glyph-name="afii10022" horiz-adv-x="663" unicode="Е"/><glyph d="M11 783h198l260 -367l5 1v366h162v-367h5l259 367h199l-283 -380l295 -403h-200l-270 380h-5v-380h-162v380h-5l-270 -380h-200l294 403z" glyph-name="afii10024" horiz-adv-x="1110" unicode="Ж"/><glyph d="M608 225q0 -103 -81 -170t-204 -67q-104 0 -183 43t-114 124l142 73q20 -43 62 -66.5t97 -23.5q52 0 84.5 24.5t32.5 66.5q0 45 -30.5 68.5t-86.5 23.5h-103v150h94q53 0 82.5 24.5t29.5 63.5q0 37 -30.5 61t-84.5 24q-92 0 -132 -87l-145 69q33 81 109 125t174 44 q122 0 197 -62t75 -163q0 -108 -107 -165v-1q65 -27 93.5 -70.5t28.5 -108.5z" glyph-name="afii10025" horiz-adv-x="658" unicode="З"/><glyph d="M262 0h-171v783h160v-521l336 521h184v-783h-160v545z" glyph-name="afii10026" horiz-adv-x="862" unicode="И"/><glyph d="M437 856q-80 0 -130.5 49.5t-63.5 134.5l91 16q29 -92 103 -92q75 0 102 92l90 -16q-13 -85 -62.5 -134.5t-129.5 -49.5zM262 0h-171v783h160v-521l336 521h184v-783h-160v545z" glyph-name="afii10027" horiz-adv-x="862" unicode="Й"/><glyph d="M252 783v-341l269 341h202l-299 -374l319 -409h-209l-282 372v-372h-161v783h161z" glyph-name="afii10028" horiz-adv-x="736" unicode="К"/><glyph d="M362 630l-28 -270q-37 -363 -307 -363h-3v148q51 0 85.5 38.5t47.5 83.5t19 101l43 415h523v-783h-161v630h-219z" glyph-name="afii10029" horiz-adv-x="833" unicode="Л"/><glyph d="M576 0h-108l-217 513h-1v-513h-159v783h209l222 -525l218 525h215v-783h-160v517h-1z" glyph-name="afii10030" horiz-adv-x="1046" unicode="М"/><glyph d="M91 783h162v-309h328v309h162v-783h-162v317h-328v-317h-162v783z" glyph-name="afii10031" horiz-adv-x="834" unicode="Н"/><glyph d="M43 391q0 168 120 286t289 118t286.5 -116t117.5 -284q0 -170 -119.5 -288.5t-288.5 -118.5t-287 117t-118 286zM209 392q0 -102 70 -174.5t171 -72.5t171 72.5t70 174.5t-70 174t-171 72t-171 -72t-70 -174z" glyph-name="afii10032" horiz-adv-x="899" unicode="О"/><glyph d="M91 783h645v-783h-161v630h-322v-630h-162v783z" glyph-name="afii10033" horiz-adv-x="828" unicode="П"/><glyph d="M662 532q0 -125 -78.5 -190.5t-207.5 -65.5h-123v-276h-162v783h291q123 0 201.5 -65.5t78.5 -185.5zM499 528q0 53 -37.5 77.5t-93.5 24.5h-115v-203h116q54 0 92 25t38 76z" glyph-name="afii10034" horiz-adv-x="691" unicode="Р"/><glyph d="M43 391q0 169 118.5 286.5t287.5 117.5q119 0 217.5 -62t137.5 -169l-148 -68q-25 65 -80 103t-128 38q-101 0 -169 -71t-68 -173q0 -104 67 -175.5t170 -71.5q72 0 128 40t82 105l149 -69q-39 -108 -140.5 -170.5t-220.5 -62.5q-171 0 -287 115.5t-116 286.5z" glyph-name="afii10035" horiz-adv-x="832" unicode="С"/><glyph d="M20 783h631v-157h-234v-626h-162v626h-235v157z" glyph-name="afii10036" horiz-adv-x="671" unicode="Т"/><glyph d="M181 783l198 -401l187 401h175l-306 -614q-47 -95 -104.5 -137t-135.5 -42q-102 0 -177 55l89 132q41 -32 83 -32q62 0 99 73l-286 565h178z" glyph-name="afii10037" horiz-adv-x="729" unicode="У"/><glyph d="M425 -24v82q-102 0 -180 31.5t-121.5 83.5t-64.5 109.5t-21 118.5q0 152 107.5 244.5t279.5 92.5v70h161v-70q172 0 279.5 -92t107.5 -245q0 -48 -12.5 -94.5t-41.5 -92t-72.5 -80t-110.5 -55.5t-150 -21v-82h-161zM425 208v381q-100 0 -161.5 -51.5t-61.5 -138.5 q0 -88 61 -139.5t162 -51.5zM586 589v-381q102 0 163 51.5t61 139.5q0 87 -61 138.5t-163 51.5z" glyph-name="afii10038" horiz-adv-x="1011" unicode="Ф"/><glyph d="M15 783h190l173 -254l175 254h189l-268 -379l282 -404h-189l-191 282l-194 -282h-183l282 403z" glyph-name="afii10039" horiz-adv-x="755" unicode="Х"/><glyph d="M736 154h82v-318h-157v164h-570v783h161v-629h323v629h161v-629z" glyph-name="afii10040" horiz-adv-x="865" unicode="Ц"/><glyph d="M515 0v304q-114 -57 -204 -57q-121 0 -189.5 65.5t-68.5 191.5v279h161v-231q0 -146 132 -146q105 0 169 49v328h161v-783h-161z" glyph-name="afii10041" horiz-adv-x="768" unicode="Ч"/><glyph d="M527 783h161v-630h273v630h163v-783h-1033v783h162v-630h274v630z" glyph-name="afii10042" horiz-adv-x="1215" unicode="Ш"/><glyph d="M527 783h161v-630h273v630h163v-629h82v-318h-158v164h-957v783h162v-630h274v630z" glyph-name="afii10043" horiz-adv-x="1252" unicode="Щ"/><glyph d="M370 487h178q73 0 127.5 -21t84.5 -56.5t44 -76t14 -85.5q0 -47 -15 -89t-46 -78.5t-87.5 -58.5t-131.5 -22h-330v629h-186v154h348v-296zM370 153h168q68 0 94 28.5t26 67.5q0 36 -26 63.5t-95 27.5h-167v-187z" glyph-name="afii10044" horiz-adv-x="846" unicode="Ъ"/><glyph d="M253 487h178q73 0 127.5 -21t84.5 -56.5t44 -76t14 -85.5q0 -47 -15 -89t-46 -78.5t-87.5 -58.5t-131.5 -22h-330v783h162v-296zM988 783h-162v-783h162v783zM253 153h168q68 0 94 29t26 67q0 36 -26.5 63.5t-95.5 27.5h-166v-187z" glyph-name="afii10045" horiz-adv-x="1080" unicode="Ы"/><glyph d="M253 487h178q73 0 127.5 -21t84.5 -56.5t44 -76t14 -85.5q0 -47 -15 -89t-46 -78.5t-87.5 -58.5t-131.5 -22h-330v783h162v-296zM253 153h168q68 0 94 29t26 67q0 36 -26.5 63.5t-95.5 27.5h-166v-187z" glyph-name="afii10046" horiz-adv-x="729" unicode="Ь"/><glyph d="M388 795q174 0 287.5 -115t113.5 -286q0 -172 -113.5 -288.5t-289.5 -116.5q-120 0 -220.5 62t-140.5 170l147 67q26 -65 83.5 -104.5t131.5 -39.5q85 0 147 50t82 129h-312v145h309q-21 74 -82.5 122.5t-143.5 48.5q-74 0 -131 -37.5t-82 -102.5l-145 67q37 105 138 167 t221 62z" glyph-name="afii10047" horiz-adv-x="833" unicode="Э"/><glyph d="M751 795q169 0 282 -116.5t113 -286.5q0 -171 -114 -287.5t-283 -116.5q-149 0 -257.5 93t-132.5 238h-106v-319h-162v783h162v-318h106q25 143 134 236.5t258 93.5zM751 145q99 0 164.5 72t65.5 175q0 102 -66.5 174t-165.5 72t-164 -70t-65 -176q0 -103 66 -175 t165 -72z" glyph-name="afii10048" horiz-adv-x="1189" unicode="Ю"/><glyph d="M35 0l166 311q-147 59 -147 226q0 117 78.5 181.5t198.5 64.5h309v-783h-162v281h-120l-147 -281h-176zM478 630h-134q-53 0 -89.5 -23.5t-36.5 -77.5q0 -49 37 -73t88 -24h135v198z" glyph-name="afii10049" horiz-adv-x="731" unicode="Я"/><glyph d="M222 -10q-75 0 -127.5 43.5t-52.5 115.5v2q0 47 21.5 81t58 51t75 24.5t83.5 7.5h53q42 0 42 39q0 28 -22 47t-64 19q-79 0 -119 -72l-119 71q69 127 245 127q106 0 169 -55t63 -160v-331h-144v66l-2 1q-54 -77 -160 -77zM267 104q50 0 78.5 29.5t28.5 73.5v12h-94 q-34 0 -57.5 -15.5t-23.5 -45.5q0 -27 19 -40.5t49 -13.5z" glyph-name="afii10065" horiz-adv-x="595" unicode="а"/><glyph d="M347 -11q-131 0 -212 87t-81 246q0 48 2.5 83.5t11 81.5t23.5 80.5t43 72t66 64.5t95.5 50.5t129.5 36.5l156 28l27 -133l-183 -35q-67 -13 -117 -40.5t-75 -59.5t-36.5 -58.5t-13.5 -47.5l4 -1q34 41 82 65t73.5 27.5t48.5 3.5q102 0 172 -73.5t70 -189.5 q0 -130 -80.5 -209t-205.5 -79zM346 403q-52 0 -91.5 -36.5t-39.5 -98.5q0 -64 38 -101t94 -37t93.5 37t37.5 100q0 64 -40 100t-92 36z" glyph-name="afii10066" horiz-adv-x="674" unicode="б"/><glyph d="M72 534h324q67 0 122 -32t55 -100q0 -85 -85 -122v-1q103 -30 103 -133q0 -52 -31 -86t-73.5 -47t-93.5 -13h-321v534zM225 324h134q32 0 46 15.5t14 35.5q0 19 -14.5 32t-43.5 13h-136v-96zM225 122h147q35 0 49.5 15t14.5 36t-16.5 35t-51.5 14h-143v-100z" glyph-name="afii10067" horiz-adv-x="634" unicode="в"/><glyph d="M472 399h-243v-399h-157v534h400v-135z" glyph-name="afii10068" horiz-adv-x="491" unicode="г"/><glyph d="M28 136h1q45 0 77.5 52t40.5 136l21 210h434v-399h67v-299h-145v164h-351v-164h-145v300zM309 399l-7 -79q-13 -130 -86 -184l1 -1h229v264h-137z" glyph-name="afii10069" horiz-adv-x="713" unicode="д"/><glyph d="M586 224h-388q7 -49 44.5 -77t87.5 -28q35 0 68 17.5t51 46.5l113 -74q-67 -121 -230 -121q-124 0 -208.5 78.5t-84.5 201.5q0 115 83.5 197t199.5 82q119 0 192.5 -74t73.5 -193q0 -38 -2 -56zM202 327h230q-3 35 -32 64t-82 29q-48 0 -79.5 -30.5t-36.5 -62.5z" glyph-name="afii10070" horiz-adv-x="627" unicode="е"/><glyph d="M904 534l-191 -261l194 -273h-188l-179 259h-3v-259h-155v259h-4l-178 -259h-189l195 273l-191 261h185l178 -246h4v246h155v-246h4l178 246h185z" glyph-name="afii10072" horiz-adv-x="918" unicode="ж"/><glyph d="M324 369q0 18 -16.5 32t-47.5 14q-70 0 -111 -68l-118 66q71 133 236 133q95 0 152.5 -43t57.5 -116q0 -80 -74 -111v-1q83 -33 83 -118q0 -81 -60 -125t-159 -44q-178 0 -243 129l122 69q37 -66 120 -66q30 0 48.5 14.5t18.5 34.5q0 49 -67 49h-66v103h64q60 0 60 48z " glyph-name="afii10073" horiz-adv-x="532" unicode="з"/><glyph d="M72 534h154v-311h1l196 311h156v-534h-154v308h-1l-195 -308h-157v534z" glyph-name="afii10074" horiz-adv-x="651" unicode="и"/><glyph d="M326 618q-80 0 -130.5 49.5t-63.5 133.5l92 16q28 -91 102 -91t102 91l91 -15q-14 -85 -63.5 -134.5t-129.5 -49.5zM72 534h154v-311h1l196 311h156v-534h-154v308h-1l-195 -308h-157v534z" glyph-name="afii10075" horiz-adv-x="651" unicode="й"/><glyph d="M72 534h156v-229h2l197 229h190l-229 -260l239 -274h-199l-197 233h-3v-233h-156v534z" glyph-name="afii10076" horiz-adv-x="623" unicode="к"/><glyph d="M284 399l-14 -149q-24 -255 -236 -255l-7 1v132q73 0 86 129l30 277h452v-534h-156v399h-155z" glyph-name="afii10077" horiz-adv-x="667" unicode="л"/><glyph d="M226 358h-1v-358h-153v534h212l131 -349l129 349h213v-534h-153v365h-2l-132 -365h-110z" glyph-name="afii10078" horiz-adv-x="830" unicode="м"/><glyph d="M72 534h156v-201h188v201h156v-534h-156v203h-188v-203h-156v534z" glyph-name="afii10079" horiz-adv-x="644" unicode="н"/><glyph d="M39 266q0 119 85.5 199.5t207.5 80.5t206 -79.5t84 -197.5q0 -120 -85 -200.5t-207 -80.5q-123 0 -207 79t-84 199zM199 268q0 -60 38 -98.5t94 -38.5t93.5 38.5t37.5 98.5q0 59 -38 97.5t-94 38.5q-55 0 -93 -38.5t-38 -97.5z" glyph-name="afii10080" horiz-adv-x="661" unicode="о"/><glyph d="M72 534h497v-534h-156v399h-184v-399h-157v534z" glyph-name="afii10081" horiz-adv-x="641" unicode="п"/><glyph d="M227 468h2q56 76 163 76q112 0 183 -84t71 -192q0 -109 -73 -193.5t-185 -84.5q-101 0 -158 69h-2v-323h-156v798h155v-66zM224 268q0 -60 38 -98.5t94 -38.5t94 38.5t38 98.5q0 59 -38.5 97t-94.5 38q-55 0 -93 -38t-38 -97z" glyph-name="afii10082" horiz-adv-x="686" unicode="р"/><glyph d="M327 -12q-125 0 -206 79t-81 199q0 118 84 199t204 81q89 0 157.5 -43t94.5 -122l-137 -57q-35 79 -115 79q-54 0 -91 -36.5t-37 -98.5q0 -60 35.5 -98t92.5 -38q84 0 118 79l138 -57q-31 -82 -99.5 -124t-157.5 -42z" glyph-name="afii10083" horiz-adv-x="615" unicode="с"/><glyph d="M21 534h479v-135h-162v-399h-157v399h-160v135z" glyph-name="afii10084" horiz-adv-x="520" unicode="т"/><glyph d="M13 534h172l133 -305l119 305h161l-324 -797h-167l131 320z" glyph-name="afii10085" horiz-adv-x="611" unicode="у"/><glyph d="M384 -244v281q-16 -18 -49.5 -31t-67.5 -13q-107 0 -166 81.5t-59 192.5t59 193t169 82q33 0 65 -14t50 -35l-1 290h157v-290q18 21 50 35t66 14q74 0 127 -41.5t76.5 -102.5t23.5 -132q0 -111 -59 -192t-166 -81q-34 0 -68 13.5t-50 30.5v-281h-157zM311 403 q-53 0 -80.5 -41t-27.5 -95q0 -52 26 -94t82 -42q38 0 74 24v224q-40 24 -74 24zM616 403q-35 0 -75 -24v-224q36 -24 74 -24q56 0 82 42.5t26 95.5q0 52 -27.5 93t-79.5 41z" glyph-name="afii10086" horiz-adv-x="926" unicode="ф"/><glyph d="M17 534h175l96 -151l99 151h172l-188 -262l193 -272h-175l-102 157l-103 -157h-173l192 269z" glyph-name="afii10087" horiz-adv-x="575" unicode="х"/><glyph d="M72 0v534h157v-399h184v399h156v-399h68v-299h-145v164h-420z" glyph-name="afii10088" horiz-adv-x="681" unicode="ц"/><glyph d="M381 0v183q-74 -36 -148 -36q-82 0 -136.5 45.5t-54.5 133.5v208h157v-164q0 -89 76 -89q55 0 106 27v226h156v-534h-156z" glyph-name="afii10089" horiz-adv-x="609" unicode="ч"/><glyph d="M403 534h156v-399h175v399h156v-534h-818v534h157v-399h174v399z" glyph-name="afii10090" horiz-adv-x="962" unicode="ш"/><glyph d="M72 0v534h157v-399h174v399h156v-399h175v399h156v-400h68v-299h-145v165h-741z" glyph-name="afii10091" horiz-adv-x="1002" unicode="щ"/><glyph d="M344 374h120q104 0 165 -47t61 -138q0 -89 -58 -139t-159 -50h-286v399h-166v135h323v-160zM344 123h107q82 0 82 69q0 30 -20.5 47.5t-61.5 17.5h-107v-134z" glyph-name="afii10092" horiz-adv-x="716" unicode="ъ"/><glyph d="M228 374h121q104 0 165 -47.5t61 -137.5q0 -89 -58 -139t-159 -50h-286v534h156v-160zM674 0v534h156v-534h-156zM228 123h107q82 0 82 69q0 30 -20.5 47.5t-61.5 17.5h-107v-134z" glyph-name="afii10093" horiz-adv-x="902" unicode="ы"/><glyph d="M228 374h121q104 0 165 -47.5t61 -137.5q0 -89 -58 -139t-159 -50h-286v534h156v-160zM228 123h107q82 0 82 69q0 30 -20.5 47.5t-61.5 17.5h-107v-134z" glyph-name="afii10094" horiz-adv-x="601" unicode="ь"/><glyph d="M290 546q121 0 202 -80.5t81 -199.5q0 -117 -81.5 -197.5t-203.5 -80.5q-91 0 -159.5 41.5t-98.5 123.5l134 55q36 -79 125 -79q45 0 77.5 24t43.5 63h-176v107h173q-13 39 -45 61t-73 22q-87 0 -122 -78l-134 55q26 78 97 120.5t160 42.5z" glyph-name="afii10095" horiz-adv-x="613" unicode="э"/><glyph d="M581 546q121 0 201 -79t80 -198q0 -121 -80.5 -201t-201.5 -80q-104 0 -179 59t-97 155h-75v-202h-157v534h157v-202h75q21 95 97 154.5t180 59.5zM581 131q54 0 87.5 38t33.5 99q0 60 -33.5 98t-88.5 38t-89 -37t-34 -99q0 -61 34.5 -99t89.5 -38z" glyph-name="afii10096" horiz-adv-x="901" unicode="ю"/><glyph d="M28 0l126 200q-102 43 -102 155q0 79 55.5 129t161.5 50h303v-534h-155v170h-108l-106 -170h-175zM417 412h-125q-17 0 -33.5 -3.5t-33.5 -19t-17 -41.5q0 -28 22 -47t64 -19h123v130z" glyph-name="afii10097" horiz-adv-x="644" unicode="я"/><glyph d="M201 617q-36 0 -61 25t-25 62q0 35 24.5 61t61.5 26q36 0 61.5 -25.5t25.5 -61.5q0 -37 -25.5 -62t-61.5 -25zM439 617q-36 0 -61 25t-25 62q0 35 25 61t61 26t61.5 -25.5t25.5 -61.5q0 -37 -25.5 -62t-61.5 -25zM586 224h-388q7 -49 44.5 -77t87.5 -28q35 0 68 17.5 t51 46.5l113 -74q-67 -121 -230 -121q-124 0 -208.5 78.5t-84.5 201.5q0 115 83.5 197t199.5 82q119 0 192.5 -74t73.5 -193q0 -38 -2 -56zM202 327h230q-3 35 -32 64t-82 29q-48 0 -79.5 -30.5t-36.5 -62.5z" glyph-name="afii10071" horiz-adv-x="627" unicode="ё"/><glyph d="M379 544q96 0 144.5 -61t48.5 -151v-372q0 -115 -56.5 -169.5t-171.5 -54.5q-32 0 -55 7v131q13 -3 27 -3q51 0 76 22t25 75v328q0 47 -23.5 75.5t-69.5 28.5q-47 0 -71.5 -30t-24.5 -74v-296h-156v619h-67v106h67v90h155v-90h160v-106h-160v-155h1q19 33 53.5 52.5 t57.5 23.5t40 4z" glyph-name="afii10099" horiz-adv-x="623" unicode="ђ"/><glyph d="M197 623l107 187h179l-158 -187h-128zM472 399h-243v-399h-157v534h400v-135z" glyph-name="afii10100" horiz-adv-x="492" unicode="ѓ"/><glyph d="M449 208l134 -55q-31 -82 -99 -123.5t-157 -41.5q-125 0 -206 79t-81 199q0 118 84 199t205 81q88 0 156.5 -42.5t94.5 -120.5l-134 -55q-35 78 -118 78q-42 0 -75.5 -22t-46.5 -61h173v-107h-175q13 -40 46 -63.5t78 -23.5q85 0 121 79z" glyph-name="afii10101" horiz-adv-x="614" unicode="є"/><glyph d="M474 161q0 -77 -57 -125t-156 -48q-168 0 -233 123l115 68q33 -65 120 -65q29 0 47 11.5t18 27.5t-17 28.5t-68 23.5q-190 42 -190 173q0 74 60.5 121.5t144.5 47.5q74 0 127 -29.5t79 -78.5l-113 -67q-30 51 -97 51q-24 0 -40 -11.5t-16 -27.5q0 -34 70 -49 q101 -21 153.5 -62.5t52.5 -111.5z" glyph-name="afii10102" horiz-adv-x="512" unicode="ѕ"/><glyph d="M53 720q0 40 28.5 68.5t67.5 28.5q41 0 69.5 -28t28.5 -69q0 -40 -28.5 -68t-69.5 -28q-39 0 -67.5 28t-28.5 68zM72 534v-534h157v534h-157z" glyph-name="afii10103" horiz-adv-x="301" unicode="і"/><glyph d="M33 617q-36 0 -61 25t-25 62q0 35 24.5 61t61.5 26q36 0 61.5 -25.5t25.5 -61.5q0 -37 -25.5 -62t-61.5 -25zM267 617q-36 0 -61.5 25t-25.5 62q0 35 25 61t62 26q36 0 61.5 -26t25.5 -61q0 -36 -25.5 -61.5t-61.5 -25.5zM72 0v534h157v-534h-157z" glyph-name="afii10104" horiz-adv-x="301" unicode="ї"/><glyph d="M61 720q0 40 28 68.5t68 28.5q41 0 69.5 -28.5t28.5 -68.5t-28.5 -68t-69.5 -28q-40 0 -68 28t-28 68zM236 534v-574q0 -115 -56.5 -169.5t-172.5 -54.5q-32 0 -55 7v131q13 -3 27 -3q51 0 76 22t25 75v566h156z" glyph-name="afii10105" horiz-adv-x="309" unicode="ј"/><glyph d="M284 399l-14 -149q-26 -255 -237 -255l-6 1v132q71 0 86 129l30 277h451v-151h117q106 0 168 -49t62 -140q0 -90 -58.5 -142t-161.5 -52h-283v399h-154zM594 123h104q86 0 86 74q0 31 -21.5 50.5t-64.5 19.5h-104v-144z" glyph-name="afii10106" horiz-adv-x="968" unicode="љ"/><glyph d="M72 0v534h156v-165h188v165h156v-165h120q105 0 165.5 -46.5t60.5 -136.5q0 -88 -57.5 -137t-158.5 -49h-286v250h-188v-250h-156zM572 123h107q82 0 82 66q0 63 -82 63h-107v-129z" glyph-name="afii10107" horiz-adv-x="944" unicode="њ"/><glyph d="M416 0v296q0 46 -23 75t-69 29q-48 0 -72 -30t-24 -72v-298h-156v619h-67v106h67v90h156v-90h159v-106h-159v-148h1q29 42 71 57.5t76 15.5q96 0 146 -61.5t50 -150.5v-332h-156z" glyph-name="afii10108" horiz-adv-x="639" unicode="ћ"/><glyph d="M261 623l107 187h179l-158 -187h-128zM72 534h157v-229h2l197 229h189l-228 -260l239 -274h-199l-197 233h-3v-233h-157v534z" glyph-name="afii10109" horiz-adv-x="624" unicode="ќ"/><glyph d="M307 618q-81 0 -131 49t-63 134l91 16q28 -91 103 -91q74 0 102 91l90 -15q-14 -86 -63 -135t-129 -49zM13 534h172l133 -305l119 305h161l-324 -797h-167l131 320z" glyph-name="afii10110" horiz-adv-x="621" unicode="ў"/><glyph d="M248 0h-176v534h157v-399h184v399h156v-534h-176v-164h-145v164z" glyph-name="afii10193" horiz-adv-x="642" unicode="џ"/><glyph d="M425 945h157v-315h-329v-630h-162v783h334v162z" glyph-name="afii10050" horiz-adv-x="601" unicode="Ґ"/><glyph d="M327 701h145v-302h-243v-399h-157v534h255v167z" glyph-name="afii10098" horiz-adv-x="491" unicode="ґ"/><glyph d="M911 0l-270 380h-5v-380h-162v380h-5l-270 -380h-200l294 403l-282 380h198l260 -367l5 1v366h162v-367h5l259 367h199l-283 -380l183 -249h112v-318h-157v164h-43z" glyph-name="uni0496" horiz-adv-x="1137" unicode="Җ"/><glyph d="M719 0l-179 259h-3v-259h-155v259h-4l-178 -259h-189l195 273l-191 261h185l178 -246h4v246h155v-246h4l178 246h185l-191 -261l99 -138h95v-299h-145l1 164h-44z" glyph-name="uni0497" horiz-adv-x="940" unicode="җ"/><glyph d="M608 225q0 -84 -55.5 -146t-147.5 -82v-161h-157v158q-164 28 -222 161l142 73q20 -43 62 -66.5t97 -23.5q52 0 84.5 24.5t32.5 66.5q0 45 -30.5 68.5t-86.5 23.5h-103v150h94q53 0 82.5 24.5t29.5 63.5q0 37 -30.5 61t-84.5 24q-92 0 -132 -87l-145 69q33 81 109 125 t174 44q122 0 197 -62t75 -163q0 -108 -107 -165v-1q65 -27 93.5 -70.5t28.5 -108.5z" glyph-name="uni0498" horiz-adv-x="658" unicode="Ҙ"/><glyph d="M486 157q0 -66 -41 -108t-113 -55v-158h-145v159q-112 23 -163 122l122 69q37 -66 120 -66q30 0 48.5 14.5t18.5 34.5q0 49 -67 49h-66v103h64q60 0 60 48q0 18 -16.5 32t-47.5 14q-70 0 -111 -68l-118 66q71 133 236 133q95 0 152.5 -43t57.5 -116q0 -80 -74 -111v-1 q83 -33 83 -118z" glyph-name="uni0499" horiz-adv-x="532" unicode="ҙ"/><glyph d="M534 0l-282 372v-372h-161v783h161v-341l269 341h202l-299 -374l199 -255h120v-318h-158v164h-51z" glyph-name="uni049A" horiz-adv-x="765" unicode="Қ"/><glyph d="M428 0l-197 233h-3v-233h-156v534h156v-229h2l197 229h190l-229 -260l122 -139h117v-299h-145l1 164h-55z" glyph-name="uni049B" horiz-adv-x="648" unicode="қ"/><glyph d="M581 0v317h-328v-317h-162v783h162v-309h328v309h162v-629h81v-318h-157v164h-86z" glyph-name="uni04A2" horiz-adv-x="871" unicode="Ң"/><glyph d="M416 0v203h-188v-203h-156v534h156v-201h188v201h156v-399h68v-299h-145v164h-79z" glyph-name="uni04A3" horiz-adv-x="684" unicode="ң"/><glyph d="M658 291l149 -69q-33 -90 -109 -148.5t-173 -77.5v-160h-157v160q-143 26 -234 135.5t-91 259.5q0 169 118.5 286.5t287.5 117.5q119 0 217.5 -62t137.5 -169l-148 -68q-25 65 -80 103t-128 38q-101 0 -169 -71t-68 -173q0 -104 67 -175.5t170 -71.5q72 0 128 40t82 105z " glyph-name="uni04AA" horiz-adv-x="832" unicode="Ҫ"/><glyph d="M446 211l138 -57q-49 -129 -185 -158v-160h-145v160q-96 22 -155 95.5t-59 174.5q0 118 84 199t204 81q89 0 157.5 -43t94.5 -122l-137 -57q-35 79 -115 79q-54 0 -91 -36.5t-37 -98.5q0 -60 35.5 -98t92.5 -38q84 0 118 79z" glyph-name="uni04AB" horiz-adv-x="615" unicode="ҫ"/><glyph d="M255 0v626h-235v157h631v-157h-234v-472h82v-318h-157v164h-87z" glyph-name="uni04AC" horiz-adv-x="677" unicode="Ҭ"/><glyph d="M181 0v399h-160v135h479v-135h-162v-264h68v-299h-145v164h-80z" glyph-name="uni04AD" horiz-adv-x="525" unicode="ҭ"/><glyph d="M567 0l-191 282l-194 -282h-183l282 403l-266 380h190l173 -254l175 254h189l-268 -379l174 -250h108v-318h-157v164h-32z" glyph-name="uni04B2" horiz-adv-x="782" unicode="Ҳ"/><glyph d="M389 0l-102 157l-103 -157h-173l192 269l-186 265h175l96 -151l99 151h172l-188 -262l97 -137h96v-299h-145v164h-30z" glyph-name="uni04B3" horiz-adv-x="597" unicode="ҳ"/><glyph d="M515 0v304q-114 -57 -204 -57q-121 0 -189.5 65.5t-68.5 191.5v279h161v-231q0 -146 132 -146q105 0 169 49v328h161v-629h82v-318h-157v164h-86z" glyph-name="uni04B6" horiz-adv-x="805" unicode="Ҷ"/><glyph d="M381 0v183q-74 -36 -148 -36q-82 0 -136.5 45.5t-54.5 133.5v208h157v-164q0 -89 76 -89q55 0 106 27v226h156v-399h67v-299h-145v164h-78z" glyph-name="uni04B7" horiz-adv-x="649" unicode="ҷ"/><glyph d="M91 783h162v-783h-162v783z" glyph-name="uni04C0" horiz-adv-x="345" unicode="Ӏ"/><glyph d="M556 856q-81 0 -131 49.5t-63 134.5l91 16q27 -92 103 -92q75 0 102 92l90 -16q-14 -86 -63 -135t-129 -49zM11 783h198l260 -367l5 1v366h162v-367h5l259 367h199l-283 -380l295 -403h-200l-270 380h-5v-380h-162v380h-5l-270 -380h-200l294 403z" glyph-name="uni04C1" horiz-adv-x="1110" unicode="Ӂ"/><glyph d="M460 618q-80 0 -130.5 49.5t-63.5 133.5l91 16q30 -91 103 -91q74 0 102 91l90 -15q-13 -85 -62.5 -134.5t-129.5 -49.5zM904 534l-191 -261l194 -273h-188l-179 259h-3v-259h-155v259h-4l-178 -259h-189l195 273l-191 261h185l178 -246h4v246h155v-246h4l178 246h185z " glyph-name="uni04C2" horiz-adv-x="918" unicode="ӂ"/><glyph d="M72 0v534h157v-534h-157z" glyph-name="uni04CF" horiz-adv-x="301" unicode="ӏ"/><glyph d="M397 856q-80 0 -130.5 49.5t-63.5 134.5l91 16q29 -92 103 -92q75 0 102 92l90 -16q-13 -85 -62.5 -134.5t-129.5 -49.5zM-1 0l299 783h195l300 -783h-167l-59 158h-347l-58 -158h-163zM276 308h236l-118 318z" glyph-name="uni04D0" horiz-adv-x="792" unicode="Ӑ"/><glyph d="M296 618q-80 0 -130 49t-63 134l91 16q28 -91 102 -91q73 0 103 91l90 -15q-14 -85 -63.5 -134.5t-129.5 -49.5zM222 -10q-75 0 -127.5 43.5t-52.5 115.5v2q0 47 21.5 81t58 51t75 24.5t83.5 7.5h53q42 0 42 39q0 28 -22 47t-64 19q-79 0 -119 -72l-119 71 q69 127 245 127q106 0 169 -55t63 -160v-331h-144v66l-2 1q-54 -77 -160 -77zM267 104q50 0 78.5 29.5t28.5 73.5v12h-94q-34 0 -57.5 -15.5t-23.5 -45.5q0 -27 19 -40.5t49 -13.5z" glyph-name="uni04D1" horiz-adv-x="595" unicode="ӑ"/><glyph d="M272 846q-36 0 -61 25.5t-25 61.5t25 61.5t61 25.5t61.5 -26t25.5 -61q0 -36 -25.5 -61.5t-61.5 -25.5zM520 846q-36 0 -61 25.5t-25 61.5t25 61.5t61 25.5t61.5 -25.5t25.5 -61.5t-25.5 -61.5t-61.5 -25.5zM-1 0l299 783h195l300 -783h-167l-59 158h-347l-58 -158h-163z M276 308h236l-118 318z" glyph-name="uni04D2" horiz-adv-x="792" unicode="Ӓ"/><glyph d="M177 617q-36 0 -61 25t-25 62q0 35 25 61t61 26t61.5 -25.5t25.5 -61.5q0 -37 -25.5 -62t-61.5 -25zM416 617q-36 0 -61 25t-25 62q0 35 24.5 61t61.5 26q36 0 61.5 -26t25.5 -61q0 -36 -25.5 -61.5t-61.5 -25.5zM222 -10q-75 0 -127.5 43.5t-52.5 115.5v2q0 47 21.5 81 t58 51t75 24.5t83.5 7.5h53q42 0 42 39q0 28 -22 47t-64 19q-79 0 -119 -72l-119 71q69 127 245 127q106 0 169 -55t63 -160v-331h-144v66l-2 1q-54 -77 -160 -77zM267 104q50 0 78.5 29.5t28.5 73.5v12h-94q-34 0 -57.5 -15.5t-23.5 -45.5q0 -27 19 -40.5t49 -13.5z" glyph-name="uni04D3" horiz-adv-x="595" unicode="ӓ"/><glyph d="M994 631h-347v-159h311v-152h-311v-169h350v-151h-510v157h-248l-77 -157h-175l397 783h610v-152zM478 632l-164 -325h173v325h-9z" glyph-name="uni04D4" horiz-adv-x="1054" unicode="Ӕ"/><glyph d="M230 -10h-9q-75 0 -127 43.5t-52 115.5v6q0 37 14.5 65.5t37.5 46t55 29t63.5 15.5t66.5 4h54q42 0 42 39q0 28 -22 47t-64 19q-80 0 -118 -72l-119 71q68 127 244 127q115 0 175 -64q78 65 178 65q117 0 191.5 -74t74.5 -191q0 -39 -3 -58h-387q7 -49 44 -77t88 -28 q35 0 68 17.5t51 46.5l113 -74q-69 -121 -231 -121q-137 0 -219 93q-84 -91 -209 -91zM528 327h230q-2 35 -31 64t-82 29q-48 0 -80 -30.5t-37 -62.5zM374 219h-95q-34 0 -57 -15.5t-23 -45.5q0 -27 18.5 -40.5t48.5 -13.5q52 0 80 30t28 73v12z" glyph-name="uni04D5" horiz-adv-x="954" unicode="ӕ"/><glyph d="M350 856q-81 0 -131 49.5t-63 134.5l91 16q27 -92 103 -92q73 0 102 92l90 -16q-14 -85 -63.5 -134.5t-128.5 -49.5zM251 631v-159h316v-152h-316v-169h355v-151h-515v783h513v-152h-353z" glyph-name="uni04D6" horiz-adv-x="663" unicode="Ӗ"/><glyph d="M325 618q-80 0 -130.5 49.5t-63.5 133.5l92 16q28 -91 102 -91t102 91l91 -15q-14 -85 -63.5 -134.5t-129.5 -49.5zM586 224h-388q7 -49 44.5 -77t87.5 -28q35 0 68 17.5t51 46.5l113 -74q-67 -121 -230 -121q-124 0 -208.5 78.5t-84.5 201.5q0 115 83.5 197t199.5 82 q119 0 192.5 -74t73.5 -193q0 -38 -2 -56zM202 327h230q-3 35 -32 64t-82 29q-48 0 -79.5 -30.5t-36.5 -62.5z" glyph-name="uni04D7" horiz-adv-x="627" unicode="ӗ"/><glyph d="M431 846q-36 0 -61 25.5t-25 61.5t24.5 61.5t61.5 25.5q36 0 61.5 -26t25.5 -61q0 -36 -25.5 -61.5t-61.5 -25.5zM679 846q-36 0 -61 25.5t-25 61.5t24.5 61.5t61.5 25.5q36 0 61.5 -25.5t25.5 -61.5t-25.5 -61.5t-61.5 -25.5zM11 783h198l260 -367l5 1v366h162v-367h5 l259 367h199l-283 -380l295 -403h-200l-270 380h-5v-380h-162v380h-5l-270 -380h-200l294 403z" glyph-name="uni04DC" horiz-adv-x="1110" unicode="Ӝ"/><glyph d="M340 617q-36 0 -61 25t-25 62q0 35 25 61t61 26t61.5 -25.5t25.5 -61.5q0 -37 -25.5 -62t-61.5 -25zM578 617q-36 0 -61 25t-25 62q0 35 25 61t61 26t61.5 -25.5t25.5 -61.5q0 -37 -25.5 -62t-61.5 -25zM904 534l-191 -261l194 -273h-188l-179 259h-3v-259h-155v259h-4 l-178 -259h-189l195 273l-191 261h185l178 -246h4v246h155v-246h4l178 246h185z" glyph-name="uni04DD" horiz-adv-x="918" unicode="ӝ"/><glyph d="M194 846q-35 0 -60.5 25.5t-25.5 61.5t25 61.5t61 25.5t61.5 -25.5t25.5 -61.5t-25.5 -61.5t-61.5 -25.5zM442 846q-35 0 -60 25.5t-25 61.5t24.5 61.5t60.5 25.5t61.5 -25.5t25.5 -61.5t-25.5 -61.5t-61.5 -25.5zM608 225q0 -103 -81 -170t-204 -67q-104 0 -183 43 t-114 124l142 73q20 -43 62 -66.5t97 -23.5q52 0 84.5 24.5t32.5 66.5q0 45 -30.5 68.5t-86.5 23.5h-103v150h94q53 0 82.5 24.5t29.5 63.5q0 37 -30.5 61t-84.5 24q-92 0 -132 -87l-145 69q33 81 109 125t174 44q122 0 197 -62t75 -163q0 -108 -107 -165v-1 q65 -27 93.5 -70.5t28.5 -108.5z" glyph-name="uni04DE" horiz-adv-x="658" unicode="Ӟ"/><glyph d="M147 617q-36 0 -61 25t-25 62q0 35 25 61t61 26t61.5 -25.5t25.5 -61.5q0 -37 -25.5 -62t-61.5 -25zM385 617q-36 0 -61 25t-25 62q0 35 25 61t61 26t61.5 -25.5t25.5 -61.5q0 -37 -25.5 -62t-61.5 -25zM324 369q0 18 -16.5 32t-47.5 14q-70 0 -111 -68l-118 66 q71 133 236 133q95 0 152.5 -43t57.5 -116q0 -80 -74 -111v-1q83 -33 83 -118q0 -81 -60 -125t-159 -44q-178 0 -243 129l122 69q37 -66 120 -66q30 0 48.5 14.5t18.5 34.5q0 49 -67 49h-66v103h64q60 0 60 48z" glyph-name="uni04DF" horiz-adv-x="532" unicode="ӟ"/><glyph d="M248 984h364v-116h-364v116zM262 0h-171v783h160v-521l336 521h184v-783h-160v545z" glyph-name="uni04E2" horiz-adv-x="862" unicode="Ӣ"/><glyph d="M143 745h364v-117h-364v117zM72 534h154v-311h1l196 311h156v-534h-154v308h-1l-195 -308h-157v534z" glyph-name="uni04E3" horiz-adv-x="651" unicode="ӣ"/><glyph d="M306 846q-36 0 -61 25.5t-25 61.5t24.5 61.5t61.5 25.5q36 0 61.5 -26t25.5 -61q0 -36 -25.5 -61.5t-61.5 -25.5zM554 846q-36 0 -61 25.5t-25 61.5t24.5 61.5t61.5 25.5q36 0 61.5 -25.5t25.5 -61.5t-25.5 -61.5t-61.5 -25.5zM262 0h-171v783h160v-521l336 521h184v-783 h-160v545z" glyph-name="uni04E4" horiz-adv-x="862" unicode="Ӥ"/><glyph d="M206 617q-36 0 -61 25t-25 62q0 35 25 61t61 26t61.5 -25.5t25.5 -61.5q0 -37 -25.5 -62t-61.5 -25zM444 617q-36 0 -61 25t-25 62q0 35 25 61t61 26t61.5 -25.5t25.5 -61.5q0 -37 -25.5 -62t-61.5 -25zM72 534h154v-311h1l196 311h156v-534h-154v308h-1l-195 -308h-157 v534z" glyph-name="uni04E5" horiz-adv-x="651" unicode="ӥ"/><glyph d="M327 846q-36 0 -61 25.5t-25 61.5t24.5 61.5t61.5 25.5q36 0 61.5 -26t25.5 -61q0 -36 -25.5 -61.5t-61.5 -25.5zM575 846q-36 0 -61 25.5t-25 61.5t24.5 61.5t61.5 25.5q36 0 61.5 -25.5t25.5 -61.5t-25.5 -61.5t-61.5 -25.5zM43 391q0 168 120 286t289 118t286.5 -116 t117.5 -284q0 -170 -119.5 -288.5t-288.5 -118.5t-287 117t-118 286zM209 392q0 -102 70 -174.5t171 -72.5t171 72.5t70 174.5t-70 174t-171 72t-171 -72t-70 -174z" glyph-name="uni04E6" horiz-adv-x="899" unicode="Ӧ"/><glyph d="M212 617q-36 0 -61 25t-25 62q0 35 25 61t61 26t61.5 -25.5t25.5 -61.5q0 -37 -25.5 -62t-61.5 -25zM450 617q-36 0 -61 25t-25 62q0 35 25 61t61 26t61.5 -25.5t25.5 -61.5q0 -37 -25.5 -62t-61.5 -25zM39 266q0 119 85.5 199.5t207.5 80.5t206 -79.5t84 -197.5 q0 -120 -85 -200.5t-207 -80.5q-123 0 -207 79t-84 199zM199 268q0 -60 38 -98.5t94 -38.5t93.5 38.5t37.5 98.5q0 59 -38 97.5t-94 38.5q-55 0 -93 -38.5t-38 -97.5z" glyph-name="uni04E7" horiz-adv-x="661" unicode="ӧ"/><glyph d="M43 391q0 168 120 286t289 118t286.5 -116t117.5 -284q0 -170 -119.5 -288.5t-288.5 -118.5t-287 117t-118 286zM214 463h472q-19 77 -85.5 128.5t-150.5 51.5t-151 -52t-85 -128zM687 323h-474q20 -79 86 -131t151 -52t152 52.5t85 130.5z" glyph-name="uni04E8" horiz-adv-x="899" unicode="Ө"/><glyph d="M39 266q0 119 85.5 199.5t207.5 80.5t206 -79.5t84 -197.5q0 -120 -85 -200.5t-207 -80.5q-123 0 -207 79t-84 199zM195 317h271q-13 44 -50.5 71t-85.5 27q-47 0 -84.5 -27t-50.5 -71zM465 214h-269q13 -43 50.5 -68.5t84.5 -25.5t84 26t50 68z" glyph-name="uni04E9" horiz-adv-x="661" unicode="ө"/><glyph d="M327 846q-36 0 -61 25.5t-25 61.5t24.5 61.5t61.5 25.5q36 0 61.5 -26t25.5 -61q0 -36 -25.5 -61.5t-61.5 -25.5zM575 846q-36 0 -61 25.5t-25 61.5t24.5 61.5t61.5 25.5q36 0 61.5 -25.5t25.5 -61.5t-25.5 -61.5t-61.5 -25.5zM43 391q0 -169 118 -286t287 -117 t288.5 118.5t119.5 288.5q0 168 -117.5 284t-286.5 116t-289 -118t-120 -286zM686 463h-472q18 76 85 128t151 52t150.5 -51.5t85.5 -128.5zM213 323h474q-18 -78 -85 -130.5t-152 -52.5t-151 52t-86 131z" glyph-name="uni04EA" horiz-adv-x="899" unicode="Ӫ"/><glyph d="M212 617q-36 0 -61 25t-25 62q0 35 25 61t61 26t61.5 -25.5t25.5 -61.5q0 -37 -25.5 -62t-61.5 -25zM450 617q-36 0 -61 25t-25 62q0 35 25 61t61 26t61.5 -25.5t25.5 -61.5q0 -37 -25.5 -62t-61.5 -25zM39 266q0 -120 84 -199t207 -79q122 0 207 80.5t85 200.5 q0 118 -84 197.5t-206 79.5t-207.5 -80.5t-85.5 -199.5zM466 317h-271q13 44 50.5 71t84.5 27q48 0 85.5 -27t50.5 -71zM196 214h269q-13 -42 -50 -68t-84 -26t-84.5 25.5t-50.5 68.5z" glyph-name="uni04EB" horiz-adv-x="661" unicode="ӫ"/><glyph d="M272 846q-36 0 -61 25.5t-25 61.5t25 61.5t61 25.5t61.5 -25.5t25.5 -61.5t-25.5 -61.5t-61.5 -25.5zM520 846q-35 0 -60.5 25.5t-25.5 61.5t25 61.5t61 25.5t61.5 -25.5t25.5 -61.5t-25.5 -61.5t-61.5 -25.5zM388 795q174 0 287.5 -115t113.5 -286q0 -172 -113.5 -288.5 t-289.5 -116.5q-120 0 -220.5 62t-140.5 170l147 67q26 -65 83.5 -104.5t131.5 -39.5q85 0 147 50t82 129h-312v145h309q-21 74 -82.5 122.5t-143.5 48.5q-74 0 -131 -37.5t-82 -102.5l-145 67q37 105 138 167t221 62z" glyph-name="uni04EC" horiz-adv-x="838" unicode="Ӭ"/><glyph d="M168 617q-36 0 -61 25t-25 62q0 35 24.5 61t61.5 26q36 0 61.5 -25.5t25.5 -61.5q0 -37 -25.5 -62t-61.5 -25zM406 617q-36 0 -61 25t-25 62q0 35 25 61t61 26t61.5 -25.5t25.5 -61.5q0 -37 -25.5 -62t-61.5 -25zM290 546q121 0 202 -80.5t81 -199.5q0 -117 -81.5 -197.5 t-203.5 -80.5q-91 0 -159.5 41.5t-98.5 123.5l134 55q36 -79 125 -79q45 0 77.5 24t43.5 63h-176v107h173q-13 39 -45 61t-73 22q-87 0 -122 -78l-134 55q26 78 97 120.5t160 42.5z" glyph-name="uni04ED" horiz-adv-x="613" unicode="ӭ"/><glyph d="M193 984h364v-116h-364v116zM181 783l198 -401l187 401h175l-306 -614q-47 -95 -104.5 -137t-135.5 -42q-102 0 -177 55l89 132q41 -32 83 -32q62 0 99 73l-286 565h178z" glyph-name="uni04EE" horiz-adv-x="729" unicode="Ӯ"/><glyph d="M125 745h364v-117h-364v117zM13 534h172l133 -305l119 305h161l-324 -797h-167l131 320z" glyph-name="uni04EF" horiz-adv-x="621" unicode="ӯ"/><glyph d="M253 846q-36 0 -61 25.5t-25 61.5t25 61.5t61 25.5t61.5 -25.5t25.5 -61.5t-25.5 -61.5t-61.5 -25.5zM501 846q-35 0 -60.5 25.5t-25.5 61.5t25 61.5t61 25.5t61.5 -25.5t25.5 -61.5t-25.5 -61.5t-61.5 -25.5zM181 783l198 -401l187 401h175l-306 -614 q-47 -95 -104.5 -137t-135.5 -42q-102 0 -177 55l89 132q41 -32 83 -32q62 0 99 73l-286 565h178z" glyph-name="uni04F0" horiz-adv-x="729" unicode="Ӱ"/><glyph d="M187 617q-35 0 -60 25t-25 62q0 35 24.5 61t60.5 26t61.5 -25.5t25.5 -61.5q0 -37 -25.5 -62t-61.5 -25zM426 617q-36 0 -61 25t-25 62q0 35 24.5 61t61.5 26q36 0 61.5 -25.5t25.5 -61.5q0 -37 -25.5 -62t-61.5 -25zM13 534h172l133 -305l119 305h161l-324 -797h-167 l131 320z" glyph-name="uni04F1" horiz-adv-x="621" unicode="ӱ"/><glyph d="M198 852l107 188h174l-158 -188h-123zM419 852l107 188h175l-159 -188h-123zM181 783l198 -401l187 401h175l-306 -614q-47 -95 -104.5 -137t-135.5 -42q-102 0 -177 55l89 132q41 -32 83 -32q62 0 99 73l-286 565h178z" glyph-name="uni04F2" horiz-adv-x="729" unicode="Ӳ"/><glyph d="M128 623l108 187h174l-158 -187h-124zM350 623l107 187h174l-158 -187h-123zM13 534h172l133 -305l119 305h161l-324 -797h-167l131 320z" glyph-name="uni04F3" horiz-adv-x="621" unicode="ӳ"/><glyph d="M240 846q-36 0 -61 25.5t-25 61.5t25 61.5t61 25.5t61.5 -25.5t25.5 -61.5t-25.5 -61.5t-61.5 -25.5zM488 846q-35 0 -60.5 25.5t-25.5 61.5t25 61.5t61 25.5t61.5 -25.5t25.5 -61.5t-25.5 -61.5t-61.5 -25.5zM515 0v304q-114 -57 -204 -57q-121 0 -189.5 65.5 t-68.5 191.5v279h161v-231q0 -146 132 -146q105 0 169 49v328h161v-783h-161z" glyph-name="uni04F4" horiz-adv-x="768" unicode="Ӵ"/><glyph d="M170 617q-36 0 -61 25t-25 62q0 35 25 61t61 26t61.5 -25.5t25.5 -61.5q0 -37 -25.5 -62t-61.5 -25zM408 617q-36 0 -61 25t-25 62q0 35 25 61t61 26t61.5 -25.5t25.5 -61.5q0 -37 -25.5 -62t-61.5 -25zM381 0v183q-74 -36 -148 -36q-82 0 -136.5 45.5t-54.5 133.5v208 h157v-164q0 -89 76 -89q55 0 106 27v226h156v-534h-156z" glyph-name="uni04F5" horiz-adv-x="609" unicode="ӵ"/><glyph d="M413 846q-36 0 -61 25.5t-25 61.5t24.5 61.5t61.5 25.5q36 0 61.5 -26t25.5 -61q0 -36 -26 -61.5t-61 -25.5zM661 846q-36 0 -61 25.5t-25 61.5t24.5 61.5t61.5 25.5q36 0 61.5 -26t25.5 -61q0 -36 -26 -61.5t-61 -25.5zM253 487h178q73 0 127.5 -21t84.5 -56.5t44 -76 t14 -85.5q0 -47 -15 -89t-46 -78.5t-87.5 -58.5t-131.5 -22h-330v783h162v-296zM988 783h-162v-783h162v783zM253 153h168q68 0 94 29t26 67q0 36 -26.5 63.5t-95.5 27.5h-166v-187z" glyph-name="uni04F8" horiz-adv-x="1080" unicode="Ӹ"/><glyph d="M332 617q-36 0 -61 25t-25 62q0 35 24.5 61t61.5 26q36 0 61 -25.5t25 -61.5t-25 -61.5t-61 -25.5zM570 617q-36 0 -61 25t-25 62q0 35 25 61t61 26t61.5 -25.5t25.5 -61.5q0 -37 -25.5 -62t-61.5 -25zM228 374h121q104 0 165 -47.5t61 -137.5q0 -89 -58 -139t-159 -50 h-286v534h156v-160zM674 0v534h156v-534h-156zM228 123h107q82 0 82 69q0 30 -20.5 47.5t-61.5 17.5h-107v-134z" glyph-name="uni04F9" horiz-adv-x="902" unicode="ӹ"/><glyph d="M557 409v-2q72 -28 107.5 -72t35.5 -119q0 -57 -23.5 -100.5t-64 -67.5t-88.5 -36t-103 -12h-4v-102h-83v102h-242v783h242v108h83v-108q103 0 176.5 -54t73.5 -153q0 -110 -110 -167zM250 464h86v170h-86v-170zM508 550q0 76 -92 84v-168q92 10 92 84zM250 149h86v177 h-86v-177zM416 149h5q51 0 86 20.5t35 67.5q0 89 -126 89v-177z" glyph-name="uni0E3F" horiz-adv-x="748" unicode="฿"/><glyph d="M270 975h364v-117h-364v117zM208 392q0 -104 68 -177t173 -73q78 0 132.5 36.5t69.5 95.5h-238v147h407v-61q0 -117 -53.5 -203.5t-136.5 -127.5t-181 -41q-179 0 -292.5 116.5t-113.5 286.5t119.5 287t288.5 117q137 0 228.5 -67.5t122.5 -153.5l-143 -70 q-22 55 -73.5 96.5t-136.5 41.5q-100 0 -170.5 -72t-70.5 -178z" glyph-name="uni1E20" horiz-adv-x="858" unicode="Ḡ"/><glyph d="M150 745h364v-117h-364v117zM51 -114l127 73q45 -90 142 -90q61 0 97.5 31.5t36.5 93.5v81h-2q-55 -71 -154 -71q-114 0 -186 77t-72 191q0 107 70.5 188.5t181.5 81.5q101 0 162 -73h2v65h153v-536q0 -125 -80.5 -195t-207.5 -70q-198 0 -270 153zM458 272 q0 58 -37 94.5t-93 36.5q-55 0 -92.5 -36.5t-37.5 -94.5q0 -59 37 -95.5t93 -36.5q55 0 92.5 36.5t37.5 95.5z" glyph-name="uni1E21" horiz-adv-x="682" unicode="ḡ"/><glyph d="M329 855l107 187h179l-158 -187h-128zM254 783v-341l268 341h203l-299 -374l318 -409h-209l-281 372v-372h-163v783h163z" glyph-name="uni1E30" horiz-adv-x="738" unicode="Ḱ"/><glyph d="M72 815h156v-491l185 210h199l-215 -246l221 -288h-197l-189 253h-4v-253h-156v815zM306 623l107 187h179l-158 -187h-128z" glyph-name="uni1E31" horiz-adv-x="619" unicode="ḱ"/><glyph d="M228 942q0 40 28 68t67 28q40 0 68 -28t28 -68q0 -39 -28 -67t-68 -28q-39 0 -67 28t-28 67zM212 569q0 -35 29.5 -56t96.5 -40q140 -40 207 -94.5t67 -148.5q0 -107 -76 -174.5t-211 -67.5q-110 0 -190.5 49.5t-115.5 134.5l140 72q23 -51 67.5 -80t103.5 -29 q52 0 85.5 23.5t33.5 59.5q0 34 -30.5 54.5t-117.5 46.5q-137 41 -191 95q-60 58 -60 145q0 103 80 169.5t193 66.5q98 0 169.5 -44t105.5 -125l-134 -73q-40 96 -148 96q-48 0 -76 -22.5t-28 -57.5z" glyph-name="uni1E60" horiz-adv-x="652" unicode="Ṡ"/><glyph d="M176 713q0 39 28 67t66 28q40 0 68.5 -28t28.5 -67q0 -40 -28.5 -68t-68.5 -28q-38 0 -66 28t-28 68zM474 161q0 -77 -57 -125t-156 -48q-168 0 -233 123l115 68q33 -65 120 -65q29 0 47 11.5t18 27.5t-17 28.5t-68 23.5q-190 42 -190 173q0 74 60.5 121.5t144.5 47.5 q74 0 127 -29.5t79 -78.5l-113 -67q-30 51 -97 51q-24 0 -40 -11.5t-16 -27.5q0 -34 70 -49q101 -21 153.5 -62.5t52.5 -111.5z" glyph-name="uni1E61" horiz-adv-x="512" unicode="ṡ"/><glyph d="M376 1042h179l107 -187h-128zM192 783l149 -556l169 556h173l169 -560l154 560h167l-232 -783h-175l-170 568h-2l-171 -568h-174l-230 783h173z" glyph-name="Wgrave" horiz-adv-x="1191" unicode="Ẁ"/><glyph d="M405 810l107 -187h-128l-158 187h179zM708 0h-153l-109 341h-1l-110 -341h-151l-166 534h160l96 -331h1l100 331h144l100 -334l101 334h156z" glyph-name="wgrave" horiz-adv-x="893" unicode="ẁ"/><glyph d="M534 855l107 187h179l-158 -187h-128zM192 783l149 -556l169 556h173l169 -560l154 560h167l-232 -783h-175l-170 568h-2l-171 -568h-174l-230 783h173z" glyph-name="Wacute" horiz-adv-x="1191" unicode="Ẃ"/><glyph d="M381 623l107 187h179l-158 -187h-128zM708 0h-153l-109 341h-1l-110 -341h-151l-166 534h160l96 -331h1l100 331h144l100 -334l101 334h156z" glyph-name="wacute" horiz-adv-x="893" unicode="ẃ"/><glyph d="M472 846q-36 0 -61 25.5t-25 61.5t24.5 61.5t61.5 25.5q36 0 61.5 -25.5t25.5 -61.5t-25.5 -61.5t-61.5 -25.5zM720 846q-36 0 -61 25.5t-25 61.5t24.5 61.5t61.5 25.5q36 0 61.5 -25.5t25.5 -61.5t-25.5 -61.5t-61.5 -25.5zM192 783l149 -556l169 556h173l169 -560 l154 560h167l-232 -783h-175l-170 568h-2l-171 -568h-174l-230 783h173z" glyph-name="Wdieresis" horiz-adv-x="1191" unicode="Ẅ"/><glyph d="M328 617q-36 0 -61 25t-25 62q0 35 24.5 61t61.5 26q36 0 61.5 -26t25.5 -61q0 -36 -25.5 -61.5t-61.5 -25.5zM566 617q-36 0 -61 25t-25 62q0 35 25 61t61 26t61.5 -25.5t25.5 -61.5q0 -37 -25.5 -62t-61.5 -25zM708 0h-153l-109 341h-1l-110 -341h-151l-166 534h160 l96 -331h1l100 331h144l100 -334l101 334h156z" glyph-name="wdieresis" horiz-adv-x="893" unicode="ẅ"/><glyph d="M268 1028h146l121 -174h-133l-61 91l-61 -91h-133zM431 633l-391 -490v-143h601v150h-397l388 494v139h-574v-150h373z" glyph-name="uni1E90" horiz-adv-x="685" unicode="Ẑ"/><glyph d="M195 798h147l120 -174h-132l-61 91l-61 -91h-133zM51 534v-133h241l-249 -280v-121h452v133h-254l252 282v119h-442z" glyph-name="uni1E91" horiz-adv-x="541" unicode="ẑ"/><glyph d="M278 1019q36 0 63.5 -15.5t46 -30.5t31.5 -15q34 0 34 58h97q4 -76 -30.5 -119.5t-100.5 -43.5q-34 0 -62 15.5t-47 30.5t-32 15q-33 0 -34 -58h-96q-5 76 29.5 119.5t100.5 43.5zM251 631v-159h316v-152h-316v-169h355v-151h-515v783h513v-152h-353z" glyph-name="uni1EBC" horiz-adv-x="663" unicode="Ẽ"/><glyph d="M251 789q35 0 63 -15.5t46.5 -30.5t31.5 -15q34 0 34 58h97q4 -76 -30.5 -119.5t-100.5 -43.5q-34 0 -62 15.5t-47 30.5t-32 15q-33 0 -34 -58h-96q-5 76 29.5 119.5t100.5 43.5zM586 224h-388q7 -49 44.5 -77t87.5 -28q35 0 68 17.5t51 46.5l113 -74q-67 -121 -230 -121 q-124 0 -208.5 78.5t-84.5 201.5q0 115 83.5 197t199.5 82q119 0 192.5 -74t73.5 -193q0 -38 -2 -56zM202 327h230q-3 35 -32 64t-82 29q-48 0 -79.5 -30.5t-36.5 -62.5z" glyph-name="uni1EBD" horiz-adv-x="627" unicode="ẽ"/><glyph d="M168 1042h179l107 -187h-128zM201 783l181 -313l183 313h185l-287 -466v-317h-162v310l-287 473h187z" glyph-name="Ygrave" horiz-adv-x="763" unicode="Ỳ"/><glyph d="M272 810l107 -187h-128l-158 187h179zM13 534h172l133 -305l119 305h161l-324 -797h-167l131 320z" glyph-name="ygrave" horiz-adv-x="621" unicode="ỳ"/><glyph d="M64 400h489v-150h-489v150z" glyph-name="endash" horiz-adv-x="618" unicode="–"/><glyph d="M64 400h873v-150h-873v150z" glyph-name="emdash" horiz-adv-x="1001" unicode="—"/><glyph d="M45 551v5q0 67 38.5 129t102.5 105l59 -56q-73 -48 -106 -122q17 6 35 6q38 0 63.5 -26.5t25.5 -67.5q0 -43 -30.5 -73.5t-73.5 -30.5q-50 0 -82 36t-32 95z" glyph-name="quoteleft" horiz-adv-x="313" unicode="‘"/><glyph d="M273 657v-5q0 -66 -38.5 -128t-102.5 -106l-59 56q74 51 106 123q-15 -7 -35 -7q-38 0 -63.5 26.5t-25.5 67.5q0 44 30.5 74.5t73.5 30.5q50 0 82 -36t32 -96z" glyph-name="quoteright" horiz-adv-x="314" unicode="’"/><glyph d="M269 72v-5q0 -67 -38 -129t-103 -106l-59 57q73 48 106 122q-19 -7 -35 -7q-38 0 -63.5 26.5t-25.5 68.5q0 43 30.5 73.5t73.5 30.5q50 0 82 -36t32 -95z" glyph-name="quotesinglbase" horiz-adv-x="321" unicode="‚"/><glyph d="M45 551v5q0 67 38.5 129t102.5 105l59 -56q-73 -48 -106 -122q17 6 35 6q38 0 63.5 -26.5t25.5 -67.5q0 -43 -30.5 -73.5t-73.5 -30.5q-50 0 -82 36t-32 95zM320 551v5q0 67 38 129t102 105l60 -56q-74 -49 -107 -122q18 6 36 6q38 0 63 -26t25 -68q0 -44 -30.5 -74 t-73.5 -30q-49 0 -81 36t-32 95z" glyph-name="quotedblleft" horiz-adv-x="586" unicode="“"/><glyph d="M273 657v-5q0 -66 -38.5 -128t-102.5 -106l-59 56q74 51 106 123q-15 -7 -35 -7q-38 0 -63.5 26.5t-25.5 67.5q0 44 30.5 74.5t73.5 30.5q50 0 82 -36t32 -96zM547 657v-5q0 -66 -38 -128t-102 -106l-60 56q74 50 107 123q-15 -7 -35 -7q-38 0 -63.5 26.5t-25.5 67.5 q0 44 30 74.5t74 30.5q50 0 81.5 -36t31.5 -96z" glyph-name="quotedblright" horiz-adv-x="588" unicode="”"/><glyph d="M268 72v-5q0 -67 -38 -129t-103 -106l-59 57q73 48 106 122q-19 -7 -35 -7q-38 0 -63.5 26.5t-25.5 68.5q0 43 30.5 73.5t73.5 30.5q50 0 82 -36t32 -95zM542 72v-5q0 -67 -38 -129t-102 -106l-60 57q73 48 107 122q-19 -7 -35 -7q-38 0 -63.5 26.5t-25.5 68.5 q0 43 30.5 73.5t73.5 30.5q49 0 81 -36t32 -95z" glyph-name="quotedblbase" horiz-adv-x="595" unicode="„"/><glyph d="M83 551h188v190h158v-190h189v-142h-189v-409h-158v409h-188v142z" glyph-name="dagger" horiz-adv-x="701" unicode="†"/><glyph d="M59 143h212v249h-212v142h212v206h158v-206h213v-142h-213v-249h213v-143h-213v-207h-158v207h-212v143z" glyph-name="daggerdbl" horiz-adv-x="701" unicode="‡"/><glyph d="M241 190q-72 0 -123 51.5t-51 123.5t51 124.5t123 52.5t123 -52.5t51 -124.5t-51 -123.5t-123 -51.5z" glyph-name="bullet" horiz-adv-x="482" unicode="•"/><glyph d="M158 -12q-44 0 -76.5 32t-32.5 76q0 45 32 77t77 32t76.5 -32t31.5 -77q0 -44 -31.5 -76t-76.5 -32zM501 -12q-45 0 -76.5 32t-31.5 76q0 45 31.5 77t76.5 32t76.5 -32t31.5 -77t-31.5 -76.5t-76.5 -31.5zM844 -12q-44 0 -76 32t-32 76q0 45 32 77t76 32q46 0 77.5 -32 t31.5 -77q0 -44 -31.5 -76t-77.5 -32z" glyph-name="ellipsis" horiz-adv-x="1002" unicode="…"/><glyph d="M212 437q-73 0 -125 52t-52 125q0 74 52 126t125 52t125 -52t52 -126q0 -73 -52 -125t-125 -52zM257 0h-136l510 783h135zM212 676q-26 0 -44 -18t-18 -44q0 -25 18.5 -43t43.5 -18t43.5 18t18.5 43q0 26 -18 44t-44 18zM677 -4q-73 0 -125 51.5t-52 124.5q0 74 52 126 t125 52t125 -52t52 -126q0 -73 -52 -124.5t-125 -51.5zM1061 -4q-74 0 -126 51.5t-52 124.5q0 74 52 126t126 52q73 0 124.5 -52t51.5 -126q0 -73 -51.5 -124.5t-124.5 -51.5zM677 234q-26 0 -44 -18t-18 -44q0 -25 18.5 -43t43.5 -18t43.5 18t18.5 43q0 26 -18 44t-44 18z M1061 234q-26 0 -44 -18t-18 -44q0 -25 18 -43t44 -18q25 0 43 18t18 43q0 26 -18 44t-43 18z" glyph-name="perthousand" horiz-adv-x="1271" unicode="‰"/><glyph d="M347 154l-86 -83l-233 230l234 231l84 -83l-149 -147z" glyph-name="guilsinglleft" horiz-adv-x="398" unicode="‹"/><glyph d="M137 71l-85 83l149 147l-149 148l84 83l234 -231z" glyph-name="guilsinglright" horiz-adv-x="398" unicode="›"/><glyph d="M314 466h1q58 51 58 100q0 38 -30 64.5t-82 26.5q-75 0 -118 -65l-120 79q38 60 101.5 92t140.5 32q110 0 180.5 -58t70.5 -154q0 -65 -30 -111t-92 -96q-36 -29 -55 -56t-19 -63v-12h-140l-11 312h147zM153 85q0 40 28.5 69t67.5 29q41 0 69.5 -28.5t28.5 -69.5 q0 -40 -28.5 -68t-69.5 -28q-39 0 -67.5 28t-28.5 68z" glyph-name="uni203D" horiz-adv-x="563" unicode="‽"/><glyph d="M312 469l71 100l-117 38l29 88l117 -38v126h95v-126l118 38l29 -88l-117 -38l72 -100l-75 -55l-75 101l-73 -101zM77 38l72 99l-118 39l30 88l116 -38v126h96v-126l117 38l30 -88l-117 -39l72 -99l-75 -55l-75 100l-74 -100zM546 38l72 99l-118 39l29 88l116 -38v126h97 v-126l117 38l30 -88l-118 -39l72 -99l-74 -55l-75 100l-74 -100z" glyph-name="uni2042" horiz-adv-x="920" unicode="⁂"/><glyph d="M139 0h-137l511 783h135z" glyph-name="fraction" horiz-adv-x="649" unicode="⁄"/><glyph d="M95 469l72 100l-118 38l29 88l117 -38v126h96v-126l117 38l30 -88l-118 -38l72 -100l-74 -55l-75 101l-74 -101zM95 38l72 99l-118 39l29 88l117 -38v126h96v-126l117 38l30 -88l-118 -39l72 -99l-74 -55l-75 100l-74 -100z" glyph-name="uni2051" horiz-adv-x="487" unicode="⁑"/><glyph d="M539 186l110 -76q-22 -60 -71.5 -90.5t-115.5 -30.5q-50 0 -112 25.5t-96 25.5q-52 0 -130 -46l-76 135q118 70 143 130h-134v89h132l-10 22q-3 5 -7 15l-6 15l-9 17h-100v89h59q-9 27 -9 54q0 96 76 165.5t187 69.5q99 0 164 -46t88 -125l-146 -68q-28 87 -104 87 q-43 0 -70.5 -23t-27.5 -63q0 -23 10 -51h222v-89h-179q17 -41 22 -69h157v-89h-162q-17 -49 -66 -81q14 3 25 3q37 0 84 -19t77 -19q50 0 75 43z" glyph-name="lira" horiz-adv-x="678" unicode="₤"/><glyph d="M817 0h-166l-359 540v-540h-160v248h-73v103h73v59h-73v103h73v270h184l341 -511v511h160v-270h72v-103h-72v-59h72v-103h-72v-248z" glyph-name="uni20A6" horiz-adv-x="948" unicode="₦"/><glyph d="M1080 356h121v-103h-152l-74 -253h-176l-170 568h-2l-171 -568h-174l-74 253h-150v103h119l-17 60h-102v103h72l-78 264h173l150 -556l168 556h173l169 -560l155 560h166l-78 -264h73v-103h-104z" glyph-name="uni20A9" horiz-adv-x="1258" unicode="₩"/><glyph d="M550 210v182q0 68 -29 97.5t-118 29.5h-154v-519h-157v658h336q85 0 141 -16.5t85.5 -52t41 -80t11.5 -110.5v-189h-157zM321 448h157v-309h154q83 0 115 28t32 99v392h157v-399q0 -66 -11.5 -110.5t-41 -80t-85.5 -52t-141 -16.5h-336v448z" glyph-name="afii57636" horiz-adv-x="1028" unicode="₪"/><glyph d="M673 725v-106h-61v-619h-152v68h-2q-52 -78 -166 -78q-112 0 -183 83t-71 195q0 107 73 191.5t184 84.5q100 0 159 -71h2v146h-149v106h149v90h156v-90h61zM460 268q0 59 -38 97t-93 38q-56 0 -94.5 -38t-38.5 -97q0 -60 38 -98.5t94 -38.5t94 38.5t38 98.5zM76 -69h557 v-135h-557v135z" glyph-name="dong" horiz-adv-x="721" unicode="₫"/><glyph d="M40 263v100h78q-1 9 -1 28q0 22 1 32h-78v101h99q41 122 147.5 196.5t236.5 74.5q120 0 218.5 -62t136.5 -169l-148 -68q-25 65 -79.5 103t-127.5 38q-64 0 -118 -30.5t-86 -82.5h273l-32 -101h-275q-2 -20 -2 -30t2 -30h258l-31 -100h-194q31 -53 84.5 -84.5 t120.5 -31.5q71 0 127 39.5t82 104.5l149 -69q-39 -108 -140 -170.5t-220 -62.5q-133 0 -239.5 74.5t-145.5 199.5h-96z" glyph-name="Euro" horiz-adv-x="919" unicode="€"/><glyph d="M445 378v-67l189 64v-106l-189 -63v-206h-160v152l-189 -64v106l189 63v67l-189 -63v106l189 63v196h-236v157h632v-157h-236v-142l189 63v-106z" glyph-name="uni20AE" horiz-adv-x="719" unicode="₮"/><glyph d="M778 483h-79q-15 -101 -91.5 -154t-190.5 -53h-123v-276h-162v483h-84v90h84v210h290q112 0 188 -54.5t90 -155.5h78v-90zM294 571h238q-23 60 -117 60h-121v-60zM294 425h122q89 0 115 60h-237v-60z" glyph-name="uni20B1" horiz-adv-x="811" unicode="₱"/><glyph d="M691 533v-103h-640v103h431q6 13 6 32q0 37 -32.5 60.5t-73.5 23.5q-95 0 -149 -73l-122 92q81 126 273 126q116 0 190.5 -68.5t74.5 -164.5q0 -19 -1 -28h43zM51 367h640v-103h-430q-9 -18 -9 -42q0 -40 35 -64t87 -24q59 0 107 25t76 67l124 -89q-48 -76 -122 -112.5 t-191 -36.5q-133 0 -207 67t-74 171q0 14 2 38h-38v103z" glyph-name="uni20B4" horiz-adv-x="745" unicode="₴"/><glyph d="M678 783v-155h-631v155h631zM47 566h631v-155h-235v-411h-161v411h-235v155z" glyph-name="uni20B8" horiz-adv-x="725" unicode="₸"/><glyph d="M607 643h-142q26 -31 35 -66h107v-92h-106q-20 -124 -142 -174l161 -311h-178l-140 281h-146v149h179q76 0 99 55h-278v92h280q-24 54 -102 54h-178v152h551v-140z" glyph-name="uni20B9" horiz-adv-x="648" unicode="₹"/><glyph d="M554 352l154 -17q-4 -162 -106 -248.5t-301 -86.5h-132v265l-110 -50v110l110 50v69l-110 -50v110l110 50v229h162v-157l233 105v-110l-233 -105v-69l233 105v-110l-233 -105v-188q63 1 106.5 16t67.5 43t35 62t14 82z" glyph-name="uni20BA" horiz-adv-x="743" unicode="₺"/><glyph d="M313 119v-119h-161v119h-93v98h93v59h-93v146h93v361h281q123 0 201.5 -65.5t78.5 -185.5q0 -125 -79 -190.5t-207 -65.5h-114v-59h177v-98h-177zM313 427h116q54 0 92 25t38 76q0 53 -37.5 77.5t-93.5 24.5h-115v-203z" glyph-name="uni20BD" horiz-adv-x="748" unicode="₽"/><glyph d="M267 302v-70q0 -57 33.5 -84t88.5 -27q26 0 48 6v-124q-37 -10 -67 -10q-103 0 -162 52t-70 139l-43 -39l-84 92l124 111v264q0 81 44 131q45 52 126 52q79 0 124 -48q43 -46 43 -120q0 -137 -177 -299zM275 653q-8 -15 -8 -35v-148q75 82 75 157q0 44 -36 44 q-21 0 -31 -18z" glyph-name="afii61289" horiz-adv-x="501" unicode="ℓ"/><glyph d="M280 783l337 -530v530h160v-783h-184l-341 539v-539h-160v783h188zM1283 491q0 -80 -56.5 -136.5t-141.5 -56.5q-84 0 -141 56.5t-57 136.5t57 136t141 56q83 0 140.5 -56.5t57.5 -135.5zM1155 491q0 30 -21.5 50.5t-48.5 20.5q-28 0 -49 -20.5t-21 -50.5t20.5 -51 t49.5 -21q30 0 50 21t20 51zM894 96v121h383v-121h-383z" glyph-name="afii61352" horiz-adv-x="1339" unicode="№"/><glyph d="M37 783h365v-98h-128v-353h-108v353h-129v98zM582 630h-4v-298h-104v451h151l104 -284l99 284h157v-451h-106v302h-4l-109 -302h-74z" glyph-name="trademark" horiz-adv-x="1064" unicode="™"/><glyph d="M438 -12q-179 0 -283.5 116.5t-104.5 293.5q0 168 108.5 282.5t279.5 114.5q170 0 278.5 -113.5t108.5 -281.5v-9h-604v-254q39 -40 99 -64t118 -24q102 0 175.5 43.5t113.5 123.5l52 -29q-41 -91 -131 -145t-210 -54zM656 453v197q-38 40 -98.5 62.5t-120.5 22.5 q-129 0 -216 -84v-198h435z" glyph-name="estimated" horiz-adv-x="862" unicode="℮"/><glyph d="M392 433v-104h-351v98l175 142q30 24 42 39.5t12 32.5q0 19 -14.5 32.5t-40.5 13.5q-44 0 -62 -51l-106 44q15 53 60.5 83.5t112.5 30.5q87 0 135 -56q35 -40 35 -92q0 -46 -23.5 -76.5t-81.5 -76.5l-75 -60h182zM367 0l509 783h-135l-511 -783h137zM985 231 q33 -12 51.5 -38.5t18.5 -61.5q0 -63 -49.5 -103t-130.5 -40q-136 0 -173 105l97 47q22 -49 74 -49q28 0 45 12.5t17 32.5q0 45 -62 45h-50v91h46q59 0 59 44t-59 44q-47 0 -68 -49l-97 47q18 48 62 76t109 28q76 0 124 -37t48 -99q0 -29 -17 -55.5t-45 -39.5z" glyph-name="onethird" horiz-adv-x="1109" unicode="⅓"/><glyph d="M82 589l-52 95l172 99h116v-454h-132v319zM663 783h135l-508 -783h-137zM908 231q33 -12 51.5 -38.5t18.5 -61.5q0 -63 -49.5 -103t-130.5 -40q-136 0 -173 105l97 47q22 -49 74 -49q28 0 45 12.5t17 32.5q0 45 -62 45h-50v91h46q59 0 59 44t-59 44q-47 0 -68 -49l-97 47 q18 48 62 76t109 28q76 0 124 -37t48 -99q0 -29 -17 -55.5t-45 -39.5z" glyph-name="twothirds" horiz-adv-x="1032" unicode="⅔"/><glyph d="M82 589l-52 95l172 99h117v-453h-132v318zM667 783h135l-509 -783h-136zM594 131q0 70 74 101q-62 32 -62 92q0 67 56.5 102.5t122.5 35.5q65 0 121 -35t56 -102q0 -61 -62 -93q31 -12 52.5 -37t21.5 -63q0 -49 -30.5 -83t-72 -47.5t-87.5 -13.5t-87.5 13.5t-72 47 t-30.5 82.5zM723 318q0 -19 18 -32t43 -13t43 13t18 32t-18 32t-43 13t-43 -13t-18 -32zM713 138q0 -21 21 -35.5t50 -14.5t50 14.5t21 35.5q0 20 -20.5 34t-49.5 14q-30 0 -51 -14t-21 -34z" glyph-name="oneeighth" horiz-adv-x="1011" unicode="⅛"/><glyph d="M325 563q33 -12 51.5 -38.5t18.5 -61.5q0 -63 -49.5 -103t-130.5 -40q-136 0 -173 105l97 47q22 -49 74 -49q28 0 45 12.5t17 32.5q0 45 -62 45h-50v91h46q59 0 59 44t-59 44q-47 0 -68 -49l-97 47q18 48 62 76t109 28q76 0 124 -37t48 -99q0 -29 -17 -55.5t-45 -39.5z M703 783h136l-510 -783h-136zM632 131q0 71 73 101q-62 32 -62 92q0 67 56.5 102.5t122.5 35.5q65 0 121.5 -35t56.5 -102q0 -60 -63 -93q31 -12 52.5 -37t21.5 -63q0 -49 -30.5 -83t-72 -47.5t-87.5 -13.5t-87 13.5t-71.5 47t-30.5 82.5zM760 318q0 -19 18 -32t43 -13 t43 13t18 32t-18 32t-43 13t-43 -13t-18 -32zM750 138q0 -21 21 -35.5t50 -14.5q30 0 50.5 14.5t20.5 35.5q0 20 -20.5 34t-49.5 14q-30 0 -51 -14t-21 -34z" glyph-name="threeeighths" horiz-adv-x="1048" unicode="⅜"/><glyph d="M171 680l-10 -77q36 30 82 30q64 0 106 -38.5t42 -109.5q0 -75 -51.5 -120t-129.5 -45q-132 0 -171 98l95 53q22 -47 73 -47q30 0 47.5 17t17.5 43q0 25 -16.5 41t-47.5 16q-33 0 -62 -29l-95 38l33 233h287v-103h-200zM698 783h135l-509 -783h-137zM625 131q0 70 73 101 q-62 32 -62 92q0 67 57 102.5t122 35.5t121.5 -35t56.5 -102q0 -61 -62 -93q31 -12 52 -37.5t21 -62.5q0 -49 -30.5 -83t-72 -47.5t-87.5 -13.5t-87 13.5t-71.5 47t-30.5 82.5zM753 318q0 -19 18 -32t43 -13t43 13t18 32t-18 32t-43 13t-43 -13t-18 -32zM744 138 q0 -21 20.5 -35.5t49.5 -14.5q30 0 50.5 14.5t20.5 35.5q0 20 -20.5 34t-49.5 14t-50 -14t-21 -34z" glyph-name="fiveeighths" horiz-adv-x="1042" unicode="⅝"/><glyph d="M40 678v105h356v-105l-191 -348h-138l193 348h-220zM609 783h136l-509 -783h-136zM538 131q0 71 73 101q-62 31 -62 92q0 67 56.5 102.5t122.5 35.5q65 0 121.5 -35t56.5 -102q0 -60 -63 -93q74 -29 74 -100q0 -49 -30.5 -83t-72 -47.5t-87.5 -13.5t-87 13.5t-71.5 47 t-30.5 82.5zM666 318q0 -19 18 -32t43 -13q26 0 44 13t18 32t-18 32t-44 13q-25 0 -43 -13t-18 -32zM657 138q0 -21 20.5 -35.5t49.5 -14.5q30 0 50.5 14.5t20.5 35.5q0 20 -20.5 34t-49.5 14q-30 0 -50.5 -14t-20.5 -34z" glyph-name="seveneighths" horiz-adv-x="954" unicode="⅞"/><glyph d="M312 693l94 -91q-94 -103 -153 -163h376v-150h-376q31 -31 58 -60t55.5 -60.5t40.5 -43.5l-95 -89l-293 317v22z" glyph-name="arrowleft" horiz-adv-x="664" unicode="←"/><glyph d="M660 377l-91 -95q-127 119 -162 154v-376h-151v376q-30 -31 -163 -155l-90 96l317 292h23z" glyph-name="arrowup" horiz-adv-x="664" unicode="↑"/><glyph d="M352 36l-96 89q10 10 40 43t57 61.5t58 59.5h-376v150h376q-28 28 -154 163l95 91l293 -318v-22z" glyph-name="arrowright" horiz-adv-x="664" unicode="→"/><glyph d="M3 353l91 94q101 -92 162 -153v375h151v-375q41 41 99 95t64 59l90 -95l-317 -293h-22z" glyph-name="arrowdown" horiz-adv-x="664" unicode="↓"/><glyph d="M561 599l2 -131q-142 -7 -223 -7l266 -265l-106 -107l-266 266q0 -11 -7 -225l-131 5l17 430l16 17z" glyph-name="uni2196" horiz-adv-x="664" unicode="↖"/><glyph d="M567 135l-131 -5q-6 193 -6 225l-266 -266l-106 107l265 265q-81 0 -223 7l3 131l431 -17l16 -17z" glyph-name="uni2197" horiz-adv-x="664" unicode="↗"/><glyph d="M102 89l-2 131q142 7 223 7l-266 266l106 106l266 -266q0 11 7 225l131 -4l-17 -431l-16 -16z" glyph-name="uni2198" horiz-adv-x="664" unicode="↘"/><glyph d="M97 554l131 4q0 -13 3.5 -90t2.5 -135l266 266l106 -106l-266 -266q82 0 224 -7l-3 -131l-432 18l-15 16z" glyph-name="uni2199" horiz-adv-x="664" unicode="↙"/><glyph d="M263 286h467q84 0 138.5 49t54.5 125q0 79 -53 127t-142 48h-196v148h205q154 0 250.5 -92t96.5 -231q0 -140 -96.5 -232.5t-250.5 -92.5h-474q42 -41 96 -100t58 -63l-96 -90l-292 317v22l292 318l95 -91q-92 -101 -153 -162z" glyph-name="uni21A9" horiz-adv-x="1128" unicode="↩"/><glyph d="M643 0v296q0 75 -48 114.5t-133 39.5h-199q70 -71 154 -163l-95 -90l-293 317v23l293 317l95 -90q-12 -13 -40 -44t-55 -60t-58 -59h205q157 0 246 -77.5t89 -214.5v-309h-161z" glyph-name="uni21B0" horiz-adv-x="860" unicode="↰"/><glyph d="M56 0v309q0 137 89 214.5t246 77.5h205q-31 30 -57.5 58.5t-56.5 61t-40 43.5l96 90l293 -317v-23l-293 -317l-95 90q94 103 154 163h-200q-84 0 -132 -39.5t-48 -114.5v-296h-161z" glyph-name="uni21B1" horiz-adv-x="860" unicode="↱"/><glyph d="M804 783v-308q0 -138 -89 -215t-246 -77h-205q41 -41 93 -97.5t60 -65.5l-95 -90l-293 317v22l293 317l95 -90q-119 -128 -154 -163h199q85 0 133 39.5t48 114.5v296h161z" glyph-name="uni21B2" horiz-adv-x="859" unicode="↲"/><glyph d="M216 783v-296q0 -75 48 -114.5t133 -39.5h199q-51 51 -153 163l95 90l292 -317v-22l-292 -317l-96 90q4 4 58 63t96 100h-205q-158 0 -247 77t-89 215v308h161z" glyph-name="uni21B3" horiz-adv-x="859" unicode="↳"/><glyph d="M41 784h309q137 0 214.5 -89t77.5 -247v-205q30 31 59 58t60.5 55.5t43.5 39.5l90 -95l-317 -292h-22l-318 292l91 95q128 -119 162 -153v198q0 86 -39 134t-114 48h-297v161z" glyph-name="uni21B4" horiz-adv-x="924" unicode="↴"/><glyph d="M317 -10q-119 0 -197.5 70.5t-78.5 189.5q0 109 78.5 178t189.5 69q84 0 152 -41q-11 84 -58.5 138.5t-126.5 54.5q-32 0 -73.5 -12t-72.5 -32l-60 131q45 28 105 43t110 15q89 0 157.5 -36t109 -97.5t60.5 -137t20 -160.5q0 -77 -18 -142.5t-55 -118t-99 -82.5t-143 -30 zM342 360q-59 0 -98 -28.5t-39 -83.5q0 -47 35 -79t84 -32q70 0 106.5 49t37.5 123q-23 22 -59 36.5t-67 14.5z" glyph-name="partialdiff" unicode="∂"/><glyph d="M331 783h194l300 -783h-794zM602 150l-175 471l-175 -471h350z" glyph-name="uni2206" horiz-adv-x="856" unicode="∆"/><glyph d="M322 0h-160v635h-124v148h725v-148h-125v-635h-160v635h-156v-635z" glyph-name="product" horiz-adv-x="800" unicode="∏"/><glyph d="M63 783h555v-148h-342l250 -235l-258 -252h350v-148h-567v146l259 255l-247 236v146z" glyph-name="summation" horiz-adv-x="673" unicode="∑"/><glyph d="M67 293v145h498v-145h-498z" glyph-name="minus" horiz-adv-x="632" unicode="−"/><glyph d="M654 958h128l-296 -958h-146l-185 497h-138v125h248l150 -438z" glyph-name="radical" horiz-adv-x="788" unicode="√"/><glyph d="M738 104q-44 0 -90 22.5t-73 45.5t-70 64q-76 -71 -111 -93q-61 -39 -132 -39q-94 0 -153 63.5t-59 156.5q0 95 63.5 158.5t159.5 63.5q45 0 91.5 -22.5t74.5 -46t68 -63.5q76 71 111 93q61 39 132 39q95 0 153.5 -63.5t58.5 -158.5q0 -94 -64.5 -157t-159.5 -63z M421 323l-26 27q-71 69 -117 69q-39 0 -66.5 -27.5t-27.5 -65.5q0 -39 27 -67t65 -28q26 0 57 18t44 30.5t44 43.5zM738 419q-26 0 -56 -17.5t-46.5 -33t-44.5 -43.5q3 -3 23.5 -23t29 -27t26 -20.5t33.5 -18.5t32 -5q38 0 65.5 28t27.5 66t-26.5 66t-63.5 28z" glyph-name="infinity" horiz-adv-x="1012" unicode="∞"/><glyph d="M435 795v-145q-35 -1 -55.5 -4.5t-39.5 -14.5t-27 -33.5t-8 -59.5v-559q0 -133 -59.5 -188.5t-182.5 -55.5h-46v144q70 2 99.5 23t29.5 90v558q0 133 59.5 188t183.5 57h46z" glyph-name="integral" horiz-adv-x="452" unicode="∫"/><glyph d="M176 417q-44 0 -76.5 32t-32.5 76q0 45 32 77t77 32t76.5 -32t31.5 -77q0 -44 -31.5 -76t-76.5 -32zM176 76q-44 0 -76.5 32t-32.5 75q0 45 32 77t77 32t76.5 -32t31.5 -77q0 -44 -31.5 -75.5t-76.5 -31.5z" glyph-name="uni2236" horiz-adv-x="352" unicode="∶"/><glyph d="M509 574l84 -78q-62 -107 -160 -107q-36 0 -76 20.5t-75 41t-59 20.5q-38 0 -77 -51l-83 78q62 107 160 107q40 0 81.5 -20.5t75 -41t53.5 -20.5q39 0 76 51zM433 126q-36 0 -76 20.5t-75 41t-59 20.5q-38 0 -77 -51l-83 78q62 107 160 107q40 0 81.5 -20t75 -40.5 t53.5 -20.5q39 0 76 51l84 -79q-62 -107 -160 -107z" glyph-name="approxequal" horiz-adv-x="656" unicode="≈"/><glyph d="M270 156l-85 -164l-99 53l59 111h-82v145h158l69 129h-227v144h301l82 154l99 -50l-55 -104h80v-144h-155l-68 -129h223v-145h-300z" glyph-name="notequal" horiz-adv-x="633" unicode="≠"/><glyph d="M244 447l339 -109v-148l-521 190v135l521 188v-146l-339 -107v-3zM585 139h-523v-139h523v139z" glyph-name="lessequal" horiz-adv-x="659" unicode="≤"/><glyph d="M76 703l522 -188v-135l-522 -190v147l339 109v2l-339 108v147zM598 139h-524v-139h524v139z" glyph-name="greaterequal" horiz-adv-x="660" unicode="≥"/><glyph d="M546 69q-50 0 -87 37q-36 36 -36 86v63h-148v-63q0 -50 -36 -86q-35 -37 -87 -37q-51 0 -86 37q-36 36 -36 86t36 86t86 36h62v148h-61q-51 0 -86 37q-37 35 -37 86t37 86q36 36 86 36t86 -36t36 -86v-63h148v63q0 50 36 86q38 36 87 36q50 0 86 -36t36 -86t-36 -86 q-35 -37 -86 -37h-62v-148h62q50 0 86 -36t36 -86t-36 -86q-35 -37 -86 -37zM214 522v63q0 26 -18 44q-17 18 -43 18q-29 0 -45 -18q-18 -17 -18 -44q0 -26 18 -44q21 -19 45 -19h61zM546 647q-28 0 -44 -18q-18 -17 -18 -44v-63h62q25 0 44 19q18 18 18 44t-18 44t-44 18z M275 462v-148h148v148h-148zM214 255h-62q-27 0 -44 -19q-18 -16 -18 -44q0 -25 18 -45q20 -18 44 -18t44 18q18 20 18 45v63zM484 255v-63q0 -25 18 -45q18 -18 44 -18q24 0 44 18q18 20 18 45q0 28 -18 44q-17 19 -44 19h-62z" glyph-name="uni2318" horiz-adv-x="698" unicode="⌘"/><glyph d="M810 711v-711h-709v711h709z" glyph-name="filledbox" horiz-adv-x="908" unicode="■"/><glyph d="M101 711h709v-711h-709v711zM209 605v-500h490v500h-490z" glyph-name="H22073" horiz-adv-x="908" unicode="□"/><glyph d="M421 730l417 -730h-838z" glyph-name="triagup" horiz-adv-x="838" unicode="▲"/><glyph d="M835 0h-832l416 726zM647 106l-228 402l-230 -402h458z" glyph-name="uni25B3" horiz-adv-x="838" unicode="△"/><glyph d="M729 393l-280 -393h-166l-281 393l281 390h166zM200 393l166 -232l166 232l-166 231z" glyph-name="lozenge" horiz-adv-x="737" unicode="◊"/><glyph d="M407 -14q-154 0 -262.5 108t-108.5 262t108.5 263t262.5 109t262 -108.5t108 -263.5q0 -154 -108 -262t-262 -108zM407 621q-109 0 -185.5 -77.5t-76.5 -187.5q0 -109 76.5 -186.5t185.5 -77.5q107 0 183 77.5t76 186.5q0 110 -76 187.5t-183 77.5z" glyph-name="circle" horiz-adv-x="813" unicode="○"/><glyph d="M36 356q0 155 108 263.5t262 108.5t262.5 -109t108.5 -263t-108.5 -262t-262.5 -108t-262 108t-108 262z" glyph-name="H18533" horiz-adv-x="813" unicode="●"/><glyph d="M419 156l-245 -175l94 285l-244 177h302l93 287l93 -287h302l-244 -177l93 -287z" glyph-name="uni2605" horiz-adv-x="838" unicode="★"/><glyph d="M714 711l130 226l99 -59l-133 -232v-646h-709v711h613zM475 293l180 314h-448v-504h275l-270 326l89 77zM496 103h204v354z" glyph-name="uni2611" horiz-adv-x="956" unicode="☑"/><glyph d="M101 0v711h709v-711h-709zM700 607h-493v-504h493v504zM224 509l77 77l154 -153l152 153l77 -77l-153 -154l153 -152l-77 -78l-152 152l-155 -155l-76 77l154 156z" glyph-name="uni2612" horiz-adv-x="908" unicode="☒"/><glyph d="M407 -14q-154 0 -262.5 108t-108.5 262t108.5 263t262.5 109t262 -108.5t108 -263.5q0 -154 -108 -262t-262 -108zM407 638q-116 0 -198 -83t-82 -199t82 -198.5t198 -82.5q114 0 195 82.5t81 198.5t-80.5 199t-195.5 83zM382 454q0 -28 -19 -47t-47 -19t-47 19t-19 47 t19 47.5t47 19.5t47 -19.5t19 -47.5zM563 454q0 -28 -19 -47t-47 -19t-47 19t-19 47t19 47.5t47 19.5t47 -19.5t19 -47.5zM603 180h-78q-6 46 -41.5 74.5t-76.5 28.5q-43 0 -78.5 -28t-41.5 -75h-78q10 78 66.5 127t131.5 49q74 0 130 -50t66 -126z" glyph-name="uni2639" horiz-adv-x="813" unicode="☹"/><glyph d="M407 -14q-154 0 -262.5 108t-108.5 262t108.5 263t262.5 109t262 -108.5t108 -263.5q0 -154 -108 -262t-262 -108zM407 638q-116 0 -198 -83t-82 -199t82 -198.5t198 -82.5q114 0 195 82.5t81 198.5t-80.5 199t-195.5 83zM382 454q0 -28 -19 -47t-47 -19t-47 19t-19 47 t19 47.5t47 19.5t47 -19.5t19 -47.5zM563 454q0 -28 -19 -47t-47 -19t-47 19t-19 47t19 47.5t47 19.5t47 -19.5t19 -47.5zM525 332h78q-10 -77 -66.5 -127t-129.5 -50q-75 0 -131.5 49.5t-66.5 127.5h78q6 -47 41.5 -75t78.5 -28q41 0 76.5 28.5t41.5 74.5z" glyph-name="smileface" horiz-adv-x="813" unicode="☺"/><glyph d="M407 -14q-154 0 -262.5 108t-108.5 262t108.5 263t262.5 109t262 -108.5t108 -263.5q0 -154 -108 -262t-262 -108zM382 454q0 28 -19 47.5t-47 19.5t-47 -19.5t-19 -47.5t19 -47t47 -19t47 19t19 47zM563 454q0 28 -19 47.5t-47 19.5t-47 -19.5t-19 -47.5t19 -47t47 -19 t47 19t19 47zM603 332h-78q-6 -46 -41.5 -74.5t-76.5 -28.5q-43 0 -78.5 28t-41.5 75h-78q10 -78 66.5 -127.5t131.5 -49.5q73 0 129.5 50t66.5 127z" glyph-name="invsmileface" horiz-adv-x="813" unicode="☻"/><glyph d="M3 480q0 97 65.5 163t162.5 66q58 0 106 -28t72 -78q24 52 73 79t108 27q95 0 160 -67t65 -162q0 -61 -27 -123.5t-68 -113.5t-97.5 -101.5t-107 -86.5t-106.5 -69q-56 33 -106.5 69t-107 86.5t-97.5 101.5t-68 113.5t-27 123.5z" glyph-name="heart" horiz-adv-x="872" unicode="♥"/><glyph d="M911 636l-602 -652l-294 323l81 76l216 -233l518 565z" glyph-name="uni2713" horiz-adv-x="942" unicode="✓"/><glyph d="M20 633l79 78l277 -276l275 276l78 -78l-274 -278l280 -280l-78 -79l-281 279l-278 -279l-78 79l277 280z" glyph-name="uni2715" horiz-adv-x="755" unicode="✕"/><glyph d="M404 449q0 -40 -28.5 -69t-67.5 -29q-41 0 -69.5 28.5t-28.5 69.5q0 40 28.5 68t69.5 28q39 0 67.5 -28t28.5 -68zM243 68h-1q-58 -52 -58 -100q0 -38 30 -64.5t82 -26.5q75 0 118 65l120 -79q-38 -60 -101.5 -92t-140.5 -32q-110 0 -180.5 58t-70.5 154q0 65 30 111 t92 96q36 29 55 56t19 63v12h140l11 -312h-147z" glyph-name="uni2E18" horiz-adv-x="553" unicode="⸘"/><glyph d="M388 795q107 0 184 -57.5t112.5 -146t35.5 -195.5q0 -79 -22 -151.5t-63 -130t-107 -92t-146 -34.5q-109 0 -186.5 59t-112 148.5t-34.5 196.5q0 79 22 150.5t63 128.5t106.5 90.5t147.5 33.5zM384 640q-45 0 -79.5 -23.5t-54 -61t-29.5 -79t-10 -82.5q0 -63 18 -116 l233 341q-36 21 -78 21zM384 144q59 0 100.5 42t57.5 96.5t16 111.5q0 63 -18 116l-236 -343q34 -23 80 -23z" glyph-name="uniE008" horiz-adv-x="769" unicode=""/><glyph d="M660 401v-188q0 -46 23.5 -65.5t69.5 -19.5q19 0 36 4v-129q-34 -10 -73 -10q-104 0 -158 53.5t-54 147.5v207h-226v-401h-156v401h-96v133h96v53q0 104 56 167t169 63q39 0 73 -11v-128q-19 6 -48 6q-45 0 -70 -24t-25 -70v-56h229v167h154v-167h132v-133h-132z" glyph-name="uniE09D" horiz-adv-x="837" unicode=""/><glyph d="M621 191q-35 0 -67 16.5t-45 42.5q-20 -27 -54 -43.5t-64 -16.5q-69 0 -115.5 53t-46.5 118q0 93 58.5 161t145.5 68q27 0 54 -15t38 -40l10 51l115 -1l-42 -249q-9 -54 31 -54q41 0 78 49t37 121q0 115 -82 192.5t-213 77.5q-137 0 -236 -99t-99 -236 q0 -136 88.5 -229.5t239.5 -93.5q51 0 108 18.5t101 51.5l39 -60q-40 -36 -112 -59.5t-136 -23.5q-177 0 -290.5 113.5t-113.5 281.5q0 169 121 288t289 119q158 0 265 -96.5t107 -244.5q0 -115 -62 -188t-147 -73zM443 480q-40 0 -67.5 -32.5t-26.5 -74.5q1 -29 19 -51 t48 -22q38 0 65.5 34t27.5 77q0 31 -18 50t-48 19z" glyph-name="uniF633" horiz-adv-x="866" unicode=""/><glyph d="M474 161q0 -60 -36 -104t-101 -60v-99h-128v93q-127 16 -181 120l115 68q33 -65 120 -65q29 0 47 11.5t18 27.5t-17 28.5t-68 23.5q-190 42 -190 173q0 62 44 106.5t112 57.5v95h128v-100q88 -25 127 -98l-113 -67q-30 51 -97 51q-24 0 -40 -11.5t-16 -27.5q0 -34 70 -49 q101 -21 153.5 -62.5t52.5 -111.5z" glyph-name="uniF653" horiz-adv-x="525" unicode=""/><glyph d="M197 -164v-5q0 -53 -31.5 -103.5t-83.5 -85.5l-48 46q59 39 87 99q-14 -6 -29 -6q-31 0 -51.5 21.5t-20.5 54.5q0 36 24.5 60.5t59.5 24.5q40 0 66.5 -29t26.5 -77z" glyph-name="uniF6C3" horiz-adv-x="0" unicode=""/><glyph d="M43 266q0 119 83.5 199.5t204.5 80.5t203.5 -79t82.5 -198q0 -120 -83.5 -200.5t-204.5 -80.5q-122 0 -204 79t-82 199zM202 268q0 -61 36.5 -100t91.5 -39q56 0 92 39t36 100q0 60 -36.5 99t-91.5 39q-56 0 -92 -38.5t-36 -99.5z" glyph-name="uniF730" horiz-adv-x="660" unicode=""/><glyph d="M214 534h138v-534h-156v375l-123 -69l-61 111z" glyph-name="uniF731" horiz-adv-x="434" unicode=""/><glyph d="M45 112l192 150q49 39 66.5 60.5t17.5 45.5q0 21 -18 37.5t-46 16.5q-57 0 -86 -68l-125 50q23 73 81 108t131 35q92 0 148 -51.5t56 -127.5q0 -60 -32.5 -100t-111.5 -100l-61 -46h208v-122h-420v112z" glyph-name="uniF732" horiz-adv-x="518" unicode=""/><glyph d="M254 -8q-163 0 -218 128l117 60q31 -65 104 -65q31 0 48.5 13.5t17.5 33.5q0 48 -66 48h-51v124h44q31 0 47 13t16 32q0 18 -16.5 31t-48.5 13q-56 0 -84 -63l-120 57q27 65 81.5 97.5t126.5 32.5q87 0 143 -43.5t56 -116.5q0 -71 -71 -109v-1q81 -34 81 -118 q0 -73 -59.5 -120t-147.5 -47z" glyph-name="uniF733" horiz-adv-x="513" unicode=""/><glyph d="M36 249l236 285h171v-315h88v-123h-88v-96h-137v96h-270v153zM306 219v174l-144 -174h144z" glyph-name="uniF734" horiz-adv-x="571" unicode=""/><glyph d="M209 413l-14 -85q41 33 98 33q68 0 119 -47t51 -130q0 -87 -61 -138.5t-152 -51.5q-151 0 -211 118l113 67q33 -61 100 -61q33 0 53 17t20 47q0 27 -19.5 45t-56.5 18q-35 0 -71 -32l-121 47l41 274h341v-121h-230z" glyph-name="uniF735" horiz-adv-x="511" unicode=""/><glyph d="M301 360q77 0 129 -52t52 -124q0 -87 -64.5 -139t-148.5 -52q-114 0 -176 77q-48 61 -48 183q0 130 66 211.5t190 81.5q91 0 170 -61l-70 -102q-53 41 -102 41q-47 0 -75.5 -30t-34.5 -86q43 52 112 52zM267 246q-33 0 -56 -18t-23 -48q0 -28 23.5 -48t55.5 -20 q33 0 55 20t22 48q0 29 -21 47.5t-56 18.5z" glyph-name="uniF736" horiz-adv-x="531" unicode=""/><glyph d="M455 534v-123l-225 -411h-162l227 411h-259v123h419z" glyph-name="uniF737" horiz-adv-x="487" unicode=""/><glyph d="M46 157q0 44 25 73.5t61 43.5q-72 38 -72 108q0 54 35.5 93t81 55.5t92.5 16.5t92.5 -16t81 -55t35.5 -93q0 -70 -74 -108q37 -14 62 -43.5t25 -73.5t-20.5 -77.5t-54 -53t-71 -29t-77.5 -9.5q-54 0 -102.5 15.5t-84 55.5t-35.5 97zM197 376q0 -22 21 -37.5t50 -15.5 q30 0 51 15.5t21 37.5t-21 37.5t-50 15.5q-30 0 -51 -15.5t-21 -37.5zM186 164q0 -24 24 -40.5t59 -16.5q34 0 58.5 16.5t24.5 40.5t-24.5 41t-58.5 17t-58.5 -17t-24.5 -41z" glyph-name="uniF738" horiz-adv-x="537" unicode=""/><glyph d="M226 180q-78 0 -129.5 51.5t-51.5 124.5q0 87 64.5 138.5t148.5 51.5q112 0 176 -77q48 -59 48 -182q0 -130 -65 -212t-187 -82q-98 0 -178 62l69 103q55 -43 111 -43q45 0 72.5 30t33.5 86q-44 -51 -112 -51zM260 293q33 0 55.5 18t22.5 48q0 28 -23.5 48t-55.5 20 q-33 0 -55 -20t-22 -47q0 -30 21.5 -48.5t56.5 -18.5z" glyph-name="uniF739" horiz-adv-x="528" unicode=""/><glyph d="M549 979q0 -62 -45.5 -105t-109.5 -43q-63 0 -108.5 43t-45.5 105q0 61 45.5 104t108.5 43q64 0 109.5 -43t45.5 -104zM459 979q0 24 -19.5 42.5t-45.5 18.5q-28 0 -46 -17.5t-18 -43.5q0 -25 18.5 -43t45.5 -18t46 18t19 43zM-1 0l299 783h195l300 -783h-167l-59 158 h-347l-58 -158h-163zM276 308h236l-118 318z" glyph-name="Aring.aalt" horiz-adv-x="792"/><glyph d="M720 320v-169h345v-151h-575q-206 0 -325.5 107.5t-119.5 285.5q0 181 118.5 285.5t323.5 104.5h575v-152h-342v-159h305v-152h-305zM560 630h-79q-118 0 -194.5 -62.5t-76.5 -171.5q0 -113 75 -178t198 -65h77v477z" glyph-name="OE.aalt" horiz-adv-x="1122"/><glyph d="M896 0h-443q-175 0 -292.5 115t-117.5 283q0 167 118 282t285 115t283 -113.5t116 -279.5q0 -173 -145 -259l1 -2h195v-141zM444 639q-98 0 -167.5 -70t-69.5 -170t69 -172t167 -72t168 72.5t70 172.5t-69 169.5t-168 69.5z" glyph-name="Q.aalt" horiz-adv-x="900"/><glyph d="M452 795q167 0 285.5 -116t118.5 -284q0 -170 -119.5 -288t-288.5 -118t-287 116.5t-118 285.5q0 168 120 286t289 118zM450 638q-100 0 -171 -72.5t-71 -173.5q0 -74 38 -134l308 357q-48 23 -104 23zM450 145q100 0 171 72.5t71 174.5q0 74 -38 134l-309 -357 q51 -24 105 -24z" glyph-name="glyph644" horiz-adv-x="899"/><glyph d="M458 62h-1q-52 -72 -163 -72q-112 0 -183 82.5t-71 195.5q0 107 72.5 191.5t183.5 84.5q101 0 161 -72h1v62h155v-534h-155v62zM462 268q0 59 -38 97t-94 38t-94 -38t-38 -97q0 -60 38 -98.5t94 -38.5t94 38.5t38 98.5z" glyph-name="a.ss01" horiz-adv-x="686"/><glyph d="M242 623l107 187h179l-158 -187h-128zM458 0v62h-1q-52 -72 -163 -72q-112 0 -183 82.5t-71 195.5q0 107 72.5 191.5t183.5 84.5q101 0 161 -72h1v62h155v-534h-155zM462 268q0 59 -38 97t-94 38t-94 -38t-38 -97q0 -60 38 -98.5t94 -38.5t94 38.5t38 98.5z" glyph-name="aacute.aalt" horiz-adv-x="686"/><glyph d="M327 620q-77 0 -130 49.5t-60 128.5h116q12 -72 74 -72q30 0 49.5 20t24.5 52h117q-9 -80 -61.5 -129t-129.5 -49zM458 472h-1q-60 72 -161 72q-111 0 -183.5 -84.5t-72.5 -191.5q0 -113 71 -195.5t183 -82.5q111 0 163 72h1v-62h155v534h-155v-62zM462 268 q0 -60 -38 -98.5t-94 -38.5t-94 38.5t-38 98.5q0 59 38 97t94 38t94 -38t38 -97z" glyph-name="abreve.aalt" horiz-adv-x="686"/><glyph d="M396 798h132l-121 -174h-146l-121 174h133l61 -91zM458 62h-1q-52 -72 -163 -72q-112 0 -183 82.5t-71 195.5q0 107 72.5 191.5t183.5 84.5q101 0 161 -72h1v62h155v-534h-155v62zM462 268q0 59 -38 97t-94 38t-94 -38t-38 -97q0 -60 38 -98.5t94 -38.5t94 38.5t38 98.5z " glyph-name="glyph648" horiz-adv-x="686"/><glyph d="M271 798h146l121 -174h-133l-61 91l-61 -91h-133zM458 62h-1q-52 -72 -163 -72q-112 0 -183 82.5t-71 195.5q0 107 72.5 191.5t183.5 84.5q101 0 161 -72h1v62h155v-534h-155v62zM462 268q0 59 -38 97t-94 38t-94 -38t-38 -97q0 -60 38 -98.5t94 -38.5t94 38.5t38 98.5z " glyph-name="acircumflex.aalt" horiz-adv-x="686"/><glyph d="M213 617q-36 0 -61 25t-25 62q0 35 25 61t61 26t61.5 -25.5t25.5 -61.5q0 -37 -25.5 -62t-61.5 -25zM451 617q-36 0 -61 25t-25 62q0 35 25 61t61 26t61.5 -25.5t25.5 -61.5q0 -37 -25.5 -62t-61.5 -25zM458 472h-1q-60 72 -161 72q-111 0 -183.5 -84.5t-72.5 -191.5 q0 -113 71 -195.5t183 -82.5q111 0 163 72h1v-62h155v534h-155v-62zM462 268q0 -60 -38 -98.5t-94 -38.5t-94 38.5t-38 98.5q0 59 38 97t94 38t94 -38t38 -97z" glyph-name="adieresis.aalt" horiz-adv-x="686"/><glyph d="M298 810l107 -187h-128l-158 187h179zM458 62h-1q-52 -72 -163 -72q-112 0 -183 82.5t-71 195.5q0 107 72.5 191.5t183.5 84.5q101 0 161 -72h1v62h155v-534h-155v62zM462 268q0 59 -38 97t-94 38t-94 -38t-38 -97q0 -60 38 -98.5t94 -38.5t94 38.5t38 98.5z" glyph-name="agrave.aalt" horiz-adv-x="686"/><glyph d="M152 745h364v-117h-364v117zM458 472h-1q-60 72 -161 72q-111 0 -183.5 -84.5t-72.5 -191.5q0 -113 71 -195.5t183 -82.5q111 0 163 72h1v-62h155v534h-155v-62zM462 268q0 -60 -38 -98.5t-94 -38.5t-94 38.5t-38 98.5q0 59 38 97t94 38t94 -38t38 -97z" glyph-name="amacron.aalt" horiz-adv-x="686"/><glyph d="M613 534v-534q-97 -62 -97 -112q0 -28 23.5 -41.5t49.5 -13.5q10 0 21 1v-90q-30 -10 -76 -10q-64 0 -110 29.5t-46 84.5q0 74 111 152h-31v62h-1q-52 -72 -163 -72q-112 0 -183 82.5t-71 195.5q0 107 72.5 191.5t183.5 84.5q101 0 161 -72h1v62h155zM330 131 q56 0 94 38.5t38 98.5q0 59 -38 97t-94 38t-94 -38t-38 -97q0 -60 38 -98.5t94 -38.5z" glyph-name="aogonek.aalt" horiz-adv-x="686"/><glyph d="M488 750q0 -62 -45.5 -105t-109.5 -43q-63 0 -109 43t-46 105q0 61 46 104t109 43q64 0 109.5 -43t45.5 -104zM397 750q0 24 -19 42.5t-45 18.5q-28 0 -46.5 -17.5t-18.5 -43.5q0 -25 18.5 -43t46.5 -18q27 0 45.5 18t18.5 43zM458 472h-1q-60 72 -161 72 q-111 0 -183.5 -84.5t-72.5 -191.5q0 -113 71 -195.5t183 -82.5q111 0 163 72h1v-62h155v534h-155v-62zM462 268q0 -60 -38 -98.5t-94 -38.5t-94 38.5t-38 98.5q0 59 38 97t94 38t94 -38t38 -97z" glyph-name="aring.ss01" horiz-adv-x="686"/><glyph d="M265 789q35 0 63 -15.5t46.5 -30.5t31.5 -15q34 0 34 58h97q4 -76 -30.5 -119.5t-100.5 -43.5q-34 0 -62 15.5t-47 30.5t-32 15q-33 0 -34 -58h-96q-5 76 29.5 119.5t100.5 43.5zM458 472h-1q-60 72 -161 72q-111 0 -183.5 -84.5t-72.5 -191.5q0 -113 71 -195.5 t183 -82.5q111 0 163 72h1v-62h155v534h-155v-62zM462 268q0 -60 -38 -98.5t-94 -38.5t-94 38.5t-38 98.5q0 59 38 97t94 38t94 -38t38 -97z" glyph-name="atilde.aalt" horiz-adv-x="686"/><glyph d="M224 815v-607q0 -80 84 -80q17 0 36 4v-129q-35 -10 -63 -10q-107 0 -160 54.5t-53 151.5v616h156z" glyph-name="l.aalt" horiz-adv-x="354"/><glyph d="M291 815v-343l117 62v-147l-117 -61v-118q0 -80 84 -80q17 0 36 4v-129q-35 -10 -63 -10q-107 0 -160 54.5t-53 151.5v46l-102 -53v149l102 51v423h156z" glyph-name="lslash.aalt" horiz-adv-x="448"/><glyph d="M608 534l-243 -607q-36 -90 -93.5 -140.5t-157.5 -50.5q-43 0 -74 11v128q22 -5 52 -5q91 0 129 98l12 32l-219 534h166l134 -360l131 360h163z" glyph-name="y.aalt" horiz-adv-x="621"/><glyph d="M454 750q0 -62 -45.5 -105t-110.5 -43q-63 0 -108.5 43t-45.5 105q0 61 45.5 104t108.5 43q65 0 110.5 -43t45.5 -104zM363 750q0 24 -19 42.5t-46 18.5q-28 0 -46 -17.5t-18 -43.5q0 -25 18.5 -43t45.5 -18q28 0 46.5 18t18.5 43zM222 -10q-75 0 -127.5 43.5 t-52.5 115.5v2q0 47 21.5 81t58 51t75 24.5t83.5 7.5h53q42 0 42 39q0 28 -22 47t-64 19q-79 0 -119 -72l-119 71q69 127 245 127q106 0 169 -55t63 -160v-331h-144v66l-2 1q-54 -77 -160 -77zM267 104q50 0 78.5 29.5t28.5 73.5v12h-94q-34 0 -57.5 -15.5t-23.5 -45.5 q0 -27 19 -40.5t49 -13.5z" glyph-name="aring.ss05" horiz-adv-x="597"/><glyph d="M53 720q0 40 28.5 68.5t67.5 28.5q41 0 69.5 -28t28.5 -69q0 -40 -28.5 -68t-69.5 -28q-39 0 -67.5 28t-28.5 68zM72 534v-534h157v534h-157z" glyph-name="i.aalt" horiz-adv-x="301"/><glyph d="M187 0v-164h-161v314h67l263 633h193l263 -633h66v-314h-161v164h-530zM637 150l-186 466l-187 -466h373z" glyph-name="afii10021.aalt" horiz-adv-x="905"/><glyph d="M173 0h-173l296 783h191l296 -783h-177l-216 600z" glyph-name="afii10029.aalt" horiz-adv-x="782"/><glyph d="M542 -164v164h-362v-164h-144v299h63l187 399h160l185 -399h55v-299h-144zM259 135h212l-106 240z" glyph-name="afii10069.aalt" horiz-adv-x="721"/><glyph d="M223 534v-298q0 -47 22.5 -74.5t69.5 -27.5t71.5 29t24.5 73v298h156v-534h-154v66h-1q-53 -77 -149 -77q-95 0 -145.5 60.5t-50.5 149.5v335h156z" glyph-name="afii10074.aalt" horiz-adv-x="639"/><glyph d="M318 618q-81 0 -131 49t-63 134l91 16q28 -91 103 -91q74 0 102 91l90 -15q-13 -85 -62.5 -134.5t-129.5 -49.5zM223 534v-298q0 -47 22.5 -74.5t69.5 -27.5t71.5 29t24.5 73v298h156v-534h-154v66h-1q-53 -77 -149 -77q-95 0 -145.5 60.5t-50.5 149.5v335h156z" glyph-name="afii10075.aalt" horiz-adv-x="639"/><glyph d="M180 0h-166l219 534h159l216 -534h-165l-131 356z" glyph-name="afii10077.aalt" horiz-adv-x="623"/><glyph d="M417 0v296q0 47 -23.5 75.5t-69.5 28.5q-47 0 -71.5 -30t-24.5 -74v-296h-156v534h155v-70h1q19 33 53.5 52.5t57.5 23.5t40 4q96 0 144.5 -61t48.5 -151v-332h-155z" glyph-name="afii10081.aalt" horiz-adv-x="639"/><glyph d="M413 66h-1q-53 -77 -149 -77q-97 0 -146.5 60t-49.5 150v335h156v-298q0 -47 22.5 -74.5t69.5 -27.5t71.5 29t24.5 73v298h156v-399h68v-299h-145v164h-77v66z" glyph-name="afii10088.aalt" horiz-adv-x="679"/><glyph d="M310 134q46 0 70.5 27.5t24.5 73.5v299h156v-297q0 -103 86 -103q47 0 71.5 28t24.5 75v297h155v-534h-152v70h-2q-22 -39 -65.5 -60.5t-90.5 -21.5q-51 0 -92.5 21.5t-63.5 63.5q-39 -44 -80.5 -64.5t-97.5 -20.5q-93 0 -140 58t-47 154v334h156v-299q0 -101 87 -101z " glyph-name="afii10090.aalt" horiz-adv-x="971"/><glyph d="M746 70h-2q-22 -39 -65 -60.5t-91 -21.5q-51 0 -92 21.5t-63 63.5q-40 -44 -81 -64.5t-97 -20.5q-94 0 -141 58t-47 154v334h156v-299q0 -101 87 -101q46 0 70.5 27.5t24.5 73.5v299h156v-297q0 -103 86 -103q47 0 71.5 28t24.5 75v297h155v-399h68v-299h-145v164h-75v70 z" glyph-name="afii10091.aalt" horiz-adv-x="1010"/><glyph d="M182 455q-44 0 -76.5 32t-32.5 75q0 46 32 78t77 32q46 0 77 -32t31 -78q0 -44 -31.5 -75.5t-76.5 -31.5zM182 113q-44 0 -76.5 32t-32.5 76q0 45 32 77t77 32t76.5 -32t31.5 -77q0 -44 -31.5 -76t-76.5 -32z" glyph-name="colon.aalt" horiz-adv-x="364"/><glyph d="M267 698q0 -40 -28.5 -68.5t-67.5 -28.5q-41 0 -69.5 28.5t-28.5 68.5t28.5 68t69.5 28q39 0 67.5 -28t28.5 -68zM86 158v-158h172v158l-15 354h-142z" glyph-name="exclamdown.aalt" horiz-adv-x="342"/><glyph d="M411 699q0 -40 -28.5 -69t-67.5 -29q-41 0 -69.5 28.5t-28.5 69.5q0 40 28.5 68t69.5 28q39 0 67.5 -28t28.5 -68zM250 318h-1q-58 -52 -58 -100q0 -38 30 -64.5t82 -26.5q75 0 118 65l120 -79q-38 -60 -101.5 -92t-140.5 -32q-110 0 -180.5 58t-70.5 154q0 65 30 111 t92 96q36 29 55 56t19 63v12h140l11 -312h-147z" glyph-name="uni2E18.aalt" horiz-adv-x="563"/><glyph d="M402 700q0 -40 -28.5 -69t-67.5 -29q-41 0 -69.5 28.5t-28.5 69.5q0 40 28.5 68t69.5 28q39 0 67.5 -28t28.5 -68zM284 136q67 0 103 75l135 -71q-31 -70 -97 -110t-145 -40q-107 0 -174 59.5t-67 152.5q0 62 29.5 105.5t92.5 94.5q36 29 55 56t19 63v7h152v-33 q0 -43 -17 -75t-57 -67l-48 -42q-63 -55 -63 -100q0 -33 23 -54t59 -21z" glyph-name="questiondown.aalt" horiz-adv-x="572"/><glyph d="M177 454q-44 0 -75.5 31.5t-31.5 75.5q0 46 31.5 77.5t75.5 31.5q46 0 77.5 -32t31.5 -77q0 -44 -31.5 -75.5t-77.5 -31.5zM287 196v-5q0 -67 -38 -129t-103 -106l-59 57q73 48 106 122q-19 -7 -35 -7q-38 0 -63.5 26.5t-25.5 68.5q0 43 30.5 73.5t73.5 30.5q50 0 82 -36 t32 -95z" glyph-name="semicolon.aalt" horiz-adv-x="354"/><glyph d="M432 -105h-76q-123 0 -180.5 51.5t-38.5 181.5l15 107q8 54 -17.5 73t-82.5 21l-16 1v124h17q55 0 81 20.5t18 73.5l-15 107q-18 128 39.5 180.5t179.5 52.5h76v-124h-60q-53 0 -75.5 -14.5t-24 -46.5t6.5 -85l13 -88q4 -30 -1.5 -55t-32 -49.5t-74.5 -32.5v-1 q48 -9 74.5 -34t32 -50.5t1.5 -54.5l-13 -87q-8 -53 -6.5 -85.5t24 -47t75.5 -14.5h60v-124z" glyph-name="braceleft.aalt" horiz-adv-x="471"/><glyph d="M40 19h59q77 0 93.5 33.5t-0.5 113.5l-13 87q-4 29 2 54.5t32.5 50.5t74.5 34v1q-69 12 -92.5 51t-16.5 86l13 88q17 80 0.5 113t-93.5 33h-59v124h75q123 0 180.5 -52.5t39.5 -180.5l-16 -107q-8 -53 18.5 -73.5t81.5 -20.5h17v-124l-17 -1q-56 -2 -82 -21.5t-18 -72.5 l16 -107q19 -130 -38.5 -181.5t-181.5 -51.5h-75v124z" glyph-name="braceright.aalt" horiz-adv-x="472"/><glyph d="M227 19h188v-124h-324v993h324v-124h-188v-745z" glyph-name="bracketleft.aalt" horiz-adv-x="453"/><glyph d="M39 888h323v-993h-323v124h188v745h-188v124z" glyph-name="bracketright.aalt" horiz-adv-x="453"/><glyph d="M189 410v-37q0 -244 206 -394l-68 -93q-134 75 -207 198t-73 289v37q0 166 73 289t207 198l68 -93q-206 -150 -206 -394z" glyph-name="parenleft.aalt" horiz-adv-x="418"/><glyph d="M92 -114l-69 93q206 150 206 394v37q0 244 -206 394l69 93q134 -75 206.5 -198t72.5 -289v-37q0 -166 -72.5 -289t-206.5 -198z" glyph-name="parenright.aalt" horiz-adv-x="418"/><glyph d="M67 470h872v-151h-872v151z" glyph-name="emdash.aalt" horiz-adv-x="1007"/><glyph d="M67 470h489v-151h-489v151z" glyph-name="endash.aalt" horiz-adv-x="624"/><glyph d="M67 474h330v-155h-330v155z" glyph-name="hyphen.aalt" horiz-adv-x="464"/><glyph d="M359 242l-86 -83l-232 230l233 230l84 -83l-149 -148zM634 242l-85 -83l-233 230l234 230l84 -83l-150 -148z" glyph-name="guillemotleft.aalt" horiz-adv-x="691"/><glyph d="M143 159l-86 83l150 146l-149 148l84 83l233 -230zM418 159l-85 83l149 146l-149 148l84 83l234 -230z" glyph-name="guillemotright.aalt" horiz-adv-x="691"/><glyph d="M358 242l-85 -83l-232 230l233 230l84 -83l-150 -148z" glyph-name="guilsinglleft.aalt" horiz-adv-x="416"/><glyph d="M142 159l-85 83l150 146l-150 148l85 83l233 -230z" glyph-name="guilsinglright.aalt" horiz-adv-x="416"/><glyph d="M452 211l138 -57q-51 -132 -192 -160v-96h-137v98q-97 22 -156 95.5t-59 174.5q0 99 60.5 173.5t154.5 97.5v100h137v-97q68 -14 118 -55t70 -104l-137 -57q-35 79 -115 79q-54 0 -91 -36.5t-37 -98.5q0 -60 35.5 -98t92.5 -38q84 0 118 79z" glyph-name="cent.ss08" horiz-adv-x="639"/><glyph d="M612 230q0 -90 -55 -153.5t-154 -81.5v-107h-150v106q-84 15 -144.5 61.5t-89.5 116.5l140 72q23 -51 67.5 -80t103.5 -29q52 0 85.5 23.5t33.5 59.5q0 34 -30.5 54.5t-117.5 46.5q-137 41 -191 95q-60 58 -60 145q0 86 57 148t146 81v103h150v-104q142 -33 195 -161 l-134 -73q-40 96 -148 96q-48 0 -76 -22.5t-28 -57.5t29.5 -56t96.5 -40q140 -40 207 -94.5t67 -148.5z" glyph-name="dollar.ss08" horiz-adv-x="652"/><glyph d="M287 618q-81 0 -131 49t-63 134l91 16q28 -91 103 -91q74 0 102 91l90 -15q-14 -86 -63 -135t-129 -49z" glyph-name="glyph691" horiz-adv-x="557"/><glyph d="M362 -10q-136 0 -224.5 88t-88.5 228q0 135 86.5 225t228.5 90q141 0 226.5 -90t85.5 -225q0 -134 -87 -225t-227 -91zM362 471q-75 0 -114.5 -47.5t-39.5 -117.5q0 -48 17 -83l173 244q-15 4 -36 4zM516 306q0 44 -17 81l-171 -243q16 -3 34 -3q75 0 114.5 47.5 t39.5 117.5zM224 221v3q-2 3 0 -3z" glyph-name="uniE008.oldstyle" horiz-adv-x="725"/><glyph d="M362 -10q-136 0 -224.5 88t-88.5 228q0 135 86.5 225t228.5 90q141 0 226.5 -90t85.5 -225q0 -134 -87 -225t-227 -91zM362 467q-73 0 -111.5 -46.5t-38.5 -114.5t39 -114.5t111 -46.5t111 46.5t39 114.5t-39 114.5t-111 46.5z" glyph-name="zero.oldstyle" horiz-adv-x="725"/><glyph d="M78 318l-75 130l261 162h134v-610h-162v414z" glyph-name="one.oldstyle" horiz-adv-x="490"/><glyph d="M595 388q0 -73 -49 -123.5t-145 -96.5l-48 -23v-1h251v-144h-541v131l268 145q100 54 100 110q0 35 -29 61.5t-76 26.5q-91 0 -131 -96l-147 62q29 88 107.5 135.5t166.5 47.5q126 0 199.5 -68t73.5 -167z" glyph-name="two.oldstyle" horiz-adv-x="659"/><glyph d="M611 51q0 -102 -81 -169.5t-202 -67.5q-103 0 -180.5 42.5t-112.5 124.5l142 73q20 -43 61 -66.5t94 -23.5q52 0 83.5 25t31.5 66q0 44 -30.5 68t-84.5 24h-83v150h74q52 0 81 24.5t29 63.5q0 37 -30 61t-83 24q-88 0 -128 -87l-145 69q33 81 107 125t172 44 q120 0 195 -62t75 -163q0 -108 -107 -165v-1q65 -27 93.5 -70.5t28.5 -108.5z" glyph-name="three.oldstyle" horiz-adv-x="661"/><glyph d="M31 0v159l351 451h193v-464h111v-146h-109l-2 -172h-158l2 172h-388zM200 146h217v278z" glyph-name="four.oldstyle" horiz-adv-x="729"/><glyph d="M613 89q0 -124 -83 -197.5t-209 -73.5q-203 0 -282 153l138 82q45 -84 148 -84q55 0 90 31t35 85q0 50 -35 81t-96 31q-59 0 -107 -46l-152 62l57 397h461v-147h-332l-25 -176q64 52 141 52q108 0 179.5 -65.5t71.5 -184.5z" glyph-name="five.oldstyle" horiz-adv-x="659"/><glyph d="M221 430q67 80 173 80q112 0 183.5 -72.5t71.5 -176.5q0 -123 -88 -197t-204 -74q-155 0 -241 110q-66 85 -66 266q0 192 91.5 310t262.5 118q122 0 222 -78l-84 -124q-69 54 -141 54q-87 0 -131.5 -61.5t-48.5 -154.5zM221 256q0 -50 40 -85t94 -35q55 0 93 34.5 t38 84.5q0 53 -37 85.5t-95 32.5q-54 0 -93.5 -31.5t-39.5 -85.5z" glyph-name="six.oldstyle" horiz-adv-x="695"/><glyph d="M31 464v147h574v-140l-346 -644h-183l343 637h-388z" glyph-name="seven.oldstyle" horiz-adv-x="632"/><glyph d="M635 221q0 -105 -84 -168t-209 -63q-124 0 -208 63.5t-84 164.5q0 128 137 188v1q-55 22 -88 68.5t-33 105.5q0 92 76.5 153t200.5 61t200 -61t76 -153q0 -59 -33 -105.5t-88 -68.5v-1q137 -58 137 -185zM457 561q0 42 -31.5 70t-83.5 28q-50 0 -82 -28t-32 -69 q0 -44 34.5 -71t79.5 -27q46 0 80.5 26.5t34.5 70.5zM472 231q0 46 -39 71.5t-90 25.5q-52 0 -91 -25.5t-39 -71.5q0 -44 35.5 -74.5t92.5 -30.5q60 0 95.5 30t35.5 75z" glyph-name="eight.oldstyle" horiz-adv-x="686"/><glyph d="M478 183q-70 -83 -176 -83q-112 0 -184 73.5t-72 177.5q0 123 88 197.5t204 74.5q81 0 142 -31t98 -79q67 -87 67 -271q0 -192 -87.5 -307.5t-255.5 -115.5q-128 0 -228 78l84 125q69 -54 144 -54q86 0 129 61t47 154zM474 355q0 50 -40.5 86t-93.5 36q-54 0 -92.5 -35.5 t-38.5 -85.5q0 -54 36.5 -87t94.5 -33q54 0 94 32.5t40 86.5z" glyph-name="nine.oldstyle" horiz-adv-x="695"/><glyph d="M341 621q135 0 221 -89t86 -226t-86.5 -226.5t-222.5 -89.5q-135 0 -221 89t-86 226t86 226.5t223 89.5zM340 472q-74 0 -111.5 -50t-37.5 -117q0 -42 15 -78l170 241q-22 4 -36 4zM489 304q0 42 -15 79l-169 -241q16 -3 35 -3q73 0 111 49.5t38 115.5z" glyph-name="uniE008.tnum.oldstyle"/><glyph d="M341 621q135 0 221 -89t86 -226t-86.5 -226.5t-222.5 -89.5q-135 0 -221 89t-86 226t86 226.5t223 89.5zM340 466q-72 0 -108 -48t-36 -113q0 -63 37 -111t107 -48t107 47.5t37 110.5q0 65 -36 113.5t-108 48.5z" glyph-name="zero.tnum.oldstyle"/><glyph d="M308 610h132v-465h183v-145h-554v145h212v286l-166 -76l-61 134z" glyph-name="one.tnum.oldstyle"/><glyph d="M607 388q0 -73 -49 -123.5t-145 -96.5l-48 -23v-1h251v-144h-541v131l268 145q100 54 100 110q0 35 -29 61.5t-76 26.5q-91 0 -131 -96l-147 62q29 88 107.5 135.5t166.5 47.5q126 0 199.5 -68t73.5 -167z" glyph-name="two.tnum.oldstyle"/><glyph d="M624 51q0 -102 -81 -169.5t-202 -67.5q-103 0 -180.5 42.5t-112.5 124.5l142 73q20 -43 61 -66.5t94 -23.5q52 0 83.5 25t31.5 66q0 44 -30.5 68t-84.5 24h-83v150h74q52 0 81 24.5t29 63.5q0 37 -30 61t-83 24q-88 0 -128 -87l-145 69q33 81 107 125t172 44 q120 0 195 -62t75 -163q0 -108 -107 -165v-1q65 -27 93.5 -70.5t28.5 -108.5z" glyph-name="three.tnum.oldstyle"/><glyph d="M30 0v159l349 451h193v-464h79v-146h-77l-2 -172h-158l2 172h-386zM199 146h215v278z" glyph-name="four.tnum.oldstyle"/><glyph d="M625 89q0 -124 -83 -197.5t-209 -73.5q-203 0 -282 153l138 82q45 -84 148 -84q55 0 90 31t35 85q0 50 -35 81t-96 31q-59 0 -107 -46l-152 62l57 397h461v-147h-332l-25 -176q64 52 141 52q108 0 179.5 -65.5t71.5 -184.5z" glyph-name="five.tnum.oldstyle"/><glyph d="M211 430q67 80 173 80q112 0 183.5 -72.5t71.5 -176.5q0 -123 -88 -197t-204 -74q-81 0 -142.5 31t-98.5 79q-66 86 -66 266q0 192 91.5 310t262.5 118q122 0 222 -78l-84 -124q-69 54 -141 54q-87 0 -131.5 -61.5t-48.5 -154.5zM211 256q0 -50 40 -85t94 -35 q55 0 93 34.5t38 84.5q0 53 -37 85.5t-95 32.5q-54 0 -93.5 -31.5t-39.5 -85.5z" glyph-name="six.tnum.oldstyle"/><glyph d="M53 464v147h574v-140l-346 -644h-183l343 637h-388z" glyph-name="seven.tnum.oldstyle"/><glyph d="M633 221q0 -105 -84 -168t-209 -63q-124 0 -208 63.5t-84 164.5q0 128 137 188v1q-55 22 -88 68.5t-33 105.5q0 92 76.5 153t200.5 61t200 -61t76 -153q0 -59 -33 -105.5t-88 -68.5v-1q137 -58 137 -185zM455 561q0 42 -31.5 70t-83.5 28q-50 0 -82 -28t-32 -69 q0 -44 34.5 -71t79.5 -27q46 0 80.5 26.5t34.5 70.5zM470 231q0 46 -39 71.5t-90 25.5q-52 0 -91 -25.5t-39 -71.5q0 -44 35.5 -74.5t92.5 -30.5q60 0 95.5 30t35.5 75z" glyph-name="eight.tnum.oldstyle"/><glyph d="M472 183q-70 -83 -176 -83q-112 0 -184 73.5t-72 177.5q0 123 88 197.5t204 74.5q81 0 142 -31t98 -79q67 -87 67 -271q0 -192 -87.5 -307.5t-255.5 -115.5q-128 0 -228 78l84 125q69 -54 144 -54q86 0 129 61t47 154zM468 355q0 50 -40.5 86t-93.5 36q-54 0 -92.5 -35.5 t-38.5 -85.5q0 -54 36.5 -87t94.5 -33q54 0 94 32.5t40 86.5z" glyph-name="nine.tnum.oldstyle" horiz-adv-x="690"/><glyph d="M33 392q0 64 10 121.5t33 109.5t57.5 90t87.5 60t120 22q65 0 117.5 -22t87 -59t58 -88.5t33.5 -108.5t10 -121q0 -81 -17 -151.5t-52 -129t-96 -92t-143 -33.5q-67 0 -119.5 22t-87 59.5t-57.5 90t-32.5 109.5t-9.5 121zM194 394q0 -52 6 -88l220 310q-35 28 -80 28 q-146 0 -146 -250zM480 480l-219 -312q32 -26 79 -26q145 0 145 252q0 50 -5 86z" glyph-name="uniE008.tnum"/><glyph d="M33 392q0 64 10 121.5t33 109.5t57.5 90t87.5 60t120 22q65 0 117.5 -22t87 -59t58 -88.5t33.5 -108.5t10 -121q0 -81 -17 -151.5t-52 -129t-96 -92t-143 -33.5q-67 0 -119.5 22t-87 59.5t-57.5 90t-32.5 109.5t-9.5 121zM196 394q0 -248 144 -248q143 0 143 248 q0 246 -143 246q-144 0 -144 -246z" glyph-name="zero.tnum"/><glyph d="M308 783h133v-635h187v-148h-562v148h213v453l-167 -78l-60 138z" glyph-name="one.tnum"/><glyph d="M54 142l273 224q73 60 101 96t28 79q0 42 -32 72t-80 30q-97 0 -136 -98l-149 63q28 92 106.5 139.5t179.5 47.5q126 0 202 -72.5t76 -180.5q0 -84 -44.5 -142t-157.5 -147l-132 -105h338v-148h-573v142z" glyph-name="two.tnum"/><glyph d="M623 225q0 -102 -81 -169.5t-202 -67.5q-103 0 -180.5 42.5t-112.5 124.5l142 73q20 -43 61 -66.5t94 -23.5q52 0 83.5 25t31.5 66q0 44 -30.5 68t-84.5 24h-83v150h74q52 0 81 24.5t29 63.5q0 37 -30 61t-83 24q-88 0 -128 -87l-145 69q33 81 107 125t172 44 q120 0 195 -62t75 -163q0 -108 -107 -165v-1q65 -27 93.5 -70.5t28.5 -108.5z" glyph-name="three.tnum"/><glyph d="M30 155v159l349 469h193v-482h79v-145h-77l-2 -156h-158l2 155h-386zM198 301h216v291z" glyph-name="four.tnum"/><glyph d="M625 261q0 -124 -83 -197.5t-209 -73.5q-203 0 -282 153l138 82q45 -84 148 -84q55 0 90 31t35 85q0 50 -35 81t-96 31q-59 0 -107 -46l-152 62l57 397h461v-147h-332l-25 -176q64 52 141 52q108 0 179.5 -65.5t71.5 -184.5z" glyph-name="five.tnum"/><glyph d="M211 430q67 80 173 80q112 0 183.5 -72.5t71.5 -176.5q0 -123 -88 -197t-204 -74q-81 0 -142.5 31t-98.5 79q-66 86 -66 266q0 192 91.5 310t262.5 118q122 0 222 -78l-84 -124q-69 54 -141 54q-87 0 -131.5 -61.5t-48.5 -154.5zM211 256q0 -50 40 -85t94 -35 q55 0 93 34.5t38 84.5q0 53 -37 85.5t-95 32.5q-54 0 -93.5 -31.5t-39.5 -85.5z" glyph-name="six.tnum"/><glyph d="M53 636v147h574v-139l-346 -644h-183l343 636h-388z" glyph-name="seven.tnum"/><glyph d="M633 221q0 -105 -84 -168t-209 -63q-124 0 -208 63.5t-84 164.5q0 128 137 188v1q-55 22 -88 68.5t-33 105.5q0 92 76.5 153t200.5 61t200 -61t76 -153q0 -59 -33 -105.5t-88 -68.5v-1q137 -58 137 -185zM455 561q0 42 -31.5 70t-83.5 28q-50 0 -82 -28t-32 -69 q0 -44 34.5 -71t79.5 -27q46 0 80.5 26.5t34.5 70.5zM470 231q0 46 -39 71.5t-90 25.5q-52 0 -91 -25.5t-39 -71.5q0 -44 35.5 -74.5t92.5 -30.5q60 0 95.5 30t35.5 75z" glyph-name="eight.tnum"/><glyph d="M472 354q-70 -83 -176 -83q-112 0 -184 73.5t-72 177.5q0 123 88 197.5t204 74.5q81 0 142 -31t98 -79q67 -87 67 -271q0 -192 -87.5 -307.5t-255.5 -115.5q-128 0 -228 78l84 125q69 -54 144 -54q86 0 129 61t47 154zM468 526q0 50 -40.5 86t-93.5 36q-54 0 -92.5 -35.5 t-38.5 -85.5q0 -54 36.5 -87t94.5 -33q54 0 94 32.5t40 86.5z" glyph-name="nine.tnum"/><glyph d="M474 212l135 -56q-26 -73 -82.5 -113.5t-132.5 -49.5v-95h-82v96q-107 14 -174 89.5t-67 182.5q0 105 68.5 181.5t172.5 92.5v97h82v-96q76 -9 132.5 -50.5t79.5 -110.5l-135 -56q-26 60 -79 74v-261q55 14 82 75zM230 268q0 -47 22.5 -81t61.5 -47v255q-38 -13 -61 -46 t-23 -81z" glyph-name="cent.tnum"/><glyph d="M99 271q0 60 28 112l-83 85l100 100l86 -88q51 26 110 26q63 0 108 -26l87 87l100 -100l-83 -84q29 -48 29 -112q0 -61 -29 -114l84 -83l-100 -101l-87 88q-51 -26 -109 -26q-59 0 -110 26l-86 -87l-100 101l84 84q-29 48 -29 112zM245 270q0 -41 27 -66q28 -26 67 -26 t67 26q27 25 27 66q0 42 -27 67q-25 25 -67 25t-67 -25q-27 -25 -27 -67z" glyph-name="currency.aalt"/><glyph d="M622 232q0 -97 -63.5 -162t-178.5 -76v-96h-83v96q-94 9 -162.5 56.5t-99.5 123.5l138 72q37 -84 126 -104v183q-124 37 -174 89q-59 57 -59 143q0 93 66 156.5t165 75.5v102h83v-102q80 -10 139 -52.5t89 -112.5l-133 -73q-27 68 -96 89v-176q124 -38 183.5 -91 t59.5 -141zM226 567q0 -50 73 -78v155q-35 -7 -54 -27.5t-19 -49.5zM379 299v-158q37 8 59.5 29t22.5 50q0 26 -18 43.5t-64 35.5z" glyph-name="dollar.tnum"/><glyph d="M654 725v-106h-52v-619h-152v68h-2q-52 -78 -166 -78q-112 0 -183 83t-71 195q0 107 73 191.5t184 84.5q100 0 159 -71h2v146h-149v106h149v90h156v-90h52zM450 268q0 59 -37.5 97t-93.5 38t-94 -38t-38 -97q0 -60 37.5 -98.5t93.5 -38.5t94 38.5t38 98.5zM48 -69h554 v-135h-554v135z" glyph-name="dong.aalt"/><glyph d="M478 -10q-136 0 -240.5 74t-142.5 199h-76v100h58q-1 9 -1 29q0 5 0.5 15.5t0.5 15.5h-58v101h77q41 123 146 197t242 74q93 0 172 -36l-45 -148q-63 29 -129 29q-68 0 -122.5 -31t-85.5 -85h311l-32 -101h-312q-1 -10 -1 -30t1 -30h295l-31 -100h-233q30 -55 84 -86 t126 -31q65 0 137 36l42 -153q-81 -39 -183 -39z" glyph-name="glyph729"/><glyph d="M660 533v-103h-640v103h431q6 13 6 32q0 37 -32.5 60.5t-73.5 23.5q-95 0 -149 -73l-122 92q81 126 273 126q116 0 190.5 -68.5t74.5 -164.5q0 -19 -1 -28h43zM20 367h640v-103h-430q-9 -18 -9 -42q0 -40 35 -64t87 -24q59 0 107 25t76 67l124 -89q-48 -76 -122 -112.5 t-191 -36.5q-133 0 -207 67t-74 171q0 14 2 38h-38v103z" glyph-name="glyph730"/><glyph d="M490 352l154 -17q-4 -162 -101.5 -248.5t-285.5 -86.5h-132v265l-90 -41v110l90 41v69l-90 -41v110l90 41v229h161v-157l218 98v-110l-218 -98v-69l218 98v-111l-218 -97v-188q58 1 97.5 16t61.5 43t32 62t13 82z" glyph-name="uni20BA.aalt"/><glyph d="M661 483h-58q-15 -101 -92 -154t-191 -53h-72v-276h-162v483h-64v90h64v210h240q111 0 187.5 -54.5t89.5 -155.5h58v-90zM248 571h187q-22 60 -116 60h-71v-60zM248 425h72q89 0 115 60h-187v-60z" glyph-name="uni20B1.aalt"/><glyph d="M616 643h-142q26 -31 35 -66h107v-92h-106q-20 -124 -142 -174l161 -311h-178l-140 281h-146v149h179q76 0 99 55h-278v92h280q-24 54 -102 54h-178v152h551v-140z" glyph-name="uni20B9.aalt"/><glyph d="M529 186l110 -76q-22 -60 -71.5 -90.5t-115.5 -30.5q-50 0 -112 25.5t-96 25.5q-52 0 -130 -46l-76 135q72 43 112 83t40 89q0 6 -2 18h-141v127h84q-34 70 -34 114q0 96 76 165.5t187 69.5q99 0 164 -46t88 -125l-146 -68q-28 87 -104 87q-43 0 -70.5 -23t-27.5 -63 q0 -35 38 -111h194v-127h-153v-10q0 -81 -75 -131q14 3 25 3q37 0 84 -19t77 -19q50 0 75 43z" glyph-name="sterling.aalt"/><glyph d="M419 378v-67l189 64v-106l-189 -63v-206h-160v152l-189 -64v106l189 63v67l-189 -63v106l189 63v196h-228v157h616v-157h-228v-142l189 63v-106z" glyph-name="uni20AE.aalt"/><glyph d="M422 252h229v-103h-229v-149h-163v149h-229v103h229v59h-229v103h186l-216 369h183l157 -289l158 289h182l-209 -369h180v-103h-229v-59z" glyph-name="yen.aalt"/><glyph d="M662 532q0 -125 -79 -190.5t-207 -65.5h-104v-59h177v-98h-177v-119h-161v119h-93v98h93v59h-93v146h93v361h271q123 0 201.5 -65.5t78.5 -185.5zM508 528q0 53 -37.5 77.5t-93.5 24.5h-105v-203h106q54 0 92 25t38 76z" glyph-name="uni20BD.aalt"/><glyph d="M576 164q0 -79 -62.5 -127.5t-170.5 -48.5q-199 0 -265 141l110 66q21 -38 61 -61.5t94 -23.5q35 0 55 13.5t20 32.5q0 18 -19.5 30.5t-75.5 26.5l-83 20q-89 21 -139 59.5t-50 91.5q0 97 101 134q-49 37 -49 103q0 79 64 126t173 47q171 0 231 -118l-109 -67 q-38 64 -125 64q-33 0 -54.5 -13.5t-21.5 -31.5q0 -17 15.5 -30t61.5 -24l101 -24q189 -44 189 -152q0 -94 -100 -132q48 -37 48 -102zM258 460q-26 0 -44 -12.5t-18 -37.5q0 -39 113 -66q80 -20 113 -20q25 0 43 13t18 38q0 38 -107 64q-4 1 -6 1q-80 20 -112 20z" glyph-name="section.aalt"/><glyph d="M292 534l13 62q40 190 232 190q51 0 82 -10v-131q-38 8 -67 8q-38 0 -62.5 -21t-32.5 -58l-8 -40h122v-133h-148l-44 -220q-16 -81 -71.5 -135.5t-163.5 -54.5q-49 0 -83 11v131q34 -8 68 -8q82 0 97 78l39 198h-99v133h126z" glyph-name="florin.aalt"/><glyph d="M504 409v-2q73 -27 108.5 -71.5t35.5 -119.5q0 -57 -24 -100.5t-64.5 -67.5t-88.5 -36t-102 -12h-5v-102h-82v102h-243v783h243v108h82v-108q103 0 176.5 -54t73.5 -153q0 -110 -110 -167zM197 464h86v170h-86v-170zM455 550q0 76 -92 84v-168q92 10 92 84zM197 149h86 v177h-86v-177zM363 149h5q51 0 86 20.5t35 67.5q0 89 -126 89v-177z" glyph-name="uni0E3F.aalt"/><glyph d="M648 783v-155h-616v155h616zM32 566h616v-155h-227v-411h-162v411h-227v155z" glyph-name="uni20B8.aalt"/><glyph d="M108 855l107 187h179l-158 -187h-128zM737 855l107 187h179l-158 -187h-128zM253 0h-162v783h162v-783zM882 783v-545q0 -117 -73.5 -182.5t-183.5 -65.5q-183 0 -251 168l137 76q34 -89 111 -89q46 0 72 27.5t26 77.5v533h162z" glyph-name="glyph742" horiz-adv-x="988"/><glyph d="M85 623l107 187h179l-158 -187h-128zM394 623l107 187h179l-158 -187h-128zM228 0v534h-156v-534h156zM537 534v-569q0 -229 -229 -229q-32 0 -55 7v131q13 -3 27 -3q51 0 76 22t25 75v566h156z" glyph-name="glyph743" horiz-adv-x="610"/><glyph d="M273 72v-5q0 -67 -38 -129t-103 -106l-59 57q73 48 106 122q-19 -7 -35 -7q-38 0 -63.5 26.5t-25.5 68.5q0 43 30.5 73.5t73.5 30.5q50 0 82 -36t32 -95z" glyph-name="glyph744" horiz-adv-x="340"/><glyph d="M170 -12q-44 0 -76 32t-32 76q0 45 31.5 77t76.5 32t76.5 -32t31.5 -77q0 -44 -31.5 -76t-76.5 -32z" glyph-name="glyph745" horiz-adv-x="340"/><glyph d="M363 166v273q0 58 -14.5 76.5t-65.5 18.5h-121v-534h-130v658h270q43 0 72 -4.5t49 -17t31.5 -27t17 -43.5t7 -56t1.5 -75v-269h-117zM202 492h116v-369h122q51 0 65.5 18.5t14.5 77.5v439h128v-436q0 -46 -2 -74t-8.5 -56t-18.5 -43t-32.5 -27.5t-50.5 -17t-73 -4.5 h-261v492z" glyph-name="afii57636.aalt"/></font>
</defs>
</svg>
