<svg width="147" height="50" viewBox="0 0 147 50" fill="none" xmlns="http://www.w3.org/2000/svg">
<path d="M31.5075 50V37.9988H40V33.4788H31.5075V0H24.8145L0 32.2631V37.9988H26.3615V50H31.5075ZM4.7356 33.4788L26.3615 5.45511V33.4788H4.7356Z" fill="black"/>
<path d="M138.507 50V37.9988H147V33.4788H138.507V0H131.815L107 32.2631V37.9988H133.361V50H138.507ZM111.736 33.4788L133.361 5.45511V33.4788H111.736Z" fill="black"/>
<path d="M98.2653 19.1091V14.363H95.8697V9.57535H90.2113V4.78768H84.0159V0H63.9841V4.78768H57.7887V9.57535H52.1303V14.363H49.7347V19.1507H48V26.0616V30.8493H49.7347V35.637H52.1303V40.4246H57.7887V45.2123H63.9841V50H84.0159V45.2123H90.2113V40.383H95.8697V35.5953H98.2653V30.8077H100V26.02V19.1091H98.2653ZM94.3829 26.02V30.8077H92.0286V35.5953H88.1462V40.383H80.7943V45.1707H67.247V40.383H59.8952V35.5953H56.0127V30.8077H53.6585V26.02V19.1091H56.0127V14.363H59.3995V9.57535H67.247V4.78768H80.7943V9.57535H88.6418V14.363H92.0286V19.1507H94.3829V26.02Z" fill="black"/>
</svg>
