<svg width="314" height="113" viewBox="0 0 314 113" fill="none" xmlns="http://www.w3.org/2000/svg">
<rect width="157.863" height="89.7637" fill="#06ACFF"/>
<rect x="34.5054" y="9.65204" width="224.286" height="93.6245" fill="#06ACFF"/>
<rect x="69.011" y="19.304" width="244.989" height="93.6245" fill="#06ACFF"/>
<path d="M49.4966 60.6042C49.4966 57.4987 47.9731 55.9313 45.1899 54.8766V54.8327C47.2261 53.778 48.4858 52.152 48.4858 49.8083C48.4858 45.6042 44.7651 43.5974 40.9858 43.5974H31.2446V67.0934H41.1323C45.2778 67.0934 49.4966 65.3796 49.4966 60.6042ZM43.7251 50.57C43.7251 52.6794 41.7183 53.1335 39.9897 53.1335H35.9761V48.0798H40.312C41.9526 48.0798 43.7251 48.6218 43.7251 50.57ZM44.7505 59.9743C44.7505 62.0837 42.8169 62.5817 41.0737 62.5817H35.9761V57.3522H40.9126C42.7144 57.3522 44.7505 57.8063 44.7505 59.9743ZM72.2017 43.612H67.3823V57.7917C67.3823 60.7653 65.7271 62.7575 62.7534 62.7575C60.1899 62.7575 58.1831 61.1462 58.1831 57.6745L58.1978 43.612H53.3345V57.7917C53.3345 63.4753 56.2056 67.4157 62.7241 67.4157C69.0815 67.4157 72.187 63.6071 72.187 57.6159L72.2017 43.612ZM88.6079 67.0934V57.5866L97.2065 43.5974H91.6548L86.1616 53.0016L80.7417 43.5974H75.1167L83.7446 57.8063V67.0934H88.6079ZM106.889 67.0934H122.343V62.5524H111.694V57.4987H121.157V52.9431H111.694V48.153H122.255V43.5974H106.889V67.0934ZM140.947 62.0544L142.822 67.0934H147.846L138.837 43.5974H132.993L124.013 67.0934H128.979L130.839 62.0544H140.947ZM132.451 57.5573L135.864 48.3141L139.292 57.5573H132.451ZM168.691 67.0934L163.71 57.7624C166.303 56.7077 168.105 54.5251 168.105 51.0388C168.105 46.0583 164.37 43.5974 159.814 43.5974H150.542V67.0934H155.405V58.6559H158.935L163.388 67.0934H168.691ZM155.39 48.197H159.404C161.25 48.197 163.183 48.8708 163.183 51.1413C163.183 53.3386 161.25 54.1589 159.433 54.1589H155.39V48.197ZM172.485 67.0934H187.368V62.4645H177.319V43.5974H172.485V67.0934ZM198.559 67.0934V57.5866L207.158 43.5974H201.606L196.113 53.0016L190.693 43.5974H185.068L193.696 57.8063V67.0934H198.559ZM235.092 60.6042C235.092 57.4987 233.569 55.9313 230.786 54.8766V54.8327C232.822 53.778 234.082 52.152 234.082 49.8083C234.082 45.6042 230.361 43.5974 226.582 43.5974H216.84V67.0934H226.728C230.874 67.0934 235.092 65.3796 235.092 60.6042ZM229.321 50.57C229.321 52.6794 227.314 53.1335 225.585 53.1335H221.572V48.0798H225.908C227.548 48.0798 229.321 48.6218 229.321 50.57ZM230.346 59.9743C230.346 62.0837 228.413 62.5817 226.669 62.5817H221.572V57.3522H226.508C228.31 57.3522 230.346 57.8063 230.346 59.9743ZM239.165 43.5974V67.0934H244.028V43.5974H239.165ZM267.656 67.0934L262.675 57.7624C265.268 56.7077 267.07 54.5251 267.07 51.0388C267.07 46.0583 263.334 43.5974 258.779 43.5974H249.506V67.0934H254.37V58.6559H257.9L262.353 67.0934H267.656ZM254.355 48.197H258.369C260.214 48.197 262.148 48.8708 262.148 51.1413C262.148 53.3386 260.214 54.1589 258.398 54.1589H254.355V48.197ZM291.899 55.3015C291.899 47.9333 286.816 43.5974 278.642 43.5974H271.45V67.0934H278.54C286.86 67.0934 291.899 62.2888 291.899 55.3015ZM286.918 55.3015C286.918 59.9304 283.564 62.4938 278.686 62.4938H276.298V48.1823H278.759C283.374 48.1823 286.918 50.6725 286.918 55.3015Z" fill="white"/>
</svg>
