<svg xmlns="http://www.w3.org/2000/svg" viewBox="0 0 1430.82 929.27"><title>hero</title><g id="레이어_2" data-name="레이어 2"><g id="Layer_1" data-name="Layer 1"><path d="M964,61.75c0-35.67,27-60.36,59.1-60.36s48.49,22.42,52.45,38.68l-11.79,4.17c-1.91-7.69-11.87-31.13-41-31.13-25,0-46,19.48-46,47.9,0,27.91,19.49,48.64,46.15,48.64,28.27,0,37.87-21.68,41.16-31.5L1076,82.4c-4.18,14.5-19.48,39-53.47,39C990,121.37,964,97.12,964,61.75Z"/><path d="M1327.56,120.12h-13.47l-70.1-100v100h-12.16V2.64H1246l69.37,98.73V2.64h12.15Z"/><path d="M1210.78,47.35V35.86H1205V24.38h-13.66V12.89h-15V1.41h-48.54V12.89h-15V24.38h-13.65V35.86h-5.77V47.35h-4.23V75.41h4.23V86.9h5.77V98.38h13.65v11.49h15v11.48h48.54V109.87h15V98.38H1205V86.9h5.77V75.41H1215V47.35Zm-9.4,16.58V75.41h-5.74V86.9h-9.37V98.38h-17.8v11.49h-32.76V98.38h-17.8V86.9h-9.37V75.41h-5.74V47.35h5.74V35.86h8.16V24.38h19V12.89h32.76V24.38h19V35.86h8.16V47.35h5.74Z"/><path d="M103.25,86.65l11.57-3.22c2.57,13.69,15.39,24.9,29.89,24.9,13.26,0,26.37-6.81,26.37-21.46,0-13.84-12.38-19.12-21-20.8L134.53,63c-5.28-1-13.77-4-19.93-10-4.83-4.69-8.2-11.28-8.2-20.29C106.4,12.67,124.13,0,143.68,0,169,0,180,15.53,182.43,28.13l-11.21,3.51c-2.05-8.35-9.59-20.29-27.83-20.29-12.6,0-24.61,8.21-24.61,20.8,0,8.65,5.2,16.19,17.07,18.54l14.94,2.93c8.2,1.61,16.26,4.17,22.78,10.25a30.68,30.68,0,0,1,10.1,21.61c0,21.09-17,34.42-39,34.42C121.71,119.9,104.94,103.28,103.25,86.65Z"/><path d="M213,118.73h-12.3V1.25H240c28.63,0,41.23,17,41.23,35.23,0,20.06-14.72,36.33-43.21,36.33H213Zm0-57.35h25.42c21.6,0,30.25-12.6,30.25-24.46,0-11.5-6.67-24.1-29.67-24.1H213Z"/><path d="M367.14,1.25V12.67H306V53.32h56V64.68H306V107.3h61.75v11.43H293.68V1.25Z"/><path d="M375,60.35C375,24.68,402,0,434.1,0s48.48,22.41,52.44,38.67l-11.79,4.18c-1.91-7.69-11.87-31.13-40.95-31.13-25,0-46,19.48-46,47.9,0,27.91,19.48,48.64,46.14,48.64,28.27,0,37.87-21.68,41.16-31.5L487,81c-4.17,14.5-19.48,39-53.47,39C401,120,375,95.73,375,60.35Z"/><path d="M525.39,118.73V12.82H486.13V1.25H577V12.82H537.76V118.73Z"/><path d="M624.72,71.19h-24v47.54H588.46V1.25h40.73c28.56,0,41.23,16,41.23,34.27,0,20-14.79,31.28-32.22,33.62l36.18,49.59H659.44ZM628.09,60c21.24,0,29.81-12.16,29.81-24,0-11.57-7.18-23.14-29.59-23.14H600.77V60Z"/><path d="M919.11,118.73H906.88V18h-.07L863.08,118.73h-11L808.73,18.82h-.07v99.91H796.5V1.25h17.43l44,100.71L901.39,1.25h17.72Z"/><polygon points="761.38 1.25 761.38 89.33 756.75 89.33 756.75 101.59 748.51 101.59 748.51 107.73 729.51 107.73 710.52 107.73 710.52 101.59 702.28 101.59 702.28 89.33 697.65 89.33 697.65 1.25 685.38 1.25 685.38 89.33 690.01 89.33 690.01 101.59 698.26 101.59 698.26 113.86 710.52 113.86 710.52 119.99 729.51 119.99 748.51 119.99 748.51 113.86 760.77 113.86 760.77 101.59 769.02 101.59 769.02 89.33 773.64 89.33 773.64 1.25 761.38 1.25"/><path d="M430.87,811.69H443.7l30.46,98.68h.28l30.68-98.68H519l30.89,99.18h.22l30.6-99.18H593L556.45,928H542.89l-31-99.84L480.68,928H467.27Z"/><path d="M762.83,880.93H739.12V928H726.94V811.69h40.31c28.28,0,40.82,15.8,40.82,33.93,0,19.79-14.64,31-31.9,33.28L812,928H797.2Zm3.34-11.09c21,0,29.51-12,29.51-23.79,0-11.45-7.11-22.91-29.3-22.91H739.12v46.7Z"/><path d="M837.6,811.69V916.53h55.17V928H825.42V811.69Z"/><path d="M709.74,856V844.65H704V833.28H690.52V821.91H675.68V810.54H627.62v11.37H612.78v11.37H599.26v11.37h-5.71V856h-4.18V883.8h4.18v11.37h5.71v11.37h13.52v11.37h14.84v11.36h48.06V917.91h14.84V906.54H704V895.17h5.71V883.8h4.19V856Zm-9.3,16.41V883.8h-5.68v11.37h-9.28v11.37H667.86v11.37H635.44V906.54H617.81V895.17h-9.27V883.8h-5.68V856h5.68V844.65h9.27V833.28h17.63V821.91h32.42v11.37h17.62v11.37h9.28V856h5.68Z"/><path d="M995.7,846.16V834.75h-8v-11.4H972.34V811.94h-67V927.73h67v-11.4h15.37V904.92h8v-11.4H1000V846.16Zm-6.87,47.36h-9.76v11.4H966.5v11.41H916.56v-93H966.5v11.4h12.57v11.41h9.76Z"/><path d="M180.61,749.24,167.85,779H155.37l50.11-116.3h13.84L269.5,779H256.59L243.9,749.24Zm4.56-11.1h54l-27-62.86Z"/><path d="M1009.37,778.91H996l-69.39-99v99h-12V662.61h14.07l68.66,97.74V662.61h12Z"/><path d="M1101.22,662.61v11.31h-60.55v40.24h55.4V725.4h-55.4v42.2h61.13v11.31h-73.31V662.61Z"/><path d="M1113.32,662.61h12.83l30.45,98.68h.29l30.67-98.68h13.85l30.89,99.19h.22l30.6-99.19h12.32l-36.54,116.3h-13.56l-31-99.84-31.18,99.84h-13.41Z"/><path d="M291.16,662.61H304l30.45,98.68h.29l30.67-98.68h13.85l30.89,99.19h.21L441,662.61h12.33l-36.54,116.3H403.19l-31-99.84L341,778.91H327.56Z"/><path d="M475.9,725.69v53.22H463.72V662.61H475.9v51.48h66.28V662.61h12.18v116.3H542.18V725.69Z"/><path d="M716.93,662.61V767.45h55.18v11.46H704.75V662.61Z"/><path d="M856.2,662.61v11.31H795.66v40.24h55.39V725.4H795.66v42.2h61.12v11.31h-73.3V662.61Z"/><path d="M687.65,706.86V695.5h-5.71V684.13H668.42V672.76H653.58V661.39H605.53v11.37H590.69v11.37H577.17V695.5h-5.71v11.36h-4.19v27.79h4.19V746h5.71v11.37h13.52v11.36h14.84v11.37h48.05V768.75h14.84V757.39h13.52V746h5.71V734.65h4.19V706.86Zm-9.3,16.42v11.37h-5.69V746h-9.27v11.37H645.77v11.36H613.34V757.39H595.72V746h-9.28V734.65h-5.68V706.86h5.68V695.5h9.28V684.13h17.62V672.76h32.43v11.37h17.62V695.5h9.27v11.36h5.69Z"/><path d="M187.34,153.8v11.42H126.18v40.65h56v11.36h-56v42.63h61.75v11.42H113.87V153.8Z"/><path d="M193.39,239.2,205,236c2.57,13.69,15.38,24.9,29.89,24.9,13.25,0,26.36-6.81,26.36-21.46,0-13.84-12.37-19.12-20.94-20.8l-15.6-3.08c-5.28-1-13.77-4-19.93-10-4.83-4.69-8.2-11.28-8.2-20.29,0-20.07,17.72-32.74,37.28-32.74,25.27,0,36.33,15.53,38.75,28.13l-11.21,3.51c-2.05-8.35-9.59-20.29-27.83-20.29-12.6,0-24.61,8.21-24.61,20.81,0,8.64,5.2,16.18,17.06,18.53l15,2.93c8.2,1.61,16.26,4.17,22.78,10.25A30.68,30.68,0,0,1,273.81,238c0,21.09-17,34.42-39,34.42C211.85,272.45,195.08,255.83,193.39,239.2Z"/><path d="M303.37,153.8V271.28H291.06V153.8Z"/><path d="M419.7,191.74c-3.08-9.52-14.21-27.69-40.5-27.69-27,0-46,22.49-46,48.2,0,26.66,17.58,48.7,46.29,48.7,20.87,0,40-12.81,41.38-35.08H371.8V214.44H434v4.47c0,29.67-20.58,53.54-54.78,53.54-35.68,0-58.75-25.93-58.75-59.54,0-33.84,25.42-60.29,59.19-60.29,28.78,0,45.63,16.56,51.85,34.94Z"/><path d="M546.13,271.28H532.65l-70.1-100v100H450.4V153.8h14.2L534,252.53V153.8h12.16Z"/><path d="M95.85,188.51V176.94H87.09V165.37H70.26V153.8H0V271.28H70.26V259.71H87.09V248.14h8.76V236.57h4.64V188.51Zm-7.53,48.06H77.63v11.57H63.87v11.57H12.3V165.37H63.87v11.57H77.63v11.57H88.32Z"/><path d="M586,153.8h13l30.76,99.68H630l31-99.68h14L706.21,254h.22l30.91-100.2h12.45L712.87,271.28H699.18L667.83,170.42l-31.5,100.86H622.78Z"/><path d="M833.8,153.8v11.42H772.63v40.65h56v11.36h-56v42.63h61.75v11.42h-74V153.8Z"/><path d="M922.07,153.8v11.42H860.91v40.65h56v11.36h-56v42.63h61.74v11.42h-74V153.8Z"/><polygon points="977.71 205.87 977.71 194.25 985.25 194.25 985.25 183.84 994.81 183.84 994.81 173.42 1004.98 173.42 1004.98 163 1014.41 163 1014.41 152.59 1001.13 152.59 1001.13 163 991.7 163 991.7 173.42 981.53 173.42 981.53 183.84 971.98 183.84 971.98 194.25 964.43 194.25 964.43 205.87 950.15 205.87 950.15 153.8 937.96 153.8 937.96 271.28 950.15 271.28 950.15 217.23 964.43 217.23 964.43 228.85 971.98 228.85 971.98 239.26 981.53 239.26 981.53 249.68 991.7 249.68 991.7 260.1 1001.13 260.1 1001.13 270.51 1014.41 270.51 1014.41 260.1 1004.98 260.1 1004.98 249.68 994.81 249.68 994.81 239.26 985.25 239.26 985.25 228.85 977.71 228.85 977.71 217.23 968.65 217.23 968.65 205.87 977.71 205.87"/><path d="M1054.85,266.27c0-13.42,6.31-28.14,26.91-40.83l17.62-10.88c11.17-6.89,20.38-14,20.38-27.63,0-11.89-10.45-23.28-25.46-23.28-12.76,0-20.81,7.69-23.93,14.87A30.64,30.64,0,0,0,1068,190l-12.19-1.74c-.07-16.47,13.93-35.9,38.73-35.9,21.61,0,37.86,16.24,37.86,34.23,0,16.46-9.14,26.25-24.44,35.82l-18.35,11.46c-9.87,6.17-19.29,14.29-19.95,24.81h63.75V269.9h-78.54Z"/><path d="M1142,212.17c0-28.94,16.54-59.76,48.66-59.76s48.08,30.32,48.08,59.11-16.39,59.61-48.59,59.61C1158.15,271.13,1142,241,1142,212.17Zm12.55-.65c0,20.88,10.66,48.37,35.89,48.37s35.76-26.91,35.76-47.72-10.81-48.52-35.9-48.52S1154.53,190.63,1154.53,211.52Z"/><path d="M1246.94,266.27c0-13.42,6.31-28.14,26.91-40.83l17.62-10.88c11.17-6.89,20.38-14,20.38-27.63,0-11.89-10.44-23.28-25.46-23.28-12.76,0-20.81,7.69-23.93,14.87a30.85,30.85,0,0,0-2.39,11.46l-12.19-1.74c-.07-16.47,13.93-35.9,38.73-35.9,21.61,0,37.86,16.24,37.86,34.23,0,16.46-9.14,26.25-24.44,35.82l-18.35,11.46c-9.86,6.17-19.29,14.29-19.94,24.81h63.74V269.9h-78.54Z"/><path d="M1334.07,212.17c0-28.94,16.54-59.76,48.66-59.76s48.09,30.32,48.09,59.11-16.39,59.61-48.59,59.61C1350.24,271.13,1334.07,241,1334.07,212.17Zm12.55-.65c0,20.88,10.66,48.37,35.9,48.37,25.09,0,35.75-26.91,35.75-47.72s-10.81-48.52-35.9-48.52S1346.62,190.63,1346.62,211.52Z"/><path d="M769.58,345.26v6H814v6.82h32.58v8.77h26.59v10.87h27.75v12.4h23v11h15v11.3h13.44V425h9.51v12.85h8.4v12h5.95v35.83h-5.95v12h-8.4V510.5h-9.51v12.58H938.88v11.31h-15v11h-23v12.4H873.17v10.86H846.58v8.77H814v6.82H769.58v6h-86.9v-6H637v-6.82H606v-8.77H577.17V557.83H550.35v-12.4H527v-11H512.11V523.08H499V510.5H488V497.66h-8v-12h-6.19V449.84h6.19v-12h8V425H499V412.43h13.08v-11.3H527v-11h23.31v-12.4h26.82V366.82H606v-8.77h31v-6.82h45.66v-6h86.9m9.17-9.16H673.51v6H627.85v6.82h-31v8.77H568v10.86H541.18v12.4H517.87v11H503v11.31H489.87v12.58H478.79v12.84h-8v12h-6.19v54.16h6.19v12h8v12.85h11.08v12.57H503v11.31h14.92v11h23.31V567H568v10.86h28.83v8.78h31v6.82h45.66v6H778.75v-6h44.41v-6.82h32.59v-8.78h26.58V567h27.76v-12.4H933v-11h15V532.24h13.44V519.67H971V506.82h8.4v-12h6V440.68h-6v-12H971V415.85h-9.52V403.27H948V392H933v-11H910.09v-12.4H882.33V357.66H855.75v-8.77H823.16v-6.82H778.75v-6Z"/><path d="M535.37,489.62l9.48-2.64c2.1,11.22,12.59,20.4,24.47,20.4,10.86,0,21.6-5.58,21.6-17.58,0-11.34-10.14-15.65-17.16-17L561,470.25c-4.32-.84-11.27-3.3-16.31-8.16A22.26,22.26,0,0,1,538,445.47c0-16.44,14.52-26.81,30.53-26.81,20.7,0,29.76,12.71,31.74,23L591,444.57c-1.68-6.84-7.86-16.61-22.8-16.61-10.32,0-20.15,6.71-20.15,17,0,7.08,4.26,13.26,14,15.18l12.24,2.4C581,463.89,587.62,466,593,471a25.11,25.11,0,0,1,8.27,17.69c0,17.28-13.91,28.2-31.91,28.2C550.49,516.86,536.75,503.24,535.37,489.62Z"/><polygon points="686.47 498.06 671.89 498.06 671.89 507.47 645.07 507.47 645.07 498.06 630.49 498.06 630.49 488.66 622.81 488.66 622.81 479.25 618.11 479.25 618.11 469.85 618.11 456.26 622.81 456.26 622.81 446.86 629.5 446.86 629.5 437.45 645.07 437.45 645.07 428.05 671.89 428.05 671.89 437.45 687.46 437.45 687.46 446.86 694.15 446.86 698.88 446.86 698.88 437.45 690.64 437.45 690.64 428.05 678.36 428.05 678.36 418.64 638.6 418.64 638.6 428.05 626.32 428.05 626.32 437.45 615.14 437.45 615.14 446.86 610.41 446.86 610.41 456.26 606.95 456.26 606.95 469.85 606.95 479.25 610.41 479.25 610.41 488.66 615.14 488.66 615.14 498.06 626.32 498.06 626.32 507.47 638.6 507.47 638.6 516.87 678.36 516.87 678.36 507.47 690.64 507.47 690.64 498.06 698.88 498.06 698.88 488.67 686.47 488.67 686.47 498.06"/><rect x="692.91" y="480.59" width="10.28" height="8.4"/><rect x="692.91" y="444.25" width="10.28" height="9.63"/><path d="M785.65,448.36V439H779.1v-9.34H766.51v-9.34H711.63v94.83h54.88v-9.34H779.1v-9.34h6.55v-9.34h3.48V448.36ZM780,487.15h-8v9.34H761.73v9.34h-40.9V429.68h40.9V439H772v9.34h8Z"/><path d="M790.68,420.34h10.47L826,500.81h.24l25-80.47h11.3l25.18,80.88h.18l25-80.88h10l-29.8,94.83H882l-25.31-81.41L831.3,515.17H820.36Z"/></g></g></svg>