<svg xmlns="http://www.w3.org/2000/svg" viewBox="0 0 1248.93 814.55"><title>자산 1</title><g id="레이어_2" data-name="레이어 2"><g id="Layer_1" data-name="Layer 1"><path d="M841.43,53.9c0-31.14,23.6-52.69,51.6-52.69S935.35,20.78,938.81,35l-10.3,3.65c-1.66-6.72-10.36-27.18-35.74-27.18-21.8,0-40.15,17-40.15,41.82,0,24.36,17,42.45,40.28,42.45,24.68,0,33.05-18.92,35.93-27.49l10.36,3.71c-3.65,12.65-17,34-46.67,34C864.13,105.94,841.43,84.78,841.43,53.9Z"/><path d="M1158.8,104.85H1147l-61.19-87.27v87.27h-10.61V2.3h12.4l60.55,86.19V2.3h10.61Z"/><path d="M1056.86,41.33v-10h-5v-10h-11.91v-10h-13.09v-10H984.45v10H971.36v10H959.44v10h-5v10h-3.7v24.5h3.7v10h5v10h11.92v10h13.09v10h42.37v-10h13.09v-10h11.91v-10h5v-10h3.69V41.33Zm-8.2,14.47v10h-5v10h-8.18v10h-15.54v10H991.34v-10H975.8v-10h-8.18v-10h-5V41.33h5v-10h7.12v-10h16.6v-10h28.59v10h16.59v10h7.13v10h5Z"/><path d="M90.13,75.63l10.1-2.81c2.24,12,13.42,21.74,26.08,21.74,11.57,0,23-6,23-18.73,0-12.09-10.81-16.69-18.29-18.16L117.43,55c-4.61-.89-12-3.51-17.39-8.69-4.22-4.09-7.16-9.85-7.16-17.71C92.88,11.06,108.35,0,125.42,0c22,0,31.71,13.55,33.82,24.55l-9.78,3.07c-1.79-7.29-8.38-17.71-24.3-17.71-11,0-21.48,7.16-21.48,18.16,0,7.54,4.54,14.13,14.9,16.17l13,2.56c7.16,1.41,14.19,3.64,19.88,9a26.74,26.74,0,0,1,8.83,18.86c0,18.41-14.84,30.05-34,30.05C106.24,104.66,91.6,90.15,90.13,75.63Z"/><path d="M185.92,103.64H175.17V1.09h34.27c25,0,36,14.83,36,30.75,0,17.52-12.85,31.71-37.72,31.71h-21.8Zm0-50.06H208.1c18.86,0,26.41-11,26.41-21.36,0-10-5.82-21-25.9-21H185.92Z"/><path d="M320.47,1.09v10H267.09V46.54h48.84v9.91H267.09V93.66H321v10H256.34V1.09Z"/><path d="M327.32,52.68C327.32,21.55,350.91,0,378.91,0s42.33,19.56,45.78,33.76L414.4,37.4c-1.67-6.71-10.36-27.17-35.74-27.17-21.8,0-40.15,17-40.15,41.81,0,24.36,17,42.46,40.28,42.46,24.67,0,33-18.93,35.93-27.5l10.35,3.71c-3.64,12.66-17,34-46.67,34C350,104.72,327.32,83.56,327.32,52.68Z"/><path d="M458.6,103.64V11.19H424.33V1.09h79.28v10.1H469.4v92.45Z"/><path d="M545.3,62.14H524.4v41.5H513.66V1.09H549.2c24.94,0,36,13.93,36,29.92,0,17.45-12.92,27.3-28.13,29.34l31.58,43.29h-13Zm2.94-9.78c18.55,0,26-10.61,26-21,0-10.1-6.26-20.2-25.82-20.2h-24V52.36Z"/><path d="M802.27,103.64H791.6V15.73h-.07l-38.17,87.91h-9.59L705.93,16.43h-.07v87.21H695.25V1.09h15.22L748.83,89l38-87.91h15.47Z"/><polygon points="664.59 1.09 664.59 77.97 660.55 77.97 660.55 88.68 653.36 88.68 653.36 94.03 636.78 94.03 620.2 94.03 620.2 88.68 613 88.68 613 77.97 608.96 77.97 608.96 1.09 598.26 1.09 598.26 77.97 602.3 77.97 602.3 88.68 609.49 88.68 609.49 99.39 620.2 99.39 620.2 104.74 636.78 104.74 653.36 104.74 653.36 99.39 664.06 99.39 664.06 88.68 671.26 88.68 671.26 77.97 675.3 77.97 675.3 1.09 664.59 1.09"/><path d="M376.1,711.91h11.2l26.58,86.14h.25l26.77-86.14H453l27,86.58h.19l26.71-86.58h10.76l-31.9,101.51H473.88l-27.09-87.14-27.21,87.14H407.87Z"/><path d="M665.86,772.35h-20.7v41.07H634.53V711.91h35.19c24.68,0,35.63,13.8,35.63,29.62,0,17.28-12.78,27-27.85,29.05l31.27,42.84H695.86Zm2.91-9.68c18.35,0,25.76-10.51,25.76-20.76,0-10-6.2-20-25.57-20h-23.8v40.76Z"/><path d="M731.12,711.91v91.52h48.16v10H720.49V711.91Z"/><path d="M619.52,750.6v-9.92h-5v-9.92h-11.8v-9.93h-13v-9.92H547.84v9.92h-13v9.93H523.09v9.92h-5v9.92h-3.66v24.26h3.66v9.92h5v9.92h11.79v9.93h13v9.92h41.94v-9.92h13V794.7h11.8v-9.92h5v-9.92h3.66V750.6Zm-8.12,14.33v9.93h-5v9.92h-8.1v9.92H583v9.93h-28.3V794.7H539.28v-9.92h-8.1v-9.92h-5V750.6h5v-9.92h8.1v-9.92h15.38v-9.93H583v9.93h15.38v9.92h8.1v9.92h5Z"/><path d="M869.13,742V732h-7v-9.95H848.73v-10H790.24V813.2h58.49v-10h13.42v-10h7v-9.95h3.7V742Zm-6,41.34h-8.52v9.95h-11v10H800.05V722.09h43.58V732h11v10h8.52Z"/><path d="M157.65,645.8l-11.14,25.94H135.62l43.73-101.51h12.09l43.8,101.51H224L212.9,645.8Zm4-9.69h47.16l-23.61-54.87Z"/><path d="M881.06,671.7H869.41l-60.57-86.39V671.7h-10.5V570.18h12.28l59.93,85.31V570.18h10.51Z"/><path d="M965.23,570.18v9.87H912.38v35.13h48.35V625H912.38v36.83h53.35v9.88h-64V570.18Z"/><path d="M971.79,570.18H983l26.58,86.14h.26l26.77-86.14h12.09l27,86.58h.19l26.71-86.58h10.76l-31.9,101.52h-11.84l-27.08-87.15-27.22,87.15h-11.71Z"/><path d="M254.15,570.18h11.2l26.58,86.14h.26L319,570.18h12.09l27,86.58h.19l26.71-86.58h10.76L363.77,671.7H351.93l-27.08-87.15L297.63,671.7H285.92Z"/><path d="M415.41,625.24V671.7H404.77V570.18h10.64v44.94h57.84V570.18h10.64V671.7H473.25V625.24Z"/><path d="M625.79,570.18V661.7H674v10h-58.8V570.18Z"/><path d="M747.36,570.18v9.87H694.51v35.13h48.36V625H694.51v36.83h53.36v9.88h-64V570.18Z"/><path d="M600.23,608.81v-9.92h-5V589h-11.8V579h-13v-9.92h-42V579H515.6V589H503.8v9.92h-5v9.92h-3.65v24.26h3.65V643h5v9.92h11.8v9.92h12.95v9.93h42v-9.93h13v-9.92h11.8V643h5v-9.92h3.66V608.81Zm-8.12,14.33v9.93h-5V643h-8.09v9.92H563.68v9.92H535.37v-9.92H520V643h-8.1v-9.92h-5V608.81h5v-9.92H520V589h15.38V579h28.31V589h15.38v9.92h8.09v9.92h5Z"/><path d="M163.52,126.05v10H110.14v35.49H159v9.91H110.14v37.21H164v10H99.4V126.05Z"/><path d="M168.81,200.6l10.1-2.81c2.24,12,13.42,21.73,26.08,21.73,11.58,0,23-5.94,23-18.73,0-12.08-10.81-16.69-18.29-18.16L196.11,180c-4.61-.9-12-3.52-17.39-8.7-4.22-4.09-7.16-9.84-7.16-17.71C171.56,136,187,125,204.1,125c22.06,0,31.71,13.56,33.82,24.55l-9.78,3.07c-1.79-7.28-8.38-17.71-24.3-17.71-11,0-21.48,7.16-21.48,18.16,0,7.55,4.54,14.13,14.9,16.18l13,2.55c7.16,1.41,14.19,3.65,19.88,9A26.77,26.77,0,0,1,239,199.57c0,18.42-14.84,30.05-34,30.05C184.92,229.62,170.28,215.11,168.81,200.6Z"/><path d="M264.8,126.05V228.6H254.06V126.05Z"/><path d="M366.35,159.17C363.66,150.86,353.94,135,331,135c-23.53,0-40.15,19.63-40.15,42.07,0,23.27,15.35,42.52,40.41,42.52,18.22,0,34.91-11.19,36.12-30.63H324.53V179h54.28v3.9c0,25.89-18,46.73-47.82,46.73-31.14,0-51.27-22.63-51.27-52,0-29.54,22.18-52.62,51.66-52.62,25.12,0,39.83,14.45,45.26,30.49Z"/><path d="M476.7,228.6H464.94l-61.19-87.27V228.6H393.14V126.05h12.4l60.55,86.18V126.05H476.7Z"/><path d="M83.66,156.35v-10.1H76v-10.1H61.33v-10.1H0V228.6H61.33V218.5H76V208.4h7.64V198.3h4.06v-42Zm-6.57,42H67.76v10.1h-12v10.1h-45V136.15h45v10.1h12v10.1h9.33Z"/><path d="M511.52,126.05h11.31l26.86,87h.25l27-87H589.2l27.24,87.46h.19l27-87.46h10.87L622.25,228.6h-12l-27.37-88-27.49,88H543.61Z"/><path d="M727.8,126.05v10H674.42v35.49h48.84v9.91H674.42v37.21h53.89v10H663.68V126.05Z"/><path d="M804.85,126.05v10H751.47v35.49h48.84v9.91H751.47v37.21h53.89v10H740.72V126.05Z"/><polygon points="853.42 171.51 853.42 161.36 860.01 161.36 860.01 152.27 868.35 152.27 868.35 143.18 877.22 143.18 877.22 134.09 885.46 134.09 885.46 125 873.87 125 873.87 134.09 865.63 134.09 865.63 143.18 856.76 143.18 856.76 152.27 848.42 152.27 848.42 161.36 841.83 161.36 841.83 171.51 829.36 171.51 829.36 126.05 818.72 126.05 818.72 228.6 829.36 228.6 829.36 181.42 841.83 181.42 841.83 191.56 848.42 191.56 848.42 200.65 856.76 200.65 856.76 209.75 865.63 209.75 865.63 218.84 873.87 218.84 873.87 227.93 885.46 227.93 885.46 218.84 877.22 218.84 877.22 209.75 868.35 209.75 868.35 200.65 860.01 200.65 860.01 191.56 853.42 191.56 853.42 181.42 845.52 181.42 845.52 171.51 853.42 171.51"/><path d="M920.76,224.23c0-11.71,5.5-24.56,23.48-35.64l15.38-9.5c9.75-6,17.79-12.21,17.79-24.12,0-10.38-9.11-20.32-22.22-20.32-11.14,0-18.17,6.71-20.89,13a27.06,27.06,0,0,0-2.09,10l-10.63-1.52c-.06-14.37,12.15-31.33,33.8-31.33,18.87,0,33,14.18,33,29.88,0,14.37-8,22.91-21.34,31.27l-16,10c-8.61,5.38-16.84,12.47-17.41,21.65h55.64v9.81H920.76Z"/><path d="M996.81,177c0-25.25,14.43-52.16,42.48-52.16s42,26.46,42,51.59-14.31,52-42.42,52C1010.93,228.47,996.81,202.13,996.81,177Zm11-.57c0,18.23,9.31,42.23,31.34,42.23s31.2-23.49,31.2-41.66-9.43-42.35-31.33-42.35S1007.76,158.2,1007.76,176.43Z"/><path d="M1088.43,224.23c0-11.71,5.51-24.56,23.48-35.64l15.39-9.5c9.75-6,17.78-12.21,17.78-24.12,0-10.38-9.11-20.32-22.21-20.32-11.15,0-18.17,6.71-20.89,13a26.85,26.85,0,0,0-2.09,10l-10.64-1.52c-.06-14.37,12.16-31.33,33.8-31.33,18.87,0,33,14.18,33,29.88,0,14.37-8,22.91-21.33,31.27l-16,10c-8.61,5.38-16.84,12.47-17.41,21.65H1157v9.81h-68.56Z"/><path d="M1164.48,177c0-25.25,14.44-52.16,42.48-52.16s42,26.46,42,51.59-14.31,52-42.41,52C1178.6,228.47,1164.48,202.13,1164.48,177Zm11-.57c0,18.23,9.31,42.23,31.34,42.23S1238,195.17,1238,177s-9.44-42.35-31.34-42.35S1175.43,158.2,1175.43,176.43Z"/><path d="M671.75,293.18v5.21h38.77v5.95H739V312h23.21v9.48h24.22V332.3h20v9.64h13.1v9.87h11.73v11h8.3V374h7.34v10.46h5.19v31.28H846.9V426.2h-7.34v11.21h-8.3v11H819.53v9.87h-13.1v9.64h-20v10.82H762.17v9.48H739v7.66H710.52v5.95H671.75V507H595.9v-5.21H556v-5.95H529V488.2H503.8v-9.48H480.39V467.9H460v-9.64H447v-9.87H435.6v-11h-9.68V426.2h-7V415.74h-5.4V384.46h5.4V374h7V362.79h9.68v-11H447v-9.87h13V332.3h20.35V321.48H503.8V312H529v-7.66H556v-5.95H595.9v-5.21h75.85m8-8H587.9v5.21H548v5.95H521V304H495.8v9.48H472.39V324.3H452v9.64H439v9.87H427.6v11h-9.68V366h-7v10.46h-5.4v47.28h5.4V434.2h7v11.21h9.68v11H439v9.87h13v9.64h20.35v10.82H495.8v9.48H521v7.66H548v5.95H587.9V515h91.85v-5.21h38.77v-5.95H747V496.2h23.21v-9.48h24.22V475.9h20v-9.64h13.1v-9.87h11.73v-11h8.3V434.2h7.34V423.74h5.19V376.46H854.9V366h-7.34V354.79h-8.3v-11H827.53v-9.87h-13.1V324.3h-20V313.48H770.17V304H747v-7.66H718.52v-5.95H679.75v-5.21Z"/><path d="M467.31,419.19l8.27-2.31c1.84,9.79,11,17.81,21.37,17.81,9.48,0,18.85-4.87,18.85-15.35,0-9.89-8.85-13.66-15-14.87l-11.15-2.2a29.81,29.81,0,0,1-14.24-7.12,19.4,19.4,0,0,1-5.87-14.5c0-14.35,12.67-23.41,26.66-23.41,18.06,0,26,11.1,27.7,20.11l-8,2.51c-1.46-6-6.86-14.5-19.89-14.5-9,0-17.6,5.86-17.6,14.87,0,6.18,3.72,11.57,12.2,13.25l10.68,2.09c5.87,1.15,11.63,3,16.29,7.33a21.91,21.91,0,0,1,7.22,15.45C524.8,433.43,512.66,443,497,443,480.51,443,468.52,431.07,467.31,419.19Z"/><polygon points="599.21 426.55 586.48 426.55 586.48 434.76 563.06 434.76 563.06 426.55 550.34 426.55 550.34 418.34 543.64 418.34 543.64 410.13 539.54 410.13 539.54 401.92 539.54 390.07 543.64 390.07 543.64 381.86 549.48 381.86 549.48 373.65 563.06 373.65 563.06 365.44 586.48 365.44 586.48 373.65 600.07 373.65 600.07 381.86 605.9 381.86 610.04 381.86 610.04 373.65 602.84 373.65 602.84 365.44 592.12 365.44 592.12 357.23 557.42 357.23 557.42 365.44 546.7 365.44 546.7 373.65 536.94 373.65 536.94 381.86 532.82 381.86 532.82 390.07 529.79 390.07 529.79 401.92 529.79 410.13 532.82 410.13 532.82 418.34 536.94 418.34 536.94 426.55 546.7 426.55 546.7 434.76 557.42 434.76 557.42 442.97 592.12 442.97 592.12 434.76 602.84 434.76 602.84 426.55 610.04 426.55 610.04 418.36 599.21 418.36 599.21 426.55"/><rect x="604.83" y="411.31" width="8.97" height="7.34"/><rect x="604.83" y="379.58" width="8.97" height="8.41"/><path d="M685.78,383.17V375h-5.72v-8.15h-11v-8.16H621.16v82.78h47.91v-8.16h11v-8.15h5.72V417h3V383.17ZM680.86,417h-7v8.15h-9v8.15H629.2V366.87h35.7V375h9v8.15h7Z"/><path d="M690.17,358.71h9.14L721,429h.21L743,358.71h9.85l22,70.6H775l21.78-70.6h8.77l-26,82.78H769.9l-22.08-71.06-22.2,71.06h-9.54Z"/></g></g></svg>